<?xml version="1.0" encoding="UTF-8" standalone="no"?>
<!DOCTYPE svg PUBLIC "-//W3C//DTD SVG 1.1//EN"
 "http://www.w3.org/Graphics/SVG/1.1/DTD/svg11.dtd">
<!-- Generated by graphviz version 2.38.0 (20140413.2041)
 -->
<!-- Title: Grafo Pages: 1 -->
<svg width="172pt" height="548pt"
 viewBox="0.00 0.00 172.00 548.00" xmlns="http://www.w3.org/2000/svg" xmlns:xlink="http://www.w3.org/1999/xlink">
<g id="graph0" class="graph" transform="scale(1 1) rotate(0) translate(4 544)">
<title>Grafo</title>
<polygon fill="white" stroke="none" points="-4,4 -4,-544 168,-544 168,4 -4,4"/>
<!-- 0 -->
<g id="node1" class="node"><title>0</title>
<ellipse fill="red" stroke="black" cx="82" cy="-522" rx="27" ry="18"/>
</g>
<!-- 1 -->
<g id="node2" class="node"><title>1</title>
<ellipse fill="none" stroke="black" cx="82" cy="-450" rx="27" ry="18"/>
</g>
<!-- 0&#45;&gt;1 -->
<g id="edge1" class="edge"><title>0&#45;&gt;1</title>
<path fill="none" stroke="black" d="M82,-503.697C82,-495.983 82,-486.712 82,-478.112"/>
<polygon fill="black" stroke="black" points="85.5001,-478.104 82,-468.104 78.5001,-478.104 85.5001,-478.104"/>
</g>
<!-- 2 -->
<g id="node3" class="node"><title>2</title>
<ellipse fill="none" stroke="black" cx="82" cy="-378" rx="27" ry="18"/>
</g>
<!-- 1&#45;&gt;2 -->
<g id="edge2" class="edge"><title>1&#45;&gt;2</title>
<path fill="none" stroke="black" d="M82,-431.697C82,-423.983 82,-414.712 82,-406.112"/>
<polygon fill="black" stroke="black" points="85.5001,-406.104 82,-396.104 78.5001,-406.104 85.5001,-406.104"/>
</g>
<!-- 3 -->
<g id="node4" class="node"><title>3</title>
<ellipse fill="none" stroke="black" cx="82" cy="-306" rx="27" ry="18"/>
</g>
<!-- 2&#45;&gt;3 -->
<g id="edge3" class="edge"><title>2&#45;&gt;3</title>
<path fill="none" stroke="black" d="M82,-359.697C82,-351.983 82,-342.712 82,-334.112"/>
<polygon fill="black" stroke="black" points="85.5001,-334.104 82,-324.104 78.5001,-334.104 85.5001,-334.104"/>
</g>
<!-- 4 -->
<g id="node5" class="node"><title>4</title>
<ellipse fill="none" stroke="black" cx="82" cy="-234" rx="27" ry="18"/>
</g>
<!-- 3&#45;&gt;4 -->
<g id="edge4" class="edge"><title>3&#45;&gt;4</title>
<path fill="none" stroke="black" d="M82,-287.697C82,-279.983 82,-270.712 82,-262.112"/>
<polygon fill="black" stroke="black" points="85.5001,-262.104 82,-252.104 78.5001,-262.104 85.5001,-262.104"/>
</g>
<!-- 5 -->
<g id="node6" class="node"><title>5</title>
<ellipse fill="none" stroke="black" cx="27" cy="-162" rx="27" ry="18"/>
</g>
<!-- 4&#45;&gt;5 -->
<g id="edge5" class="edge"><title>4&#45;&gt;5</title>
<path fill="none" stroke="black" d="M70.0658,-217.811C62.7864,-208.546 53.3374,-196.52 45.1456,-186.094"/>
<polygon fill="black" stroke="black" points="47.8413,-183.86 38.9109,-178.159 42.337,-188.185 47.8413,-183.86"/>
</g>
<!-- 8 -->
<g id="node9" class="node"><title>8</title>
<ellipse fill="none" stroke="black" cx="137" cy="-162" rx="27" ry="18"/>
</g>
<!-- 4&#45;&gt;8 -->
<g id="edge6" class="edge"><title>4&#45;&gt;8</title>
<path fill="none" stroke="black" d="M93.9342,-217.811C101.214,-208.546 110.663,-196.52 118.854,-186.094"/>
<polygon fill="black" stroke="black" points="121.663,-188.185 125.089,-178.159 116.159,-183.86 121.663,-188.185"/>
</g>
<!-- 6 -->
<g id="node7" class="node"><title>6</title>
<ellipse fill="none" stroke="black" cx="27" cy="-90" rx="27" ry="18"/>
</g>
<!-- 5&#45;&gt;6 -->
<g id="edge7" class="edge"><title>5&#45;&gt;6</title>
<path fill="none" stroke="black" d="M27,-143.697C27,-135.983 27,-126.712 27,-118.112"/>
<polygon fill="black" stroke="black" points="30.5001,-118.104 27,-108.104 23.5001,-118.104 30.5001,-118.104"/>
</g>
<!-- 7 -->
<g id="node8" class="node"><title>7</title>
<ellipse fill="none" stroke="black" cx="46" cy="-18" rx="27" ry="18"/>
</g>
<!-- 6&#45;&gt;7 -->
<g id="edge8" class="edge"><title>6&#45;&gt;7</title>
<path fill="none" stroke="black" d="M31.5994,-72.055C33.7465,-64.1446 36.3535,-54.5398 38.7561,-45.6879"/>
<polygon fill="black" stroke="black" points="42.2012,-46.3567 41.443,-35.789 35.4456,-44.523 42.2012,-46.3567"/>
</g>
<!-- 7&#45;&gt;4 -->
<g id="edge9" class="edge"><title>7&#45;&gt;4</title>
<path fill="none" stroke="black" d="M52.3626,-35.9576C55.9909,-46.2488 60.3331,-59.7243 63,-72 73.0926,-118.456 78.1383,-173.696 80.4034,-205.906"/>
<polygon fill="black" stroke="black" points="76.9121,-206.155 81.0682,-215.901 83.8967,-205.69 76.9121,-206.155"/>
</g>
<!-- 9 -->
<g id="node10" class="node"><title>9</title>
<ellipse fill="none" stroke="black" cx="137" cy="-90" rx="27" ry="18"/>
</g>
<!-- 8&#45;&gt;9 -->
<g id="edge10" class="edge"><title>8&#45;&gt;9</title>
<path fill="none" stroke="black" d="M137,-143.697C137,-135.983 137,-126.712 137,-118.112"/>
<polygon fill="black" stroke="black" points="140.5,-118.104 137,-108.104 133.5,-118.104 140.5,-118.104"/>
</g>
<!-- 10 -->
<g id="node11" class="node"><title>10</title>
<ellipse fill="blue" stroke="black" cx="137" cy="-18" rx="27" ry="18"/>
</g>
<!-- 9&#45;&gt;10 -->
<g id="edge11" class="edge"><title>9&#45;&gt;10</title>
<path fill="none" stroke="black" d="M137,-71.6966C137,-63.9827 137,-54.7125 137,-46.1124"/>
<polygon fill="black" stroke="black" points="140.5,-46.1043 137,-36.1043 133.5,-46.1044 140.5,-46.1043"/>
</g>
</g>
</svg>
