<?xml version="1.0" encoding="UTF-8" standalone="no"?>
<!DOCTYPE svg PUBLIC "-//W3C//DTD SVG 1.1//EN"
 "http://www.w3.org/Graphics/SVG/1.1/DTD/svg11.dtd">
<!-- Generated by graphviz version 2.38.0 (20140413.2041)
 -->
<!-- Title: Llamadas Pages: 1 -->
<svg width="2196pt" height="476pt"
 viewBox="0.00 0.00 2195.62 476.00" xmlns="http://www.w3.org/2000/svg" xmlns:xlink="http://www.w3.org/1999/xlink">
<g id="graph0" class="graph" transform="scale(1 1) rotate(0) translate(4 472)">
<title>Llamadas</title>
<polygon fill="white" stroke="none" points="-4,4 -4,-472 2191.62,-472 2191.62,4 -4,4"/>
<!-- 0 -->
<g id="node1" class="node"><title>0</title>
<ellipse fill="red" stroke="black" cx="941.531" cy="-450" rx="27" ry="18"/>
</g>
<!-- 8 -->
<g id="node9" class="node"><title>8</title>
<ellipse fill="none" stroke="black" cx="941.531" cy="-378" rx="33.5952" ry="18"/>
<text text-anchor="middle" x="941.531" y="-374.3" font-family="Times New Roman,serif" font-size="14.00">main()</text>
</g>
<!-- 0&#45;&gt;8 -->
<g id="edge1" class="edge"><title>0&#45;&gt;8</title>
<path fill="none" stroke="black" d="M941.531,-431.697C941.531,-423.983 941.531,-414.712 941.531,-406.112"/>
<polygon fill="black" stroke="black" points="945.031,-406.104 941.531,-396.104 938.031,-406.104 945.031,-406.104"/>
</g>
<!-- 1 -->
<g id="node2" class="node"><title>1</title>
<ellipse fill="none" stroke="black" cx="329.531" cy="-234" rx="115.88" ry="18"/>
<text text-anchor="middle" x="329.531" y="-230.3" font-family="Times New Roman,serif" font-size="14.00">PruebaTransitivaIntermedia()</text>
</g>
<!-- 9 -->
<g id="node10" class="node"><title>9</title>
<ellipse fill="none" stroke="black" cx="941.531" cy="-90" rx="81.4863" ry="18"/>
<text text-anchor="middle" x="941.531" y="-86.3" font-family="Times New Roman,serif" font-size="14.00">imprimirconintro(c)</text>
</g>
<!-- 1&#45;&gt;9 -->
<g id="edge2" class="edge"><title>1&#45;&gt;9</title>
<path fill="none" stroke="black" d="M355.709,-216.337C374.981,-206.151 401.439,-192.682 424.531,-180 452.123,-164.846 455.704,-154.069 485.531,-144 606.798,-103.06 755.86,-92.8111 849.873,-90.7399"/>
<polygon fill="black" stroke="black" points="849.996,-94.2383 859.926,-90.545 849.86,-87.2396 849.996,-94.2383"/>
</g>
<!-- 1&#45;&gt;9 -->
<g id="edge4" class="edge"><title>1&#45;&gt;9</title>
<path fill="none" stroke="black" d="M369.862,-217.037C391.758,-206.773 418.907,-192.974 442.531,-180 470.123,-164.846 473.704,-154.069 503.531,-144 619.028,-105.008 759.736,-93.856 850.014,-91.0936"/>
<polygon fill="black" stroke="black" points="850.324,-94.5864 860.223,-90.8105 850.13,-87.5891 850.324,-94.5864"/>
</g>
<!-- 11 -->
<g id="node12" class="node"><title>11</title>
<ellipse fill="none" stroke="black" cx="329.531" cy="-162" rx="94.7833" ry="18"/>
<text text-anchor="middle" x="329.531" y="-158.3" font-family="Times New Roman,serif" font-size="14.00">PruebaTransitivaFinal()</text>
</g>
<!-- 1&#45;&gt;11 -->
<g id="edge3" class="edge"><title>1&#45;&gt;11</title>
<path fill="none" stroke="black" d="M329.531,-215.697C329.531,-207.983 329.531,-198.712 329.531,-190.112"/>
<polygon fill="black" stroke="black" points="333.031,-190.104 329.531,-180.104 326.031,-190.104 333.031,-190.104"/>
</g>
<!-- 2 -->
<g id="node3" class="node"><title>2</title>
<ellipse fill="none" stroke="black" cx="1078.53" cy="-234" rx="55.4913" ry="18"/>
<text text-anchor="middle" x="1078.53" y="-230.3" font-family="Times New Roman,serif" font-size="14.00">PruebaFor()</text>
</g>
<!-- 2&#45;&gt;9 -->
<g id="edge5" class="edge"><title>2&#45;&gt;9</title>
<path fill="none" stroke="black" d="M1067.44,-216.254C1054.66,-197.579 1032.45,-166.979 1009.53,-144 998.643,-133.085 985.509,-122.373 973.698,-113.468"/>
<polygon fill="black" stroke="black" points="975.506,-110.453 965.383,-107.326 971.347,-116.083 975.506,-110.453"/>
</g>
<!-- 3 -->
<g id="node4" class="node"><title>3</title>
<ellipse fill="none" stroke="black" cx="1124.53" cy="-162" rx="63.0888" ry="18"/>
<text text-anchor="middle" x="1124.53" y="-158.3" font-family="Times New Roman,serif" font-size="14.00">PruebaWhile()</text>
</g>
<!-- 3&#45;&gt;9 -->
<g id="edge6" class="edge"><title>3&#45;&gt;9</title>
<path fill="none" stroke="black" d="M1081.65,-148.647C1050.95,-138.128 1010.38,-122.827 980.584,-110.632"/>
<polygon fill="black" stroke="black" points="981.892,-107.385 971.314,-106.792 979.213,-113.852 981.892,-107.385"/>
</g>
<!-- 3&#45;&gt;9 -->
<g id="edge7" class="edge"><title>3&#45;&gt;9</title>
<path fill="none" stroke="black" d="M1088.38,-147.17C1060.27,-136.42 1021.01,-121.402 990.155,-109.6"/>
<polygon fill="black" stroke="black" points="991.048,-106.194 980.457,-105.89 988.547,-112.732 991.048,-106.194"/>
</g>
<!-- 3&#45;&gt;9 -->
<g id="edge8" class="edge"><title>3&#45;&gt;9</title>
<path fill="none" stroke="black" d="M1096.18,-145.811C1069.92,-134.733 1030.78,-119.707 998.276,-108.189"/>
<polygon fill="black" stroke="black" points="999.017,-104.74 988.422,-104.736 996.701,-111.346 999.017,-104.74"/>
</g>
<!-- 4 -->
<g id="node5" class="node"><title>4</title>
<ellipse fill="none" stroke="black" cx="296.531" cy="-306" rx="83.3857" ry="18"/>
<text text-anchor="middle" x="296.531" y="-302.3" font-family="Times New Roman,serif" font-size="14.00">PruebaDevolucion()</text>
</g>
<!-- 14 -->
<g id="node15" class="node"><title>14</title>
<ellipse fill="none" stroke="black" cx="585.531" cy="-234" rx="48.1917" ry="18"/>
<text text-anchor="middle" x="585.531" y="-230.3" font-family="Times New Roman,serif" font-size="14.00">devolver()</text>
</g>
<!-- 4&#45;&gt;14 -->
<g id="edge9" class="edge"><title>4&#45;&gt;14</title>
<path fill="none" stroke="black" d="M352.648,-292.526C398.677,-282.143 465.475,-266.731 523.531,-252 528.409,-250.762 533.493,-249.433 538.557,-248.083"/>
<polygon fill="black" stroke="black" points="539.471,-251.462 548.216,-245.48 537.65,-244.703 539.471,-251.462"/>
</g>
<!-- 5 -->
<g id="node6" class="node"><title>5</title>
<ellipse fill="none" stroke="black" cx="484.531" cy="-306" rx="87.1846" ry="18"/>
<text text-anchor="middle" x="484.531" y="-302.3" font-family="Times New Roman,serif" font-size="14.00">PruebaLogica(n1,n2)</text>
</g>
<!-- 5&#45;&gt;14 -->
<g id="edge10" class="edge"><title>5&#45;&gt;14</title>
<path fill="none" stroke="black" d="M508.211,-288.588C522.248,-278.859 540.18,-266.431 555.24,-255.994"/>
<polygon fill="black" stroke="black" points="557.499,-258.687 563.724,-250.114 553.511,-252.933 557.499,-258.687"/>
</g>
<!-- 6 -->
<g id="node7" class="node"><title>6</title>
<ellipse fill="none" stroke="black" cx="117.531" cy="-306" rx="77.1866" ry="18"/>
<text text-anchor="middle" x="117.531" y="-302.3" font-family="Times New Roman,serif" font-size="14.00">PruebaTransitiva()</text>
</g>
<!-- 6&#45;&gt;1 -->
<g id="edge12" class="edge"><title>6&#45;&gt;1</title>
<path fill="none" stroke="black" d="M160.177,-290.919C192.56,-280.226 237.403,-265.419 272.81,-253.728"/>
<polygon fill="black" stroke="black" points="274.13,-256.978 282.529,-250.519 271.936,-250.331 274.13,-256.978"/>
</g>
<!-- 6&#45;&gt;9 -->
<g id="edge11" class="edge"><title>6&#45;&gt;9</title>
<path fill="none" stroke="black" d="M169.864,-292.634C178.41,-291.007 187.185,-289.415 195.531,-288 306.207,-269.23 338.218,-284.949 445.531,-252 480.494,-241.265 485.476,-229.34 519.531,-216 642.695,-167.755 792.436,-126.596 876.452,-105.7"/>
<polygon fill="black" stroke="black" points="877.496,-109.047 886.366,-103.253 875.818,-102.251 877.496,-109.047"/>
</g>
<!-- 6&#45;&gt;9 -->
<g id="edge13" class="edge"><title>6&#45;&gt;9</title>
<path fill="none" stroke="black" d="M177.742,-294.506C189.647,-292.248 201.999,-289.956 213.531,-288 324.207,-269.23 356.218,-284.949 463.531,-252 498.494,-241.265 503.476,-229.34 537.531,-216 657.936,-168.836 803.742,-128.443 883.19,-107.134"/>
<polygon fill="black" stroke="black" points="884.258,-110.472 893.013,-104.506 882.448,-103.71 884.258,-110.472"/>
</g>
<!-- 7 -->
<g id="node8" class="node"><title>7</title>
<ellipse fill="none" stroke="black" cx="755.531" cy="-234" rx="103.982" ry="18"/>
<text text-anchor="middle" x="755.531" y="-230.3" font-family="Times New Roman,serif" font-size="14.00">PruebaParametros(p1,p2)</text>
</g>
<!-- 7&#45;&gt;9 -->
<g id="edge14" class="edge"><title>7&#45;&gt;9</title>
<path fill="none" stroke="black" d="M777.598,-216.153C811.057,-190.609 874.675,-142.04 912.059,-113.5"/>
<polygon fill="black" stroke="black" points="914.242,-116.237 920.066,-107.387 909.994,-110.673 914.242,-116.237"/>
</g>
<!-- 8&#45;&gt;1 -->
<g id="edge21" class="edge"><title>8&#45;&gt;1</title>
<path fill="none" stroke="black" d="M907.699,-376.315C746.421,-372.891 62.1763,-356.482 31.5306,-324 -26.7093,-262.269 98.9061,-242.791 204.564,-236.952"/>
<polygon fill="black" stroke="black" points="204.913,-240.438 214.719,-236.428 204.552,-233.448 204.913,-240.438"/>
</g>
<!-- 8&#45;&gt;2 -->
<g id="edge17" class="edge"><title>8&#45;&gt;2</title>
<path fill="none" stroke="black" d="M961.648,-363.354C975.783,-353.296 994.732,-338.836 1009.53,-324 1029.32,-304.163 1048.57,-278.646 1061.69,-260.024"/>
<polygon fill="black" stroke="black" points="1064.61,-261.956 1067.44,-251.746 1058.86,-257.963 1064.61,-261.956"/>
</g>
<!-- 8&#45;&gt;3 -->
<g id="edge18" class="edge"><title>8&#45;&gt;3</title>
<path fill="none" stroke="black" d="M971.231,-369.046C1018.08,-354.676 1107.4,-319.419 1142.53,-252 1152.72,-232.447 1146.4,-207.694 1138.57,-189.259"/>
<polygon fill="black" stroke="black" points="1141.67,-187.607 1134.29,-179.998 1135.31,-190.544 1141.67,-187.607"/>
</g>
<!-- 8&#45;&gt;4 -->
<g id="edge24" class="edge"><title>8&#45;&gt;4</title>
<path fill="none" stroke="black" d="M908.062,-374.814C821.736,-368.954 584.575,-351.454 388.531,-324 381.149,-322.966 373.457,-321.757 365.804,-320.468"/>
<polygon fill="black" stroke="black" points="366.245,-316.992 355.795,-318.736 365.051,-323.89 366.245,-316.992"/>
</g>
<!-- 8&#45;&gt;5 -->
<g id="edge27" class="edge"><title>8&#45;&gt;5</title>
<path fill="none" stroke="black" d="M909.121,-372.569C845.859,-363.846 701.528,-343.591 580.531,-324 573.153,-322.806 565.465,-321.517 557.793,-320.203"/>
<polygon fill="black" stroke="black" points="558.194,-316.721 547.744,-318.467 557.002,-323.619 558.194,-316.721"/>
</g>
<!-- 8&#45;&gt;6 -->
<g id="edge19" class="edge"><title>8&#45;&gt;6</title>
<path fill="none" stroke="black" d="M907.59,-376.022C802.626,-372.686 474.109,-359.897 204.531,-324 197.399,-323.05 189.97,-321.881 182.592,-320.603"/>
<polygon fill="black" stroke="black" points="183.055,-317.13 172.593,-318.804 181.815,-324.019 183.055,-317.13"/>
</g>
<!-- 8&#45;&gt;7 -->
<g id="edge22" class="edge"><title>8&#45;&gt;7</title>
<path fill="none" stroke="black" d="M922.922,-362.777C909.177,-352.203 890.064,-337.357 873.531,-324 854.143,-308.336 850.28,-303.205 830.531,-288 817.058,-277.628 801.795,-266.7 788.572,-257.48"/>
<polygon fill="black" stroke="black" points="790.429,-254.508 780.216,-251.69 786.442,-260.262 790.429,-254.508"/>
</g>
<!-- 8&#45;&gt;9 -->
<g id="edge15" class="edge"><title>8&#45;&gt;9</title>
<path fill="none" stroke="black" d="M922.641,-362.817C895.86,-317.534 893.971,-175.951 916.973,-117.08"/>
<polygon fill="black" stroke="black" points="920.271,-118.281 921.215,-107.728 913.896,-115.389 920.271,-118.281"/>
</g>
<!-- 8&#45;&gt;9 -->
<g id="edge20" class="edge"><title>8&#45;&gt;9</title>
<path fill="none" stroke="black" d="M928.328,-361.216C911.09,-314.377 910.005,-175.807 925.072,-117.416"/>
<polygon fill="black" stroke="black" points="928.434,-118.387 927.96,-107.803 921.73,-116.373 928.434,-118.387"/>
</g>
<!-- 8&#45;&gt;9 -->
<g id="edge23" class="edge"><title>8&#45;&gt;9</title>
<path fill="none" stroke="black" d="M934.705,-359.966C926.322,-312.079 925.836,-175.98 933.245,-117.852"/>
<polygon fill="black" stroke="black" points="936.709,-118.351 934.72,-107.945 929.786,-117.32 936.709,-118.351"/>
</g>
<!-- 8&#45;&gt;9 -->
<g id="edge25" class="edge"><title>8&#45;&gt;9</title>
<path fill="none" stroke="black" d="M941.531,-359.966C941.531,-312.291 941.531,-177.185 941.531,-118.63"/>
<polygon fill="black" stroke="black" points="945.031,-118.306 941.531,-108.306 938.031,-118.306 945.031,-118.306"/>
</g>
<!-- 8&#45;&gt;9 -->
<g id="edge28" class="edge"><title>8&#45;&gt;9</title>
<path fill="none" stroke="black" d="M948.356,-359.966C956.739,-312.079 957.225,-175.98 949.816,-117.852"/>
<polygon fill="black" stroke="black" points="953.275,-117.32 948.341,-107.945 946.352,-118.351 953.275,-117.32"/>
</g>
<!-- 8&#45;&gt;9 -->
<g id="edge29" class="edge"><title>8&#45;&gt;9</title>
<path fill="none" stroke="black" d="M954.734,-361.216C971.971,-314.377 973.057,-175.807 957.99,-117.416"/>
<polygon fill="black" stroke="black" points="961.331,-116.373 955.101,-107.803 954.627,-118.387 961.331,-116.373"/>
</g>
<!-- 8&#45;&gt;9 -->
<g id="edge31" class="edge"><title>8&#45;&gt;9</title>
<path fill="none" stroke="black" d="M960.42,-362.817C987.201,-317.534 989.091,-175.951 966.089,-117.08"/>
<polygon fill="black" stroke="black" points="969.165,-115.389 961.847,-107.728 962.79,-118.281 969.165,-115.389"/>
</g>
<!-- 10 -->
<g id="node11" class="node"><title>10</title>
<ellipse fill="none" stroke="black" cx="705.531" cy="-306" rx="116.18" ry="18"/>
<text text-anchor="middle" x="705.531" y="-302.3" font-family="Times New Roman,serif" font-size="14.00">PruebaConcatenacion(c1,c2)</text>
</g>
<!-- 8&#45;&gt;10 -->
<g id="edge26" class="edge"><title>8&#45;&gt;10</title>
<path fill="none" stroke="black" d="M912.592,-368.417C876.396,-357.68 813.468,-339.015 766.459,-325.072"/>
<polygon fill="black" stroke="black" points="767.267,-321.661 756.685,-322.173 765.276,-328.372 767.267,-321.661"/>
</g>
<!-- 12 -->
<g id="node13" class="node"><title>12</title>
<ellipse fill="none" stroke="black" cx="168.531" cy="-162" rx="48.1917" ry="18"/>
<text text-anchor="middle" x="168.531" y="-158.3" font-family="Times New Roman,serif" font-size="14.00">PruebaIf()</text>
</g>
<!-- 8&#45;&gt;12 -->
<g id="edge16" class="edge"><title>8&#45;&gt;12</title>
<path fill="none" stroke="black" d="M907.845,-376.358C744.885,-373.091 44.851,-357.16 13.5306,-324 -36.0357,-271.522 68.3069,-210.287 129.032,-180.739"/>
<polygon fill="black" stroke="black" points="130.86,-183.745 138.373,-176.276 127.841,-177.429 130.86,-183.745"/>
</g>
<!-- 13 -->
<g id="node14" class="node"><title>13</title>
<ellipse fill="none" stroke="black" cx="1332.53" cy="-162" rx="126.978" ry="18"/>
<text text-anchor="middle" x="1332.53" y="-158.3" font-family="Times New Roman,serif" font-size="14.00">PruebaFuncionesCadena(c1,c2)</text>
</g>
<!-- 8&#45;&gt;13 -->
<g id="edge30" class="edge"><title>8&#45;&gt;13</title>
<path fill="none" stroke="black" d="M972.401,-370.403C1006.99,-362.307 1064.16,-346.787 1109.53,-324 1186.58,-285.302 1265.88,-221.1 1305.92,-186.622"/>
<polygon fill="black" stroke="black" points="1308.37,-189.134 1313.62,-179.937 1303.78,-183.847 1308.37,-189.134"/>
</g>
<!-- 15 -->
<g id="node16" class="node"><title>15</title>
<ellipse fill="none" stroke="black" cx="168.531" cy="-18" rx="46.5926" ry="18"/>
<text text-anchor="middle" x="168.531" y="-14.3" font-family="Times New Roman,serif" font-size="14.00">imprimir()</text>
</g>
<!-- 9&#45;&gt;15 -->
<g id="edge32" class="edge"><title>9&#45;&gt;15</title>
<path fill="none" stroke="black" d="M867.762,-82.3198C713.658,-68.3647 360.569,-36.3903 223.939,-24.0176"/>
<polygon fill="black" stroke="black" points="223.984,-20.5074 213.709,-23.0912 223.353,-27.4789 223.984,-20.5074"/>
</g>
<!-- 10&#45;&gt;14 -->
<g id="edge33" class="edge"><title>10&#45;&gt;14</title>
<path fill="none" stroke="black" d="M677.092,-288.411C659.858,-278.358 637.768,-265.472 619.603,-254.876"/>
<polygon fill="black" stroke="black" points="620.91,-251.586 610.509,-249.57 617.383,-257.632 620.91,-251.586"/>
</g>
<!-- 11&#45;&gt;9 -->
<g id="edge34" class="edge"><title>11&#45;&gt;9</title>
<path fill="none" stroke="black" d="M398.942,-149.645C412.075,-147.647 425.712,-145.674 438.531,-144 585.634,-124.791 757.65,-107.852 857.628,-98.5539"/>
<polygon fill="black" stroke="black" points="858.035,-102.031 867.669,-97.6232 857.389,-95.0611 858.035,-102.031"/>
</g>
<!-- 12&#45;&gt;9 -->
<g id="edge35" class="edge"><title>12&#45;&gt;9</title>
<path fill="none" stroke="black" d="M199.221,-148C204.916,-146.448 210.843,-145.046 216.531,-144 441.523,-102.624 711.919,-93.3341 850.292,-91.39"/>
<polygon fill="black" stroke="black" points="850.477,-94.8879 860.43,-91.2574 850.385,-87.8885 850.477,-94.8879"/>
</g>
<!-- 12&#45;&gt;9 -->
<g id="edge38" class="edge"><title>12&#45;&gt;9</title>
<path fill="none" stroke="black" d="M206.735,-150.858C215.848,-148.223 225.492,-145.662 234.531,-144 453.174,-103.792 714.696,-93.8839 850.181,-91.5726"/>
<polygon fill="black" stroke="black" points="850.568,-95.067 860.51,-91.4071 850.456,-88.0679 850.568,-95.067"/>
</g>
<!-- 12&#45;&gt;15 -->
<g id="edge36" class="edge"><title>12&#45;&gt;15</title>
<path fill="none" stroke="black" d="M163.946,-143.871C161.388,-119.67 161.096,-75.2108 163.072,-46.3932"/>
<polygon fill="black" stroke="black" points="166.579,-46.45 163.94,-36.1893 159.605,-45.8566 166.579,-46.45"/>
</g>
<!-- 12&#45;&gt;15 -->
<g id="edge37" class="edge"><title>12&#45;&gt;15</title>
<path fill="none" stroke="black" d="M173.115,-143.871C175.673,-119.67 175.965,-75.2108 173.99,-46.3932"/>
<polygon fill="black" stroke="black" points="177.457,-45.8566 173.122,-36.1893 170.482,-46.45 177.457,-45.8566"/>
</g>
<!-- 13&#45;&gt;9 -->
<g id="edge46" class="edge"><title>13&#45;&gt;9</title>
<path fill="none" stroke="black" d="M1221.02,-153.367C1134.29,-143.554 1032.15,-125.864 943.022,-109.722"/>
<polygon fill="black" stroke="black" points="943.52,-106.255 933.056,-107.914 942.27,-113.143 943.52,-106.255"/>
</g>
<!-- 13&#45;&gt;9 -->
<g id="edge47" class="edge"><title>13&#45;&gt;9</title>
<path fill="none" stroke="black" d="M1225.28,-152.381C1145.43,-142.399 1047.2,-125.332 960.971,-109.713"/>
<polygon fill="black" stroke="black" points="961.52,-106.255 951.056,-107.914 960.27,-113.143 961.52,-106.255"/>
</g>
<!-- 13&#45;&gt;9 -->
<g id="edge48" class="edge"><title>13&#45;&gt;9</title>
<path fill="none" stroke="black" d="M1230.07,-151.298C1156.23,-141.183 1061.91,-124.739 975.646,-109.107"/>
<polygon fill="black" stroke="black" points="976.174,-105.646 965.71,-107.304 974.924,-112.533 976.174,-105.646"/>
</g>
<!-- 13&#45;&gt;9 -->
<g id="edge49" class="edge"><title>13&#45;&gt;9</title>
<path fill="none" stroke="black" d="M1236.36,-150.265C1165.06,-139.682 1069.88,-122.966 987.531,-108 987.427,-107.981 987.323,-107.962 987.219,-107.943"/>
<polygon fill="black" stroke="black" points="987.891,-104.508 977.424,-106.15 986.63,-111.394 987.891,-104.508"/>
</g>
<!-- 13&#45;&gt;9 -->
<g id="edge50" class="edge"><title>13&#45;&gt;9</title>
<path fill="none" stroke="black" d="M1243.35,-149.192C1176.76,-138.574 1085.15,-122.469 1005.53,-108 1003.04,-107.547 1000.51,-107.086 997.965,-106.619"/>
<polygon fill="black" stroke="black" points="998.571,-103.172 988.101,-104.794 997.297,-110.055 998.571,-103.172"/>
</g>
<!-- 13&#45;&gt;9 -->
<g id="edge51" class="edge"><title>13&#45;&gt;9</title>
<path fill="none" stroke="black" d="M1251.26,-148.134C1188.78,-137.524 1100.55,-121.996 1023.53,-108 1018.19,-107.03 1012.68,-106.02 1007.16,-104.998"/>
<polygon fill="black" stroke="black" points="1007.7,-101.539 997.227,-103.151 1006.42,-108.421 1007.7,-101.539"/>
</g>
<!-- 13&#45;&gt;9 -->
<g id="edge52" class="edge"><title>13&#45;&gt;9</title>
<path fill="none" stroke="black" d="M1260.32,-147.152C1201.43,-136.581 1116.2,-121.571 1041.53,-108 1033.03,-106.455 1024.08,-104.809 1015.17,-103.173"/>
<polygon fill="black" stroke="black" points="1015.62,-99.6966 1005.16,-101.335 1014.36,-106.582 1015.62,-99.6966"/>
</g>
<!-- 13&#45;&gt;9 -->
<g id="edge53" class="edge"><title>13&#45;&gt;9</title>
<path fill="none" stroke="black" d="M1270.42,-146.258C1214.68,-135.745 1132.12,-121.193 1059.53,-108 1047.37,-105.79 1034.31,-103.374 1021.24,-101.075"/>
<polygon fill="black" stroke="black" points="1021.72,-97.6056 1011.27,-99.3448 1020.53,-104.503 1021.72,-97.6056"/>
</g>
<!-- 13&#45;&gt;9 -->
<g id="edge54" class="edge"><title>13&#45;&gt;9</title>
<path fill="none" stroke="black" d="M1281.48,-145.459C1228.55,-135.016 1148.3,-120.862 1077.53,-108 1061.59,-105.102 1044.09,-101.85 1025.98,-98.9722"/>
<polygon fill="black" stroke="black" points="1026.28,-95.4772 1015.86,-97.4164 1025.21,-102.396 1026.28,-95.4772"/>
</g>
<!-- 13&#45;&gt;9 -->
<g id="edge55" class="edge"><title>13&#45;&gt;9</title>
<path fill="none" stroke="black" d="M1293.7,-144.821C1243.31,-134.444 1164.87,-120.602 1095.53,-108 1075.78,-104.41 1053.63,-100.276 1028.82,-96.9833"/>
<polygon fill="black" stroke="black" points="1029.15,-93.4979 1018.79,-95.7199 1028.28,-100.443 1029.15,-93.4979"/>
</g>
<!-- 13&#45;&gt;9 -->
<g id="edge56" class="edge"><title>13&#45;&gt;9</title>
<path fill="none" stroke="black" d="M1306.98,-144.352C1258.95,-134.029 1181.83,-120.412 1113.53,-108 1090.43,-103.802 1064.06,-98.8595 1030.63,-95.3892"/>
<polygon fill="black" stroke="black" points="1030.81,-91.8903 1020.52,-94.4066 1030.13,-98.8575 1030.81,-91.8903"/>
</g>
<!-- 13&#45;&gt;9 -->
<g id="edge57" class="edge"><title>13&#45;&gt;9</title>
<path fill="none" stroke="black" d="M1321.25,-144.056C1275.48,-133.769 1199.18,-120.294 1131.53,-108 1105.6,-103.288 1075.56,-97.6379 1031.29,-94.1845"/>
<polygon fill="black" stroke="black" points="1031.54,-90.6935 1021.31,-93.4611 1031.03,-97.6752 1031.54,-90.6935"/>
</g>
<!-- 16 -->
<g id="node17" class="node"><title>16</title>
<ellipse fill="none" stroke="black" cx="1929.53" cy="-90" rx="66.0889" ry="18"/>
<text text-anchor="middle" x="1929.53" y="-86.3" font-family="Times New Roman,serif" font-size="14.00">cadenaDonde()</text>
</g>
<!-- 13&#45;&gt;16 -->
<g id="edge39" class="edge"><title>13&#45;&gt;16</title>
<path fill="none" stroke="black" d="M1444.8,-153.57C1550.87,-145.615 1714.18,-130.944 1854.53,-108 1860.27,-107.062 1866.23,-105.95 1872.16,-104.752"/>
<polygon fill="black" stroke="black" points="1873.02,-108.148 1882.09,-102.669 1871.59,-101.298 1873.02,-108.148"/>
</g>
<!-- 17 -->
<g id="node18" class="node"><title>17</title>
<ellipse fill="none" stroke="black" cx="2100.53" cy="-90" rx="87.1846" ry="18"/>
<text text-anchor="middle" x="2100.53" y="-86.3" font-family="Times New Roman,serif" font-size="14.00">cadenaSinEspacios()</text>
</g>
<!-- 13&#45;&gt;17 -->
<g id="edge40" class="edge"><title>13&#45;&gt;17</title>
<path fill="none" stroke="black" d="M1450.03,-155.178C1584.44,-147.719 1810.96,-132.714 2004.53,-108 2012.47,-106.987 2020.75,-105.768 2028.97,-104.454"/>
<polygon fill="black" stroke="black" points="2029.65,-107.889 2038.95,-102.811 2028.52,-100.982 2029.65,-107.889"/>
</g>
<!-- 18 -->
<g id="node19" class="node"><title>18</title>
<ellipse fill="none" stroke="black" cx="1118.53" cy="-90" rx="77.1866" ry="18"/>
<text text-anchor="middle" x="1118.53" y="-86.3" font-family="Times New Roman,serif" font-size="14.00">cadenaSustituida()</text>
</g>
<!-- 13&#45;&gt;18 -->
<g id="edge41" class="edge"><title>13&#45;&gt;18</title>
<path fill="none" stroke="black" d="M1284.5,-145.291C1250.86,-134.284 1205.89,-119.577 1171.25,-108.246"/>
<polygon fill="black" stroke="black" points="1171.91,-104.778 1161.32,-104.996 1169.73,-111.432 1171.91,-104.778"/>
</g>
<!-- 19 -->
<g id="node20" class="node"><title>19</title>
<ellipse fill="none" stroke="black" cx="1289.53" cy="-90" rx="75.2868" ry="18"/>
<text text-anchor="middle" x="1289.53" y="-86.3" font-family="Times New Roman,serif" font-size="14.00">cadenaIzquierda()</text>
</g>
<!-- 13&#45;&gt;19 -->
<g id="edge42" class="edge"><title>13&#45;&gt;19</title>
<path fill="none" stroke="black" d="M1322.12,-144.055C1317.13,-135.922 1311.03,-125.998 1305.47,-116.943"/>
<polygon fill="black" stroke="black" points="1308.36,-114.964 1300.14,-108.275 1302.39,-118.628 1308.36,-114.964"/>
</g>
<!-- 20 -->
<g id="node21" class="node"><title>20</title>
<ellipse fill="none" stroke="black" cx="1454.53" cy="-90" rx="71.4873" ry="18"/>
<text text-anchor="middle" x="1454.53" y="-86.3" font-family="Times New Roman,serif" font-size="14.00">cadenaDerecha()</text>
</g>
<!-- 13&#45;&gt;20 -->
<g id="edge43" class="edge"><title>13&#45;&gt;20</title>
<path fill="none" stroke="black" d="M1361.44,-144.411C1378.36,-134.702 1399.89,-122.351 1417.98,-111.972"/>
<polygon fill="black" stroke="black" points="1420.15,-114.761 1427.08,-106.749 1416.67,-108.69 1420.15,-114.761"/>
</g>
<!-- 21 -->
<g id="node22" class="node"><title>21</title>
<ellipse fill="none" stroke="black" cx="1610.53" cy="-90" rx="66.8882" ry="18"/>
<text text-anchor="middle" x="1610.53" y="-86.3" font-family="Times New Roman,serif" font-size="14.00">cadenaDentro()</text>
</g>
<!-- 13&#45;&gt;21 -->
<g id="edge44" class="edge"><title>13&#45;&gt;21</title>
<path fill="none" stroke="black" d="M1391.83,-146.069C1439.62,-134.036 1506.39,-117.223 1553.55,-105.348"/>
<polygon fill="black" stroke="black" points="1554.46,-108.728 1563.3,-102.892 1552.75,-101.94 1554.46,-108.728"/>
</g>
<!-- 22 -->
<g id="node23" class="node"><title>22</title>
<ellipse fill="none" stroke="black" cx="1770.53" cy="-90" rx="74.9875" ry="18"/>
<text text-anchor="middle" x="1770.53" y="-86.3" font-family="Times New Roman,serif" font-size="14.00">cadenaLongitud()</text>
</g>
<!-- 13&#45;&gt;22 -->
<g id="edge45" class="edge"><title>13&#45;&gt;22</title>
<path fill="none" stroke="black" d="M1420.75,-149.068C1492.49,-139.057 1596.26,-123.882 1686.53,-108 1692.78,-106.9 1699.28,-105.695 1705.77,-104.45"/>
<polygon fill="black" stroke="black" points="1706.79,-107.818 1715.93,-102.47 1705.45,-100.948 1706.79,-107.818"/>
</g>
</g>
</svg>
