<?xml version="1.0" encoding="UTF-8" standalone="no"?>
<!DOCTYPE svg PUBLIC "-//W3C//DTD SVG 1.1//EN"
 "http://www.w3.org/Graphics/SVG/1.1/DTD/svg11.dtd">
<!-- Generated by graphviz version 2.38.0 (20140413.2041)
 -->
<!-- Title: Grafo Pages: 1 -->
<svg width="147pt" height="476pt"
 viewBox="0.00 0.00 146.89 476.00" xmlns="http://www.w3.org/2000/svg" xmlns:xlink="http://www.w3.org/1999/xlink">
<g id="graph0" class="graph" transform="scale(1 1) rotate(0) translate(4 472)">
<title>Grafo</title>
<polygon fill="white" stroke="none" points="-4,4 -4,-472 142.892,-472 142.892,4 -4,4"/>
<!-- 0 -->
<g id="node1" class="node"><title>0</title>
<ellipse fill="red" stroke="black" cx="39.8921" cy="-450" rx="27" ry="18"/>
</g>
<!-- 1 -->
<g id="node2" class="node"><title>1</title>
<ellipse fill="none" stroke="black" cx="39.8921" cy="-378" rx="27" ry="18"/>
</g>
<!-- 0&#45;&gt;1 -->
<g id="edge1" class="edge"><title>0&#45;&gt;1</title>
<path fill="none" stroke="black" d="M39.8921,-431.697C39.8921,-423.983 39.8921,-414.712 39.8921,-406.112"/>
<polygon fill="black" stroke="black" points="43.3922,-406.104 39.8921,-396.104 36.3922,-406.104 43.3922,-406.104"/>
</g>
<!-- 2 -->
<g id="node3" class="node"><title>2</title>
<ellipse fill="none" stroke="black" cx="47.8921" cy="-234" rx="27" ry="18"/>
</g>
<!-- 1&#45;&gt;2 -->
<g id="edge2" class="edge"><title>1&#45;&gt;2</title>
<path fill="none" stroke="black" d="M26.1417,-362.069C17.9313,-352.1 8.27312,-338.247 3.89211,-324 -0.810685,-308.707 -1.54071,-303.049 3.89211,-288 8.16346,-276.168 16.3532,-265.111 24.5202,-256.19"/>
<polygon fill="black" stroke="black" points="27.1187,-258.539 31.5923,-248.935 22.1059,-253.653 27.1187,-258.539"/>
</g>
<!-- 3 -->
<g id="node4" class="node"><title>3</title>
<ellipse fill="none" stroke="black" cx="39.8921" cy="-306" rx="27" ry="18"/>
</g>
<!-- 1&#45;&gt;3 -->
<g id="edge3" class="edge"><title>1&#45;&gt;3</title>
<path fill="none" stroke="black" d="M39.8921,-359.697C39.8921,-351.983 39.8921,-342.712 39.8921,-334.112"/>
<polygon fill="black" stroke="black" points="43.3922,-334.104 39.8921,-324.104 36.3922,-334.104 43.3922,-334.104"/>
</g>
<!-- 4 -->
<g id="node5" class="node"><title>4</title>
<ellipse fill="none" stroke="black" cx="111.892" cy="-306" rx="27" ry="18"/>
</g>
<!-- 1&#45;&gt;4 -->
<g id="edge4" class="edge"><title>1&#45;&gt;4</title>
<path fill="none" stroke="black" d="M54.4624,-362.834C64.642,-352.938 78.416,-339.546 89.9227,-328.359"/>
<polygon fill="black" stroke="black" points="92.3662,-330.865 97.0964,-321.385 87.4866,-325.846 92.3662,-330.865"/>
</g>
<!-- 5 -->
<g id="node6" class="node"><title>5</title>
<ellipse fill="none" stroke="black" cx="47.8921" cy="-162" rx="27" ry="18"/>
</g>
<!-- 2&#45;&gt;5 -->
<g id="edge5" class="edge"><title>2&#45;&gt;5</title>
<path fill="none" stroke="black" d="M47.8921,-215.697C47.8921,-207.983 47.8921,-198.712 47.8921,-190.112"/>
<polygon fill="black" stroke="black" points="51.3922,-190.104 47.8921,-180.104 44.3922,-190.104 51.3922,-190.104"/>
</g>
<!-- 4&#45;&gt;2 -->
<g id="edge6" class="edge"><title>4&#45;&gt;2</title>
<path fill="none" stroke="black" d="M98.3194,-290.155C89.5796,-280.596 78.058,-267.994 68.2343,-257.249"/>
<polygon fill="black" stroke="black" points="70.7761,-254.842 61.4453,-249.824 65.6099,-259.566 70.7761,-254.842"/>
</g>
<!-- 6 -->
<g id="node7" class="node"><title>6</title>
<ellipse fill="none" stroke="black" cx="47.8921" cy="-90" rx="27" ry="18"/>
</g>
<!-- 5&#45;&gt;6 -->
<g id="edge7" class="edge"><title>5&#45;&gt;6</title>
<path fill="none" stroke="black" d="M47.8921,-143.697C47.8921,-135.983 47.8921,-126.712 47.8921,-118.112"/>
<polygon fill="black" stroke="black" points="51.3922,-118.104 47.8921,-108.104 44.3922,-118.104 51.3922,-118.104"/>
</g>
<!-- 7 -->
<g id="node8" class="node"><title>7</title>
<ellipse fill="blue" stroke="black" cx="47.8921" cy="-18" rx="27" ry="18"/>
</g>
<!-- 6&#45;&gt;7 -->
<g id="edge8" class="edge"><title>6&#45;&gt;7</title>
<path fill="none" stroke="black" d="M47.8921,-71.6966C47.8921,-63.9827 47.8921,-54.7125 47.8921,-46.1124"/>
<polygon fill="black" stroke="black" points="51.3922,-46.1043 47.8921,-36.1043 44.3922,-46.1044 51.3922,-46.1043"/>
</g>
</g>
</svg>
