<?xml version="1.0" encoding="UTF-8" standalone="no"?>
<!DOCTYPE svg PUBLIC "-//W3C//DTD SVG 1.1//EN"
 "http://www.w3.org/Graphics/SVG/1.1/DTD/svg11.dtd">
<!-- Generated by graphviz version 2.38.0 (20140413.2041)
 -->
<!-- Title: Grafo Pages: 1 -->
<svg width="2443pt" height="2420pt"
 viewBox="0.00 0.00 2443.29 2420.00" xmlns="http://www.w3.org/2000/svg" xmlns:xlink="http://www.w3.org/1999/xlink">
<g id="graph0" class="graph" transform="scale(1 1) rotate(0) translate(4 2416)">
<title>Grafo</title>
<polygon fill="white" stroke="none" points="-4,4 -4,-2416 2439.29,-2416 2439.29,4 -4,4"/>
<!-- PruebaFor0 -->
<g id="node1" class="node"><title>PruebaFor0</title>
<ellipse fill="none" stroke="black" cx="103.291" cy="-2394" rx="27" ry="18"/>
</g>
<!-- PruebaFor1 -->
<g id="node2" class="node"><title>PruebaFor1</title>
<ellipse fill="none" stroke="black" cx="205.291" cy="-2322" rx="27" ry="18"/>
</g>
<!-- PruebaFor0&#45;&gt;PruebaFor1 -->
<g id="edge1" class="edge"><title>PruebaFor0&#45;&gt;PruebaFor1</title>
<path fill="none" stroke="black" d="M121.527,-2380.49C137.482,-2369.54 160.856,-2353.49 178.862,-2341.14"/>
<polygon fill="black" stroke="black" points="180.949,-2343.95 187.214,-2335.41 176.988,-2338.18 180.949,-2343.95"/>
</g>
<!-- PruebaFor2 -->
<g id="node3" class="node"><title>PruebaFor2</title>
<ellipse fill="none" stroke="black" cx="353.291" cy="-2250" rx="27" ry="18"/>
</g>
<!-- PruebaFor1&#45;&gt;PruebaFor2 -->
<g id="edge2" class="edge"><title>PruebaFor1&#45;&gt;PruebaFor2</title>
<path fill="none" stroke="black" d="M226.812,-2310.82C252.022,-2298.9 293.974,-2279.06 322.594,-2265.52"/>
<polygon fill="black" stroke="black" points="324.201,-2268.63 331.745,-2261.19 321.209,-2262.3 324.201,-2268.63"/>
</g>
<!-- PruebaFor3 -->
<g id="node4" class="node"><title>PruebaFor3</title>
<ellipse fill="none" stroke="black" cx="489.291" cy="-2178" rx="27" ry="18"/>
</g>
<!-- PruebaFor2&#45;&gt;PruebaFor3 -->
<g id="edge3" class="edge"><title>PruebaFor2&#45;&gt;PruebaFor3</title>
<path fill="none" stroke="black" d="M371.714,-2236.81C393.8,-2224.46 430.764,-2205.4 457.45,-2192.57"/>
<polygon fill="black" stroke="black" points="459.234,-2195.6 466.771,-2188.16 456.235,-2189.28 459.234,-2195.6"/>
</g>
<!-- PruebaFor4 -->
<g id="node5" class="node"><title>PruebaFor4</title>
<ellipse fill="none" stroke="black" cx="272.291" cy="-2106" rx="27" ry="18"/>
</g>
<!-- PruebaFor2&#45;&gt;PruebaFor4 -->
<g id="edge4" class="edge"><title>PruebaFor2&#45;&gt;PruebaFor4</title>
<path fill="none" stroke="black" d="M344.157,-2232.99C330.12,-2208.38 303.129,-2161.06 286.516,-2131.94"/>
<polygon fill="black" stroke="black" points="289.512,-2130.12 281.516,-2123.17 283.431,-2133.59 289.512,-2130.12"/>
</g>
<!-- PruebaFor3&#45;&gt;PruebaFor2 -->
<g id="edge5" class="edge"><title>PruebaFor3&#45;&gt;PruebaFor2</title>
<path fill="none" stroke="black" d="M470.833,-2191.21C448.739,-2203.57 411.791,-2222.62 385.118,-2235.43"/>
<polygon fill="black" stroke="black" points="383.339,-2232.4 375.802,-2239.85 386.338,-2238.73 383.339,-2232.4"/>
</g>
<!-- imprimirconintro0 -->
<g id="node7" class="node"><title>imprimirconintro0</title>
<ellipse fill="none" stroke="black" cx="1740.29" cy="-2106" rx="27" ry="18"/>
</g>
<!-- PruebaFor3&#45;&gt;imprimirconintro0 -->
<g id="edge95" class="edge"><title>PruebaFor3&#45;&gt;imprimirconintro0</title>
<path fill="none" stroke="black" d="M516.291,-2175.49C677.849,-2166.45 1515.95,-2119.55 1703.17,-2109.08"/>
<polygon fill="black" stroke="black" points="1703.54,-2112.56 1713.33,-2108.51 1703.15,-2105.57 1703.54,-2112.56"/>
</g>
<!-- PruebaFor5 -->
<g id="node6" class="node"><title>PruebaFor5</title>
<ellipse fill="none" stroke="black" cx="57.2913" cy="-2034" rx="27" ry="18"/>
</g>
<!-- PruebaFor4&#45;&gt;PruebaFor5 -->
<g id="edge6" class="edge"><title>PruebaFor4&#45;&gt;PruebaFor5</title>
<path fill="none" stroke="black" d="M247.839,-2098.36C213.943,-2088.98 150.904,-2070.87 98.2913,-2052 95.1724,-2050.88 91.9445,-2049.66 88.7322,-2048.4"/>
<polygon fill="black" stroke="black" points="89.8498,-2045.08 79.2668,-2044.57 87.2268,-2051.57 89.8498,-2045.08"/>
</g>
<!-- main3 -->
<g id="node34" class="node"><title>main3</title>
<ellipse fill="none" stroke="black" cx="254.291" cy="-1314" rx="27" ry="18"/>
</g>
<!-- PruebaFor5&#45;&gt;main3 -->
<g id="edge128" class="edge"><title>PruebaFor5&#45;&gt;main3</title>
<path fill="none" stroke="black" d="M57.2913,-2015.95C57.2913,-1989.29 57.2913,-1936.11 57.2913,-1891 57.2913,-1891 57.2913,-1891 57.2913,-1673 57.2913,-1529.27 180.677,-1388.82 232.152,-1336.47"/>
<polygon fill="black" stroke="black" points="234.901,-1338.67 239.484,-1329.12 229.945,-1333.73 234.901,-1338.67"/>
</g>
<!-- imprimirconintro1 -->
<g id="node8" class="node"><title>imprimirconintro1</title>
<ellipse fill="none" stroke="black" cx="1427.29" cy="-2034" rx="27" ry="18"/>
</g>
<!-- imprimirconintro0&#45;&gt;imprimirconintro1 -->
<g id="edge7" class="edge"><title>imprimirconintro0&#45;&gt;imprimirconintro1</title>
<path fill="none" stroke="black" d="M1714.94,-2099.33C1659.25,-2086.87 1526.1,-2057.1 1462.41,-2042.85"/>
<polygon fill="black" stroke="black" points="1462.96,-2039.39 1452.44,-2040.62 1461.44,-2046.22 1462.96,-2039.39"/>
</g>
<!-- imprimirconintro2 -->
<g id="node9" class="node"><title>imprimirconintro2</title>
<ellipse fill="none" stroke="black" cx="1208.29" cy="-1962" rx="27" ry="18"/>
</g>
<!-- imprimirconintro1&#45;&gt;imprimirconintro2 -->
<g id="edge8" class="edge"><title>imprimirconintro1&#45;&gt;imprimirconintro2</title>
<path fill="none" stroke="black" d="M1403.44,-2025.38C1364.36,-2012.88 1286.57,-1988.02 1241.91,-1973.75"/>
<polygon fill="black" stroke="black" points="1242.71,-1970.33 1232.12,-1970.62 1240.58,-1976.99 1242.71,-1970.33"/>
</g>
<!-- imprimirconintro2&#45;&gt;PruebaFor3 -->
<g id="edge96" class="edge"><title>imprimirconintro2&#45;&gt;PruebaFor3</title>
<path fill="none" stroke="black" d="M1183.96,-1970.24C1076.96,-2002.09 648.016,-2129.76 523.4,-2166.85"/>
<polygon fill="black" stroke="black" points="522.212,-2163.55 513.626,-2169.76 524.209,-2170.26 522.212,-2163.55"/>
</g>
<!-- PruebaIf1 -->
<g id="node11" class="node"><title>PruebaIf1</title>
<ellipse fill="none" stroke="black" cx="412.291" cy="-1890" rx="27" ry="18"/>
</g>
<!-- imprimirconintro2&#45;&gt;PruebaIf1 -->
<g id="edge98" class="edge"><title>imprimirconintro2&#45;&gt;PruebaIf1</title>
<path fill="none" stroke="black" d="M1181.4,-1959.04C1093.27,-1952.54 805.156,-1930.87 567.291,-1908 526.619,-1904.09 480.025,-1898.88 448.631,-1895.26"/>
<polygon fill="black" stroke="black" points="448.934,-1891.78 438.598,-1894.1 448.129,-1898.73 448.934,-1891.78"/>
</g>
<!-- PruebaIf8 -->
<g id="node18" class="node"><title>PruebaIf8</title>
<ellipse fill="none" stroke="black" cx="303.291" cy="-1530" rx="27" ry="18"/>
</g>
<!-- imprimirconintro2&#45;&gt;PruebaIf8 -->
<g id="edge100" class="edge"><title>imprimirconintro2&#45;&gt;PruebaIf8</title>
<path fill="none" stroke="black" d="M1181.28,-1960.65C1086.7,-1959.07 771.363,-1950.64 681.291,-1908 591.352,-1865.42 386.354,-1629.04 322.588,-1553.92"/>
<polygon fill="black" stroke="black" points="324.992,-1551.34 315.859,-1545.97 319.65,-1555.87 324.992,-1551.34"/>
</g>
<!-- PruebaParametros1 -->
<g id="node21" class="node"><title>PruebaParametros1</title>
<ellipse fill="none" stroke="black" cx="1502.29" cy="-738" rx="27" ry="18"/>
</g>
<!-- imprimirconintro2&#45;&gt;PruebaParametros1 -->
<g id="edge102" class="edge"><title>imprimirconintro2&#45;&gt;PruebaParametros1</title>
<path fill="none" stroke="black" d="M1225.28,-1947.7C1252.6,-1924.67 1303.29,-1874.47 1303.29,-1819 1303.29,-1819 1303.29,-1819 1303.29,-1169 1303.29,-1140.26 1349.27,-953.61 1366.29,-936 1404.1,-896.881 1448.46,-941.791 1483.29,-900 1514.81,-862.187 1512.13,-800.889 1507.27,-765.848"/>
<polygon fill="black" stroke="black" points="1510.71,-765.219 1505.72,-755.872 1503.79,-766.289 1510.71,-765.219"/>
</g>
<!-- PruebaTransitivaIntermedia1 -->
<g id="node24" class="node"><title>PruebaTransitivaIntermedia1</title>
<ellipse fill="none" stroke="black" cx="805.291" cy="-882" rx="27" ry="18"/>
</g>
<!-- imprimirconintro2&#45;&gt;PruebaTransitivaIntermedia1 -->
<g id="edge104" class="edge"><title>imprimirconintro2&#45;&gt;PruebaTransitivaIntermedia1</title>
<path fill="none" stroke="black" d="M1187.22,-1950.34C1171.23,-1941.21 1149.91,-1926.58 1137.29,-1908 1114.28,-1874.11 1113.29,-1859.97 1113.29,-1819 1113.29,-1819 1113.29,-1819 1113.29,-1313 1113.29,-1120.64 907.051,-955.161 832.102,-901.378"/>
<polygon fill="black" stroke="black" points="833.819,-898.304 823.636,-895.378 829.771,-904.016 833.819,-898.304"/>
</g>
<!-- PruebaTransitivaIntermedia3 -->
<g id="node26" class="node"><title>PruebaTransitivaIntermedia3</title>
<ellipse fill="none" stroke="black" cx="648.291" cy="-738" rx="27" ry="18"/>
</g>
<!-- imprimirconintro2&#45;&gt;PruebaTransitivaIntermedia3 -->
<g id="edge106" class="edge"><title>imprimirconintro2&#45;&gt;PruebaTransitivaIntermedia3</title>
<path fill="none" stroke="black" d="M1181.31,-1961.36C1103.68,-1960.84 885.291,-1947.94 885.291,-1819 885.291,-1819 885.291,-1819 885.291,-1529 885.291,-1432.4 923.291,-1411.6 923.291,-1315 923.291,-1315 923.291,-1315 923.291,-1169 923.291,-1109.83 873.626,-1112.66 824.291,-1080 792.791,-1059.15 775.574,-1069.05 747.291,-1044 719.04,-1018.98 716.749,-1006.86 702.291,-972 672.751,-900.778 657.654,-810.289 651.589,-765.956"/>
<polygon fill="black" stroke="black" points="655.049,-765.423 650.27,-755.968 648.109,-766.34 655.049,-765.423"/>
</g>
<!-- PruebaTransitivaFinal1 -->
<g id="node29" class="node"><title>PruebaTransitivaFinal1</title>
<ellipse fill="none" stroke="black" cx="862.291" cy="-666" rx="27" ry="18"/>
</g>
<!-- imprimirconintro2&#45;&gt;PruebaTransitivaFinal1 -->
<g id="edge110" class="edge"><title>imprimirconintro2&#45;&gt;PruebaTransitivaFinal1</title>
<path fill="none" stroke="black" d="M1185.04,-1952.82C1164.12,-1944.42 1133.77,-1929.54 1114.29,-1908 1085.32,-1875.97 1075.29,-1862.19 1075.29,-1819 1075.29,-1819 1075.29,-1819 1075.29,-1313 1075.29,-1209.26 1113.79,-1180.81 1089.29,-1080 1049.69,-917.08 928.036,-750.353 881.066,-690.306"/>
<polygon fill="black" stroke="black" points="883.639,-687.916 874.697,-682.234 878.144,-692.252 883.639,-687.916"/>
</g>
<!-- main1 -->
<g id="node32" class="node"><title>main1</title>
<ellipse fill="none" stroke="black" cx="192.291" cy="-1890" rx="27" ry="18"/>
</g>
<!-- imprimirconintro2&#45;&gt;main1 -->
<g id="edge112" class="edge"><title>imprimirconintro2&#45;&gt;main1</title>
<path fill="none" stroke="black" d="M1181.27,-1960.76C1043.78,-1959.36 421.111,-1950.73 233.291,-1908 229.882,-1907.22 226.393,-1906.19 222.96,-1905.01"/>
<polygon fill="black" stroke="black" points="224.136,-1901.71 213.545,-1901.41 221.635,-1908.25 224.136,-1901.71"/>
</g>
<!-- main6 -->
<g id="node37" class="node"><title>main6</title>
<ellipse fill="none" stroke="black" cx="788.291" cy="-1098" rx="27" ry="18"/>
</g>
<!-- imprimirconintro2&#45;&gt;main6 -->
<g id="edge114" class="edge"><title>imprimirconintro2&#45;&gt;main6</title>
<path fill="none" stroke="black" d="M1181.72,-1957.81C1129.19,-1951.01 1014.58,-1933.6 985.291,-1908 927.557,-1857.54 923.291,-1823.68 923.291,-1747 923.291,-1747 923.291,-1747 923.291,-1529 923.291,-1445.9 830.347,-1204.66 798.698,-1124.92"/>
<polygon fill="black" stroke="black" points="801.938,-1123.6 794.986,-1115.6 795.435,-1126.19 801.938,-1123.6"/>
</g>
<!-- main10 -->
<g id="node41" class="node"><title>main10</title>
<ellipse fill="none" stroke="black" cx="1337.29" cy="-810" rx="27" ry="18"/>
</g>
<!-- imprimirconintro2&#45;&gt;main10 -->
<g id="edge116" class="edge"><title>imprimirconintro2&#45;&gt;main10</title>
<path fill="none" stroke="black" d="M1219.69,-1945.44C1226.73,-1935.22 1235.5,-1921.32 1241.29,-1908 1257.63,-1870.43 1265.29,-1859.97 1265.29,-1819 1265.29,-1819 1265.29,-1819 1265.29,-1025 1265.29,-953.449 1301.9,-875.137 1322.9,-836.081"/>
<polygon fill="black" stroke="black" points="1326.13,-837.475 1327.88,-827.025 1320,-834.105 1326.13,-837.475"/>
</g>
<!-- main12 -->
<g id="node43" class="node"><title>main12</title>
<ellipse fill="none" stroke="black" cx="1227.29" cy="-738" rx="27" ry="18"/>
</g>
<!-- imprimirconintro2&#45;&gt;main12 -->
<g id="edge118" class="edge"><title>imprimirconintro2&#45;&gt;main12</title>
<path fill="none" stroke="black" d="M1212.05,-1944.05C1217.58,-1917.52 1227.29,-1864.52 1227.29,-1819 1227.29,-1819 1227.29,-1819 1227.29,-1025 1227.29,-929.939 1227.29,-817.104 1227.29,-766.248"/>
<polygon fill="black" stroke="black" points="1230.79,-766.085 1227.29,-756.085 1223.79,-766.085 1230.79,-766.085"/>
</g>
<!-- main17 -->
<g id="node48" class="node"><title>main17</title>
<ellipse fill="none" stroke="black" cx="1218.29" cy="-522" rx="27" ry="18"/>
</g>
<!-- imprimirconintro2&#45;&gt;main17 -->
<g id="edge120" class="edge"><title>imprimirconintro2&#45;&gt;main17</title>
<path fill="none" stroke="black" d="M1204.54,-1944.05C1199,-1917.52 1189.29,-1864.52 1189.29,-1819 1189.29,-1819 1189.29,-1819 1189.29,-1097 1189.29,-1036.66 1154.45,-1029.55 1136.29,-972 1124.12,-933.428 1117.29,-923.447 1117.29,-883 1117.29,-883 1117.29,-883 1117.29,-737 1117.29,-700.974 1078.63,-606.185 1098.29,-576 1116.67,-547.788 1153.85,-534.485 1181.97,-528.28"/>
<polygon fill="black" stroke="black" points="1182.76,-531.693 1191.88,-526.301 1181.39,-524.829 1182.76,-531.693"/>
</g>
<!-- main20 -->
<g id="node51" class="node"><title>main20</title>
<ellipse fill="none" stroke="black" cx="1058.29" cy="-522" rx="27" ry="18"/>
</g>
<!-- imprimirconintro2&#45;&gt;main20 -->
<g id="edge122" class="edge"><title>imprimirconintro2&#45;&gt;main20</title>
<path fill="none" stroke="black" d="M1197.3,-1945.22C1180.74,-1919.85 1151.29,-1867.88 1151.29,-1819 1151.29,-1819 1151.29,-1819 1151.29,-1169 1151.29,-1037.92 1079.29,-1014.08 1079.29,-883 1079.29,-883 1079.29,-883 1079.29,-737 1079.29,-669.49 1068.81,-590.571 1062.66,-550.05"/>
<polygon fill="black" stroke="black" points="1066.11,-549.488 1061.12,-540.142 1059.2,-550.56 1066.11,-549.488"/>
</g>
<!-- main23 -->
<g id="node54" class="node"><title>main23</title>
<ellipse fill="none" stroke="black" cx="1890.29" cy="-1890" rx="27" ry="18"/>
</g>
<!-- imprimirconintro2&#45;&gt;main23 -->
<g id="edge124" class="edge"><title>imprimirconintro2&#45;&gt;main23</title>
<path fill="none" stroke="black" d="M1235.03,-1958.26C1341.04,-1947.38 1731.95,-1907.25 1853.79,-1894.75"/>
<polygon fill="black" stroke="black" points="1854.15,-1898.23 1863.74,-1893.73 1853.44,-1891.26 1854.15,-1898.23"/>
</g>
<!-- PruebaWhile3 -->
<g id="node68" class="node"><title>PruebaWhile3</title>
<ellipse fill="none" stroke="black" cx="387.291" cy="-954" rx="27" ry="18"/>
</g>
<!-- imprimirconintro2&#45;&gt;PruebaWhile3 -->
<g id="edge146" class="edge"><title>imprimirconintro2&#45;&gt;PruebaWhile3</title>
<path fill="none" stroke="black" d="M1181.17,-1959.83C1083.64,-1955.38 754.615,-1938.22 719.291,-1908 688.161,-1881.37 695.291,-1859.97 695.291,-1819 695.291,-1819 695.291,-1819 695.291,-1601 695.291,-1396.47 584.329,-1370.65 492.291,-1188 455.06,-1114.11 416.357,-1024.24 398.08,-980.873"/>
<polygon fill="black" stroke="black" points="401.291,-979.479 394.191,-971.615 394.837,-982.19 401.291,-979.479"/>
</g>
<!-- PruebaWhile7 -->
<g id="node72" class="node"><title>PruebaWhile7</title>
<ellipse fill="none" stroke="black" cx="443.291" cy="-666" rx="27" ry="18"/>
</g>
<!-- imprimirconintro2&#45;&gt;PruebaWhile7 -->
<g id="edge148" class="edge"><title>imprimirconintro2&#45;&gt;PruebaWhile7</title>
<path fill="none" stroke="black" d="M1181.17,-1960.44C1099.54,-1958.33 857.762,-1948.69 792.291,-1908 751.983,-1882.95 733.291,-1866.46 733.291,-1819 733.291,-1819 733.291,-1819 733.291,-1529 733.291,-1331.01 623.479,-1305.56 566.291,-1116 514.404,-944.013 561.149,-882.842 485.291,-720 480.129,-708.919 472.218,-698.084 464.648,-689.128"/>
<polygon fill="black" stroke="black" points="467.128,-686.649 457.881,-681.478 461.885,-691.287 467.128,-686.649"/>
</g>
<!-- PruebaWhile9 -->
<g id="node74" class="node"><title>PruebaWhile9</title>
<ellipse fill="none" stroke="black" cx="200.291" cy="-738" rx="27" ry="18"/>
</g>
<!-- imprimirconintro2&#45;&gt;PruebaWhile9 -->
<g id="edge150" class="edge"><title>imprimirconintro2&#45;&gt;PruebaWhile9</title>
<path fill="none" stroke="black" d="M1181.04,-1960.57C1045.66,-1958.24 449.058,-1945.91 376.291,-1908 155.749,-1793.11 172.291,-1635.67 172.291,-1387 172.291,-1387 172.291,-1387 172.291,-881 172.291,-840.226 183.541,-794.089 191.779,-765.77"/>
<polygon fill="black" stroke="black" points="195.238,-766.421 194.759,-755.837 188.533,-764.41 195.238,-766.421"/>
</g>
<!-- PruebaTransitiva1 -->
<g id="node77" class="node"><title>PruebaTransitiva1</title>
<ellipse fill="none" stroke="black" cx="604.291" cy="-1026" rx="27" ry="18"/>
</g>
<!-- imprimirconintro2&#45;&gt;PruebaTransitiva1 -->
<g id="edge152" class="edge"><title>imprimirconintro2&#45;&gt;PruebaTransitiva1</title>
<path fill="none" stroke="black" d="M1181.01,-1961.78C1121.65,-1962.44 977.576,-1958.25 871.291,-1908 817.502,-1882.57 771.291,-1878.5 771.291,-1819 771.291,-1819 771.291,-1819 771.291,-1457 771.291,-1283.65 766.351,-1224.96 671.291,-1080 661.617,-1065.25 646.469,-1052.76 633.022,-1043.62"/>
<polygon fill="black" stroke="black" points="634.802,-1040.61 624.505,-1038.11 630.998,-1046.48 634.802,-1040.61"/>
</g>
<!-- PruebaTransitiva3 -->
<g id="node79" class="node"><title>PruebaTransitiva3</title>
<ellipse fill="none" stroke="black" cx="623.291" cy="-522" rx="27" ry="18"/>
</g>
<!-- imprimirconintro2&#45;&gt;PruebaTransitiva3 -->
<g id="edge154" class="edge"><title>imprimirconintro2&#45;&gt;PruebaTransitiva3</title>
<path fill="none" stroke="black" d="M1181.22,-1961.13C1141.04,-1959.79 1065.83,-1951.21 1023.29,-1908 994.549,-1878.81 999.291,-1859.97 999.291,-1819 999.291,-1819 999.291,-1819 999.291,-1169 999.291,-1033.44 965.568,-656.211 856.291,-576 797.717,-533.006 710.227,-524.034 660.806,-522.655"/>
<polygon fill="black" stroke="black" points="660.632,-519.151 650.569,-522.464 660.502,-526.15 660.632,-519.151"/>
</g>
<!-- PruebaFuncionesCadena13 -->
<g id="node94" class="node"><title>PruebaFuncionesCadena13</title>
<ellipse fill="none" stroke="black" cx="1956.29" cy="-738" rx="27" ry="18"/>
</g>
<!-- imprimirconintro2&#45;&gt;PruebaFuncionesCadena13 -->
<g id="edge158" class="edge"><title>imprimirconintro2&#45;&gt;PruebaFuncionesCadena13</title>
<path fill="none" stroke="black" d="M1235.2,-1959.58C1327.46,-1954.47 1627.03,-1935.85 1659.29,-1908 1690.3,-1881.23 1683.29,-1859.97 1683.29,-1819 1683.29,-1819 1683.29,-1819 1683.29,-1169 1683.29,-1016.5 1821.42,-1032.85 1896.29,-900 1909.64,-876.324 1934.38,-804.784 1947.54,-765.513"/>
<polygon fill="black" stroke="black" points="1950.93,-766.409 1950.77,-755.815 1944.29,-764.195 1950.93,-766.409"/>
</g>
<!-- PruebaFuncionesCadena14 -->
<g id="node95" class="node"><title>PruebaFuncionesCadena14</title>
<ellipse fill="none" stroke="black" cx="1918.29" cy="-666" rx="27" ry="18"/>
</g>
<!-- imprimirconintro2&#45;&gt;PruebaFuncionesCadena14 -->
<g id="edge160" class="edge"><title>imprimirconintro2&#45;&gt;PruebaFuncionesCadena14</title>
<path fill="none" stroke="black" d="M1235.29,-1961.31C1317.63,-1961.67 1563.49,-1958.44 1621.29,-1908 1652.16,-1881.06 1645.29,-1859.97 1645.29,-1819 1645.29,-1819 1645.29,-1819 1645.29,-1169 1645.29,-1125.45 1664.68,-1117.81 1686.29,-1080 1735.79,-993.416 1766.19,-983.786 1820.29,-900 1839.92,-869.602 1843.5,-861.021 1858.29,-828 1879.09,-781.574 1898.8,-725.553 1909.65,-693.324"/>
<polygon fill="black" stroke="black" points="1913,-694.333 1912.85,-683.739 1906.36,-692.116 1913,-694.333"/>
</g>
<!-- PruebaFuncionesCadena15 -->
<g id="node96" class="node"><title>PruebaFuncionesCadena15</title>
<ellipse fill="none" stroke="black" cx="1872.29" cy="-594" rx="27" ry="18"/>
</g>
<!-- imprimirconintro2&#45;&gt;PruebaFuncionesCadena15 -->
<g id="edge162" class="edge"><title>imprimirconintro2&#45;&gt;PruebaFuncionesCadena15</title>
<path fill="none" stroke="black" d="M1235.25,-1960.91C1312.36,-1960.1 1531.57,-1953.73 1583.29,-1908 1613.99,-1880.87 1607.29,-1859.97 1607.29,-1819 1607.29,-1819 1607.29,-1819 1607.29,-1169 1607.29,-1026.37 1719.46,-1028.04 1782.29,-900 1829.83,-803.121 1857.24,-676.368 1867.55,-621.843"/>
<polygon fill="black" stroke="black" points="1871.01,-622.402 1869.38,-611.932 1864.12,-621.128 1871.01,-622.402"/>
</g>
<!-- PruebaFuncionesCadena16 -->
<g id="node97" class="node"><title>PruebaFuncionesCadena16</title>
<ellipse fill="none" stroke="black" cx="1828.29" cy="-522" rx="27" ry="18"/>
</g>
<!-- imprimirconintro2&#45;&gt;PruebaFuncionesCadena16 -->
<g id="edge164" class="edge"><title>imprimirconintro2&#45;&gt;PruebaFuncionesCadena16</title>
<path fill="none" stroke="black" d="M1235.33,-1960.43C1307.03,-1958.35 1499.63,-1949.01 1545.29,-1908 1575.77,-1880.63 1569.29,-1859.97 1569.29,-1819 1569.29,-1819 1569.29,-1819 1569.29,-1169 1569.29,-1125.63 1589.25,-1118.46 1609.29,-1080 1626.52,-1046.95 1630.57,-1038.29 1652.29,-1008 1689.03,-956.753 1716.16,-956.433 1744.29,-900 1804.66,-778.876 1822.05,-614.415 1826.71,-550.232"/>
<polygon fill="black" stroke="black" points="1830.21,-550.342 1827.4,-540.127 1823.23,-549.867 1830.21,-550.342"/>
</g>
<!-- PruebaFuncionesCadena17 -->
<g id="node98" class="node"><title>PruebaFuncionesCadena17</title>
<ellipse fill="none" stroke="black" cx="1805.29" cy="-450" rx="27" ry="18"/>
</g>
<!-- imprimirconintro2&#45;&gt;PruebaFuncionesCadena17 -->
<g id="edge166" class="edge"><title>imprimirconintro2&#45;&gt;PruebaFuncionesCadena17</title>
<path fill="none" stroke="black" d="M1235.38,-1959.82C1301.31,-1956.41 1467.63,-1944.31 1507.29,-1908 1537.51,-1880.33 1531.29,-1859.97 1531.29,-1819 1531.29,-1819 1531.29,-1819 1531.29,-1169 1531.29,-1123.63 1558.55,-1119.26 1581.29,-1080 1599.98,-1047.75 1603.43,-1038.89 1624.29,-1008 1625.35,-1006.44 1705.54,-901.726 1706.29,-900 1748.38,-803.643 1747.29,-772.147 1747.29,-667 1747.29,-667 1747.29,-667 1747.29,-593 1747.29,-548.977 1771.48,-502.597 1788.61,-475.261"/>
<polygon fill="black" stroke="black" points="1791.62,-477.051 1794.11,-466.751 1785.74,-473.253 1791.62,-477.051"/>
</g>
<!-- PruebaFuncionesCadena18 -->
<g id="node99" class="node"><title>PruebaFuncionesCadena18</title>
<ellipse fill="none" stroke="black" cx="1765.29" cy="-378" rx="27" ry="18"/>
</g>
<!-- imprimirconintro2&#45;&gt;PruebaFuncionesCadena18 -->
<g id="edge168" class="edge"><title>imprimirconintro2&#45;&gt;PruebaFuncionesCadena18</title>
<path fill="none" stroke="black" d="M1235.01,-1959.08C1294.54,-1954.27 1435.5,-1939.73 1469.29,-1908 1499.16,-1879.96 1493.29,-1859.97 1493.29,-1819 1493.29,-1819 1493.29,-1819 1493.29,-1169 1493.29,-1133.34 1655.09,-933.125 1668.29,-900 1707.21,-802.322 1709.29,-772.147 1709.29,-667 1709.29,-667 1709.29,-667 1709.29,-521 1709.29,-477.191 1732.64,-430.748 1749.19,-403.341"/>
<polygon fill="black" stroke="black" points="1752.19,-405.148 1754.49,-394.808 1746.24,-401.452 1752.19,-405.148"/>
</g>
<!-- PruebaFuncionesCadena19 -->
<g id="node100" class="node"><title>PruebaFuncionesCadena19</title>
<ellipse fill="none" stroke="black" cx="1726.29" cy="-306" rx="27" ry="18"/>
</g>
<!-- imprimirconintro2&#45;&gt;PruebaFuncionesCadena19 -->
<g id="edge170" class="edge"><title>imprimirconintro2&#45;&gt;PruebaFuncionesCadena19</title>
<path fill="none" stroke="black" d="M1234.69,-1958.11C1287.45,-1951.8 1403.3,-1935.16 1431.29,-1908 1460.69,-1879.47 1455.29,-1859.97 1455.29,-1819 1455.29,-1819 1455.29,-1819 1455.29,-1169 1455.29,-1026.37 1577.99,-1032.69 1630.29,-900 1668.85,-802.179 1671.29,-772.147 1671.29,-667 1671.29,-667 1671.29,-667 1671.29,-449 1671.29,-405.296 1694.23,-358.822 1710.48,-331.381"/>
<polygon fill="black" stroke="black" points="1713.47,-333.195 1715.69,-322.835 1707.49,-329.551 1713.47,-333.195"/>
</g>
<!-- PruebaFuncionesCadena20 -->
<g id="node101" class="node"><title>PruebaFuncionesCadena20</title>
<ellipse fill="none" stroke="black" cx="1688.29" cy="-234" rx="27" ry="18"/>
</g>
<!-- imprimirconintro2&#45;&gt;PruebaFuncionesCadena20 -->
<g id="edge172" class="edge"><title>imprimirconintro2&#45;&gt;PruebaFuncionesCadena20</title>
<path fill="none" stroke="black" d="M1235.37,-1961.13C1275.54,-1959.79 1350.75,-1951.21 1393.29,-1908 1422.03,-1878.81 1417.29,-1859.97 1417.29,-1819 1417.29,-1819 1417.29,-1819 1417.29,-1169 1417.29,-1125.45 1437.22,-1118.11 1458.29,-1080 1476.78,-1046.56 1482.83,-1038.92 1505.29,-1008 1541.52,-958.131 1566.81,-956.124 1592.29,-900 1635.76,-804.257 1633.29,-772.147 1633.29,-667 1633.29,-667 1633.29,-667 1633.29,-377 1633.29,-333.296 1656.23,-286.822 1672.48,-259.381"/>
<polygon fill="black" stroke="black" points="1675.47,-261.195 1677.69,-250.835 1669.49,-257.551 1675.47,-261.195"/>
</g>
<!-- PruebaFuncionesCadena21 -->
<g id="node102" class="node"><title>PruebaFuncionesCadena21</title>
<ellipse fill="none" stroke="black" cx="1650.29" cy="-162" rx="27" ry="18"/>
</g>
<!-- imprimirconintro2&#45;&gt;PruebaFuncionesCadena21 -->
<g id="edge174" class="edge"><title>imprimirconintro2&#45;&gt;PruebaFuncionesCadena21</title>
<path fill="none" stroke="black" d="M1234.89,-1958.75C1267.87,-1954.52 1323.6,-1942.43 1355.29,-1908 1383.04,-1877.86 1379.29,-1859.97 1379.29,-1819 1379.29,-1819 1379.29,-1819 1379.29,-1169 1379.29,-1123.41 1406.87,-1119.11 1430.29,-1080 1449.68,-1047.62 1454.14,-1039.25 1475.29,-1008 1491.96,-983.376 1542.63,-927.355 1554.29,-900 1595.51,-803.271 1595.29,-772.147 1595.29,-667 1595.29,-667 1595.29,-667 1595.29,-305 1595.29,-261.296 1618.23,-214.822 1634.48,-187.381"/>
<polygon fill="black" stroke="black" points="1637.47,-189.195 1639.69,-178.835 1631.49,-185.551 1637.47,-189.195"/>
</g>
<!-- PruebaFuncionesCadena22 -->
<g id="node103" class="node"><title>PruebaFuncionesCadena22</title>
<ellipse fill="none" stroke="black" cx="1603.29" cy="-90" rx="27" ry="18"/>
</g>
<!-- imprimirconintro2&#45;&gt;PruebaFuncionesCadena22 -->
<g id="edge176" class="edge"><title>imprimirconintro2&#45;&gt;PruebaFuncionesCadena22</title>
<path fill="none" stroke="black" d="M1229.66,-1950.66C1267.26,-1930.81 1341.29,-1883.52 1341.29,-1819 1341.29,-1819 1341.29,-1819 1341.29,-1169 1341.29,-1028.75 1452.83,-1029.67 1506.29,-900 1522.33,-861.101 1557.29,-705.487 1557.29,-667 1557.29,-667 1557.29,-667 1557.29,-233 1557.29,-190.347 1576.31,-143.841 1589.89,-116.069"/>
<polygon fill="black" stroke="black" points="1593.05,-117.569 1594.42,-107.064 1586.8,-114.42 1593.05,-117.569"/>
</g>
<!-- PruebaFuncionesCadena23 -->
<g id="node104" class="node"><title>PruebaFuncionesCadena23</title>
<ellipse fill="none" stroke="black" cx="1383.29" cy="-18" rx="27" ry="18"/>
</g>
<!-- imprimirconintro2&#45;&gt;PruebaFuncionesCadena23 -->
<g id="edge178" class="edge"><title>imprimirconintro2&#45;&gt;PruebaFuncionesCadena23</title>
<path fill="none" stroke="black" d="M1182.7,-1955.79C1155,-1949 1110.93,-1934.7 1082.29,-1908 1049.87,-1877.77 1037.29,-1863.32 1037.29,-1819 1037.29,-1819 1037.29,-1819 1037.29,-1241 1037.29,-1049.88 1041.29,-1002.12 1041.29,-811 1041.29,-811 1041.29,-811 1041.29,-737 1041.29,-640.401 1003.29,-619.599 1003.29,-523 1003.29,-523 1003.29,-523 1003.29,-161 1003.29,-88.0256 1252.3,-40.1457 1347.17,-24.5516"/>
<polygon fill="black" stroke="black" points="1347.86,-27.9862 1357.17,-22.9343 1346.74,-21.0761 1347.86,-27.9862"/>
</g>
<!-- PruebaFuncionesCadena24 -->
<g id="node105" class="node"><title>PruebaFuncionesCadena24</title>
<ellipse fill="none" stroke="black" cx="1962.29" cy="-1890" rx="27" ry="18"/>
</g>
<!-- imprimirconintro2&#45;&gt;PruebaFuncionesCadena24 -->
<g id="edge180" class="edge"><title>imprimirconintro2&#45;&gt;PruebaFuncionesCadena24</title>
<path fill="none" stroke="black" d="M1235.44,-1960.32C1349.71,-1957.27 1791.97,-1943.36 1926.29,-1908 1928.46,-1907.43 1930.66,-1906.73 1932.85,-1905.94"/>
<polygon fill="black" stroke="black" points="1934.32,-1909.12 1942.22,-1902.06 1931.64,-1902.65 1934.32,-1909.12"/>
</g>
<!-- PruebaIf0 -->
<g id="node10" class="node"><title>PruebaIf0</title>
<ellipse fill="none" stroke="black" cx="350.291" cy="-1314" rx="27" ry="18"/>
</g>
<!-- PruebaIf0&#45;&gt;PruebaIf1 -->
<g id="edge9" class="edge"><title>PruebaIf0&#45;&gt;PruebaIf1</title>
<path fill="none" stroke="black" d="M369.874,-1326.51C403.182,-1347.74 467.291,-1396.47 467.291,-1457 467.291,-1603 467.291,-1603 467.291,-1603 467.291,-1653.8 433.407,-1801.05 418.831,-1862.05"/>
<polygon fill="black" stroke="black" points="415.358,-1861.52 416.425,-1872.06 422.164,-1863.16 415.358,-1861.52"/>
</g>
<!-- PruebaIf1&#45;&gt;imprimirconintro0 -->
<g id="edge97" class="edge"><title>PruebaIf1&#45;&gt;imprimirconintro0</title>
<path fill="none" stroke="black" d="M410.724,-1908.03C408.682,-1941.7 409.603,-2016.58 453.291,-2052 503.098,-2092.38 1496.97,-2102.95 1703.07,-2104.71"/>
<polygon fill="black" stroke="black" points="1703.07,-2108.21 1713.1,-2104.79 1703.13,-2101.21 1703.07,-2108.21"/>
</g>
<!-- PruebaIf2 -->
<g id="node12" class="node"><title>PruebaIf2</title>
<ellipse fill="none" stroke="black" cx="374.291" cy="-1818" rx="27" ry="18"/>
</g>
<!-- PruebaIf1&#45;&gt;PruebaIf2 -->
<g id="edge10" class="edge"><title>PruebaIf1&#45;&gt;PruebaIf2</title>
<path fill="none" stroke="black" d="M403.478,-1872.76C398.874,-1864.28 393.136,-1853.71 387.97,-1844.2"/>
<polygon fill="black" stroke="black" points="390.904,-1842.27 383.057,-1835.15 384.752,-1845.61 390.904,-1842.27"/>
</g>
<!-- PruebaIf3 -->
<g id="node13" class="node"><title>PruebaIf3</title>
<ellipse fill="none" stroke="black" cx="374.291" cy="-1746" rx="27" ry="18"/>
</g>
<!-- PruebaIf2&#45;&gt;PruebaIf3 -->
<g id="edge11" class="edge"><title>PruebaIf2&#45;&gt;PruebaIf3</title>
<path fill="none" stroke="black" d="M374.291,-1799.7C374.291,-1791.98 374.291,-1782.71 374.291,-1774.11"/>
<polygon fill="black" stroke="black" points="377.791,-1774.1 374.291,-1764.1 370.791,-1774.1 377.791,-1774.1"/>
</g>
<!-- PruebaIf6 -->
<g id="node16" class="node"><title>PruebaIf6</title>
<ellipse fill="none" stroke="black" cx="302.291" cy="-1746" rx="27" ry="18"/>
</g>
<!-- PruebaIf2&#45;&gt;PruebaIf6 -->
<g id="edge12" class="edge"><title>PruebaIf2&#45;&gt;PruebaIf6</title>
<path fill="none" stroke="black" d="M359.721,-1802.83C349.541,-1792.94 335.767,-1779.55 324.261,-1768.36"/>
<polygon fill="black" stroke="black" points="326.697,-1765.85 317.087,-1761.38 321.817,-1770.87 326.697,-1765.85"/>
</g>
<!-- PruebaIf4 -->
<g id="node14" class="node"><title>PruebaIf4</title>
<ellipse fill="none" stroke="black" cx="374.291" cy="-1674" rx="27" ry="18"/>
</g>
<!-- PruebaIf3&#45;&gt;PruebaIf4 -->
<g id="edge13" class="edge"><title>PruebaIf3&#45;&gt;PruebaIf4</title>
<path fill="none" stroke="black" d="M374.291,-1727.7C374.291,-1719.98 374.291,-1710.71 374.291,-1702.11"/>
<polygon fill="black" stroke="black" points="377.791,-1702.1 374.291,-1692.1 370.791,-1702.1 377.791,-1702.1"/>
</g>
<!-- PruebaIf5 -->
<g id="node15" class="node"><title>PruebaIf5</title>
<ellipse fill="none" stroke="black" cx="303.291" cy="-1602" rx="27" ry="18"/>
</g>
<!-- PruebaIf4&#45;&gt;PruebaIf5 -->
<g id="edge14" class="edge"><title>PruebaIf4&#45;&gt;PruebaIf5</title>
<path fill="none" stroke="black" d="M359.58,-1658.5C349.679,-1648.73 336.448,-1635.69 325.301,-1624.7"/>
<polygon fill="black" stroke="black" points="327.562,-1622.01 317.984,-1617.49 322.648,-1627 327.562,-1622.01"/>
</g>
<!-- PruebaIf5&#45;&gt;PruebaIf8 -->
<g id="edge15" class="edge"><title>PruebaIf5&#45;&gt;PruebaIf8</title>
<path fill="none" stroke="black" d="M303.291,-1583.7C303.291,-1575.98 303.291,-1566.71 303.291,-1558.11"/>
<polygon fill="black" stroke="black" points="306.791,-1558.1 303.291,-1548.1 299.791,-1558.1 306.791,-1558.1"/>
</g>
<!-- PruebaIf7 -->
<g id="node17" class="node"><title>PruebaIf7</title>
<ellipse fill="none" stroke="black" cx="302.291" cy="-1674" rx="27" ry="18"/>
</g>
<!-- PruebaIf6&#45;&gt;PruebaIf7 -->
<g id="edge16" class="edge"><title>PruebaIf6&#45;&gt;PruebaIf7</title>
<path fill="none" stroke="black" d="M302.291,-1727.7C302.291,-1719.98 302.291,-1710.71 302.291,-1702.11"/>
<polygon fill="black" stroke="black" points="305.791,-1702.1 302.291,-1692.1 298.791,-1702.1 305.791,-1702.1"/>
</g>
<!-- PruebaIf7&#45;&gt;PruebaIf5 -->
<g id="edge17" class="edge"><title>PruebaIf7&#45;&gt;PruebaIf5</title>
<path fill="none" stroke="black" d="M302.539,-1655.7C302.649,-1647.98 302.781,-1638.71 302.904,-1630.11"/>
<polygon fill="black" stroke="black" points="306.404,-1630.15 303.047,-1620.1 299.404,-1630.05 306.404,-1630.15"/>
</g>
<!-- PruebaIf8&#45;&gt;imprimirconintro0 -->
<g id="edge99" class="edge"><title>PruebaIf8&#45;&gt;imprimirconintro0</title>
<path fill="none" stroke="black" d="M289.608,-1545.95C281.425,-1555.93 271.771,-1569.78 267.291,-1584 257.673,-1614.52 266.514,-1624 266.291,-1656 265.958,-1704 262.674,-1716.14 266.291,-1764 270.526,-1820.03 285.291,-1832.81 285.291,-1889 285.291,-1963 285.291,-1963 285.291,-1963 285.291,-2035.98 353.711,-2029.98 423.291,-2052 548.072,-2091.49 1501.66,-2102.73 1703.03,-2104.67"/>
<polygon fill="black" stroke="black" points="1703.07,-2108.17 1713.1,-2104.76 1703.14,-2101.17 1703.07,-2108.17"/>
</g>
<!-- PruebaIf9 -->
<g id="node19" class="node"><title>PruebaIf9</title>
<ellipse fill="none" stroke="black" cx="303.291" cy="-1458" rx="27" ry="18"/>
</g>
<!-- PruebaIf8&#45;&gt;PruebaIf9 -->
<g id="edge18" class="edge"><title>PruebaIf8&#45;&gt;PruebaIf9</title>
<path fill="none" stroke="black" d="M303.291,-1511.7C303.291,-1503.98 303.291,-1494.71 303.291,-1486.11"/>
<polygon fill="black" stroke="black" points="306.791,-1486.1 303.291,-1476.1 299.791,-1486.1 306.791,-1486.1"/>
</g>
<!-- main2 -->
<g id="node33" class="node"><title>main2</title>
<ellipse fill="none" stroke="black" cx="282.291" cy="-1386" rx="27" ry="18"/>
</g>
<!-- PruebaIf9&#45;&gt;main2 -->
<g id="edge130" class="edge"><title>PruebaIf9&#45;&gt;main2</title>
<path fill="none" stroke="black" d="M298.208,-1440.05C295.809,-1432.06 292.891,-1422.33 290.211,-1413.4"/>
<polygon fill="black" stroke="black" points="293.554,-1412.36 287.328,-1403.79 286.849,-1414.37 293.554,-1412.36"/>
</g>
<!-- PruebaParametros0 -->
<g id="node20" class="node"><title>PruebaParametros0</title>
<ellipse fill="none" stroke="black" cx="1447.29" cy="-810" rx="27" ry="18"/>
</g>
<!-- PruebaParametros0&#45;&gt;PruebaParametros1 -->
<g id="edge19" class="edge"><title>PruebaParametros0&#45;&gt;PruebaParametros1</title>
<path fill="none" stroke="black" d="M1459.23,-793.811C1466.5,-784.546 1475.95,-772.52 1484.15,-762.094"/>
<polygon fill="black" stroke="black" points="1486.95,-764.185 1490.38,-754.159 1481.45,-759.86 1486.95,-764.185"/>
</g>
<!-- PruebaParametros1&#45;&gt;imprimirconintro0 -->
<g id="edge101" class="edge"><title>PruebaParametros1&#45;&gt;imprimirconintro0</title>
<path fill="none" stroke="black" d="M1525.01,-748.282C1580.45,-771.934 1724.43,-839.497 1810.29,-936 1861.37,-993.406 1873.29,-1020.16 1873.29,-1097 1873.29,-1243 1873.29,-1243 1873.29,-1243 1873.29,-1530.61 1835.29,-1601.39 1835.29,-1889 1835.29,-1963 1835.29,-1963 1835.29,-1963 1835.29,-2013.48 1793.3,-2059.61 1765.15,-2084.85"/>
<polygon fill="black" stroke="black" points="1762.52,-2082.5 1757.28,-2091.7 1767.12,-2087.78 1762.52,-2082.5"/>
</g>
<!-- PruebaParametros2 -->
<g id="node22" class="node"><title>PruebaParametros2</title>
<ellipse fill="none" stroke="black" cx="1502.29" cy="-666" rx="27" ry="18"/>
</g>
<!-- PruebaParametros1&#45;&gt;PruebaParametros2 -->
<g id="edge20" class="edge"><title>PruebaParametros1&#45;&gt;PruebaParametros2</title>
<path fill="none" stroke="black" d="M1502.29,-719.697C1502.29,-711.983 1502.29,-702.712 1502.29,-694.112"/>
<polygon fill="black" stroke="black" points="1505.79,-694.104 1502.29,-684.104 1498.79,-694.104 1505.79,-694.104"/>
</g>
<!-- main9 -->
<g id="node40" class="node"><title>main9</title>
<ellipse fill="none" stroke="black" cx="1447.29" cy="-882" rx="27" ry="18"/>
</g>
<!-- PruebaParametros2&#45;&gt;main9 -->
<g id="edge132" class="edge"><title>PruebaParametros2&#45;&gt;main9</title>
<path fill="none" stroke="black" d="M1487.31,-681.004C1465.59,-702.443 1426.33,-745.799 1411.29,-792 1406.34,-807.215 1406.59,-812.707 1411.29,-828 1414.58,-838.685 1420.83,-849.149 1427.22,-857.919"/>
<polygon fill="black" stroke="black" points="1424.65,-860.314 1433.54,-866.069 1430.18,-856.023 1424.65,-860.314"/>
</g>
<!-- PruebaTransitivaIntermedia0 -->
<g id="node23" class="node"><title>PruebaTransitivaIntermedia0</title>
<ellipse fill="none" stroke="black" cx="758.291" cy="-954" rx="27" ry="18"/>
</g>
<!-- PruebaTransitivaIntermedia0&#45;&gt;PruebaTransitivaIntermedia1 -->
<g id="edge21" class="edge"><title>PruebaTransitivaIntermedia0&#45;&gt;PruebaTransitivaIntermedia1</title>
<path fill="none" stroke="black" d="M768.956,-937.116C774.845,-928.345 782.286,-917.264 788.898,-907.416"/>
<polygon fill="black" stroke="black" points="792,-909.074 794.669,-898.821 786.188,-905.172 792,-909.074"/>
</g>
<!-- PruebaTransitivaIntermedia1&#45;&gt;imprimirconintro0 -->
<g id="edge103" class="edge"><title>PruebaTransitivaIntermedia1&#45;&gt;imprimirconintro0</title>
<path fill="none" stroke="black" d="M807.383,-899.964C810.302,-923.985 815.647,-969.301 819.291,-1008 825.309,-1071.9 827.845,-1087.86 830.291,-1152 835.47,-1287.78 809.291,-1321.12 809.291,-1457 809.291,-1963 809.291,-1963 809.291,-1963 809.291,-2003.97 801.51,-2026.15 833.291,-2052 901.546,-2107.52 1539.82,-2106.52 1702.63,-2105.35"/>
<polygon fill="black" stroke="black" points="1703.12,-2108.85 1713.09,-2105.27 1703.06,-2101.85 1703.12,-2108.85"/>
</g>
<!-- PruebaTransitivaIntermedia2 -->
<g id="node25" class="node"><title>PruebaTransitivaIntermedia2</title>
<ellipse fill="none" stroke="black" cx="801.291" cy="-810" rx="27" ry="18"/>
</g>
<!-- PruebaTransitivaIntermedia1&#45;&gt;PruebaTransitivaIntermedia2 -->
<g id="edge22" class="edge"><title>PruebaTransitivaIntermedia1&#45;&gt;PruebaTransitivaIntermedia2</title>
<path fill="none" stroke="black" d="M804.303,-863.697C803.862,-855.983 803.332,-846.712 802.841,-838.112"/>
<polygon fill="black" stroke="black" points="806.334,-837.888 802.269,-828.104 799.345,-838.288 806.334,-837.888"/>
</g>
<!-- PruebaTransitivaIntermedia2&#45;&gt;PruebaTransitivaIntermedia3 -->
<g id="edge23" class="edge"><title>PruebaTransitivaIntermedia2&#45;&gt;PruebaTransitivaIntermedia3</title>
<path fill="none" stroke="black" d="M779.695,-799.119C753.531,-787.149 709.259,-766.894 679.415,-753.24"/>
<polygon fill="black" stroke="black" points="680.823,-750.035 670.274,-749.057 677.911,-756.4 680.823,-750.035"/>
</g>
<!-- PruebaTransitivaFinal0 -->
<g id="node28" class="node"><title>PruebaTransitivaFinal0</title>
<ellipse fill="none" stroke="black" cx="834.291" cy="-738" rx="27" ry="18"/>
</g>
<!-- PruebaTransitivaIntermedia2&#45;&gt;PruebaTransitivaFinal0 -->
<g id="edge107" class="edge"><title>PruebaTransitivaIntermedia2&#45;&gt;PruebaTransitivaFinal0</title>
<path fill="none" stroke="black" d="M809.112,-792.411C813.016,-784.129 817.827,-773.925 822.194,-764.662"/>
<polygon fill="black" stroke="black" points="825.429,-766.008 826.527,-755.47 819.097,-763.023 825.429,-766.008"/>
</g>
<!-- PruebaTransitivaIntermedia3&#45;&gt;imprimirconintro0 -->
<g id="edge105" class="edge"><title>PruebaTransitivaIntermedia3&#45;&gt;imprimirconintro0</title>
<path fill="none" stroke="black" d="M648.629,-756.03C649.599,-805.855 652.38,-955.667 653.291,-1080 653.409,-1096 654.296,-1100.03 653.291,-1116 645.721,-1236.27 619.291,-1264.49 619.291,-1385 619.291,-1963 619.291,-1963 619.291,-1963 619.291,-2010.46 637.051,-2028.52 678.291,-2052 768.834,-2103.56 1525.62,-2105.4 1703.13,-2105.11"/>
<polygon fill="black" stroke="black" points="1703.28,-2108.61 1713.28,-2105.09 1703.27,-2101.61 1703.28,-2108.61"/>
</g>
<!-- PruebaTransitivaIntermedia4 -->
<g id="node27" class="node"><title>PruebaTransitivaIntermedia4</title>
<ellipse fill="none" stroke="black" cx="648.291" cy="-666" rx="27" ry="18"/>
</g>
<!-- PruebaTransitivaIntermedia3&#45;&gt;PruebaTransitivaIntermedia4 -->
<g id="edge24" class="edge"><title>PruebaTransitivaIntermedia3&#45;&gt;PruebaTransitivaIntermedia4</title>
<path fill="none" stroke="black" d="M648.291,-719.697C648.291,-711.983 648.291,-702.712 648.291,-694.112"/>
<polygon fill="black" stroke="black" points="651.791,-694.104 648.291,-684.104 644.791,-694.104 651.791,-694.104"/>
</g>
<!-- main7 -->
<g id="node38" class="node"><title>main7</title>
<ellipse fill="none" stroke="black" cx="783.291" cy="-1026" rx="27" ry="18"/>
</g>
<!-- PruebaTransitivaIntermedia4&#45;&gt;main7 -->
<g id="edge136" class="edge"><title>PruebaTransitivaIntermedia4&#45;&gt;main7</title>
<path fill="none" stroke="black" d="M661.039,-682.298C668.85,-692.413 678.439,-706.292 684.291,-720 700.172,-757.199 703.291,-768.553 703.291,-809 703.291,-883 703.291,-883 703.291,-883 703.291,-923.447 701.743,-937.161 722.291,-972 730.493,-985.905 743.646,-998.018 755.642,-1007.14"/>
<polygon fill="black" stroke="black" points="753.929,-1010.22 764.085,-1013.24 758.027,-1004.55 753.929,-1010.22"/>
</g>
<!-- PruebaTransitiva2 -->
<g id="node78" class="node"><title>PruebaTransitiva2</title>
<ellipse fill="none" stroke="black" cx="644.291" cy="-594" rx="27" ry="18"/>
</g>
<!-- PruebaTransitivaIntermedia4&#45;&gt;PruebaTransitiva2 -->
<g id="edge156" class="edge"><title>PruebaTransitivaIntermedia4&#45;&gt;PruebaTransitiva2</title>
<path fill="none" stroke="black" d="M647.303,-647.697C646.862,-639.983 646.332,-630.712 645.841,-622.112"/>
<polygon fill="black" stroke="black" points="649.334,-621.888 645.269,-612.104 642.345,-622.288 649.334,-621.888"/>
</g>
<!-- PruebaTransitivaFinal0&#45;&gt;PruebaTransitivaFinal1 -->
<g id="edge25" class="edge"><title>PruebaTransitivaFinal0&#45;&gt;PruebaTransitivaFinal1</title>
<path fill="none" stroke="black" d="M840.927,-720.411C844.205,-712.216 848.236,-702.14 851.909,-692.955"/>
<polygon fill="black" stroke="black" points="855.239,-694.055 855.703,-683.47 848.74,-691.455 855.239,-694.055"/>
</g>
<!-- PruebaTransitivaFinal1&#45;&gt;imprimirconintro0 -->
<g id="edge109" class="edge"><title>PruebaTransitivaFinal1&#45;&gt;imprimirconintro0</title>
<path fill="none" stroke="black" d="M867.626,-683.852C875.494,-710.247 889.291,-763.077 889.291,-809 889.291,-883 889.291,-883 889.291,-883 889.291,-1010.12 885.291,-1041.88 885.291,-1169 885.291,-1243 885.291,-1243 885.291,-1243 885.291,-1339.6 847.291,-1360.4 847.291,-1457 847.291,-1963 847.291,-1963 847.291,-1963 847.291,-2011.21 867.29,-2028.34 909.291,-2052 979.018,-2091.28 1549.87,-2102.26 1702.75,-2104.51"/>
<polygon fill="black" stroke="black" points="1702.97,-2108.01 1713.02,-2104.66 1703.07,-2101.01 1702.97,-2108.01"/>
</g>
<!-- PruebaTransitivaFinal2 -->
<g id="node30" class="node"><title>PruebaTransitivaFinal2</title>
<ellipse fill="none" stroke="black" cx="820.291" cy="-594" rx="27" ry="18"/>
</g>
<!-- PruebaTransitivaFinal1&#45;&gt;PruebaTransitivaFinal2 -->
<g id="edge26" class="edge"><title>PruebaTransitivaFinal1&#45;&gt;PruebaTransitivaFinal2</title>
<path fill="none" stroke="black" d="M852.761,-649.116C847.625,-640.557 841.17,-629.797 835.37,-620.132"/>
<polygon fill="black" stroke="black" points="838.222,-618.081 830.076,-611.307 832.219,-621.683 838.222,-618.081"/>
</g>
<!-- PruebaTransitivaFinal2&#45;&gt;PruebaTransitivaIntermedia2 -->
<g id="edge108" class="edge"><title>PruebaTransitivaFinal2&#45;&gt;PruebaTransitivaIntermedia2</title>
<path fill="none" stroke="black" d="M816.359,-611.859C811.007,-635.757 801.704,-680.927 798.291,-720 796.899,-735.939 797.839,-740.006 798.291,-756 798.527,-764.327 798.97,-773.381 799.445,-781.611"/>
<polygon fill="black" stroke="black" points="795.966,-782.058 800.073,-791.825 802.952,-781.629 795.966,-782.058"/>
</g>
<!-- main0 -->
<g id="node31" class="node"><title>main0</title>
<ellipse fill="red" stroke="black" cx="192.291" cy="-1962" rx="27" ry="18"/>
</g>
<!-- main0&#45;&gt;main1 -->
<g id="edge27" class="edge"><title>main0&#45;&gt;main1</title>
<path fill="none" stroke="black" d="M192.291,-1943.7C192.291,-1935.98 192.291,-1926.71 192.291,-1918.11"/>
<polygon fill="black" stroke="black" points="195.791,-1918.1 192.291,-1908.1 188.791,-1918.1 195.791,-1918.1"/>
</g>
<!-- main1&#45;&gt;imprimirconintro0 -->
<g id="edge111" class="edge"><title>main1&#45;&gt;imprimirconintro0</title>
<path fill="none" stroke="black" d="M204.267,-1906.67C211.77,-1916.93 221.306,-1930.83 228.291,-1944 252.505,-1989.64 229.062,-2022.23 271.291,-2052 331.546,-2094.47 1480.05,-2103.45 1702.98,-2104.8"/>
<polygon fill="black" stroke="black" points="1703.16,-2108.3 1713.18,-2104.86 1703.2,-2101.3 1703.16,-2108.3"/>
</g>
<!-- main1&#45;&gt;main2 -->
<g id="edge28" class="edge"><title>main1&#45;&gt;main2</title>
<path fill="none" stroke="black" d="M195.65,-1872.03C200.604,-1845.48 209.291,-1792.44 209.291,-1747 209.291,-1747 209.291,-1747 209.291,-1673 209.291,-1574.24 250.664,-1462.09 271.116,-1412.68"/>
<polygon fill="black" stroke="black" points="274.374,-1413.96 275.025,-1403.39 267.922,-1411.25 274.374,-1413.96"/>
</g>
<!-- main2&#45;&gt;PruebaIf0 -->
<g id="edge129" class="edge"><title>main2&#45;&gt;PruebaIf0</title>
<path fill="none" stroke="black" d="M296.381,-1370.5C305.863,-1360.73 318.536,-1347.69 329.211,-1336.7"/>
<polygon fill="black" stroke="black" points="331.762,-1339.1 336.22,-1329.49 326.741,-1334.22 331.762,-1339.1"/>
</g>
<!-- main2&#45;&gt;main3 -->
<g id="edge29" class="edge"><title>main2&#45;&gt;main3</title>
<path fill="none" stroke="black" d="M275.656,-1368.41C272.378,-1360.22 268.347,-1350.14 264.673,-1340.95"/>
<polygon fill="black" stroke="black" points="267.843,-1339.45 260.879,-1331.47 261.344,-1342.05 267.843,-1339.45"/>
</g>
<!-- main3&#45;&gt;PruebaFor0 -->
<g id="edge127" class="edge"><title>main3&#45;&gt;PruebaFor0</title>
<path fill="none" stroke="black" d="M233.288,-1325.45C215.498,-1334.95 189.979,-1350.19 171.291,-1368 142.905,-1395.06 139.383,-1405.75 120.291,-1440 -25.8517,-1702.19 2.29132,-1804.83 2.29132,-2105 2.29132,-2251 2.29132,-2251 2.29132,-2251 2.29132,-2302.99 47.8015,-2349.16 77.7232,-2373.91"/>
<polygon fill="black" stroke="black" points="75.7079,-2376.78 85.6985,-2380.3 80.0878,-2371.32 75.7079,-2376.78"/>
</g>
<!-- main4 -->
<g id="node35" class="node"><title>main4</title>
<ellipse fill="none" stroke="black" cx="313.291" cy="-1242" rx="27" ry="18"/>
</g>
<!-- main3&#45;&gt;main4 -->
<g id="edge30" class="edge"><title>main3&#45;&gt;main4</title>
<path fill="none" stroke="black" d="M267.093,-1297.81C274.902,-1288.55 285.038,-1276.52 293.826,-1266.09"/>
<polygon fill="black" stroke="black" points="296.746,-1268.06 300.514,-1258.16 291.393,-1263.55 296.746,-1268.06"/>
</g>
<!-- main5 -->
<g id="node36" class="node"><title>main5</title>
<ellipse fill="none" stroke="black" cx="528.291" cy="-1170" rx="27" ry="18"/>
</g>
<!-- main4&#45;&gt;main5 -->
<g id="edge31" class="edge"><title>main4&#45;&gt;main5</title>
<path fill="none" stroke="black" d="M337.122,-1233.24C375.462,-1220.76 450.965,-1196.18 494.736,-1181.93"/>
<polygon fill="black" stroke="black" points="495.929,-1185.22 504.354,-1178.79 493.762,-1178.56 495.929,-1185.22"/>
</g>
<!-- PruebaWhile0 -->
<g id="node65" class="node"><title>PruebaWhile0</title>
<ellipse fill="none" stroke="black" cx="340.291" cy="-1170" rx="27" ry="18"/>
</g>
<!-- main4&#45;&gt;PruebaWhile0 -->
<g id="edge139" class="edge"><title>main4&#45;&gt;PruebaWhile0</title>
<path fill="none" stroke="black" d="M319.69,-1224.41C322.805,-1216.34 326.625,-1206.43 330.126,-1197.35"/>
<polygon fill="black" stroke="black" points="333.418,-1198.55 333.751,-1187.96 326.887,-1196.03 333.418,-1198.55"/>
</g>
<!-- main5&#45;&gt;main6 -->
<g id="edge32" class="edge"><title>main5&#45;&gt;main6</title>
<path fill="none" stroke="black" d="M553.221,-1162.29C599.909,-1149.72 700.599,-1122.61 753.775,-1108.29"/>
<polygon fill="black" stroke="black" points="754.691,-1111.67 763.437,-1105.69 752.871,-1104.91 754.691,-1111.67"/>
</g>
<!-- PruebaTransitiva0 -->
<g id="node76" class="node"><title>PruebaTransitiva0</title>
<ellipse fill="none" stroke="black" cx="602.291" cy="-1098" rx="27" ry="18"/>
</g>
<!-- main5&#45;&gt;PruebaTransitiva0 -->
<g id="edge141" class="edge"><title>main5&#45;&gt;PruebaTransitiva0</title>
<path fill="none" stroke="black" d="M543.266,-1154.83C553.798,-1144.87 568.073,-1131.37 579.946,-1120.14"/>
<polygon fill="black" stroke="black" points="582.479,-1122.56 587.339,-1113.14 577.669,-1117.47 582.479,-1122.56"/>
</g>
<!-- main6&#45;&gt;imprimirconintro0 -->
<g id="edge113" class="edge"><title>main6&#45;&gt;imprimirconintro0</title>
<path fill="none" stroke="black" d="M780.682,-1115.49C752.723,-1177.64 657.291,-1404.19 657.291,-1601 657.291,-1963 657.291,-1963 657.291,-1963 657.291,-2035.98 725.887,-2029.43 795.291,-2052 968.304,-2108.26 1549.06,-2106.85 1702.72,-2105.44"/>
<polygon fill="black" stroke="black" points="1703.07,-2108.94 1713.04,-2105.34 1703,-2101.94 1703.07,-2108.94"/>
</g>
<!-- main6&#45;&gt;main7 -->
<g id="edge33" class="edge"><title>main6&#45;&gt;main7</title>
<path fill="none" stroke="black" d="M787.055,-1079.7C786.504,-1071.98 785.842,-1062.71 785.228,-1054.11"/>
<polygon fill="black" stroke="black" points="788.717,-1053.83 784.513,-1044.1 781.735,-1054.33 788.717,-1053.83"/>
</g>
<!-- main7&#45;&gt;PruebaTransitivaIntermedia0 -->
<g id="edge135" class="edge"><title>main7&#45;&gt;PruebaTransitivaIntermedia0</title>
<path fill="none" stroke="black" d="M777.367,-1008.41C774.513,-1000.42 771.021,-990.642 767.807,-981.645"/>
<polygon fill="black" stroke="black" points="771.007,-980.196 764.347,-971.956 764.414,-982.551 771.007,-980.196"/>
</g>
<!-- main8 -->
<g id="node39" class="node"><title>main8</title>
<ellipse fill="none" stroke="black" cx="1172.29" cy="-954" rx="27" ry="18"/>
</g>
<!-- main7&#45;&gt;main8 -->
<g id="edge34" class="edge"><title>main7&#45;&gt;main8</title>
<path fill="none" stroke="black" d="M809.116,-1020.35C876.617,-1008.21 1058.45,-975.485 1136.22,-961.492"/>
<polygon fill="black" stroke="black" points="1137.25,-964.861 1146.48,-959.645 1136.01,-957.972 1137.25,-964.861"/>
</g>
<!-- main8&#45;&gt;main9 -->
<g id="edge35" class="edge"><title>main8&#45;&gt;main9</title>
<path fill="none" stroke="black" d="M1197.18,-946.665C1246.35,-934.15 1356.02,-906.232 1412.38,-891.886"/>
<polygon fill="black" stroke="black" points="1413.43,-895.23 1422.26,-889.372 1411.71,-888.447 1413.43,-895.23"/>
</g>
<!-- main9&#45;&gt;PruebaParametros0 -->
<g id="edge131" class="edge"><title>main9&#45;&gt;PruebaParametros0</title>
<path fill="none" stroke="black" d="M1447.29,-863.697C1447.29,-855.983 1447.29,-846.712 1447.29,-838.112"/>
<polygon fill="black" stroke="black" points="1450.79,-838.104 1447.29,-828.104 1443.79,-838.104 1450.79,-838.104"/>
</g>
<!-- main9&#45;&gt;main10 -->
<g id="edge36" class="edge"><title>main9&#45;&gt;main10</title>
<path fill="none" stroke="black" d="M1428.13,-868.807C1410.62,-857.665 1384.53,-841.062 1364.8,-828.504"/>
<polygon fill="black" stroke="black" points="1366.55,-825.469 1356.23,-823.053 1362.79,-831.375 1366.55,-825.469"/>
</g>
<!-- main10&#45;&gt;imprimirconintro0 -->
<g id="edge115" class="edge"><title>main10&#45;&gt;imprimirconintro0</title>
<path fill="none" stroke="black" d="M1345.7,-827.503C1357.31,-848.393 1380.4,-883.623 1411.29,-900 1556.09,-976.767 1644.85,-840.851 1778.29,-936 1888.88,-1014.85 1797.29,-1105.18 1797.29,-1241 1797.29,-1963 1797.29,-1963 1797.29,-1963 1797.29,-2003.97 1789.63,-2014.43 1773.29,-2052 1768.99,-2061.89 1763.05,-2072.09 1757.4,-2080.87"/>
<polygon fill="black" stroke="black" points="1754.32,-2079.18 1751.69,-2089.44 1760.15,-2083.06 1754.32,-2079.18"/>
</g>
<!-- main11 -->
<g id="node42" class="node"><title>main11</title>
<ellipse fill="none" stroke="black" cx="1337.29" cy="-738" rx="27" ry="18"/>
</g>
<!-- main10&#45;&gt;main11 -->
<g id="edge37" class="edge"><title>main10&#45;&gt;main11</title>
<path fill="none" stroke="black" d="M1337.29,-791.697C1337.29,-783.983 1337.29,-774.712 1337.29,-766.112"/>
<polygon fill="black" stroke="black" points="1340.79,-766.104 1337.29,-756.104 1333.79,-766.104 1340.79,-766.104"/>
</g>
<!-- main10&#45;&gt;main12 -->
<g id="edge38" class="edge"><title>main10&#45;&gt;main12</title>
<path fill="none" stroke="black" d="M1318.13,-796.807C1300.62,-785.665 1274.53,-769.062 1254.8,-756.504"/>
<polygon fill="black" stroke="black" points="1256.55,-753.469 1246.23,-751.053 1252.79,-759.375 1256.55,-753.469"/>
</g>
<!-- PruebaDevolucion0 -->
<g id="node56" class="node"><title>PruebaDevolucion0</title>
<ellipse fill="none" stroke="black" cx="1392.29" cy="-666" rx="27" ry="18"/>
</g>
<!-- main11&#45;&gt;PruebaDevolucion0 -->
<g id="edge125" class="edge"><title>main11&#45;&gt;PruebaDevolucion0</title>
<path fill="none" stroke="black" d="M1349.23,-721.811C1356.5,-712.546 1365.95,-700.52 1374.15,-690.094"/>
<polygon fill="black" stroke="black" points="1376.95,-692.185 1380.38,-682.159 1371.45,-687.86 1376.95,-692.185"/>
</g>
<!-- main12&#45;&gt;imprimirconintro0 -->
<g id="edge117" class="edge"><title>main12&#45;&gt;imprimirconintro0</title>
<path fill="none" stroke="black" d="M1233.66,-755.627C1240.96,-773.932 1253.81,-803.953 1268.29,-828 1289.06,-862.497 1294,-872.363 1323.29,-900 1478.57,-1046.53 1721.29,-955.498 1721.29,-1169 1721.29,-1963 1721.29,-1963 1721.29,-1963 1721.29,-2003.36 1728.93,-2049.61 1734.52,-2078.06"/>
<polygon fill="black" stroke="black" points="1731.12,-2078.94 1736.54,-2088.05 1737.98,-2077.55 1731.12,-2078.94"/>
</g>
<!-- main13 -->
<g id="node44" class="node"><title>main13</title>
<ellipse fill="none" stroke="black" cx="1320.29" cy="-666" rx="27" ry="18"/>
</g>
<!-- main12&#45;&gt;main13 -->
<g id="edge39" class="edge"><title>main12&#45;&gt;main13</title>
<path fill="none" stroke="black" d="M1244.78,-723.834C1258.81,-713.274 1278.71,-698.3 1294.55,-686.373"/>
<polygon fill="black" stroke="black" points="1296.99,-688.918 1302.88,-680.107 1292.78,-683.325 1296.99,-688.918"/>
</g>
<!-- main14 -->
<g id="node45" class="node"><title>main14</title>
<ellipse fill="none" stroke="black" cx="1210.29" cy="-666" rx="27" ry="18"/>
</g>
<!-- main12&#45;&gt;main14 -->
<g id="edge40" class="edge"><title>main12&#45;&gt;main14</title>
<path fill="none" stroke="black" d="M1223.18,-720.055C1221.28,-712.261 1218.99,-702.822 1216.87,-694.079"/>
<polygon fill="black" stroke="black" points="1220.25,-693.167 1214.49,-684.275 1213.45,-694.819 1220.25,-693.167"/>
</g>
<!-- PruebaConcatenacion0 -->
<g id="node59" class="node"><title>PruebaConcatenacion0</title>
<ellipse fill="none" stroke="black" cx="1354.29" cy="-594" rx="27" ry="18"/>
</g>
<!-- main13&#45;&gt;PruebaConcatenacion0 -->
<g id="edge133" class="edge"><title>main13&#45;&gt;PruebaConcatenacion0</title>
<path fill="none" stroke="black" d="M1328.18,-648.765C1332.2,-640.491 1337.18,-630.232 1341.71,-620.9"/>
<polygon fill="black" stroke="black" points="1344.99,-622.158 1346.21,-611.633 1338.69,-619.099 1344.99,-622.158"/>
</g>
<!-- main15 -->
<g id="node46" class="node"><title>main15</title>
<ellipse fill="none" stroke="black" cx="1282.29" cy="-594" rx="27" ry="18"/>
</g>
<!-- main14&#45;&gt;main15 -->
<g id="edge41" class="edge"><title>main14&#45;&gt;main15</title>
<path fill="none" stroke="black" d="M1224.86,-650.834C1235.04,-640.938 1248.82,-627.546 1260.32,-616.359"/>
<polygon fill="black" stroke="black" points="1262.77,-618.865 1267.5,-609.385 1257.89,-613.846 1262.77,-618.865"/>
</g>
<!-- main19 -->
<g id="node50" class="node"><title>main19</title>
<ellipse fill="none" stroke="black" cx="1134.29" cy="-594" rx="27" ry="18"/>
</g>
<!-- main14&#45;&gt;main19 -->
<g id="edge42" class="edge"><title>main14&#45;&gt;main19</title>
<path fill="none" stroke="black" d="M1194.91,-650.834C1184.1,-640.872 1169.43,-627.369 1157.24,-616.137"/>
<polygon fill="black" stroke="black" points="1159.37,-613.345 1149.65,-609.144 1154.63,-618.494 1159.37,-613.345"/>
</g>
<!-- main16 -->
<g id="node47" class="node"><title>main16</title>
<ellipse fill="none" stroke="black" cx="1290.29" cy="-522" rx="27" ry="18"/>
</g>
<!-- main15&#45;&gt;main16 -->
<g id="edge43" class="edge"><title>main15&#45;&gt;main16</title>
<path fill="none" stroke="black" d="M1284.27,-575.697C1285.15,-567.983 1286.21,-558.712 1287.19,-550.112"/>
<polygon fill="black" stroke="black" points="1290.68,-550.437 1288.34,-540.104 1283.72,-549.642 1290.68,-550.437"/>
</g>
<!-- main15&#45;&gt;main17 -->
<g id="edge44" class="edge"><title>main15&#45;&gt;main17</title>
<path fill="none" stroke="black" d="M1268.72,-578.155C1259.98,-568.596 1248.46,-555.994 1238.63,-545.249"/>
<polygon fill="black" stroke="black" points="1241.18,-542.842 1231.84,-537.824 1236.01,-547.566 1241.18,-542.842"/>
</g>
<!-- PruebaLogica0 -->
<g id="node62" class="node"><title>PruebaLogica0</title>
<ellipse fill="none" stroke="black" cx="1332.29" cy="-450" rx="27" ry="18"/>
</g>
<!-- main16&#45;&gt;PruebaLogica0 -->
<g id="edge137" class="edge"><title>main16&#45;&gt;PruebaLogica0</title>
<path fill="none" stroke="black" d="M1299.82,-505.116C1304.96,-496.557 1311.41,-485.797 1317.21,-476.132"/>
<polygon fill="black" stroke="black" points="1320.36,-477.683 1322.51,-467.307 1314.36,-474.081 1320.36,-477.683"/>
</g>
<!-- main17&#45;&gt;imprimirconintro0 -->
<g id="edge119" class="edge"><title>main17&#45;&gt;imprimirconintro0</title>
<path fill="none" stroke="black" d="M1222.39,-539.843C1237.08,-599.964 1286.98,-801.814 1301.29,-828 1381.76,-975.298 1488.9,-922.417 1633.29,-1008 1711.46,-1054.33 1759.29,-1078.14 1759.29,-1169 1759.29,-1963 1759.29,-1963 1759.29,-1963 1759.29,-2003.36 1751.66,-2049.61 1746.07,-2078.06"/>
<polygon fill="black" stroke="black" points="1742.6,-2077.55 1744.05,-2088.05 1749.46,-2078.94 1742.6,-2077.55"/>
</g>
<!-- main18 -->
<g id="node49" class="node"><title>main18</title>
<ellipse fill="none" stroke="black" cx="1218.29" cy="-450" rx="27" ry="18"/>
</g>
<!-- main17&#45;&gt;main18 -->
<g id="edge45" class="edge"><title>main17&#45;&gt;main18</title>
<path fill="none" stroke="black" d="M1218.29,-503.697C1218.29,-495.983 1218.29,-486.712 1218.29,-478.112"/>
<polygon fill="black" stroke="black" points="1221.79,-478.104 1218.29,-468.104 1214.79,-478.104 1221.79,-478.104"/>
</g>
<!-- main21 -->
<g id="node52" class="node"><title>main21</title>
<ellipse fill="none" stroke="black" cx="1218.29" cy="-378" rx="27" ry="18"/>
</g>
<!-- main18&#45;&gt;main21 -->
<g id="edge46" class="edge"><title>main18&#45;&gt;main21</title>
<path fill="none" stroke="black" d="M1218.29,-431.697C1218.29,-423.983 1218.29,-414.712 1218.29,-406.112"/>
<polygon fill="black" stroke="black" points="1221.79,-406.104 1218.29,-396.104 1214.79,-406.104 1221.79,-406.104"/>
</g>
<!-- main19&#45;&gt;main20 -->
<g id="edge47" class="edge"><title>main19&#45;&gt;main20</title>
<path fill="none" stroke="black" d="M1118.91,-578.834C1108.1,-568.872 1093.43,-555.369 1081.24,-544.137"/>
<polygon fill="black" stroke="black" points="1083.37,-541.345 1073.65,-537.144 1078.63,-546.494 1083.37,-541.345"/>
</g>
<!-- main20&#45;&gt;imprimirconintro0 -->
<g id="edge121" class="edge"><title>main20&#45;&gt;imprimirconintro0</title>
<path fill="none" stroke="black" d="M1049.47,-539.035C1027.64,-579.768 971.445,-691.151 952.291,-792 921.019,-956.66 961.291,-1001.4 961.291,-1169 961.291,-1747 961.291,-1747 961.291,-1747 961.291,-1820.32 950.043,-1851.93 997.291,-1908 1117.43,-2050.57 1209.94,-2008.74 1391.29,-2052 1503.66,-2078.81 1639.78,-2094.87 1703.74,-2101.48"/>
<polygon fill="black" stroke="black" points="1703.43,-2104.97 1713.73,-2102.5 1704.14,-2098 1703.43,-2104.97"/>
</g>
<!-- main22 -->
<g id="node53" class="node"><title>main22</title>
<ellipse fill="none" stroke="black" cx="2000.29" cy="-1746" rx="27" ry="18"/>
</g>
<!-- PruebaFuncionesCadena0 -->
<g id="node81" class="node"><title>PruebaFuncionesCadena0</title>
<ellipse fill="none" stroke="black" cx="1998.29" cy="-1674" rx="27" ry="18"/>
</g>
<!-- main22&#45;&gt;PruebaFuncionesCadena0 -->
<g id="edge143" class="edge"><title>main22&#45;&gt;PruebaFuncionesCadena0</title>
<path fill="none" stroke="black" d="M1999.8,-1727.7C1999.58,-1719.98 1999.31,-1710.71 1999.07,-1702.11"/>
<polygon fill="black" stroke="black" points="2002.56,-1702 1998.78,-1692.1 1995.57,-1702.2 2002.56,-1702"/>
</g>
<!-- main23&#45;&gt;imprimirconintro0 -->
<g id="edge123" class="edge"><title>main23&#45;&gt;imprimirconintro0</title>
<path fill="none" stroke="black" d="M1890.44,-1908.11C1889.85,-1939.97 1884.28,-2009.07 1849.29,-2052 1830.68,-2074.84 1799.83,-2088.55 1775.69,-2096.28"/>
<polygon fill="black" stroke="black" points="1774.38,-2093.02 1765.81,-2099.24 1776.39,-2099.72 1774.38,-2093.02"/>
</g>
<!-- main24 -->
<g id="node55" class="node"><title>main24</title>
<ellipse fill="blue" stroke="black" cx="1890.29" cy="-1818" rx="27" ry="18"/>
</g>
<!-- main23&#45;&gt;main24 -->
<g id="edge48" class="edge"><title>main23&#45;&gt;main24</title>
<path fill="none" stroke="black" d="M1890.29,-1871.7C1890.29,-1863.98 1890.29,-1854.71 1890.29,-1846.11"/>
<polygon fill="black" stroke="black" points="1893.79,-1846.1 1890.29,-1836.1 1886.79,-1846.1 1893.79,-1846.1"/>
</g>
<!-- PruebaDevolucion1 -->
<g id="node57" class="node"><title>PruebaDevolucion1</title>
<ellipse fill="none" stroke="black" cx="1464.29" cy="-594" rx="27" ry="18"/>
</g>
<!-- PruebaDevolucion0&#45;&gt;PruebaDevolucion1 -->
<g id="edge49" class="edge"><title>PruebaDevolucion0&#45;&gt;PruebaDevolucion1</title>
<path fill="none" stroke="black" d="M1406.86,-650.834C1417.04,-640.938 1430.82,-627.546 1442.32,-616.359"/>
<polygon fill="black" stroke="black" points="1444.77,-618.865 1449.5,-609.385 1439.89,-613.846 1444.77,-618.865"/>
</g>
<!-- PruebaDevolucion2 -->
<g id="node58" class="node"><title>PruebaDevolucion2</title>
<ellipse fill="none" stroke="black" cx="1483.29" cy="-522" rx="27" ry="18"/>
</g>
<!-- PruebaDevolucion1&#45;&gt;PruebaDevolucion2 -->
<g id="edge50" class="edge"><title>PruebaDevolucion1&#45;&gt;PruebaDevolucion2</title>
<path fill="none" stroke="black" d="M1468.89,-576.055C1471.04,-568.145 1473.64,-558.54 1476.05,-549.688"/>
<polygon fill="black" stroke="black" points="1479.49,-550.357 1478.73,-539.789 1472.74,-548.523 1479.49,-550.357"/>
</g>
<!-- PruebaDevolucion2&#45;&gt;main11 -->
<g id="edge126" class="edge"><title>PruebaDevolucion2&#45;&gt;main11</title>
<path fill="none" stroke="black" d="M1491.82,-539.32C1500.17,-557.615 1510.28,-587.875 1500.29,-612 1498.13,-617.226 1432.77,-680.548 1428.29,-684 1409.3,-698.632 1385.88,-712.181 1367.56,-721.917"/>
<polygon fill="black" stroke="black" points="1365.74,-718.918 1358.5,-726.646 1368.98,-725.125 1365.74,-718.918"/>
</g>
<!-- PruebaConcatenacion1 -->
<g id="node60" class="node"><title>PruebaConcatenacion1</title>
<ellipse fill="none" stroke="black" cx="1362.29" cy="-522" rx="27" ry="18"/>
</g>
<!-- PruebaConcatenacion0&#45;&gt;PruebaConcatenacion1 -->
<g id="edge51" class="edge"><title>PruebaConcatenacion0&#45;&gt;PruebaConcatenacion1</title>
<path fill="none" stroke="black" d="M1356.27,-575.697C1357.15,-567.983 1358.21,-558.712 1359.19,-550.112"/>
<polygon fill="black" stroke="black" points="1362.68,-550.437 1360.34,-540.104 1355.72,-549.642 1362.68,-550.437"/>
</g>
<!-- PruebaConcatenacion2 -->
<g id="node61" class="node"><title>PruebaConcatenacion2</title>
<ellipse fill="none" stroke="black" cx="1412.29" cy="-450" rx="27" ry="18"/>
</g>
<!-- PruebaConcatenacion1&#45;&gt;PruebaConcatenacion2 -->
<g id="edge52" class="edge"><title>PruebaConcatenacion1&#45;&gt;PruebaConcatenacion2</title>
<path fill="none" stroke="black" d="M1373.39,-505.465C1379.8,-496.493 1387.99,-485.019 1395.21,-474.918"/>
<polygon fill="black" stroke="black" points="1398.26,-476.664 1401.23,-466.492 1392.57,-472.595 1398.26,-476.664"/>
</g>
<!-- PruebaConcatenacion2&#45;&gt;main13 -->
<g id="edge134" class="edge"><title>PruebaConcatenacion2&#45;&gt;main13</title>
<path fill="none" stroke="black" d="M1414.05,-468.36C1416.36,-499.458 1417.35,-565.733 1390.29,-612 1380.99,-627.908 1364.86,-640.612 1350.42,-649.59"/>
<polygon fill="black" stroke="black" points="1348.58,-646.611 1341.73,-654.693 1352.13,-652.647 1348.58,-646.611"/>
</g>
<!-- PruebaLogica1 -->
<g id="node63" class="node"><title>PruebaLogica1</title>
<ellipse fill="none" stroke="black" cx="1332.29" cy="-378" rx="27" ry="18"/>
</g>
<!-- PruebaLogica0&#45;&gt;PruebaLogica1 -->
<g id="edge53" class="edge"><title>PruebaLogica0&#45;&gt;PruebaLogica1</title>
<path fill="none" stroke="black" d="M1332.29,-431.697C1332.29,-423.983 1332.29,-414.712 1332.29,-406.112"/>
<polygon fill="black" stroke="black" points="1335.79,-406.104 1332.29,-396.104 1328.79,-406.104 1335.79,-406.104"/>
</g>
<!-- PruebaLogica2 -->
<g id="node64" class="node"><title>PruebaLogica2</title>
<ellipse fill="none" stroke="black" cx="1304.29" cy="-306" rx="27" ry="18"/>
</g>
<!-- PruebaLogica1&#45;&gt;PruebaLogica2 -->
<g id="edge54" class="edge"><title>PruebaLogica1&#45;&gt;PruebaLogica2</title>
<path fill="none" stroke="black" d="M1325.66,-360.411C1322.38,-352.216 1318.35,-342.14 1314.67,-332.955"/>
<polygon fill="black" stroke="black" points="1317.84,-331.455 1310.88,-323.47 1311.34,-334.055 1317.84,-331.455"/>
</g>
<!-- PruebaLogica2&#45;&gt;main16 -->
<g id="edge138" class="edge"><title>PruebaLogica2&#45;&gt;main16</title>
<path fill="none" stroke="black" d="M1301.21,-324.126C1299.47,-334.476 1297.42,-347.956 1296.29,-360 1291.92,-406.584 1290.7,-461.031 1290.38,-493.176"/>
<polygon fill="black" stroke="black" points="1286.88,-493.539 1290.3,-503.566 1293.88,-493.593 1286.88,-493.539"/>
</g>
<!-- PruebaWhile1 -->
<g id="node66" class="node"><title>PruebaWhile1</title>
<ellipse fill="none" stroke="black" cx="340.291" cy="-1098" rx="27" ry="18"/>
</g>
<!-- PruebaWhile0&#45;&gt;PruebaWhile1 -->
<g id="edge55" class="edge"><title>PruebaWhile0&#45;&gt;PruebaWhile1</title>
<path fill="none" stroke="black" d="M340.291,-1151.7C340.291,-1143.98 340.291,-1134.71 340.291,-1126.11"/>
<polygon fill="black" stroke="black" points="343.791,-1126.1 340.291,-1116.1 336.791,-1126.1 343.791,-1126.1"/>
</g>
<!-- PruebaWhile2 -->
<g id="node67" class="node"><title>PruebaWhile2</title>
<ellipse fill="none" stroke="black" cx="340.291" cy="-1026" rx="27" ry="18"/>
</g>
<!-- PruebaWhile1&#45;&gt;PruebaWhile2 -->
<g id="edge56" class="edge"><title>PruebaWhile1&#45;&gt;PruebaWhile2</title>
<path fill="none" stroke="black" d="M340.291,-1079.7C340.291,-1071.98 340.291,-1062.71 340.291,-1054.11"/>
<polygon fill="black" stroke="black" points="343.791,-1054.1 340.291,-1044.1 336.791,-1054.1 343.791,-1054.1"/>
</g>
<!-- PruebaWhile2&#45;&gt;PruebaWhile3 -->
<g id="edge57" class="edge"><title>PruebaWhile2&#45;&gt;PruebaWhile3</title>
<path fill="none" stroke="black" d="M350.956,-1009.12C356.845,-1000.34 364.286,-989.264 370.898,-979.416"/>
<polygon fill="black" stroke="black" points="374,-981.074 376.669,-970.821 368.188,-977.172 374,-981.074"/>
</g>
<!-- PruebaWhile3&#45;&gt;imprimirconintro0 -->
<g id="edge145" class="edge"><title>PruebaWhile3&#45;&gt;imprimirconintro0</title>
<path fill="none" stroke="black" d="M391.353,-971.807C412.102,-1057.72 505.291,-1444.27 505.291,-1457 505.291,-1603 505.291,-1603 505.291,-1603 505.291,-1699.6 467.291,-1720.4 467.291,-1817 467.291,-1963 467.291,-1963 467.291,-1963 467.291,-2003.97 459.304,-2026.4 491.291,-2052 539.803,-2090.82 1501.18,-2102.6 1703.23,-2104.65"/>
<polygon fill="black" stroke="black" points="1703.3,-2108.15 1713.34,-2104.75 1703.37,-2101.15 1703.3,-2108.15"/>
</g>
<!-- PruebaWhile4 -->
<g id="node69" class="node"><title>PruebaWhile4</title>
<ellipse fill="none" stroke="black" cx="378.291" cy="-882" rx="27" ry="18"/>
</g>
<!-- PruebaWhile3&#45;&gt;PruebaWhile4 -->
<g id="edge58" class="edge"><title>PruebaWhile3&#45;&gt;PruebaWhile4</title>
<path fill="none" stroke="black" d="M385.113,-936.055C384.121,-928.346 382.923,-919.027 381.81,-910.364"/>
<polygon fill="black" stroke="black" points="385.259,-909.747 380.512,-900.275 378.316,-910.64 385.259,-909.747"/>
</g>
<!-- PruebaWhile5 -->
<g id="node70" class="node"><title>PruebaWhile5</title>
<ellipse fill="none" stroke="black" cx="416.291" cy="-810" rx="27" ry="18"/>
</g>
<!-- PruebaWhile4&#45;&gt;PruebaWhile5 -->
<g id="edge59" class="edge"><title>PruebaWhile4&#45;&gt;PruebaWhile5</title>
<path fill="none" stroke="black" d="M387.105,-864.765C391.709,-856.283 397.446,-845.714 402.613,-836.197"/>
<polygon fill="black" stroke="black" points="405.831,-837.606 407.526,-827.147 399.679,-834.266 405.831,-837.606"/>
</g>
<!-- PruebaWhile8 -->
<g id="node73" class="node"><title>PruebaWhile8</title>
<ellipse fill="none" stroke="black" cx="229.291" cy="-810" rx="27" ry="18"/>
</g>
<!-- PruebaWhile4&#45;&gt;PruebaWhile8 -->
<g id="edge60" class="edge"><title>PruebaWhile4&#45;&gt;PruebaWhile8</title>
<path fill="none" stroke="black" d="M356.943,-870.971C331.64,-859.083 289.267,-839.176 260.336,-825.585"/>
<polygon fill="black" stroke="black" points="261.624,-822.323 251.084,-821.238 258.647,-828.658 261.624,-822.323"/>
</g>
<!-- PruebaWhile6 -->
<g id="node71" class="node"><title>PruebaWhile6</title>
<ellipse fill="none" stroke="black" cx="416.291" cy="-738" rx="27" ry="18"/>
</g>
<!-- PruebaWhile5&#45;&gt;PruebaWhile6 -->
<g id="edge61" class="edge"><title>PruebaWhile5&#45;&gt;PruebaWhile6</title>
<path fill="none" stroke="black" d="M416.291,-791.697C416.291,-783.983 416.291,-774.712 416.291,-766.112"/>
<polygon fill="black" stroke="black" points="419.791,-766.104 416.291,-756.104 412.791,-766.104 419.791,-766.104"/>
</g>
<!-- PruebaWhile6&#45;&gt;PruebaWhile7 -->
<g id="edge62" class="edge"><title>PruebaWhile6&#45;&gt;PruebaWhile7</title>
<path fill="none" stroke="black" d="M422.69,-720.411C425.805,-712.335 429.625,-702.431 433.126,-693.355"/>
<polygon fill="black" stroke="black" points="436.418,-694.546 436.751,-683.956 429.887,-692.027 436.418,-694.546"/>
</g>
<!-- PruebaWhile7&#45;&gt;imprimirconintro0 -->
<g id="edge147" class="edge"><title>PruebaWhile7&#45;&gt;imprimirconintro0</title>
<path fill="none" stroke="black" d="M448.823,-683.837C456.983,-710.213 471.291,-763.017 471.291,-809 471.291,-1099 471.291,-1099 471.291,-1099 471.291,-1261.3 543.291,-1294.7 543.291,-1457 543.291,-1747 543.291,-1747 543.291,-1747 543.291,-1879.36 517.608,-2009.8 571.291,-2052 616.824,-2087.79 1508.94,-2101.87 1703.17,-2104.52"/>
<polygon fill="black" stroke="black" points="1703.12,-2108.02 1713.17,-2104.66 1703.22,-2101.02 1703.12,-2108.02"/>
</g>
<!-- PruebaWhile7&#45;&gt;PruebaWhile4 -->
<g id="edge63" class="edge"><title>PruebaWhile7&#45;&gt;PruebaWhile4</title>
<path fill="none" stroke="black" d="M422.721,-677.874C407.927,-686.951 389.094,-701.395 380.291,-720 359.795,-763.321 365.855,-820.827 372.094,-854.089"/>
<polygon fill="black" stroke="black" points="368.683,-854.878 374.092,-863.987 375.544,-853.492 368.683,-854.878"/>
</g>
<!-- PruebaWhile8&#45;&gt;PruebaWhile9 -->
<g id="edge64" class="edge"><title>PruebaWhile8&#45;&gt;PruebaWhile9</title>
<path fill="none" stroke="black" d="M222.419,-792.411C219.024,-784.216 214.849,-774.14 211.044,-764.955"/>
<polygon fill="black" stroke="black" points="214.176,-763.369 207.115,-755.47 207.709,-766.048 214.176,-763.369"/>
</g>
<!-- PruebaWhile9&#45;&gt;imprimirconintro0 -->
<g id="edge149" class="edge"><title>PruebaWhile9&#45;&gt;imprimirconintro0</title>
<path fill="none" stroke="black" d="M187.877,-754.104C168.759,-778.946 134.291,-830.707 134.291,-881 134.291,-1315 134.291,-1315 134.291,-1315 134.291,-1462.86 91.5226,-1847.08 156.291,-1980 178.127,-2024.81 195.747,-2034.15 242.291,-2052 382.298,-2105.69 1484.47,-2105.66 1702.79,-2105.13"/>
<polygon fill="black" stroke="black" points="1703.09,-2108.62 1713.08,-2105.1 1703.07,-2101.62 1703.09,-2108.62"/>
</g>
<!-- PruebaWhile10 -->
<g id="node75" class="node"><title>PruebaWhile10</title>
<ellipse fill="none" stroke="black" cx="229.291" cy="-666" rx="27" ry="18"/>
</g>
<!-- PruebaWhile9&#45;&gt;PruebaWhile10 -->
<g id="edge65" class="edge"><title>PruebaWhile9&#45;&gt;PruebaWhile10</title>
<path fill="none" stroke="black" d="M207.164,-720.411C210.559,-712.216 214.734,-702.14 218.539,-692.955"/>
<polygon fill="black" stroke="black" points="221.874,-694.048 222.468,-683.47 215.407,-691.369 221.874,-694.048"/>
</g>
<!-- PruebaWhile10&#45;&gt;main4 -->
<g id="edge140" class="edge"><title>PruebaWhile10&#45;&gt;main4</title>
<path fill="none" stroke="black" d="M240.089,-682.808C256.362,-708.214 285.291,-760.239 285.291,-809 285.291,-1099 285.291,-1099 285.291,-1099 285.291,-1139.77 296.541,-1185.91 304.779,-1214.23"/>
<polygon fill="black" stroke="black" points="301.533,-1215.59 307.759,-1224.16 308.238,-1213.58 301.533,-1215.59"/>
</g>
<!-- PruebaTransitiva0&#45;&gt;PruebaTransitiva1 -->
<g id="edge66" class="edge"><title>PruebaTransitiva0&#45;&gt;PruebaTransitiva1</title>
<path fill="none" stroke="black" d="M602.786,-1079.7C603.006,-1071.98 603.271,-1062.71 603.517,-1054.11"/>
<polygon fill="black" stroke="black" points="607.016,-1054.2 603.803,-1044.1 600.018,-1054 607.016,-1054.2"/>
</g>
<!-- PruebaTransitiva1&#45;&gt;imprimirconintro0 -->
<g id="edge151" class="edge"><title>PruebaTransitiva1&#45;&gt;imprimirconintro0</title>
<path fill="none" stroke="black" d="M617.289,-1042.06C625.048,-1052.08 634.17,-1065.94 638.291,-1080 642.793,-1095.35 639.959,-1100.09 638.291,-1116 625.555,-1237.54 581.291,-1262.79 581.291,-1385 581.291,-1747 581.291,-1747 581.291,-1747 581.291,-1882.97 507.623,-1957.4 605.291,-2052 645.619,-2091.06 1512.1,-2102.57 1703.21,-2104.63"/>
<polygon fill="black" stroke="black" points="1703.28,-2108.13 1713.32,-2104.74 1703.36,-2101.13 1703.28,-2108.13"/>
</g>
<!-- PruebaTransitiva1&#45;&gt;PruebaTransitiva2 -->
<g id="edge67" class="edge"><title>PruebaTransitiva1&#45;&gt;PruebaTransitiva2</title>
<path fill="none" stroke="black" d="M601.328,-1008.01C596.956,-981.435 589.291,-928.366 589.291,-883 589.291,-883 589.291,-883 589.291,-737 589.291,-696.145 596.455,-685.661 612.291,-648 616.435,-638.146 622.188,-627.949 627.676,-619.164"/>
<polygon fill="black" stroke="black" points="630.728,-620.89 633.219,-610.592 624.85,-617.088 630.728,-620.89"/>
</g>
<!-- PruebaTransitiva2&#45;&gt;PruebaTransitivaIntermedia0 -->
<g id="edge155" class="edge"><title>PruebaTransitiva2&#45;&gt;PruebaTransitivaIntermedia0</title>
<path fill="none" stroke="black" d="M661.633,-608.219C689.534,-631.135 741.291,-681.17 741.291,-737 741.291,-811 741.291,-811 741.291,-811 741.291,-851.29 748.122,-897.556 753.123,-926.035"/>
<polygon fill="black" stroke="black" points="749.707,-926.813 754.933,-936.029 756.595,-925.566 749.707,-926.813"/>
</g>
<!-- PruebaTransitiva2&#45;&gt;PruebaTransitiva3 -->
<g id="edge68" class="edge"><title>PruebaTransitiva2&#45;&gt;PruebaTransitiva3</title>
<path fill="none" stroke="black" d="M639.208,-576.055C636.809,-568.059 633.891,-558.331 631.211,-549.4"/>
<polygon fill="black" stroke="black" points="634.554,-548.362 628.328,-539.789 627.849,-550.373 634.554,-548.362"/>
</g>
<!-- PruebaTransitiva3&#45;&gt;imprimirconintro0 -->
<g id="edge153" class="edge"><title>PruebaTransitiva3&#45;&gt;imprimirconintro0</title>
<path fill="none" stroke="black" d="M596.256,-523.094C522.127,-524.798 313.206,-539.514 193.291,-648 -146.072,-955.018 95.2913,-1215.37 95.2913,-1673 95.2913,-1747 95.2913,-1747 95.2913,-1747 95.2913,-1887.14 57.3443,-1976.32 175.291,-2052 241.593,-2094.54 1471.14,-2103.5 1702.82,-2104.81"/>
<polygon fill="black" stroke="black" points="1703.07,-2108.31 1713.09,-2104.87 1703.11,-2101.31 1703.07,-2108.31"/>
</g>
<!-- PruebaTransitiva4 -->
<g id="node80" class="node"><title>PruebaTransitiva4</title>
<ellipse fill="none" stroke="black" cx="585.291" cy="-450" rx="27" ry="18"/>
</g>
<!-- PruebaTransitiva3&#45;&gt;PruebaTransitiva4 -->
<g id="edge69" class="edge"><title>PruebaTransitiva3&#45;&gt;PruebaTransitiva4</title>
<path fill="none" stroke="black" d="M614.478,-504.765C609.874,-496.283 604.136,-485.714 598.97,-476.197"/>
<polygon fill="black" stroke="black" points="601.904,-474.266 594.057,-467.147 595.752,-477.606 601.904,-474.266"/>
</g>
<!-- PruebaTransitiva4&#45;&gt;main5 -->
<g id="edge142" class="edge"><title>PruebaTransitiva4&#45;&gt;main5</title>
<path fill="none" stroke="black" d="M577.784,-467.662C566.709,-493.803 547.291,-546.298 547.291,-593 547.291,-811 547.291,-811 547.291,-811 547.291,-827.421 534.375,-1060.13 529.842,-1141.31"/>
<polygon fill="black" stroke="black" points="526.323,-1141.54 529.26,-1151.72 533.312,-1141.93 526.323,-1141.54"/>
</g>
<!-- PruebaFuncionesCadena1 -->
<g id="node82" class="node"><title>PruebaFuncionesCadena1</title>
<ellipse fill="none" stroke="black" cx="1998.29" cy="-1602" rx="27" ry="18"/>
</g>
<!-- PruebaFuncionesCadena0&#45;&gt;PruebaFuncionesCadena1 -->
<g id="edge70" class="edge"><title>PruebaFuncionesCadena0&#45;&gt;PruebaFuncionesCadena1</title>
<path fill="none" stroke="black" d="M1998.29,-1655.7C1998.29,-1647.98 1998.29,-1638.71 1998.29,-1630.11"/>
<polygon fill="black" stroke="black" points="2001.79,-1630.1 1998.29,-1620.1 1994.79,-1630.1 2001.79,-1630.1"/>
</g>
<!-- PruebaFuncionesCadena2 -->
<g id="node83" class="node"><title>PruebaFuncionesCadena2</title>
<ellipse fill="none" stroke="black" cx="1998.29" cy="-1530" rx="27" ry="18"/>
</g>
<!-- PruebaFuncionesCadena1&#45;&gt;PruebaFuncionesCadena2 -->
<g id="edge71" class="edge"><title>PruebaFuncionesCadena1&#45;&gt;PruebaFuncionesCadena2</title>
<path fill="none" stroke="black" d="M1998.29,-1583.7C1998.29,-1575.98 1998.29,-1566.71 1998.29,-1558.11"/>
<polygon fill="black" stroke="black" points="2001.79,-1558.1 1998.29,-1548.1 1994.79,-1558.1 2001.79,-1558.1"/>
</g>
<!-- PruebaFuncionesCadena3 -->
<g id="node84" class="node"><title>PruebaFuncionesCadena3</title>
<ellipse fill="none" stroke="black" cx="1995.29" cy="-1458" rx="27" ry="18"/>
</g>
<!-- PruebaFuncionesCadena2&#45;&gt;PruebaFuncionesCadena3 -->
<g id="edge72" class="edge"><title>PruebaFuncionesCadena2&#45;&gt;PruebaFuncionesCadena3</title>
<path fill="none" stroke="black" d="M1997.55,-1511.7C1997.22,-1503.98 1996.82,-1494.71 1996.45,-1486.11"/>
<polygon fill="black" stroke="black" points="1999.95,-1485.95 1996.02,-1476.1 1992.96,-1486.25 1999.95,-1485.95"/>
</g>
<!-- PruebaFuncionesCadena4 -->
<g id="node85" class="node"><title>PruebaFuncionesCadena4</title>
<ellipse fill="none" stroke="black" cx="1991.29" cy="-1386" rx="27" ry="18"/>
</g>
<!-- PruebaFuncionesCadena3&#45;&gt;PruebaFuncionesCadena4 -->
<g id="edge73" class="edge"><title>PruebaFuncionesCadena3&#45;&gt;PruebaFuncionesCadena4</title>
<path fill="none" stroke="black" d="M1994.3,-1439.7C1993.86,-1431.98 1993.33,-1422.71 1992.84,-1414.11"/>
<polygon fill="black" stroke="black" points="1996.33,-1413.89 1992.27,-1404.1 1989.35,-1414.29 1996.33,-1413.89"/>
</g>
<!-- PruebaFuncionesCadena5 -->
<g id="node86" class="node"><title>PruebaFuncionesCadena5</title>
<ellipse fill="none" stroke="black" cx="1991.29" cy="-1314" rx="27" ry="18"/>
</g>
<!-- PruebaFuncionesCadena4&#45;&gt;PruebaFuncionesCadena5 -->
<g id="edge74" class="edge"><title>PruebaFuncionesCadena4&#45;&gt;PruebaFuncionesCadena5</title>
<path fill="none" stroke="black" d="M1991.29,-1367.7C1991.29,-1359.98 1991.29,-1350.71 1991.29,-1342.11"/>
<polygon fill="black" stroke="black" points="1994.79,-1342.1 1991.29,-1332.1 1987.79,-1342.1 1994.79,-1342.1"/>
</g>
<!-- PruebaFuncionesCadena6 -->
<g id="node87" class="node"><title>PruebaFuncionesCadena6</title>
<ellipse fill="none" stroke="black" cx="1979.29" cy="-1242" rx="27" ry="18"/>
</g>
<!-- PruebaFuncionesCadena5&#45;&gt;PruebaFuncionesCadena6 -->
<g id="edge75" class="edge"><title>PruebaFuncionesCadena5&#45;&gt;PruebaFuncionesCadena6</title>
<path fill="none" stroke="black" d="M1988.39,-1296.05C1987.06,-1288.35 1985.47,-1279.03 1983.98,-1270.36"/>
<polygon fill="black" stroke="black" points="1987.39,-1269.54 1982.25,-1260.28 1980.49,-1270.72 1987.39,-1269.54"/>
</g>
<!-- PruebaFuncionesCadena7 -->
<g id="node88" class="node"><title>PruebaFuncionesCadena7</title>
<ellipse fill="none" stroke="black" cx="1978.29" cy="-1170" rx="27" ry="18"/>
</g>
<!-- PruebaFuncionesCadena6&#45;&gt;PruebaFuncionesCadena7 -->
<g id="edge76" class="edge"><title>PruebaFuncionesCadena6&#45;&gt;PruebaFuncionesCadena7</title>
<path fill="none" stroke="black" d="M1979.04,-1223.7C1978.93,-1215.98 1978.8,-1206.71 1978.68,-1198.11"/>
<polygon fill="black" stroke="black" points="1982.18,-1198.05 1978.54,-1188.1 1975.18,-1198.15 1982.18,-1198.05"/>
</g>
<!-- PruebaFuncionesCadena8 -->
<g id="node89" class="node"><title>PruebaFuncionesCadena8</title>
<ellipse fill="none" stroke="black" cx="1978.29" cy="-1098" rx="27" ry="18"/>
</g>
<!-- PruebaFuncionesCadena7&#45;&gt;PruebaFuncionesCadena8 -->
<g id="edge77" class="edge"><title>PruebaFuncionesCadena7&#45;&gt;PruebaFuncionesCadena8</title>
<path fill="none" stroke="black" d="M1978.29,-1151.7C1978.29,-1143.98 1978.29,-1134.71 1978.29,-1126.11"/>
<polygon fill="black" stroke="black" points="1981.79,-1126.1 1978.29,-1116.1 1974.79,-1126.1 1981.79,-1126.1"/>
</g>
<!-- PruebaFuncionesCadena9 -->
<g id="node90" class="node"><title>PruebaFuncionesCadena9</title>
<ellipse fill="none" stroke="black" cx="1976.29" cy="-1026" rx="27" ry="18"/>
</g>
<!-- PruebaFuncionesCadena8&#45;&gt;PruebaFuncionesCadena9 -->
<g id="edge78" class="edge"><title>PruebaFuncionesCadena8&#45;&gt;PruebaFuncionesCadena9</title>
<path fill="none" stroke="black" d="M1977.8,-1079.7C1977.58,-1071.98 1977.31,-1062.71 1977.07,-1054.11"/>
<polygon fill="black" stroke="black" points="1980.56,-1054 1976.78,-1044.1 1973.57,-1054.2 1980.56,-1054"/>
</g>
<!-- PruebaFuncionesCadena10 -->
<g id="node91" class="node"><title>PruebaFuncionesCadena10</title>
<ellipse fill="none" stroke="black" cx="1976.29" cy="-954" rx="27" ry="18"/>
</g>
<!-- PruebaFuncionesCadena9&#45;&gt;PruebaFuncionesCadena10 -->
<g id="edge79" class="edge"><title>PruebaFuncionesCadena9&#45;&gt;PruebaFuncionesCadena10</title>
<path fill="none" stroke="black" d="M1976.29,-1007.7C1976.29,-999.983 1976.29,-990.712 1976.29,-982.112"/>
<polygon fill="black" stroke="black" points="1979.79,-982.104 1976.29,-972.104 1972.79,-982.104 1979.79,-982.104"/>
</g>
<!-- PruebaFuncionesCadena11 -->
<g id="node92" class="node"><title>PruebaFuncionesCadena11</title>
<ellipse fill="none" stroke="black" cx="1975.29" cy="-882" rx="27" ry="18"/>
</g>
<!-- PruebaFuncionesCadena10&#45;&gt;PruebaFuncionesCadena11 -->
<g id="edge80" class="edge"><title>PruebaFuncionesCadena10&#45;&gt;PruebaFuncionesCadena11</title>
<path fill="none" stroke="black" d="M1976.04,-935.697C1975.93,-927.983 1975.8,-918.712 1975.68,-910.112"/>
<polygon fill="black" stroke="black" points="1979.18,-910.053 1975.54,-900.104 1972.18,-910.153 1979.18,-910.053"/>
</g>
<!-- PruebaFuncionesCadena12 -->
<g id="node93" class="node"><title>PruebaFuncionesCadena12</title>
<ellipse fill="none" stroke="black" cx="1975.29" cy="-810" rx="27" ry="18"/>
</g>
<!-- PruebaFuncionesCadena11&#45;&gt;PruebaFuncionesCadena12 -->
<g id="edge81" class="edge"><title>PruebaFuncionesCadena11&#45;&gt;PruebaFuncionesCadena12</title>
<path fill="none" stroke="black" d="M1975.29,-863.697C1975.29,-855.983 1975.29,-846.712 1975.29,-838.112"/>
<polygon fill="black" stroke="black" points="1978.79,-838.104 1975.29,-828.104 1971.79,-838.104 1978.79,-838.104"/>
</g>
<!-- PruebaFuncionesCadena12&#45;&gt;PruebaFuncionesCadena13 -->
<g id="edge82" class="edge"><title>PruebaFuncionesCadena12&#45;&gt;PruebaFuncionesCadena13</title>
<path fill="none" stroke="black" d="M1970.69,-792.055C1968.54,-784.145 1965.94,-774.54 1963.54,-765.688"/>
<polygon fill="black" stroke="black" points="1966.85,-764.523 1960.85,-755.789 1960.09,-766.357 1966.85,-764.523"/>
</g>
<!-- PruebaFuncionesCadena13&#45;&gt;imprimirconintro0 -->
<g id="edge157" class="edge"><title>PruebaFuncionesCadena13&#45;&gt;imprimirconintro0</title>
<path fill="none" stroke="black" d="M1973.99,-752.139C2002.47,-774.936 2055.29,-824.801 2055.29,-881 2055.29,-1963 2055.29,-1963 2055.29,-1963 2055.29,-2083.66 1860.82,-2102.38 1777.48,-2104.85"/>
<polygon fill="black" stroke="black" points="1777.34,-2101.36 1767.42,-2105.09 1777.5,-2108.36 1777.34,-2101.36"/>
</g>
<!-- PruebaFuncionesCadena13&#45;&gt;PruebaFuncionesCadena14 -->
<g id="edge83" class="edge"><title>PruebaFuncionesCadena13&#45;&gt;PruebaFuncionesCadena14</title>
<path fill="none" stroke="black" d="M1947.48,-720.765C1942.87,-712.283 1937.14,-701.714 1931.97,-692.197"/>
<polygon fill="black" stroke="black" points="1934.9,-690.266 1927.06,-683.147 1928.75,-693.606 1934.9,-690.266"/>
</g>
<!-- PruebaFuncionesCadena14&#45;&gt;imprimirconintro0 -->
<g id="edge159" class="edge"><title>PruebaFuncionesCadena14&#45;&gt;imprimirconintro0</title>
<path fill="none" stroke="black" d="M1942.62,-674.107C1990.71,-689.815 2093.29,-732.314 2093.29,-809 2093.29,-1963 2093.29,-1963 2093.29,-1963 2093.29,-2009.73 2076.05,-2025.89 2037.29,-2052 1995.25,-2080.32 1846.99,-2096.12 1777.17,-2102.13"/>
<polygon fill="black" stroke="black" points="1776.74,-2098.66 1767.06,-2102.98 1777.32,-2105.63 1776.74,-2098.66"/>
</g>
<!-- PruebaFuncionesCadena14&#45;&gt;PruebaFuncionesCadena15 -->
<g id="edge84" class="edge"><title>PruebaFuncionesCadena14&#45;&gt;PruebaFuncionesCadena15</title>
<path fill="none" stroke="black" d="M1907.85,-649.116C1902.09,-640.345 1894.81,-629.264 1888.34,-619.416"/>
<polygon fill="black" stroke="black" points="1891.1,-617.256 1882.69,-610.821 1885.25,-621.1 1891.1,-617.256"/>
</g>
<!-- PruebaFuncionesCadena15&#45;&gt;imprimirconintro0 -->
<g id="edge161" class="edge"><title>PruebaFuncionesCadena15&#45;&gt;imprimirconintro0</title>
<path fill="none" stroke="black" d="M1899.03,-597.145C1965.21,-604.057 2131.29,-631.876 2131.29,-737 2131.29,-1963 2131.29,-1963 2131.29,-1963 2131.29,-2010.7 2111.5,-2026.33 2071.29,-2052 2022.98,-2082.84 1853.04,-2097.6 1777.25,-2102.77"/>
<polygon fill="black" stroke="black" points="1776.95,-2099.28 1767.2,-2103.43 1777.41,-2106.26 1776.95,-2099.28"/>
</g>
<!-- PruebaFuncionesCadena15&#45;&gt;PruebaFuncionesCadena16 -->
<g id="edge85" class="edge"><title>PruebaFuncionesCadena15&#45;&gt;PruebaFuncionesCadena16</title>
<path fill="none" stroke="black" d="M1862.31,-577.116C1856.79,-568.345 1849.83,-557.264 1843.64,-547.416"/>
<polygon fill="black" stroke="black" points="1846.52,-545.425 1838.24,-538.821 1840.59,-549.15 1846.52,-545.425"/>
</g>
<!-- PruebaFuncionesCadena16&#45;&gt;imprimirconintro0 -->
<g id="edge163" class="edge"><title>PruebaFuncionesCadena16&#45;&gt;imprimirconintro0</title>
<path fill="none" stroke="black" d="M1853.92,-527.892C1933.23,-543.753 2169.29,-596.702 2169.29,-665 2169.29,-1963 2169.29,-1963 2169.29,-1963 2169.29,-2011.46 2147.62,-2026.7 2106.29,-2052 2051.59,-2085.48 1859.37,-2098.98 1777.58,-2103.3"/>
<polygon fill="black" stroke="black" points="1777.06,-2099.82 1767.25,-2103.83 1777.42,-2106.81 1777.06,-2099.82"/>
</g>
<!-- PruebaFuncionesCadena16&#45;&gt;PruebaFuncionesCadena17 -->
<g id="edge86" class="edge"><title>PruebaFuncionesCadena16&#45;&gt;PruebaFuncionesCadena17</title>
<path fill="none" stroke="black" d="M1822.72,-504.055C1820.1,-496.059 1816.9,-486.331 1813.97,-477.4"/>
<polygon fill="black" stroke="black" points="1817.25,-476.197 1810.81,-467.789 1810.6,-478.382 1817.25,-476.197"/>
</g>
<!-- PruebaFuncionesCadena17&#45;&gt;imprimirconintro0 -->
<g id="edge165" class="edge"><title>PruebaFuncionesCadena17&#45;&gt;imprimirconintro0</title>
<path fill="none" stroke="black" d="M1831.67,-454.462C1921.1,-466.927 2207.29,-513.061 2207.29,-593 2207.29,-1963 2207.29,-1963 2207.29,-1963 2207.29,-2011.72 2185.1,-2026.99 2143.29,-2052 2081.9,-2088.72 1864.95,-2100.52 1777.37,-2103.84"/>
<polygon fill="black" stroke="black" points="1777.21,-2100.34 1767.35,-2104.21 1777.47,-2107.34 1777.21,-2100.34"/>
</g>
<!-- PruebaFuncionesCadena17&#45;&gt;PruebaFuncionesCadena18 -->
<g id="edge87" class="edge"><title>PruebaFuncionesCadena17&#45;&gt;PruebaFuncionesCadena18</title>
<path fill="none" stroke="black" d="M1796.01,-432.765C1791.12,-424.195 1785,-413.494 1779.52,-403.9"/>
<polygon fill="black" stroke="black" points="1782.52,-402.093 1774.52,-395.147 1776.44,-405.566 1782.52,-402.093"/>
</g>
<!-- PruebaFuncionesCadena18&#45;&gt;imprimirconintro0 -->
<g id="edge167" class="edge"><title>PruebaFuncionesCadena18&#45;&gt;imprimirconintro0</title>
<path fill="none" stroke="black" d="M1792.13,-381.049C1893.21,-389.491 2245.29,-425.732 2245.29,-521 2245.29,-1963 2245.29,-1963 2245.29,-1963 2245.29,-2011.98 2222.55,-2027.24 2180.29,-2052 2112.21,-2091.88 1870.8,-2101.88 1777.49,-2104.28"/>
<polygon fill="black" stroke="black" points="1777.29,-2100.78 1767.38,-2104.52 1777.46,-2107.78 1777.29,-2100.78"/>
</g>
<!-- PruebaFuncionesCadena18&#45;&gt;PruebaFuncionesCadena19 -->
<g id="edge88" class="edge"><title>PruebaFuncionesCadena18&#45;&gt;PruebaFuncionesCadena19</title>
<path fill="none" stroke="black" d="M1756.25,-360.765C1751.47,-352.195 1745.51,-341.494 1740.16,-331.9"/>
<polygon fill="black" stroke="black" points="1743.21,-330.18 1735.29,-323.147 1737.1,-333.586 1743.21,-330.18"/>
</g>
<!-- PruebaFuncionesCadena19&#45;&gt;imprimirconintro0 -->
<g id="edge169" class="edge"><title>PruebaFuncionesCadena19&#45;&gt;imprimirconintro0</title>
<path fill="none" stroke="black" d="M1753.16,-307.987C1864.42,-312.79 2283.29,-338.228 2283.29,-449 2283.29,-1963 2283.29,-1963 2283.29,-1963 2283.29,-2011.98 2260.67,-2027.44 2218.29,-2052 2143.45,-2095.37 1876.63,-2103.25 1777.62,-2104.68"/>
<polygon fill="black" stroke="black" points="1777.44,-2101.19 1767.48,-2104.82 1777.53,-2108.19 1777.44,-2101.19"/>
</g>
<!-- PruebaFuncionesCadena19&#45;&gt;PruebaFuncionesCadena20 -->
<g id="edge89" class="edge"><title>PruebaFuncionesCadena19&#45;&gt;PruebaFuncionesCadena20</title>
<path fill="none" stroke="black" d="M1717.48,-288.765C1712.87,-280.283 1707.14,-269.714 1701.97,-260.197"/>
<polygon fill="black" stroke="black" points="1704.9,-258.266 1697.06,-251.147 1698.75,-261.606 1704.9,-258.266"/>
</g>
<!-- PruebaFuncionesCadena20&#45;&gt;imprimirconintro0 -->
<g id="edge171" class="edge"><title>PruebaFuncionesCadena20&#45;&gt;imprimirconintro0</title>
<path fill="none" stroke="black" d="M1715.49,-235.189C1836.65,-236.746 2321.29,-250.858 2321.29,-377 2321.29,-1963 2321.29,-1963 2321.29,-1963 2321.29,-2011.98 2298.77,-2027.61 2256.29,-2052 2174.56,-2098.93 1881.53,-2104.55 1777.36,-2105.04"/>
<polygon fill="black" stroke="black" points="1777.3,-2101.54 1767.32,-2105.07 1777.33,-2108.54 1777.3,-2101.54"/>
</g>
<!-- PruebaFuncionesCadena20&#45;&gt;PruebaFuncionesCadena21 -->
<g id="edge90" class="edge"><title>PruebaFuncionesCadena20&#45;&gt;PruebaFuncionesCadena21</title>
<path fill="none" stroke="black" d="M1679.48,-216.765C1674.87,-208.283 1669.14,-197.714 1663.97,-188.197"/>
<polygon fill="black" stroke="black" points="1666.9,-186.266 1659.06,-179.147 1660.75,-189.606 1666.9,-186.266"/>
</g>
<!-- PruebaFuncionesCadena21&#45;&gt;imprimirconintro0 -->
<g id="edge173" class="edge"><title>PruebaFuncionesCadena21&#45;&gt;imprimirconintro0</title>
<path fill="none" stroke="black" d="M1677.65,-162.544C1807.95,-161.089 2359.29,-163.303 2359.29,-305 2359.29,-1963 2359.29,-1963 2359.29,-1963 2359.29,-2011.98 2336.85,-2027.76 2294.29,-2052 2205.83,-2102.38 1887.61,-2105.73 1777.83,-2105.34"/>
<polygon fill="black" stroke="black" points="1777.59,-2101.84 1767.58,-2105.29 1777.56,-2108.84 1777.59,-2101.84"/>
</g>
<!-- PruebaFuncionesCadena21&#45;&gt;PruebaFuncionesCadena22 -->
<g id="edge91" class="edge"><title>PruebaFuncionesCadena21&#45;&gt;PruebaFuncionesCadena22</title>
<path fill="none" stroke="black" d="M1639.63,-145.116C1633.74,-136.345 1626.3,-125.264 1619.69,-115.416"/>
<polygon fill="black" stroke="black" points="1622.39,-113.172 1613.91,-106.821 1616.58,-117.074 1622.39,-113.172"/>
</g>
<!-- PruebaFuncionesCadena22&#45;&gt;imprimirconintro0 -->
<g id="edge175" class="edge"><title>PruebaFuncionesCadena22&#45;&gt;imprimirconintro0</title>
<path fill="none" stroke="black" d="M1630.16,-92.8932C1768.86,-103.014 2397.29,-153.268 2397.29,-233 2397.29,-1963 2397.29,-1963 2397.29,-1963 2397.29,-2011.98 2374.93,-2027.89 2332.29,-2052 2236.8,-2106 1891.59,-2106.86 1777.31,-2105.6"/>
<polygon fill="black" stroke="black" points="1777.34,-2102.1 1767.3,-2105.48 1777.26,-2109.1 1777.34,-2102.1"/>
</g>
<!-- PruebaFuncionesCadena22&#45;&gt;PruebaFuncionesCadena23 -->
<g id="edge92" class="edge"><title>PruebaFuncionesCadena22&#45;&gt;PruebaFuncionesCadena23</title>
<path fill="none" stroke="black" d="M1579.33,-81.3755C1539.99,-68.8572 1461.6,-43.917 1416.79,-29.6572"/>
<polygon fill="black" stroke="black" points="1417.81,-26.3119 1407.22,-26.6151 1415.69,-32.9824 1417.81,-26.3119"/>
</g>
<!-- PruebaFuncionesCadena23&#45;&gt;imprimirconintro0 -->
<g id="edge177" class="edge"><title>PruebaFuncionesCadena23&#45;&gt;imprimirconintro0</title>
<path fill="none" stroke="black" d="M1410.35,-19.7221C1575.02,-24.4635 2435.29,-54.3391 2435.29,-161 2435.29,-1963 2435.29,-1963 2435.29,-1963 2435.29,-2011.98 2412.99,-2028 2370.29,-2052 2318.58,-2081.06 1904.98,-2098.83 1777.54,-2103.66"/>
<polygon fill="black" stroke="black" points="1777.34,-2100.17 1767.48,-2104.04 1777.61,-2107.16 1777.34,-2100.17"/>
</g>
<!-- PruebaFuncionesCadena23&#45;&gt;PruebaFuncionesCadena24 -->
<g id="edge93" class="edge"><title>PruebaFuncionesCadena23&#45;&gt;PruebaFuncionesCadena24</title>
<path fill="none" stroke="black" d="M1357.19,-23.194C1298.91,-34.199 1163.29,-69.6262 1163.29,-161 1163.29,-451 1163.29,-451 1163.29,-451 1163.29,-506.643 1167.71,-520.417 1170.29,-576 1172.52,-623.981 1167.85,-636.401 1174.29,-684 1178.7,-716.583 1176.07,-726.854 1191.29,-756 1231.06,-832.168 1250.92,-849.301 1320.29,-900 1478.02,-1015.27 1577.05,-948.252 1721.29,-1080 1829.73,-1179.04 1835.5,-1229.13 1883.29,-1368 1945.7,-1549.35 1958.87,-1783.07 1961.6,-1861.77"/>
<polygon fill="black" stroke="black" points="1958.1,-1861.94 1961.92,-1871.83 1965.1,-1861.72 1958.1,-1861.94"/>
</g>
<!-- PruebaFuncionesCadena24&#45;&gt;imprimirconintro0 -->
<g id="edge179" class="edge"><title>PruebaFuncionesCadena24&#45;&gt;imprimirconintro0</title>
<path fill="none" stroke="black" d="M1957.26,-1907.8C1946.78,-1940.06 1919.65,-2011.13 1873.29,-2052 1845.44,-2076.55 1804.8,-2090.5 1775.79,-2097.86"/>
<polygon fill="black" stroke="black" points="1774.96,-2094.46 1766.05,-2100.19 1776.59,-2101.26 1774.96,-2094.46"/>
</g>
<!-- PruebaFuncionesCadena25 -->
<g id="node106" class="node"><title>PruebaFuncionesCadena25</title>
<ellipse fill="none" stroke="black" cx="2000.29" cy="-1818" rx="27" ry="18"/>
</g>
<!-- PruebaFuncionesCadena24&#45;&gt;PruebaFuncionesCadena25 -->
<g id="edge94" class="edge"><title>PruebaFuncionesCadena24&#45;&gt;PruebaFuncionesCadena25</title>
<path fill="none" stroke="black" d="M1971.1,-1872.76C1975.71,-1864.28 1981.45,-1853.71 1986.61,-1844.2"/>
<polygon fill="black" stroke="black" points="1989.83,-1845.61 1991.53,-1835.15 1983.68,-1842.27 1989.83,-1845.61"/>
</g>
<!-- PruebaFuncionesCadena25&#45;&gt;main22 -->
<g id="edge144" class="edge"><title>PruebaFuncionesCadena25&#45;&gt;main22</title>
<path fill="none" stroke="black" d="M2000.29,-1799.7C2000.29,-1791.98 2000.29,-1782.71 2000.29,-1774.11"/>
<polygon fill="black" stroke="black" points="2003.79,-1774.1 2000.29,-1764.1 1996.79,-1774.1 2003.79,-1774.1"/>
</g>
</g>
</svg>
