<?xml version="1.0" encoding="UTF-8" standalone="no"?>
<!DOCTYPE svg PUBLIC "-//W3C//DTD SVG 1.1//EN"
 "http://www.w3.org/Graphics/SVG/1.1/DTD/svg11.dtd">
<!-- Generated by graphviz version 2.38.0 (20140413.2041)
 -->
<!-- Title: Grafo Pages: 1 -->
<svg width="162pt" height="692pt"
 viewBox="0.00 0.00 162.41 692.00" xmlns="http://www.w3.org/2000/svg" xmlns:xlink="http://www.w3.org/1999/xlink">
<g id="graph0" class="graph" transform="scale(1 1) rotate(0) translate(4 688)">
<title>Grafo</title>
<polygon fill="white" stroke="none" points="-4,4 -4,-688 158.414,-688 158.414,4 -4,4"/>
<!-- 0 -->
<g id="node1" class="node"><title>0</title>
<ellipse fill="red" stroke="black" cx="99" cy="-666" rx="27" ry="18"/>
</g>
<!-- 1 -->
<g id="node2" class="node"><title>1</title>
<ellipse fill="none" stroke="black" cx="99" cy="-594" rx="27" ry="18"/>
</g>
<!-- 0&#45;&gt;1 -->
<g id="edge1" class="edge"><title>0&#45;&gt;1</title>
<path fill="none" stroke="black" d="M99,-647.697C99,-639.983 99,-630.712 99,-622.112"/>
<polygon fill="black" stroke="black" points="102.5,-622.104 99,-612.104 95.5001,-622.104 102.5,-622.104"/>
</g>
<!-- 2 -->
<g id="node3" class="node"><title>2</title>
<ellipse fill="none" stroke="black" cx="99" cy="-522" rx="27" ry="18"/>
</g>
<!-- 1&#45;&gt;2 -->
<g id="edge2" class="edge"><title>1&#45;&gt;2</title>
<path fill="none" stroke="black" d="M99,-575.697C99,-567.983 99,-558.712 99,-550.112"/>
<polygon fill="black" stroke="black" points="102.5,-550.104 99,-540.104 95.5001,-550.104 102.5,-550.104"/>
</g>
<!-- 3 -->
<g id="node4" class="node"><title>3</title>
<ellipse fill="none" stroke="black" cx="99" cy="-450" rx="27" ry="18"/>
</g>
<!-- 2&#45;&gt;3 -->
<g id="edge3" class="edge"><title>2&#45;&gt;3</title>
<path fill="none" stroke="black" d="M99,-503.697C99,-495.983 99,-486.712 99,-478.112"/>
<polygon fill="black" stroke="black" points="102.5,-478.104 99,-468.104 95.5001,-478.104 102.5,-478.104"/>
</g>
<!-- 4 -->
<g id="node5" class="node"><title>4</title>
<ellipse fill="none" stroke="black" cx="99" cy="-378" rx="27" ry="18"/>
</g>
<!-- 3&#45;&gt;4 -->
<g id="edge4" class="edge"><title>3&#45;&gt;4</title>
<path fill="none" stroke="black" d="M99,-431.697C99,-423.983 99,-414.712 99,-406.112"/>
<polygon fill="black" stroke="black" points="102.5,-406.104 99,-396.104 95.5001,-406.104 102.5,-406.104"/>
</g>
<!-- 5 -->
<g id="node6" class="node"><title>5</title>
<ellipse fill="none" stroke="black" cx="99" cy="-306" rx="27" ry="18"/>
</g>
<!-- 4&#45;&gt;5 -->
<g id="edge5" class="edge"><title>4&#45;&gt;5</title>
<path fill="none" stroke="black" d="M99,-359.697C99,-351.983 99,-342.712 99,-334.112"/>
<polygon fill="black" stroke="black" points="102.5,-334.104 99,-324.104 95.5001,-334.104 102.5,-334.104"/>
</g>
<!-- 6 -->
<g id="node7" class="node"><title>6</title>
<ellipse fill="none" stroke="black" cx="27" cy="-234" rx="27" ry="18"/>
</g>
<!-- 5&#45;&gt;6 -->
<g id="edge6" class="edge"><title>5&#45;&gt;6</title>
<path fill="none" stroke="black" d="M84.4297,-290.834C74.2501,-280.938 60.4761,-267.546 48.9694,-256.359"/>
<polygon fill="black" stroke="black" points="51.4055,-253.846 41.7957,-249.385 46.5259,-258.865 51.4055,-253.846"/>
</g>
<!-- 10 -->
<g id="node11" class="node"><title>10</title>
<ellipse fill="none" stroke="black" cx="99" cy="-234" rx="27" ry="18"/>
</g>
<!-- 5&#45;&gt;10 -->
<g id="edge7" class="edge"><title>5&#45;&gt;10</title>
<path fill="none" stroke="black" d="M99,-287.697C99,-279.983 99,-270.712 99,-262.112"/>
<polygon fill="black" stroke="black" points="102.5,-262.104 99,-252.104 95.5001,-262.104 102.5,-262.104"/>
</g>
<!-- 7 -->
<g id="node8" class="node"><title>7</title>
<ellipse fill="none" stroke="black" cx="27" cy="-162" rx="27" ry="18"/>
</g>
<!-- 6&#45;&gt;7 -->
<g id="edge8" class="edge"><title>6&#45;&gt;7</title>
<path fill="none" stroke="black" d="M27,-215.697C27,-207.983 27,-198.712 27,-190.112"/>
<polygon fill="black" stroke="black" points="30.5001,-190.104 27,-180.104 23.5001,-190.104 30.5001,-190.104"/>
</g>
<!-- 8 -->
<g id="node9" class="node"><title>8</title>
<ellipse fill="none" stroke="black" cx="27" cy="-90" rx="27" ry="18"/>
</g>
<!-- 7&#45;&gt;8 -->
<g id="edge9" class="edge"><title>7&#45;&gt;8</title>
<path fill="none" stroke="black" d="M27,-143.697C27,-135.983 27,-126.712 27,-118.112"/>
<polygon fill="black" stroke="black" points="30.5001,-118.104 27,-108.104 23.5001,-118.104 30.5001,-118.104"/>
</g>
<!-- 9 -->
<g id="node10" class="node"><title>9</title>
<ellipse fill="none" stroke="black" cx="90" cy="-18" rx="27" ry="18"/>
</g>
<!-- 8&#45;&gt;9 -->
<g id="edge10" class="edge"><title>8&#45;&gt;9</title>
<path fill="none" stroke="black" d="M40.3607,-74.1548C48.8803,-64.6885 60.0854,-52.2384 69.6935,-41.5628"/>
<polygon fill="black" stroke="black" points="72.5704,-43.5982 76.6586,-33.8238 67.3674,-38.9154 72.5704,-43.5982"/>
</g>
<!-- 9&#45;&gt;5 -->
<g id="edge11" class="edge"><title>9&#45;&gt;5</title>
<path fill="none" stroke="black" d="M106.208,-32.4344C116.629,-42.1841 129.257,-56.3637 135,-72 162.58,-147.096 158.514,-175.534 135,-252 131.714,-262.685 125.46,-273.149 119.075,-281.919"/>
<polygon fill="black" stroke="black" points="116.116,-280.023 112.75,-290.069 121.646,-284.314 116.116,-280.023"/>
</g>
<!-- 11 -->
<g id="node12" class="node"><title>11</title>
<ellipse fill="none" stroke="black" cx="99" cy="-162" rx="27" ry="18"/>
</g>
<!-- 10&#45;&gt;11 -->
<g id="edge12" class="edge"><title>10&#45;&gt;11</title>
<path fill="none" stroke="black" d="M99,-215.697C99,-207.983 99,-198.712 99,-190.112"/>
<polygon fill="black" stroke="black" points="102.5,-190.104 99,-180.104 95.5001,-190.104 102.5,-190.104"/>
</g>
<!-- 12 -->
<g id="node13" class="node"><title>12</title>
<ellipse fill="blue" stroke="black" cx="99" cy="-90" rx="27" ry="18"/>
</g>
<!-- 11&#45;&gt;12 -->
<g id="edge13" class="edge"><title>11&#45;&gt;12</title>
<path fill="none" stroke="black" d="M99,-143.697C99,-135.983 99,-126.712 99,-118.112"/>
<polygon fill="black" stroke="black" points="102.5,-118.104 99,-108.104 95.5001,-118.104 102.5,-118.104"/>
</g>
</g>
</svg>
