<?xml version="1.0" encoding="UTF-8" standalone="no"?>
<!DOCTYPE svg PUBLIC "-//W3C//DTD SVG 1.1//EN"
 "http://www.w3.org/Graphics/SVG/1.1/DTD/svg11.dtd">
<!-- Generated by graphviz version 2.38.0 (20140413.2041)
 -->
<!-- Title: Llamadas Pages: 1 -->
<svg width="843pt" height="332pt"
 viewBox="0.00 0.00 842.74 332.00" xmlns="http://www.w3.org/2000/svg" xmlns:xlink="http://www.w3.org/1999/xlink">
<g id="graph0" class="graph" transform="scale(1 1) rotate(0) translate(4 328)">
<title>Llamadas</title>
<polygon fill="white" stroke="none" points="-4,4 -4,-328 838.736,-328 838.736,4 -4,4"/>
<!-- 0 -->
<g id="node1" class="node"><title>0</title>
<ellipse fill="red" stroke="black" cx="259.243" cy="-306" rx="27" ry="18"/>
</g>
<!-- 2 -->
<g id="node3" class="node"><title>2</title>
<ellipse fill="none" stroke="black" cx="259.243" cy="-234" rx="43.5923" ry="18"/>
<text text-anchor="middle" x="259.243" y="-230.3" font-family="Times New Roman,serif" font-size="14.00">domain()</text>
</g>
<!-- 0&#45;&gt;2 -->
<g id="edge1" class="edge"><title>0&#45;&gt;2</title>
<path fill="none" stroke="black" d="M259.243,-287.697C259.243,-279.983 259.243,-270.712 259.243,-262.112"/>
<polygon fill="black" stroke="black" points="262.743,-262.104 259.243,-252.104 255.743,-262.104 262.743,-262.104"/>
</g>
<!-- 1 -->
<g id="node2" class="node"><title>1</title>
<ellipse fill="none" stroke="black" cx="170.243" cy="-162" rx="33.5952" ry="18"/>
<text text-anchor="middle" x="170.243" y="-158.3" font-family="Times New Roman,serif" font-size="14.00">main()</text>
</g>
<!-- 7 -->
<g id="node8" class="node"><title>7</title>
<ellipse fill="none" stroke="black" cx="81.2428" cy="-90" rx="81.4863" ry="18"/>
<text text-anchor="middle" x="81.2428" y="-86.3" font-family="Times New Roman,serif" font-size="14.00">imprimirconintro(c)</text>
</g>
<!-- 1&#45;&gt;7 -->
<g id="edge2" class="edge"><title>1&#45;&gt;7</title>
<path fill="none" stroke="black" d="M151.802,-146.496C139.827,-137.078 123.966,-124.602 110.315,-113.865"/>
<polygon fill="black" stroke="black" points="112.179,-110.879 102.155,-107.448 107.851,-116.381 112.179,-110.879"/>
</g>
<!-- 4 -->
<g id="node5" class="node"><title>4</title>
<ellipse fill="none" stroke="black" cx="493.243" cy="-162" rx="57.3905" ry="18"/>
<text text-anchor="middle" x="493.243" y="-158.3" font-family="Times New Roman,serif" font-size="14.00">deVuelta(c1)</text>
</g>
<!-- 2&#45;&gt;4 -->
<g id="edge7" class="edge"><title>2&#45;&gt;4</title>
<path fill="none" stroke="black" d="M289.469,-220.807C327.445,-208.29 392.245,-188.879 438.806,-176.056"/>
<polygon fill="black" stroke="black" points="440.017,-179.354 448.744,-173.345 438.175,-172.601 440.017,-179.354"/>
</g>
<!-- 2&#45;&gt;4 -->
<g id="edge9" class="edge"><title>2&#45;&gt;4</title>
<path fill="none" stroke="black" d="M293.77,-222.671C333.246,-210.862 398.208,-191.429 443.223,-177.963"/>
<polygon fill="black" stroke="black" points="444.498,-181.235 453.075,-175.016 442.491,-174.529 444.498,-181.235"/>
</g>
<!-- 2&#45;&gt;4 -->
<g id="edge10" class="edge"><title>2&#45;&gt;4</title>
<path fill="none" stroke="black" d="M296.638,-224.556C338.46,-213.468 405.205,-193.753 449.373,-179.62"/>
<polygon fill="black" stroke="black" points="450.545,-182.919 458.986,-176.515 448.394,-176.258 450.545,-182.919"/>
</g>
<!-- 6 -->
<g id="node7" class="node"><title>6</title>
<ellipse fill="none" stroke="black" cx="259.243" cy="-162" rx="37.8943" ry="18"/>
<text text-anchor="middle" x="259.243" y="-158.3" font-family="Times New Roman,serif" font-size="14.00">Pin(p1)</text>
</g>
<!-- 2&#45;&gt;6 -->
<g id="edge4" class="edge"><title>2&#45;&gt;6</title>
<path fill="none" stroke="black" d="M259.243,-215.697C259.243,-207.983 259.243,-198.712 259.243,-190.112"/>
<polygon fill="black" stroke="black" points="262.743,-190.104 259.243,-180.104 255.743,-190.104 262.743,-190.104"/>
</g>
<!-- 2&#45;&gt;7 -->
<g id="edge3" class="edge"><title>2&#45;&gt;7</title>
<path fill="none" stroke="black" d="M217.274,-228.854C180.456,-222.675 131.673,-208.571 100.243,-180 81.8906,-163.317 69.7112,-137.606 67.1879,-118.101"/>
<polygon fill="black" stroke="black" points="70.6813,-117.859 66.8016,-108 63.6864,-118.126 70.6813,-117.859"/>
</g>
<!-- 2&#45;&gt;7 -->
<g id="edge6" class="edge"><title>2&#45;&gt;7</title>
<path fill="none" stroke="black" d="M219.437,-226.646C188.435,-219.564 146.384,-205.581 118.243,-180 99.8056,-163.24 87.5985,-137.368 81.9994,-117.83"/>
<polygon fill="black" stroke="black" points="85.3747,-116.897 79.623,-108 78.5707,-118.542 85.3747,-116.897"/>
</g>
<!-- 2&#45;&gt;7 -->
<g id="edge8" class="edge"><title>2&#45;&gt;7</title>
<path fill="none" stroke="black" d="M223.16,-223.787C196.533,-216.037 161.003,-202.508 136.243,-180 117.636,-163.085 105.374,-136.89 96.6042,-117.292"/>
<polygon fill="black" stroke="black" points="99.7249,-115.697 92.4444,-108 93.3359,-118.557 99.7249,-115.697"/>
</g>
<!-- 2&#45;&gt;7 -->
<g id="edge11" class="edge"><title>2&#45;&gt;7</title>
<path fill="none" stroke="black" d="M229.557,-220.795C206.292,-212.717 176.079,-199.85 154.243,-180 135.158,-162.651 122.748,-135.538 110.437,-115.794"/>
<polygon fill="black" stroke="black" points="113.229,-113.673 104.763,-107.303 107.408,-117.562 113.229,-113.673"/>
</g>
<!-- 8 -->
<g id="node9" class="node"><title>8</title>
<ellipse fill="none" stroke="black" cx="276.243" cy="-90" rx="40.0939" ry="18"/>
<text text-anchor="middle" x="276.243" y="-86.3" font-family="Times New Roman,serif" font-size="14.00">Pon(c1)</text>
</g>
<!-- 2&#45;&gt;8 -->
<g id="edge5" class="edge"><title>2&#45;&gt;8</title>
<path fill="none" stroke="black" d="M291.165,-221.672C309.67,-213.264 331.398,-199.792 342.243,-180 349.931,-165.968 349.161,-158.427 342.243,-144 335.428,-129.788 322.74,-118.182 310.295,-109.493"/>
<polygon fill="black" stroke="black" points="312.081,-106.479 301.793,-103.947 308.256,-112.342 312.081,-106.479"/>
</g>
<!-- 3 -->
<g id="node4" class="node"><title>3</title>
<ellipse fill="none" stroke="black" cx="344.243" cy="-306" rx="40.0939" ry="18"/>
<text text-anchor="middle" x="344.243" y="-302.3" font-family="Times New Roman,serif" font-size="14.00">Pon(p1)</text>
</g>
<!-- 4&#45;&gt;4 -->
<g id="edge15" class="edge"><title>4&#45;&gt;4</title>
<path fill="none" stroke="black" d="M532.703,-175.17C551.683,-176.796 568.438,-172.406 568.438,-162 568.438,-153.545 557.377,-149.061 543.049,-148.549"/>
<polygon fill="black" stroke="black" points="542.604,-145.06 532.703,-148.83 542.794,-152.058 542.604,-145.06"/>
</g>
<!-- 9 -->
<g id="node10" class="node"><title>9</title>
<ellipse fill="none" stroke="black" cx="763.243" cy="-90" rx="71.4873" ry="18"/>
<text text-anchor="middle" x="763.243" y="-86.3" font-family="Times New Roman,serif" font-size="14.00">cadenaDerecha()</text>
</g>
<!-- 4&#45;&gt;9 -->
<g id="edge14" class="edge"><title>4&#45;&gt;9</title>
<path fill="none" stroke="black" d="M536.025,-149.908C581.749,-138.054 654.509,-119.19 705.337,-106.013"/>
<polygon fill="black" stroke="black" points="706.394,-109.354 715.196,-103.457 704.638,-102.578 706.394,-109.354"/>
</g>
<!-- 10 -->
<g id="node11" class="node"><title>10</title>
<ellipse fill="none" stroke="black" cx="428.243" cy="-90" rx="75.2868" ry="18"/>
<text text-anchor="middle" x="428.243" y="-86.3" font-family="Times New Roman,serif" font-size="14.00">cadenaIzquierda()</text>
</g>
<!-- 4&#45;&gt;10 -->
<g id="edge16" class="edge"><title>4&#45;&gt;10</title>
<path fill="none" stroke="black" d="M477.839,-144.411C469.781,-135.734 459.764,-124.946 450.846,-115.342"/>
<polygon fill="black" stroke="black" points="453.357,-112.903 443.988,-107.956 448.228,-117.666 453.357,-112.903"/>
</g>
<!-- 11 -->
<g id="node12" class="node"><title>11</title>
<ellipse fill="none" stroke="black" cx="276.243" cy="-18" rx="74.9875" ry="18"/>
<text text-anchor="middle" x="276.243" y="-14.3" font-family="Times New Roman,serif" font-size="14.00">cadenaLongitud()</text>
</g>
<!-- 4&#45;&gt;11 -->
<g id="edge17" class="edge"><title>4&#45;&gt;11</title>
<path fill="none" stroke="black" d="M497.858,-144.027C506.463,-124.576 519.828,-92.7235 503.243,-72 484.33,-48.3682 411.879,-34.5449 353.793,-26.9771"/>
<polygon fill="black" stroke="black" points="354.228,-23.5044 343.869,-25.7258 353.353,-30.4494 354.228,-23.5044"/>
</g>
<!-- 4&#45;&gt;11 -->
<g id="edge18" class="edge"><title>4&#45;&gt;11</title>
<path fill="none" stroke="black" d="M510.281,-144.716C524.14,-125.336 538.026,-92.9702 521.243,-72 501.037,-46.7534 419.728,-32.7015 356.189,-25.5123"/>
<polygon fill="black" stroke="black" points="356.477,-22.023 346.156,-24.4167 355.717,-28.9816 356.477,-22.023"/>
</g>
<!-- 12 -->
<g id="node13" class="node"><title>12</title>
<ellipse fill="none" stroke="black" cx="625.243" cy="-90" rx="48.1917" ry="18"/>
<text text-anchor="middle" x="625.243" y="-86.3" font-family="Times New Roman,serif" font-size="14.00">devolver()</text>
</g>
<!-- 4&#45;&gt;12 -->
<g id="edge19" class="edge"><title>4&#45;&gt;12</title>
<path fill="none" stroke="black" d="M521.237,-146.155C541.235,-135.55 568.295,-121.2 589.8,-109.795"/>
<polygon fill="black" stroke="black" points="591.445,-112.885 598.64,-105.108 588.165,-106.701 591.445,-112.885"/>
</g>
<!-- 5 -->
<g id="node6" class="node"><title>5</title>
<ellipse fill="none" stroke="black" cx="439.243" cy="-306" rx="37.0935" ry="18"/>
<text text-anchor="middle" x="439.243" y="-302.3" font-family="Times New Roman,serif" font-size="14.00">Pin(c1)</text>
</g>
<!-- 6&#45;&gt;6 -->
<g id="edge25" class="edge"><title>6&#45;&gt;6</title>
<path fill="none" stroke="black" d="M294.325,-168.75C305.801,-168.715 314.939,-166.465 314.939,-162 314.939,-159 310.814,-157 304.626,-156"/>
<polygon fill="black" stroke="black" points="304.552,-152.486 294.325,-155.25 304.044,-159.467 304.552,-152.486"/>
</g>
<!-- 6&#45;&gt;6 -->
<g id="edge28" class="edge"><title>6&#45;&gt;6</title>
<path fill="none" stroke="black" d="M287.988,-173.756C310.242,-178.153 332.939,-174.234 332.939,-162 332.939,-151.629 316.631,-147.234 298.108,-148.813"/>
<polygon fill="black" stroke="black" points="297.4,-145.378 287.988,-150.244 298.38,-152.309 297.4,-145.378"/>
</g>
<!-- 6&#45;&gt;7 -->
<g id="edge21" class="edge"><title>6&#45;&gt;7</title>
<path fill="none" stroke="black" d="M228.839,-150.971C200.051,-140.419 156.747,-123.548 124.422,-110.385"/>
<polygon fill="black" stroke="black" points="125.351,-106.983 114.77,-106.429 122.696,-113.46 125.351,-106.983"/>
</g>
<!-- 6&#45;&gt;7 -->
<g id="edge26" class="edge"><title>6&#45;&gt;7</title>
<path fill="none" stroke="black" d="M233.504,-148.807C207.278,-137.826 166.108,-121.541 133.135,-109.051"/>
<polygon fill="black" stroke="black" points="134.224,-105.721 123.632,-105.472 131.757,-112.272 134.224,-105.721"/>
</g>
<!-- 6&#45;&gt;8 -->
<g id="edge24" class="edge"><title>6&#45;&gt;8</title>
<path fill="none" stroke="black" d="M251.602,-144.055C251.856,-135.735 253.908,-125.54 257.064,-116.319"/>
<polygon fill="black" stroke="black" points="260.396,-117.413 260.89,-106.829 253.904,-114.795 260.396,-117.413"/>
</g>
<!-- 6&#45;&gt;8 -->
<g id="edge27" class="edge"><title>6&#45;&gt;8</title>
<path fill="none" stroke="black" d="M274.456,-145.465C278.332,-137.388 281.366,-127.283 282.871,-117.977"/>
<polygon fill="black" stroke="black" points="286.36,-118.263 283.884,-107.962 279.395,-117.559 286.36,-118.263"/>
</g>
<!-- 6&#45;&gt;10 -->
<g id="edge20" class="edge"><title>6&#45;&gt;10</title>
<path fill="none" stroke="black" d="M286.772,-149.597C312.682,-138.866 351.968,-122.593 382.572,-109.917"/>
<polygon fill="black" stroke="black" points="384.276,-113 392.175,-105.939 381.597,-106.532 384.276,-113"/>
</g>
<!-- 6&#45;&gt;11 -->
<g id="edge22" class="edge"><title>6&#45;&gt;11</title>
<path fill="none" stroke="black" d="M240.752,-146.103C225.314,-128.35 208.128,-97.8403 218.243,-72 222.739,-60.5132 231.023,-50.0238 240.028,-41.4632"/>
<polygon fill="black" stroke="black" points="242.479,-43.9688 247.694,-34.7464 237.866,-38.7036 242.479,-43.9688"/>
</g>
<!-- 6&#45;&gt;11 -->
<g id="edge23" class="edge"><title>6&#45;&gt;11</title>
<path fill="none" stroke="black" d="M252.456,-144.165C242.128,-126.19 226.487,-96.9229 236.243,-72 240.397,-61.3883 247.782,-51.628 255.176,-43.4531"/>
<polygon fill="black" stroke="black" points="257.796,-45.778 262.163,-36.1251 252.729,-40.9477 257.796,-45.778"/>
</g>
<!-- 13 -->
<g id="node14" class="node"><title>13</title>
<ellipse fill="none" stroke="black" cx="81.2428" cy="-18" rx="46.5926" ry="18"/>
<text text-anchor="middle" x="81.2428" y="-14.3" font-family="Times New Roman,serif" font-size="14.00">imprimir()</text>
</g>
<!-- 7&#45;&gt;13 -->
<g id="edge29" class="edge"><title>7&#45;&gt;13</title>
<path fill="none" stroke="black" d="M81.2428,-71.6966C81.2428,-63.9827 81.2428,-54.7125 81.2428,-46.1124"/>
<polygon fill="black" stroke="black" points="84.7429,-46.1043 81.2428,-36.1043 77.7429,-46.1044 84.7429,-46.1043"/>
</g>
<!-- 8&#45;&gt;6 -->
<g id="edge12" class="edge"><title>8&#45;&gt;6</title>
<path fill="none" stroke="black" d="M272.047,-108.275C270.143,-116.115 267.848,-125.567 265.729,-134.29"/>
<polygon fill="black" stroke="black" points="262.317,-133.511 263.358,-144.055 269.119,-135.163 262.317,-133.511"/>
</g>
<!-- 8&#45;&gt;8 -->
<g id="edge13" class="edge"><title>8&#45;&gt;8</title>
<path fill="none" stroke="black" d="M304.737,-102.899C320.292,-105.198 334.539,-100.898 334.539,-90 334.539,-81.5707 326.016,-77.0888 314.957,-76.5543"/>
<polygon fill="black" stroke="black" points="314.536,-73.0718 304.737,-77.1007 314.909,-80.0618 314.536,-73.0718"/>
</g>
<!-- 8&#45;&gt;11 -->
<g id="edge30" class="edge"><title>8&#45;&gt;11</title>
<path fill="none" stroke="black" d="M276.243,-71.6966C276.243,-63.9827 276.243,-54.7125 276.243,-46.1124"/>
<polygon fill="black" stroke="black" points="279.743,-46.1043 276.243,-36.1043 272.743,-46.1044 279.743,-46.1043"/>
</g>
</g>
</svg>
