<?xml version="1.0" encoding="UTF-8" standalone="no"?>
<!DOCTYPE svg PUBLIC "-//W3C//DTD SVG 1.1//EN"
 "http://www.w3.org/Graphics/SVG/1.1/DTD/svg11.dtd">
<!-- Generated by graphviz version 2.38.0 (20140413.2041)
 -->
<!-- Title: Grafo Pages: 1 -->
<svg width="225pt" height="404pt"
 viewBox="0.00 0.00 225.00 404.00" xmlns="http://www.w3.org/2000/svg" xmlns:xlink="http://www.w3.org/1999/xlink">
<g id="graph0" class="graph" transform="scale(1 1) rotate(0) translate(4 400)">
<title>Grafo</title>
<polygon fill="white" stroke="none" points="-4,4 -4,-400 221,-400 221,4 -4,4"/>
<!-- 0 -->
<g id="node1" class="node"><title>0</title>
<ellipse fill="red" stroke="black" cx="118" cy="-378" rx="27" ry="18"/>
</g>
<!-- 1 -->
<g id="node2" class="node"><title>1</title>
<ellipse fill="none" stroke="black" cx="118" cy="-306" rx="27" ry="18"/>
</g>
<!-- 0&#45;&gt;1 -->
<g id="edge1" class="edge"><title>0&#45;&gt;1</title>
<path fill="none" stroke="black" d="M118,-359.697C118,-351.983 118,-342.712 118,-334.112"/>
<polygon fill="black" stroke="black" points="121.5,-334.104 118,-324.104 114.5,-334.104 121.5,-334.104"/>
</g>
<!-- 2 -->
<g id="node3" class="node"><title>2</title>
<ellipse fill="none" stroke="black" cx="82" cy="-234" rx="27" ry="18"/>
</g>
<!-- 1&#45;&gt;2 -->
<g id="edge2" class="edge"><title>1&#45;&gt;2</title>
<path fill="none" stroke="black" d="M109.65,-288.765C105.288,-280.283 99.8531,-269.714 94.9587,-260.197"/>
<polygon fill="black" stroke="black" points="97.9904,-258.439 90.3043,-251.147 91.7654,-261.641 97.9904,-258.439"/>
</g>
<!-- 6 -->
<g id="node7" class="node"><title>6</title>
<ellipse fill="none" stroke="black" cx="154" cy="-234" rx="27" ry="18"/>
</g>
<!-- 1&#45;&gt;6 -->
<g id="edge3" class="edge"><title>1&#45;&gt;6</title>
<path fill="none" stroke="black" d="M126.35,-288.765C130.712,-280.283 136.147,-269.714 141.041,-260.197"/>
<polygon fill="black" stroke="black" points="144.235,-261.641 145.696,-251.147 138.01,-258.439 144.235,-261.641"/>
</g>
<!-- 3 -->
<g id="node4" class="node"><title>3</title>
<ellipse fill="none" stroke="black" cx="27" cy="-162" rx="27" ry="18"/>
</g>
<!-- 2&#45;&gt;3 -->
<g id="edge4" class="edge"><title>2&#45;&gt;3</title>
<path fill="none" stroke="black" d="M70.0658,-217.811C62.7864,-208.546 53.3374,-196.52 45.1456,-186.094"/>
<polygon fill="black" stroke="black" points="47.8413,-183.86 38.9109,-178.159 42.337,-188.185 47.8413,-183.86"/>
</g>
<!-- 4 -->
<g id="node5" class="node"><title>4</title>
<ellipse fill="none" stroke="black" cx="99" cy="-162" rx="27" ry="18"/>
</g>
<!-- 2&#45;&gt;4 -->
<g id="edge5" class="edge"><title>2&#45;&gt;4</title>
<path fill="none" stroke="black" d="M86.1152,-216.055C88.0081,-208.261 90.3004,-198.822 92.4237,-190.079"/>
<polygon fill="black" stroke="black" points="95.8457,-190.819 94.8046,-180.275 89.0434,-189.167 95.8457,-190.819"/>
</g>
<!-- 5 -->
<g id="node6" class="node"><title>5</title>
<ellipse fill="none" stroke="black" cx="126" cy="-90" rx="27" ry="18"/>
</g>
<!-- 4&#45;&gt;5 -->
<g id="edge6" class="edge"><title>4&#45;&gt;5</title>
<path fill="none" stroke="black" d="M105.399,-144.411C108.514,-136.335 112.334,-126.431 115.835,-117.355"/>
<polygon fill="black" stroke="black" points="119.126,-118.546 119.46,-107.956 112.595,-116.027 119.126,-118.546"/>
</g>
<!-- 7 -->
<g id="node8" class="node"><title>7</title>
<ellipse fill="none" stroke="black" cx="126" cy="-18" rx="27" ry="18"/>
</g>
<!-- 5&#45;&gt;7 -->
<g id="edge7" class="edge"><title>5&#45;&gt;7</title>
<path fill="none" stroke="black" d="M126,-71.6966C126,-63.9827 126,-54.7125 126,-46.1124"/>
<polygon fill="black" stroke="black" points="129.5,-46.1043 126,-36.1043 122.5,-46.1044 129.5,-46.1043"/>
</g>
<!-- 6&#45;&gt;5 -->
<g id="edge8" class="edge"><title>6&#45;&gt;5</title>
<path fill="none" stroke="black" d="M150.623,-215.871C145.829,-191.564 137.007,-146.819 131.327,-118.013"/>
<polygon fill="black" stroke="black" points="134.758,-117.323 129.389,-108.189 127.89,-118.677 134.758,-117.323"/>
</g>
<!-- 8 -->
<g id="node9" class="node"><title>8</title>
<ellipse fill="none" stroke="black" cx="190" cy="-378" rx="27" ry="18"/>
</g>
<!-- 9 -->
<g id="node10" class="node"><title>9</title>
<ellipse fill="blue" stroke="black" cx="190" cy="-306" rx="27" ry="18"/>
</g>
<!-- 8&#45;&gt;9 -->
<g id="edge9" class="edge"><title>8&#45;&gt;9</title>
<path fill="none" stroke="black" d="M190,-359.697C190,-351.983 190,-342.712 190,-334.112"/>
<polygon fill="black" stroke="black" points="193.5,-334.104 190,-324.104 186.5,-334.104 193.5,-334.104"/>
</g>
</g>
</svg>
