<?xml version="1.0" encoding="UTF-8" standalone="no"?>
<!DOCTYPE svg PUBLIC "-//W3C//DTD SVG 1.1//EN"
 "http://www.w3.org/Graphics/SVG/1.1/DTD/svg11.dtd">
<!-- Generated by graphviz version 2.38.0 (20140413.2041)
 -->
<!-- Title: Grafo Pages: 1 -->
<svg width="242pt" height="1196pt"
 viewBox="0.00 0.00 242.00 1196.00" xmlns="http://www.w3.org/2000/svg" xmlns:xlink="http://www.w3.org/1999/xlink">
<g id="graph0" class="graph" transform="scale(1 1) rotate(0) translate(4 1192)">
<title>Grafo</title>
<polygon fill="white" stroke="none" points="-4,4 -4,-1192 238,-1192 238,4 -4,4"/>
<!-- 0 -->
<g id="node1" class="node"><title>0</title>
<ellipse fill="red" stroke="black" cx="63" cy="-1170" rx="27" ry="18"/>
</g>
<!-- 1 -->
<g id="node2" class="node"><title>1</title>
<ellipse fill="none" stroke="black" cx="63" cy="-1098" rx="27" ry="18"/>
</g>
<!-- 0&#45;&gt;1 -->
<g id="edge1" class="edge"><title>0&#45;&gt;1</title>
<path fill="none" stroke="black" d="M63,-1151.7C63,-1143.98 63,-1134.71 63,-1126.11"/>
<polygon fill="black" stroke="black" points="66.5001,-1126.1 63,-1116.1 59.5001,-1126.1 66.5001,-1126.1"/>
</g>
<!-- 2 -->
<g id="node3" class="node"><title>2</title>
<ellipse fill="none" stroke="black" cx="63" cy="-1026" rx="27" ry="18"/>
</g>
<!-- 1&#45;&gt;2 -->
<g id="edge2" class="edge"><title>1&#45;&gt;2</title>
<path fill="none" stroke="black" d="M63,-1079.7C63,-1071.98 63,-1062.71 63,-1054.11"/>
<polygon fill="black" stroke="black" points="66.5001,-1054.1 63,-1044.1 59.5001,-1054.1 66.5001,-1054.1"/>
</g>
<!-- 3 -->
<g id="node4" class="node"><title>3</title>
<ellipse fill="none" stroke="black" cx="63" cy="-954" rx="27" ry="18"/>
</g>
<!-- 2&#45;&gt;3 -->
<g id="edge3" class="edge"><title>2&#45;&gt;3</title>
<path fill="none" stroke="black" d="M63,-1007.7C63,-999.983 63,-990.712 63,-982.112"/>
<polygon fill="black" stroke="black" points="66.5001,-982.104 63,-972.104 59.5001,-982.104 66.5001,-982.104"/>
</g>
<!-- 4 -->
<g id="node5" class="node"><title>4</title>
<ellipse fill="none" stroke="black" cx="63" cy="-882" rx="27" ry="18"/>
</g>
<!-- 3&#45;&gt;4 -->
<g id="edge4" class="edge"><title>3&#45;&gt;4</title>
<path fill="none" stroke="black" d="M63,-935.697C63,-927.983 63,-918.712 63,-910.112"/>
<polygon fill="black" stroke="black" points="66.5001,-910.104 63,-900.104 59.5001,-910.104 66.5001,-910.104"/>
</g>
<!-- 5 -->
<g id="node6" class="node"><title>5</title>
<ellipse fill="none" stroke="black" cx="63" cy="-810" rx="27" ry="18"/>
</g>
<!-- 4&#45;&gt;5 -->
<g id="edge5" class="edge"><title>4&#45;&gt;5</title>
<path fill="none" stroke="black" d="M63,-863.697C63,-855.983 63,-846.712 63,-838.112"/>
<polygon fill="black" stroke="black" points="66.5001,-838.104 63,-828.104 59.5001,-838.104 66.5001,-838.104"/>
</g>
<!-- 6 -->
<g id="node7" class="node"><title>6</title>
<ellipse fill="none" stroke="black" cx="63" cy="-738" rx="27" ry="18"/>
</g>
<!-- 5&#45;&gt;6 -->
<g id="edge6" class="edge"><title>5&#45;&gt;6</title>
<path fill="none" stroke="black" d="M63,-791.697C63,-783.983 63,-774.712 63,-766.112"/>
<polygon fill="black" stroke="black" points="66.5001,-766.104 63,-756.104 59.5001,-766.104 66.5001,-766.104"/>
</g>
<!-- 7 -->
<g id="node8" class="node"><title>7</title>
<ellipse fill="none" stroke="black" cx="63" cy="-666" rx="27" ry="18"/>
</g>
<!-- 6&#45;&gt;7 -->
<g id="edge7" class="edge"><title>6&#45;&gt;7</title>
<path fill="none" stroke="black" d="M63,-719.697C63,-711.983 63,-702.712 63,-694.112"/>
<polygon fill="black" stroke="black" points="66.5001,-694.104 63,-684.104 59.5001,-694.104 66.5001,-694.104"/>
</g>
<!-- 8 -->
<g id="node9" class="node"><title>8</title>
<ellipse fill="none" stroke="black" cx="63" cy="-594" rx="27" ry="18"/>
</g>
<!-- 7&#45;&gt;8 -->
<g id="edge8" class="edge"><title>7&#45;&gt;8</title>
<path fill="none" stroke="black" d="M63,-647.697C63,-639.983 63,-630.712 63,-622.112"/>
<polygon fill="black" stroke="black" points="66.5001,-622.104 63,-612.104 59.5001,-622.104 66.5001,-622.104"/>
</g>
<!-- 9 -->
<g id="node10" class="node"><title>9</title>
<ellipse fill="none" stroke="black" cx="63" cy="-522" rx="27" ry="18"/>
</g>
<!-- 8&#45;&gt;9 -->
<g id="edge9" class="edge"><title>8&#45;&gt;9</title>
<path fill="none" stroke="black" d="M63,-575.697C63,-567.983 63,-558.712 63,-550.112"/>
<polygon fill="black" stroke="black" points="66.5001,-550.104 63,-540.104 59.5001,-550.104 66.5001,-550.104"/>
</g>
<!-- 10 -->
<g id="node11" class="node"><title>10</title>
<ellipse fill="none" stroke="black" cx="63" cy="-450" rx="27" ry="18"/>
</g>
<!-- 9&#45;&gt;10 -->
<g id="edge10" class="edge"><title>9&#45;&gt;10</title>
<path fill="none" stroke="black" d="M63,-503.697C63,-495.983 63,-486.712 63,-478.112"/>
<polygon fill="black" stroke="black" points="66.5001,-478.104 63,-468.104 59.5001,-478.104 66.5001,-478.104"/>
</g>
<!-- 11 -->
<g id="node12" class="node"><title>11</title>
<ellipse fill="none" stroke="black" cx="27" cy="-378" rx="27" ry="18"/>
</g>
<!-- 10&#45;&gt;11 -->
<g id="edge11" class="edge"><title>10&#45;&gt;11</title>
<path fill="none" stroke="black" d="M54.6504,-432.765C50.2885,-424.283 44.8531,-413.714 39.9587,-404.197"/>
<polygon fill="black" stroke="black" points="42.9904,-402.439 35.3043,-395.147 36.7654,-405.641 42.9904,-402.439"/>
</g>
<!-- 12 -->
<g id="node13" class="node"><title>12</title>
<ellipse fill="none" stroke="black" cx="99" cy="-378" rx="27" ry="18"/>
</g>
<!-- 10&#45;&gt;12 -->
<g id="edge12" class="edge"><title>10&#45;&gt;12</title>
<path fill="none" stroke="black" d="M71.3496,-432.765C75.7115,-424.283 81.1469,-413.714 86.0413,-404.197"/>
<polygon fill="black" stroke="black" points="89.2346,-405.641 90.6957,-395.147 83.0096,-402.439 89.2346,-405.641"/>
</g>
<!-- 13 -->
<g id="node14" class="node"><title>13</title>
<ellipse fill="none" stroke="black" cx="63" cy="-306" rx="27" ry="18"/>
</g>
<!-- 12&#45;&gt;13 -->
<g id="edge13" class="edge"><title>12&#45;&gt;13</title>
<path fill="none" stroke="black" d="M90.6504,-360.765C86.2885,-352.283 80.8531,-341.714 75.9587,-332.197"/>
<polygon fill="black" stroke="black" points="78.9904,-330.439 71.3043,-323.147 72.7654,-333.641 78.9904,-330.439"/>
</g>
<!-- 14 -->
<g id="node15" class="node"><title>14</title>
<ellipse fill="none" stroke="black" cx="135" cy="-306" rx="27" ry="18"/>
</g>
<!-- 12&#45;&gt;14 -->
<g id="edge14" class="edge"><title>12&#45;&gt;14</title>
<path fill="none" stroke="black" d="M107.35,-360.765C111.712,-352.283 117.147,-341.714 122.041,-332.197"/>
<polygon fill="black" stroke="black" points="125.235,-333.641 126.696,-323.147 119.01,-330.439 125.235,-333.641"/>
</g>
<!-- 15 -->
<g id="node16" class="node"><title>15</title>
<ellipse fill="none" stroke="black" cx="99" cy="-234" rx="27" ry="18"/>
</g>
<!-- 14&#45;&gt;15 -->
<g id="edge15" class="edge"><title>14&#45;&gt;15</title>
<path fill="none" stroke="black" d="M126.65,-288.765C122.288,-280.283 116.853,-269.714 111.959,-260.197"/>
<polygon fill="black" stroke="black" points="114.99,-258.439 107.304,-251.147 108.765,-261.641 114.99,-258.439"/>
</g>
<!-- 19 -->
<g id="node20" class="node"><title>19</title>
<ellipse fill="none" stroke="black" cx="171" cy="-234" rx="27" ry="18"/>
</g>
<!-- 14&#45;&gt;19 -->
<g id="edge16" class="edge"><title>14&#45;&gt;19</title>
<path fill="none" stroke="black" d="M143.35,-288.765C147.712,-280.283 153.147,-269.714 158.041,-260.197"/>
<polygon fill="black" stroke="black" points="161.235,-261.641 162.696,-251.147 155.01,-258.439 161.235,-261.641"/>
</g>
<!-- 16 -->
<g id="node17" class="node"><title>16</title>
<ellipse fill="none" stroke="black" cx="27" cy="-162" rx="27" ry="18"/>
</g>
<!-- 15&#45;&gt;16 -->
<g id="edge17" class="edge"><title>15&#45;&gt;16</title>
<path fill="none" stroke="black" d="M84.4297,-218.834C74.2501,-208.938 60.4761,-195.546 48.9694,-184.359"/>
<polygon fill="black" stroke="black" points="51.4055,-181.846 41.7957,-177.385 46.5259,-186.865 51.4055,-181.846"/>
</g>
<!-- 17 -->
<g id="node18" class="node"><title>17</title>
<ellipse fill="none" stroke="black" cx="99" cy="-162" rx="27" ry="18"/>
</g>
<!-- 15&#45;&gt;17 -->
<g id="edge18" class="edge"><title>15&#45;&gt;17</title>
<path fill="none" stroke="black" d="M99,-215.697C99,-207.983 99,-198.712 99,-190.112"/>
<polygon fill="black" stroke="black" points="102.5,-190.104 99,-180.104 95.5001,-190.104 102.5,-190.104"/>
</g>
<!-- 18 -->
<g id="node19" class="node"><title>18</title>
<ellipse fill="none" stroke="black" cx="99" cy="-90" rx="27" ry="18"/>
</g>
<!-- 17&#45;&gt;18 -->
<g id="edge19" class="edge"><title>17&#45;&gt;18</title>
<path fill="none" stroke="black" d="M99,-143.697C99,-135.983 99,-126.712 99,-118.112"/>
<polygon fill="black" stroke="black" points="102.5,-118.104 99,-108.104 95.5001,-118.104 102.5,-118.104"/>
</g>
<!-- 21 -->
<g id="node22" class="node"><title>21</title>
<ellipse fill="none" stroke="black" cx="99" cy="-18" rx="27" ry="18"/>
</g>
<!-- 18&#45;&gt;21 -->
<g id="edge20" class="edge"><title>18&#45;&gt;21</title>
<path fill="none" stroke="black" d="M99,-71.6966C99,-63.9827 99,-54.7125 99,-46.1124"/>
<polygon fill="black" stroke="black" points="102.5,-46.1043 99,-36.1043 95.5001,-46.1044 102.5,-46.1043"/>
</g>
<!-- 20 -->
<g id="node21" class="node"><title>20</title>
<ellipse fill="none" stroke="black" cx="171" cy="-162" rx="27" ry="18"/>
</g>
<!-- 19&#45;&gt;20 -->
<g id="edge21" class="edge"><title>19&#45;&gt;20</title>
<path fill="none" stroke="black" d="M171,-215.697C171,-207.983 171,-198.712 171,-190.112"/>
<polygon fill="black" stroke="black" points="174.5,-190.104 171,-180.104 167.5,-190.104 174.5,-190.104"/>
</g>
<!-- 22 -->
<g id="node23" class="node"><title>22</title>
<ellipse fill="none" stroke="black" cx="135" cy="-1170" rx="27" ry="18"/>
</g>
<!-- 23 -->
<g id="node24" class="node"><title>23</title>
<ellipse fill="none" stroke="black" cx="207" cy="-1170" rx="27" ry="18"/>
</g>
<!-- 24 -->
<g id="node25" class="node"><title>24</title>
<ellipse fill="blue" stroke="black" cx="207" cy="-1098" rx="27" ry="18"/>
</g>
<!-- 23&#45;&gt;24 -->
<g id="edge22" class="edge"><title>23&#45;&gt;24</title>
<path fill="none" stroke="black" d="M207,-1151.7C207,-1143.98 207,-1134.71 207,-1126.11"/>
<polygon fill="black" stroke="black" points="210.5,-1126.1 207,-1116.1 203.5,-1126.1 210.5,-1126.1"/>
</g>
</g>
</svg>
