<?xml version="1.0" encoding="UTF-8" standalone="no"?>
<!DOCTYPE svg PUBLIC "-//W3C//DTD SVG 1.1//EN"
 "http://www.w3.org/Graphics/SVG/1.1/DTD/svg11.dtd">
<!-- Generated by graphviz version 2.38.0 (20140413.2041)
 -->
<!-- Title: Grafo Pages: 1 -->
<svg width="327pt" height="3356pt"
 viewBox="0.00 0.00 327.00 3356.00" xmlns="http://www.w3.org/2000/svg" xmlns:xlink="http://www.w3.org/1999/xlink">
<g id="graph0" class="graph" transform="scale(1 1) rotate(0) translate(4 3352)">
<title>Grafo</title>
<polygon fill="white" stroke="none" points="-4,4 -4,-3352 323,-3352 323,4 -4,4"/>
<!-- main0 -->
<g id="node1" class="node"><title>main0</title>
<ellipse fill="red" stroke="black" cx="264" cy="-3330" rx="27" ry="18"/>
</g>
<!-- main1 -->
<g id="node2" class="node"><title>main1</title>
<ellipse fill="blue" stroke="black" cx="192" cy="-3258" rx="27" ry="18"/>
</g>
<!-- main0&#45;&gt;main1 -->
<g id="edge1" class="edge"><title>main0&#45;&gt;main1</title>
<path fill="none" stroke="black" d="M249.43,-3314.83C239.25,-3304.94 225.476,-3291.55 213.969,-3280.36"/>
<polygon fill="black" stroke="black" points="216.405,-3277.85 206.796,-3273.38 211.526,-3282.87 216.405,-3277.85"/>
</g>
<!-- prueba0 -->
<g id="node3" class="node"><title>prueba0</title>
<ellipse fill="red" stroke="black" cx="264" cy="-3258" rx="27" ry="18"/>
</g>
<!-- main0&#45;&gt;prueba0 -->
<g id="edge69" class="edge"><title>main0&#45;&gt;prueba0</title>
<path fill="none" stroke="black" d="M264,-3311.7C264,-3303.98 264,-3294.71 264,-3286.11"/>
<polygon fill="black" stroke="black" points="267.5,-3286.1 264,-3276.1 260.5,-3286.1 267.5,-3286.1"/>
</g>
<!-- prueba1 -->
<g id="node4" class="node"><title>prueba1</title>
<ellipse fill="none" stroke="black" cx="264" cy="-3186" rx="27" ry="18"/>
</g>
<!-- prueba0&#45;&gt;prueba1 -->
<g id="edge2" class="edge"><title>prueba0&#45;&gt;prueba1</title>
<path fill="none" stroke="black" d="M264,-3239.7C264,-3231.98 264,-3222.71 264,-3214.11"/>
<polygon fill="black" stroke="black" points="267.5,-3214.1 264,-3204.1 260.5,-3214.1 267.5,-3214.1"/>
</g>
<!-- prueba2 -->
<g id="node5" class="node"><title>prueba2</title>
<ellipse fill="none" stroke="black" cx="264" cy="-3114" rx="27" ry="18"/>
</g>
<!-- prueba1&#45;&gt;prueba2 -->
<g id="edge3" class="edge"><title>prueba1&#45;&gt;prueba2</title>
<path fill="none" stroke="black" d="M264,-3167.7C264,-3159.98 264,-3150.71 264,-3142.11"/>
<polygon fill="black" stroke="black" points="267.5,-3142.1 264,-3132.1 260.5,-3142.1 267.5,-3142.1"/>
</g>
<!-- prueba5 -->
<g id="node8" class="node"><title>prueba5</title>
<ellipse fill="none" stroke="black" cx="192" cy="-3114" rx="27" ry="18"/>
</g>
<!-- prueba1&#45;&gt;prueba5 -->
<g id="edge4" class="edge"><title>prueba1&#45;&gt;prueba5</title>
<path fill="none" stroke="black" d="M249.43,-3170.83C239.25,-3160.94 225.476,-3147.55 213.969,-3136.36"/>
<polygon fill="black" stroke="black" points="216.405,-3133.85 206.796,-3129.38 211.526,-3138.87 216.405,-3133.85"/>
</g>
<!-- prueba3 -->
<g id="node6" class="node"><title>prueba3</title>
<ellipse fill="none" stroke="black" cx="264" cy="-3042" rx="27" ry="18"/>
</g>
<!-- prueba2&#45;&gt;prueba3 -->
<g id="edge5" class="edge"><title>prueba2&#45;&gt;prueba3</title>
<path fill="none" stroke="black" d="M264,-3095.7C264,-3087.98 264,-3078.71 264,-3070.11"/>
<polygon fill="black" stroke="black" points="267.5,-3070.1 264,-3060.1 260.5,-3070.1 267.5,-3070.1"/>
</g>
<!-- prueba4 -->
<g id="node7" class="node"><title>prueba4</title>
<ellipse fill="none" stroke="black" cx="236" cy="-2970" rx="27" ry="18"/>
</g>
<!-- prueba3&#45;&gt;prueba4 -->
<g id="edge6" class="edge"><title>prueba3&#45;&gt;prueba4</title>
<path fill="none" stroke="black" d="M257.364,-3024.41C254.087,-3016.22 250.056,-3006.14 246.382,-2996.95"/>
<polygon fill="black" stroke="black" points="249.552,-2995.45 242.588,-2987.47 243.052,-2998.05 249.552,-2995.45"/>
</g>
<!-- prueba7 -->
<g id="node10" class="node"><title>prueba7</title>
<ellipse fill="none" stroke="black" cx="236" cy="-2898" rx="27" ry="18"/>
</g>
<!-- prueba4&#45;&gt;prueba7 -->
<g id="edge7" class="edge"><title>prueba4&#45;&gt;prueba7</title>
<path fill="none" stroke="black" d="M236,-2951.7C236,-2943.98 236,-2934.71 236,-2926.11"/>
<polygon fill="black" stroke="black" points="239.5,-2926.1 236,-2916.1 232.5,-2926.1 239.5,-2926.1"/>
</g>
<!-- prueba6 -->
<g id="node9" class="node"><title>prueba6</title>
<ellipse fill="none" stroke="black" cx="192" cy="-3042" rx="27" ry="18"/>
</g>
<!-- prueba5&#45;&gt;prueba6 -->
<g id="edge8" class="edge"><title>prueba5&#45;&gt;prueba6</title>
<path fill="none" stroke="black" d="M192,-3095.7C192,-3087.98 192,-3078.71 192,-3070.11"/>
<polygon fill="black" stroke="black" points="195.5,-3070.1 192,-3060.1 188.5,-3070.1 195.5,-3070.1"/>
</g>
<!-- prueba6&#45;&gt;prueba4 -->
<g id="edge9" class="edge"><title>prueba6&#45;&gt;prueba4</title>
<path fill="none" stroke="black" d="M207.392,-3016.51C213.585,-3006.66 220.549,-2995.58 226.055,-2986.82"/>
<polygon fill="black" stroke="black" points="204.343,-3014.79 201.984,-3025.12 210.269,-3018.51 204.343,-3014.79"/>
</g>
<!-- prueba8 -->
<g id="node11" class="node"><title>prueba8</title>
<ellipse fill="none" stroke="black" cx="260" cy="-2826" rx="27" ry="18"/>
</g>
<!-- prueba7&#45;&gt;prueba8 -->
<g id="edge10" class="edge"><title>prueba7&#45;&gt;prueba8</title>
<path fill="none" stroke="black" d="M241.81,-2880.05C244.551,-2872.06 247.887,-2862.33 250.949,-2853.4"/>
<polygon fill="black" stroke="black" points="254.311,-2854.38 254.244,-2843.79 247.69,-2852.11 254.311,-2854.38"/>
</g>
<!-- prueba12 -->
<g id="node15" class="node"><title>prueba12</title>
<ellipse fill="none" stroke="black" cx="192" cy="-2754" rx="27" ry="18"/>
</g>
<!-- prueba7&#45;&gt;prueba12 -->
<g id="edge11" class="edge"><title>prueba7&#45;&gt;prueba12</title>
<path fill="none" stroke="black" d="M230.78,-2880.15C223.238,-2855.81 209.218,-2810.57 200.262,-2781.67"/>
<polygon fill="black" stroke="black" points="203.516,-2780.34 197.213,-2771.82 196.83,-2782.41 203.516,-2780.34"/>
</g>
<!-- prueba9 -->
<g id="node12" class="node"><title>prueba9</title>
<ellipse fill="none" stroke="black" cx="264" cy="-2754" rx="27" ry="18"/>
</g>
<!-- prueba8&#45;&gt;prueba9 -->
<g id="edge12" class="edge"><title>prueba8&#45;&gt;prueba9</title>
<path fill="none" stroke="black" d="M260.989,-2807.7C261.43,-2799.98 261.959,-2790.71 262.451,-2782.11"/>
<polygon fill="black" stroke="black" points="265.946,-2782.29 263.023,-2772.1 258.958,-2781.89 265.946,-2782.29"/>
</g>
<!-- prueba10 -->
<g id="node13" class="node"><title>prueba10</title>
<ellipse fill="none" stroke="black" cx="256" cy="-2682" rx="27" ry="18"/>
</g>
<!-- prueba9&#45;&gt;prueba10 -->
<g id="edge13" class="edge"><title>prueba9&#45;&gt;prueba10</title>
<path fill="none" stroke="black" d="M262.022,-2735.7C261.141,-2727.98 260.081,-2718.71 259.099,-2710.11"/>
<polygon fill="black" stroke="black" points="262.568,-2709.64 257.955,-2700.1 255.613,-2710.44 262.568,-2709.64"/>
</g>
<!-- prueba11 -->
<g id="node14" class="node"><title>prueba11</title>
<ellipse fill="none" stroke="black" cx="243" cy="-2610" rx="27" ry="18"/>
</g>
<!-- prueba10&#45;&gt;prueba11 -->
<g id="edge14" class="edge"><title>prueba10&#45;&gt;prueba11</title>
<path fill="none" stroke="black" d="M252.853,-2664.05C251.421,-2656.35 249.691,-2647.03 248.082,-2638.36"/>
<polygon fill="black" stroke="black" points="251.475,-2637.47 246.208,-2628.28 244.593,-2638.75 251.475,-2637.47"/>
</g>
<!-- prueba13 -->
<g id="node16" class="node"><title>prueba13</title>
<ellipse fill="none" stroke="black" cx="243" cy="-2538" rx="27" ry="18"/>
</g>
<!-- prueba11&#45;&gt;prueba13 -->
<g id="edge15" class="edge"><title>prueba11&#45;&gt;prueba13</title>
<path fill="none" stroke="black" d="M243,-2591.7C243,-2583.98 243,-2574.71 243,-2566.11"/>
<polygon fill="black" stroke="black" points="246.5,-2566.1 243,-2556.1 239.5,-2566.1 246.5,-2566.1"/>
</g>
<!-- prueba12&#45;&gt;prueba11 -->
<g id="edge16" class="edge"><title>prueba12&#45;&gt;prueba11</title>
<path fill="none" stroke="black" d="M199.583,-2726.37C204.85,-2708.56 212.284,-2684.68 220,-2664 224.628,-2651.6 230.599,-2637.89 235.297,-2627.53"/>
<polygon fill="black" stroke="black" points="196.189,-2725.51 196.747,-2736.09 202.908,-2727.47 196.189,-2725.51"/>
</g>
<!-- prueba14 -->
<g id="node17" class="node"><title>prueba14</title>
<ellipse fill="none" stroke="black" cx="243" cy="-2466" rx="27" ry="18"/>
</g>
<!-- prueba13&#45;&gt;prueba14 -->
<g id="edge17" class="edge"><title>prueba13&#45;&gt;prueba14</title>
<path fill="none" stroke="black" d="M237.16,-2520.41C236.297,-2512.51 236.048,-2502.85 236.412,-2493.94"/>
<polygon fill="black" stroke="black" points="239.903,-2494.18 237.121,-2483.96 232.921,-2493.68 239.903,-2494.18"/>
</g>
<!-- prueba15 -->
<g id="node18" class="node"><title>prueba15</title>
<ellipse fill="none" stroke="black" cx="171" cy="-2466" rx="27" ry="18"/>
</g>
<!-- prueba13&#45;&gt;prueba15 -->
<g id="edge18" class="edge"><title>prueba13&#45;&gt;prueba15</title>
<path fill="none" stroke="black" d="M228.43,-2522.83C218.25,-2512.94 204.476,-2499.55 192.969,-2488.36"/>
<polygon fill="black" stroke="black" points="195.405,-2485.85 185.796,-2481.38 190.526,-2490.87 195.405,-2485.85"/>
</g>
<!-- prueba14&#45;&gt;prueba13 -->
<g id="edge19" class="edge"><title>prueba14&#45;&gt;prueba13</title>
<path fill="none" stroke="black" d="M249.588,-2493.94C249.952,-2502.85 249.703,-2512.51 248.84,-2520.41"/>
<polygon fill="black" stroke="black" points="253.079,-2493.68 248.879,-2483.96 246.097,-2494.18 253.079,-2493.68"/>
</g>
<!-- prueba16 -->
<g id="node19" class="node"><title>prueba16</title>
<ellipse fill="none" stroke="black" cx="171" cy="-2394" rx="27" ry="18"/>
</g>
<!-- prueba15&#45;&gt;prueba16 -->
<g id="edge20" class="edge"><title>prueba15&#45;&gt;prueba16</title>
<path fill="none" stroke="black" d="M171,-2447.7C171,-2439.98 171,-2430.71 171,-2422.11"/>
<polygon fill="black" stroke="black" points="174.5,-2422.1 171,-2412.1 167.5,-2422.1 174.5,-2422.1"/>
</g>
<!-- prueba17 -->
<g id="node20" class="node"><title>prueba17</title>
<ellipse fill="none" stroke="black" cx="171" cy="-2322" rx="27" ry="18"/>
</g>
<!-- prueba16&#45;&gt;prueba17 -->
<g id="edge21" class="edge"><title>prueba16&#45;&gt;prueba17</title>
<path fill="none" stroke="black" d="M165.16,-2376.41C164.297,-2368.51 164.048,-2358.85 164.412,-2349.94"/>
<polygon fill="black" stroke="black" points="167.903,-2350.18 165.121,-2339.96 160.921,-2349.68 167.903,-2350.18"/>
</g>
<!-- prueba18 -->
<g id="node21" class="node"><title>prueba18</title>
<ellipse fill="none" stroke="black" cx="99" cy="-2322" rx="27" ry="18"/>
</g>
<!-- prueba16&#45;&gt;prueba18 -->
<g id="edge22" class="edge"><title>prueba16&#45;&gt;prueba18</title>
<path fill="none" stroke="black" d="M156.43,-2378.83C146.25,-2368.94 132.476,-2355.55 120.969,-2344.36"/>
<polygon fill="black" stroke="black" points="123.405,-2341.85 113.796,-2337.38 118.526,-2346.87 123.405,-2341.85"/>
</g>
<!-- prueba17&#45;&gt;prueba16 -->
<g id="edge23" class="edge"><title>prueba17&#45;&gt;prueba16</title>
<path fill="none" stroke="black" d="M177.588,-2349.94C177.952,-2358.85 177.703,-2368.51 176.84,-2376.41"/>
<polygon fill="black" stroke="black" points="181.079,-2349.68 176.879,-2339.96 174.097,-2350.18 181.079,-2349.68"/>
</g>
<!-- prueba19 -->
<g id="node22" class="node"><title>prueba19</title>
<ellipse fill="none" stroke="black" cx="99" cy="-2250" rx="27" ry="18"/>
</g>
<!-- prueba18&#45;&gt;prueba19 -->
<g id="edge24" class="edge"><title>prueba18&#45;&gt;prueba19</title>
<path fill="none" stroke="black" d="M99,-2303.7C99,-2295.98 99,-2286.71 99,-2278.11"/>
<polygon fill="black" stroke="black" points="102.5,-2278.1 99,-2268.1 95.5001,-2278.1 102.5,-2278.1"/>
</g>
<!-- prueba20 -->
<g id="node23" class="node"><title>prueba20</title>
<ellipse fill="none" stroke="black" cx="99" cy="-2178" rx="27" ry="18"/>
</g>
<!-- prueba19&#45;&gt;prueba20 -->
<g id="edge25" class="edge"><title>prueba19&#45;&gt;prueba20</title>
<path fill="none" stroke="black" d="M99,-2231.7C99,-2223.98 99,-2214.71 99,-2206.11"/>
<polygon fill="black" stroke="black" points="102.5,-2206.1 99,-2196.1 95.5001,-2206.1 102.5,-2206.1"/>
</g>
<!-- prueba21 -->
<g id="node24" class="node"><title>prueba21</title>
<ellipse fill="none" stroke="black" cx="99" cy="-2106" rx="27" ry="18"/>
</g>
<!-- prueba20&#45;&gt;prueba21 -->
<g id="edge26" class="edge"><title>prueba20&#45;&gt;prueba21</title>
<path fill="none" stroke="black" d="M99,-2159.7C99,-2151.98 99,-2142.71 99,-2134.11"/>
<polygon fill="black" stroke="black" points="102.5,-2134.1 99,-2124.1 95.5001,-2134.1 102.5,-2134.1"/>
</g>
<!-- prueba22 -->
<g id="node25" class="node"><title>prueba22</title>
<ellipse fill="none" stroke="black" cx="99" cy="-2034" rx="27" ry="18"/>
</g>
<!-- prueba21&#45;&gt;prueba22 -->
<g id="edge27" class="edge"><title>prueba21&#45;&gt;prueba22</title>
<path fill="none" stroke="black" d="M99,-2087.7C99,-2079.98 99,-2070.71 99,-2062.11"/>
<polygon fill="black" stroke="black" points="102.5,-2062.1 99,-2052.1 95.5001,-2062.1 102.5,-2062.1"/>
</g>
<!-- prueba23 -->
<g id="node26" class="node"><title>prueba23</title>
<ellipse fill="none" stroke="black" cx="99" cy="-1962" rx="27" ry="18"/>
</g>
<!-- prueba22&#45;&gt;prueba23 -->
<g id="edge28" class="edge"><title>prueba22&#45;&gt;prueba23</title>
<path fill="none" stroke="black" d="M99,-2015.7C99,-2007.98 99,-1998.71 99,-1990.11"/>
<polygon fill="black" stroke="black" points="102.5,-1990.1 99,-1980.1 95.5001,-1990.1 102.5,-1990.1"/>
</g>
<!-- prueba24 -->
<g id="node27" class="node"><title>prueba24</title>
<ellipse fill="none" stroke="black" cx="99" cy="-1890" rx="27" ry="18"/>
</g>
<!-- prueba23&#45;&gt;prueba24 -->
<g id="edge29" class="edge"><title>prueba23&#45;&gt;prueba24</title>
<path fill="none" stroke="black" d="M99,-1943.7C99,-1935.98 99,-1926.71 99,-1918.11"/>
<polygon fill="black" stroke="black" points="102.5,-1918.1 99,-1908.1 95.5001,-1918.1 102.5,-1918.1"/>
</g>
<!-- prueba25 -->
<g id="node28" class="node"><title>prueba25</title>
<ellipse fill="none" stroke="black" cx="99" cy="-1818" rx="27" ry="18"/>
</g>
<!-- prueba24&#45;&gt;prueba25 -->
<g id="edge30" class="edge"><title>prueba24&#45;&gt;prueba25</title>
<path fill="none" stroke="black" d="M99,-1871.7C99,-1863.98 99,-1854.71 99,-1846.11"/>
<polygon fill="black" stroke="black" points="102.5,-1846.1 99,-1836.1 95.5001,-1846.1 102.5,-1846.1"/>
</g>
<!-- prueba26 -->
<g id="node29" class="node"><title>prueba26</title>
<ellipse fill="none" stroke="black" cx="99" cy="-1746" rx="27" ry="18"/>
</g>
<!-- prueba25&#45;&gt;prueba26 -->
<g id="edge31" class="edge"><title>prueba25&#45;&gt;prueba26</title>
<path fill="none" stroke="black" d="M99,-1799.7C99,-1791.98 99,-1782.71 99,-1774.11"/>
<polygon fill="black" stroke="black" points="102.5,-1774.1 99,-1764.1 95.5001,-1774.1 102.5,-1774.1"/>
</g>
<!-- prueba27 -->
<g id="node30" class="node"><title>prueba27</title>
<ellipse fill="none" stroke="black" cx="99" cy="-1674" rx="27" ry="18"/>
</g>
<!-- prueba26&#45;&gt;prueba27 -->
<g id="edge32" class="edge"><title>prueba26&#45;&gt;prueba27</title>
<path fill="none" stroke="black" d="M99,-1727.7C99,-1719.98 99,-1710.71 99,-1702.11"/>
<polygon fill="black" stroke="black" points="102.5,-1702.1 99,-1692.1 95.5001,-1702.1 102.5,-1702.1"/>
</g>
<!-- prueba28 -->
<g id="node31" class="node"><title>prueba28</title>
<ellipse fill="none" stroke="black" cx="154" cy="-1602" rx="27" ry="18"/>
</g>
<!-- prueba27&#45;&gt;prueba28 -->
<g id="edge33" class="edge"><title>prueba27&#45;&gt;prueba28</title>
<path fill="none" stroke="black" d="M110.934,-1657.81C118.214,-1648.55 127.663,-1636.52 135.854,-1626.09"/>
<polygon fill="black" stroke="black" points="138.663,-1628.18 142.089,-1618.16 133.159,-1623.86 138.663,-1628.18"/>
</g>
<!-- prueba37 -->
<g id="node40" class="node"><title>prueba37</title>
<ellipse fill="none" stroke="black" cx="36" cy="-1602" rx="27" ry="18"/>
</g>
<!-- prueba27&#45;&gt;prueba37 -->
<g id="edge34" class="edge"><title>prueba27&#45;&gt;prueba37</title>
<path fill="none" stroke="black" d="M85.6393,-1658.15C77.1197,-1648.69 65.9146,-1636.24 56.3065,-1625.56"/>
<polygon fill="black" stroke="black" points="58.6326,-1622.92 49.3414,-1617.82 53.4296,-1627.6 58.6326,-1622.92"/>
</g>
<!-- prueba29 -->
<g id="node32" class="node"><title>prueba29</title>
<ellipse fill="none" stroke="black" cx="154" cy="-1530" rx="27" ry="18"/>
</g>
<!-- prueba28&#45;&gt;prueba29 -->
<g id="edge35" class="edge"><title>prueba28&#45;&gt;prueba29</title>
<path fill="none" stroke="black" d="M154,-1583.7C154,-1575.98 154,-1566.71 154,-1558.11"/>
<polygon fill="black" stroke="black" points="157.5,-1558.1 154,-1548.1 150.5,-1558.1 157.5,-1558.1"/>
</g>
<!-- prueba30 -->
<g id="node33" class="node"><title>prueba30</title>
<ellipse fill="none" stroke="black" cx="209" cy="-1458" rx="27" ry="18"/>
</g>
<!-- prueba29&#45;&gt;prueba30 -->
<g id="edge36" class="edge"><title>prueba29&#45;&gt;prueba30</title>
<path fill="none" stroke="black" d="M165.934,-1513.81C173.214,-1504.55 182.663,-1492.52 190.854,-1482.09"/>
<polygon fill="black" stroke="black" points="193.663,-1484.18 197.089,-1474.16 188.159,-1479.86 193.663,-1484.18"/>
</g>
<!-- prueba36 -->
<g id="node39" class="node"><title>prueba36</title>
<ellipse fill="none" stroke="black" cx="99" cy="-1458" rx="27" ry="18"/>
</g>
<!-- prueba29&#45;&gt;prueba36 -->
<g id="edge37" class="edge"><title>prueba29&#45;&gt;prueba36</title>
<path fill="none" stroke="black" d="M142.066,-1513.81C134.786,-1504.55 125.337,-1492.52 117.146,-1482.09"/>
<polygon fill="black" stroke="black" points="119.841,-1479.86 110.911,-1474.16 114.337,-1484.18 119.841,-1479.86"/>
</g>
<!-- prueba31 -->
<g id="node34" class="node"><title>prueba31</title>
<ellipse fill="none" stroke="black" cx="209" cy="-1386" rx="27" ry="18"/>
</g>
<!-- prueba30&#45;&gt;prueba31 -->
<g id="edge38" class="edge"><title>prueba30&#45;&gt;prueba31</title>
<path fill="none" stroke="black" d="M209,-1439.7C209,-1431.98 209,-1422.71 209,-1414.11"/>
<polygon fill="black" stroke="black" points="212.5,-1414.1 209,-1404.1 205.5,-1414.1 212.5,-1414.1"/>
</g>
<!-- prueba32 -->
<g id="node35" class="node"><title>prueba32</title>
<ellipse fill="none" stroke="black" cx="264" cy="-1314" rx="27" ry="18"/>
</g>
<!-- prueba31&#45;&gt;prueba32 -->
<g id="edge39" class="edge"><title>prueba31&#45;&gt;prueba32</title>
<path fill="none" stroke="black" d="M220.934,-1369.81C228.214,-1360.55 237.663,-1348.52 245.854,-1338.09"/>
<polygon fill="black" stroke="black" points="248.663,-1340.18 252.089,-1330.16 243.159,-1335.86 248.663,-1340.18"/>
</g>
<!-- prueba35 -->
<g id="node38" class="node"><title>prueba35</title>
<ellipse fill="none" stroke="black" cx="154" cy="-1314" rx="27" ry="18"/>
</g>
<!-- prueba31&#45;&gt;prueba35 -->
<g id="edge40" class="edge"><title>prueba31&#45;&gt;prueba35</title>
<path fill="none" stroke="black" d="M197.066,-1369.81C189.786,-1360.55 180.337,-1348.52 172.146,-1338.09"/>
<polygon fill="black" stroke="black" points="174.841,-1335.86 165.911,-1330.16 169.337,-1340.18 174.841,-1335.86"/>
</g>
<!-- prueba33 -->
<g id="node36" class="node"><title>prueba33</title>
<ellipse fill="none" stroke="black" cx="264" cy="-1242" rx="27" ry="18"/>
</g>
<!-- prueba32&#45;&gt;prueba33 -->
<g id="edge41" class="edge"><title>prueba32&#45;&gt;prueba33</title>
<path fill="none" stroke="black" d="M258.16,-1296.41C257.297,-1288.51 257.048,-1278.85 257.412,-1269.94"/>
<polygon fill="black" stroke="black" points="260.903,-1270.18 258.121,-1259.96 253.921,-1269.68 260.903,-1270.18"/>
</g>
<!-- prueba34 -->
<g id="node37" class="node"><title>prueba34</title>
<ellipse fill="none" stroke="black" cx="192" cy="-1242" rx="27" ry="18"/>
</g>
<!-- prueba32&#45;&gt;prueba34 -->
<g id="edge42" class="edge"><title>prueba32&#45;&gt;prueba34</title>
<path fill="none" stroke="black" d="M249.43,-1298.83C239.25,-1288.94 225.476,-1275.55 213.969,-1264.36"/>
<polygon fill="black" stroke="black" points="216.405,-1261.85 206.796,-1257.38 211.526,-1266.87 216.405,-1261.85"/>
</g>
<!-- prueba33&#45;&gt;prueba32 -->
<g id="edge43" class="edge"><title>prueba33&#45;&gt;prueba32</title>
<path fill="none" stroke="black" d="M270.588,-1269.94C270.952,-1278.85 270.703,-1288.51 269.84,-1296.41"/>
<polygon fill="black" stroke="black" points="274.079,-1269.68 269.879,-1259.96 267.097,-1270.18 274.079,-1269.68"/>
</g>
<!-- prueba34&#45;&gt;prueba31 -->
<g id="edge44" class="edge"><title>prueba34&#45;&gt;prueba31</title>
<path fill="none" stroke="black" d="M195.279,-1270.39C198.729,-1299.21 204.052,-1343.67 206.949,-1367.87"/>
<polygon fill="black" stroke="black" points="198.722,-1269.7 194.058,-1260.19 191.771,-1270.53 198.722,-1269.7"/>
</g>
<!-- prueba35&#45;&gt;prueba29 -->
<g id="edge45" class="edge"><title>prueba35&#45;&gt;prueba29</title>
<path fill="none" stroke="black" d="M154,-1342.39C154,-1387.18 154,-1474.83 154,-1511.85"/>
<polygon fill="black" stroke="black" points="157.5,-1342.23 154,-1332.23 150.5,-1342.23 157.5,-1342.23"/>
</g>
<!-- prueba36&#45;&gt;prueba27 -->
<g id="edge46" class="edge"><title>prueba36&#45;&gt;prueba27</title>
<path fill="none" stroke="black" d="M99,-1486.39C99,-1531.18 99,-1618.83 99,-1655.85"/>
<polygon fill="black" stroke="black" points="102.5,-1486.23 99,-1476.23 95.5001,-1486.23 102.5,-1486.23"/>
</g>
<!-- prueba38 -->
<g id="node41" class="node"><title>prueba38</title>
<ellipse fill="none" stroke="black" cx="31" cy="-1530" rx="27" ry="18"/>
</g>
<!-- prueba37&#45;&gt;prueba38 -->
<g id="edge47" class="edge"><title>prueba37&#45;&gt;prueba38</title>
<path fill="none" stroke="black" d="M34.764,-1583.7C34.2131,-1575.98 33.5509,-1566.71 32.9366,-1558.11"/>
<polygon fill="black" stroke="black" points="36.4254,-1557.83 32.2217,-1548.1 29.4432,-1558.33 36.4254,-1557.83"/>
</g>
<!-- prueba39 -->
<g id="node42" class="node"><title>prueba39</title>
<ellipse fill="none" stroke="black" cx="27" cy="-1458" rx="27" ry="18"/>
</g>
<!-- prueba38&#45;&gt;prueba39 -->
<g id="edge48" class="edge"><title>prueba38&#45;&gt;prueba39</title>
<path fill="none" stroke="black" d="M30.0112,-1511.7C29.5704,-1503.98 29.0407,-1494.71 28.5493,-1486.11"/>
<polygon fill="black" stroke="black" points="32.0423,-1485.89 27.9774,-1476.1 25.0537,-1486.29 32.0423,-1485.89"/>
</g>
<!-- prueba40 -->
<g id="node43" class="node"><title>prueba40</title>
<ellipse fill="none" stroke="black" cx="54" cy="-1386" rx="27" ry="18"/>
</g>
<!-- prueba39&#45;&gt;prueba40 -->
<g id="edge49" class="edge"><title>prueba39&#45;&gt;prueba40</title>
<path fill="none" stroke="black" d="M33.3986,-1440.41C36.5136,-1432.34 40.3337,-1422.43 43.8346,-1413.35"/>
<polygon fill="black" stroke="black" points="47.1265,-1414.55 47.4597,-1403.96 40.5955,-1412.03 47.1265,-1414.55"/>
</g>
<!-- prueba41 -->
<g id="node44" class="node"><title>prueba41</title>
<ellipse fill="none" stroke="black" cx="68" cy="-1314" rx="27" ry="18"/>
</g>
<!-- prueba40&#45;&gt;prueba41 -->
<g id="edge50" class="edge"><title>prueba40&#45;&gt;prueba41</title>
<path fill="none" stroke="black" d="M57.389,-1368.05C58.9309,-1360.35 60.7946,-1351.03 62.5272,-1342.36"/>
<polygon fill="black" stroke="black" points="66.0157,-1342.77 64.5449,-1332.28 59.1517,-1341.39 66.0157,-1342.77"/>
</g>
<!-- prueba42 -->
<g id="node45" class="node"><title>prueba42</title>
<ellipse fill="none" stroke="black" cx="94" cy="-1242" rx="27" ry="18"/>
</g>
<!-- prueba41&#45;&gt;prueba42 -->
<g id="edge51" class="edge"><title>prueba41&#45;&gt;prueba42</title>
<path fill="none" stroke="black" d="M74.1616,-1296.41C77.1612,-1288.34 80.8398,-1278.43 84.2111,-1269.35"/>
<polygon fill="black" stroke="black" points="87.501,-1270.55 87.702,-1259.96 80.9391,-1268.11 87.501,-1270.55"/>
</g>
<!-- prueba43 -->
<g id="node46" class="node"><title>prueba43</title>
<ellipse fill="none" stroke="black" cx="137" cy="-1170" rx="27" ry="18"/>
</g>
<!-- prueba42&#45;&gt;prueba43 -->
<g id="edge52" class="edge"><title>prueba42&#45;&gt;prueba43</title>
<path fill="none" stroke="black" d="M103.757,-1225.12C109.145,-1216.34 115.952,-1205.26 122.001,-1195.42"/>
<polygon fill="black" stroke="black" points="125.029,-1197.17 127.281,-1186.82 119.065,-1193.51 125.029,-1197.17"/>
</g>
<!-- prueba44 -->
<g id="node47" class="node"><title>prueba44</title>
<ellipse fill="none" stroke="black" cx="179" cy="-1098" rx="27" ry="18"/>
</g>
<!-- prueba43&#45;&gt;prueba44 -->
<g id="edge53" class="edge"><title>prueba43&#45;&gt;prueba44</title>
<path fill="none" stroke="black" d="M146.53,-1153.12C151.666,-1144.56 158.122,-1133.8 163.921,-1124.13"/>
<polygon fill="black" stroke="black" points="167.072,-1125.68 169.216,-1115.31 161.07,-1122.08 167.072,-1125.68"/>
</g>
<!-- prueba45 -->
<g id="node48" class="node"><title>prueba45</title>
<ellipse fill="none" stroke="black" cx="201" cy="-1026" rx="27" ry="18"/>
</g>
<!-- prueba44&#45;&gt;prueba45 -->
<g id="edge54" class="edge"><title>prueba44&#45;&gt;prueba45</title>
<path fill="none" stroke="black" d="M184.326,-1080.05C186.839,-1072.06 189.896,-1062.33 192.703,-1053.4"/>
<polygon fill="black" stroke="black" points="196.064,-1054.38 195.723,-1043.79 189.386,-1052.28 196.064,-1054.38"/>
</g>
<!-- prueba46 -->
<g id="node49" class="node"><title>prueba46</title>
<ellipse fill="none" stroke="black" cx="222" cy="-954" rx="27" ry="18"/>
</g>
<!-- prueba45&#45;&gt;prueba46 -->
<g id="edge55" class="edge"><title>prueba45&#45;&gt;prueba46</title>
<path fill="none" stroke="black" d="M206.084,-1008.05C208.482,-1000.06 211.401,-990.331 214.08,-981.4"/>
<polygon fill="black" stroke="black" points="217.442,-982.373 216.963,-971.789 210.737,-980.362 217.442,-982.373"/>
</g>
<!-- prueba47 -->
<g id="node50" class="node"><title>prueba47</title>
<ellipse fill="none" stroke="black" cx="233" cy="-882" rx="27" ry="18"/>
</g>
<!-- prueba46&#45;&gt;prueba47 -->
<g id="edge56" class="edge"><title>prueba46&#45;&gt;prueba47</title>
<path fill="none" stroke="black" d="M224.663,-936.055C225.874,-928.346 227.339,-919.027 228.7,-910.364"/>
<polygon fill="black" stroke="black" points="232.19,-910.697 230.285,-900.275 225.275,-909.611 232.19,-910.697"/>
</g>
<!-- prueba48 -->
<g id="node51" class="node"><title>prueba48</title>
<ellipse fill="none" stroke="black" cx="243" cy="-810" rx="27" ry="18"/>
</g>
<!-- prueba47&#45;&gt;prueba48 -->
<g id="edge57" class="edge"><title>prueba47&#45;&gt;prueba48</title>
<path fill="none" stroke="black" d="M235.421,-864.055C236.522,-856.346 237.853,-847.027 239.091,-838.364"/>
<polygon fill="black" stroke="black" points="242.583,-838.67 240.532,-828.275 235.653,-837.68 242.583,-838.67"/>
</g>
<!-- prueba49 -->
<g id="node52" class="node"><title>prueba49</title>
<ellipse fill="none" stroke="black" cx="249" cy="-738" rx="27" ry="18"/>
</g>
<!-- prueba48&#45;&gt;prueba49 -->
<g id="edge58" class="edge"><title>prueba48&#45;&gt;prueba49</title>
<path fill="none" stroke="black" d="M244.483,-791.697C245.144,-783.983 245.939,-774.712 246.676,-766.112"/>
<polygon fill="black" stroke="black" points="250.167,-766.367 247.534,-756.104 243.193,-765.769 250.167,-766.367"/>
</g>
<!-- prueba50 -->
<g id="node53" class="node"><title>prueba50</title>
<ellipse fill="none" stroke="black" cx="254" cy="-666" rx="27" ry="18"/>
</g>
<!-- prueba49&#45;&gt;prueba50 -->
<g id="edge59" class="edge"><title>prueba49&#45;&gt;prueba50</title>
<path fill="none" stroke="black" d="M250.236,-719.697C250.787,-711.983 251.449,-702.712 252.063,-694.112"/>
<polygon fill="black" stroke="black" points="255.557,-694.328 252.778,-684.104 248.575,-693.83 255.557,-694.328"/>
</g>
<!-- prueba51 -->
<g id="node54" class="node"><title>prueba51</title>
<ellipse fill="none" stroke="black" cx="257" cy="-594" rx="27" ry="18"/>
</g>
<!-- prueba50&#45;&gt;prueba51 -->
<g id="edge60" class="edge"><title>prueba50&#45;&gt;prueba51</title>
<path fill="none" stroke="black" d="M254.742,-647.697C255.072,-639.983 255.469,-630.712 255.838,-622.112"/>
<polygon fill="black" stroke="black" points="259.335,-622.245 256.267,-612.104 252.342,-621.945 259.335,-622.245"/>
</g>
<!-- prueba52 -->
<g id="node55" class="node"><title>prueba52</title>
<ellipse fill="none" stroke="black" cx="259" cy="-522" rx="27" ry="18"/>
</g>
<!-- prueba51&#45;&gt;prueba52 -->
<g id="edge61" class="edge"><title>prueba51&#45;&gt;prueba52</title>
<path fill="none" stroke="black" d="M257.494,-575.697C257.715,-567.983 257.98,-558.712 258.225,-550.112"/>
<polygon fill="black" stroke="black" points="261.724,-550.2 258.511,-540.104 254.727,-550 261.724,-550.2"/>
</g>
<!-- prueba53 -->
<g id="node56" class="node"><title>prueba53</title>
<ellipse fill="none" stroke="black" cx="261" cy="-450" rx="27" ry="18"/>
</g>
<!-- prueba52&#45;&gt;prueba53 -->
<g id="edge62" class="edge"><title>prueba52&#45;&gt;prueba53</title>
<path fill="none" stroke="black" d="M259.494,-503.697C259.715,-495.983 259.98,-486.712 260.225,-478.112"/>
<polygon fill="black" stroke="black" points="263.724,-478.2 260.511,-468.104 256.727,-478 263.724,-478.2"/>
</g>
<!-- prueba54 -->
<g id="node57" class="node"><title>prueba54</title>
<ellipse fill="none" stroke="black" cx="262" cy="-378" rx="27" ry="18"/>
</g>
<!-- prueba53&#45;&gt;prueba54 -->
<g id="edge63" class="edge"><title>prueba53&#45;&gt;prueba54</title>
<path fill="none" stroke="black" d="M261.247,-431.697C261.357,-423.983 261.49,-414.712 261.613,-406.112"/>
<polygon fill="black" stroke="black" points="265.112,-406.153 261.756,-396.104 258.113,-406.053 265.112,-406.153"/>
</g>
<!-- prueba55 -->
<g id="node58" class="node"><title>prueba55</title>
<ellipse fill="none" stroke="black" cx="263" cy="-306" rx="27" ry="18"/>
</g>
<!-- prueba54&#45;&gt;prueba55 -->
<g id="edge64" class="edge"><title>prueba54&#45;&gt;prueba55</title>
<path fill="none" stroke="black" d="M262.247,-359.697C262.357,-351.983 262.49,-342.712 262.613,-334.112"/>
<polygon fill="black" stroke="black" points="266.112,-334.153 262.756,-324.104 259.113,-334.053 266.112,-334.153"/>
</g>
<!-- prueba56 -->
<g id="node59" class="node"><title>prueba56</title>
<ellipse fill="none" stroke="black" cx="263" cy="-234" rx="27" ry="18"/>
</g>
<!-- prueba55&#45;&gt;prueba56 -->
<g id="edge65" class="edge"><title>prueba55&#45;&gt;prueba56</title>
<path fill="none" stroke="black" d="M263,-287.697C263,-279.983 263,-270.712 263,-262.112"/>
<polygon fill="black" stroke="black" points="266.5,-262.104 263,-252.104 259.5,-262.104 266.5,-262.104"/>
</g>
<!-- prueba57 -->
<g id="node60" class="node"><title>prueba57</title>
<ellipse fill="none" stroke="black" cx="264" cy="-162" rx="27" ry="18"/>
</g>
<!-- prueba56&#45;&gt;prueba57 -->
<g id="edge66" class="edge"><title>prueba56&#45;&gt;prueba57</title>
<path fill="none" stroke="black" d="M263.247,-215.697C263.357,-207.983 263.49,-198.712 263.613,-190.112"/>
<polygon fill="black" stroke="black" points="267.112,-190.153 263.756,-180.104 260.113,-190.053 267.112,-190.153"/>
</g>
<!-- prueba58 -->
<g id="node61" class="node"><title>prueba58</title>
<ellipse fill="none" stroke="black" cx="264" cy="-90" rx="27" ry="18"/>
</g>
<!-- prueba57&#45;&gt;prueba58 -->
<g id="edge67" class="edge"><title>prueba57&#45;&gt;prueba58</title>
<path fill="none" stroke="black" d="M264,-143.697C264,-135.983 264,-126.712 264,-118.112"/>
<polygon fill="black" stroke="black" points="267.5,-118.104 264,-108.104 260.5,-118.104 267.5,-118.104"/>
</g>
<!-- prueba59 -->
<g id="node62" class="node"><title>prueba59</title>
<ellipse fill="blue" stroke="black" cx="291" cy="-18" rx="27" ry="18"/>
</g>
<!-- prueba58&#45;&gt;prueba59 -->
<g id="edge68" class="edge"><title>prueba58&#45;&gt;prueba59</title>
<path fill="none" stroke="black" d="M270.399,-72.411C273.514,-64.3352 277.334,-54.4312 280.835,-45.3547"/>
<polygon fill="black" stroke="black" points="284.126,-46.5458 284.46,-35.9562 277.595,-44.0267 284.126,-46.5458"/>
</g>
<!-- prueba59&#45;&gt;main0 -->
<g id="edge70" class="edge"><title>prueba59&#45;&gt;main0</title>
<path fill="none" stroke="black" d="M296.532,-35.8374C304.692,-62.2129 319,-115.017 319,-161 319,-3187 319,-3187 319,-3187 319,-3227.45 315.881,-3238.8 300,-3276 295.611,-3286.28 289.12,-3296.66 282.853,-3305.47"/>
<polygon fill="black" stroke="black" points="279.895,-3303.59 276.748,-3313.7 285.517,-3307.76 279.895,-3303.59"/>
</g>
</g>
</svg>
