<?xml version="1.0" encoding="UTF-8" standalone="no"?>
<!DOCTYPE svg PUBLIC "-//W3C//DTD SVG 1.1//EN"
 "http://www.w3.org/Graphics/SVG/1.1/DTD/svg11.dtd">
<!-- Generated by graphviz version 2.38.0 (20140413.2041)
 -->
<!-- Title: Grafo Pages: 1 -->
<svg width="356pt" height="3428pt"
 viewBox="0.00 0.00 356.00 3428.00" xmlns="http://www.w3.org/2000/svg" xmlns:xlink="http://www.w3.org/1999/xlink">
<g id="graph0" class="graph" transform="scale(1 1) rotate(0) translate(4 3424)">
<title>Grafo</title>
<polygon fill="white" stroke="none" points="-4,4 -4,-3424 352,-3424 352,4 -4,4"/>
<!-- main0 -->
<g id="node1" class="node"><title>main0</title>
<ellipse fill="red" stroke="black" cx="285" cy="-90" rx="27" ry="18"/>
</g>
<!-- main1 -->
<g id="node2" class="node"><title>main1</title>
<ellipse fill="blue" stroke="black" cx="249" cy="-18" rx="27" ry="18"/>
</g>
<!-- main0&#45;&gt;main1 -->
<g id="edge1" class="edge"><title>main0&#45;&gt;main1</title>
<path fill="none" stroke="black" d="M276.65,-72.7646C272.288,-64.2831 266.853,-53.7144 261.959,-44.1974"/>
<polygon fill="black" stroke="black" points="264.99,-42.4395 257.304,-35.1473 258.765,-45.6409 264.99,-42.4395"/>
</g>
<!-- 0 -->
<g id="node63" class="node"><title>0</title>
<ellipse fill="none" stroke="black" cx="321" cy="-18" rx="27" ry="18"/>
<text text-anchor="middle" x="321" y="-14.3" font-family="Times New Roman,serif" font-size="14.00">0</text>
</g>
<!-- main0&#45;&gt;0 -->
<g id="edge69" class="edge"><title>main0&#45;&gt;0</title>
<path fill="none" stroke="black" d="M293.35,-72.7646C297.712,-64.2831 303.147,-53.7144 308.041,-44.1974"/>
<polygon fill="black" stroke="black" points="311.235,-45.6409 312.696,-35.1473 305.01,-42.4395 311.235,-45.6409"/>
</g>
<!-- prueba0 -->
<g id="node3" class="node"><title>prueba0</title>
<ellipse fill="red" stroke="black" cx="63" cy="-3402" rx="27" ry="18"/>
</g>
<!-- prueba1 -->
<g id="node4" class="node"><title>prueba1</title>
<ellipse fill="none" stroke="black" cx="63" cy="-3330" rx="27" ry="18"/>
</g>
<!-- prueba0&#45;&gt;prueba1 -->
<g id="edge2" class="edge"><title>prueba0&#45;&gt;prueba1</title>
<path fill="none" stroke="black" d="M63,-3383.7C63,-3375.98 63,-3366.71 63,-3358.11"/>
<polygon fill="black" stroke="black" points="66.5001,-3358.1 63,-3348.1 59.5001,-3358.1 66.5001,-3358.1"/>
</g>
<!-- prueba2 -->
<g id="node5" class="node"><title>prueba2</title>
<ellipse fill="none" stroke="black" cx="27" cy="-3258" rx="27" ry="18"/>
</g>
<!-- prueba1&#45;&gt;prueba2 -->
<g id="edge3" class="edge"><title>prueba1&#45;&gt;prueba2</title>
<path fill="none" stroke="black" d="M54.6504,-3312.76C50.2885,-3304.28 44.8531,-3293.71 39.9587,-3284.2"/>
<polygon fill="black" stroke="black" points="42.9904,-3282.44 35.3043,-3275.15 36.7654,-3285.64 42.9904,-3282.44"/>
</g>
<!-- prueba5 -->
<g id="node8" class="node"><title>prueba5</title>
<ellipse fill="none" stroke="black" cx="99" cy="-3258" rx="27" ry="18"/>
</g>
<!-- prueba1&#45;&gt;prueba5 -->
<g id="edge4" class="edge"><title>prueba1&#45;&gt;prueba5</title>
<path fill="none" stroke="black" d="M71.3496,-3312.76C75.7115,-3304.28 81.1469,-3293.71 86.0413,-3284.2"/>
<polygon fill="black" stroke="black" points="89.2346,-3285.64 90.6957,-3275.15 83.0096,-3282.44 89.2346,-3285.64"/>
</g>
<!-- prueba3 -->
<g id="node6" class="node"><title>prueba3</title>
<ellipse fill="none" stroke="black" cx="27" cy="-3186" rx="27" ry="18"/>
</g>
<!-- prueba2&#45;&gt;prueba3 -->
<g id="edge5" class="edge"><title>prueba2&#45;&gt;prueba3</title>
<path fill="none" stroke="black" d="M27,-3239.7C27,-3231.98 27,-3222.71 27,-3214.11"/>
<polygon fill="black" stroke="black" points="30.5001,-3214.1 27,-3204.1 23.5001,-3214.1 30.5001,-3214.1"/>
</g>
<!-- prueba4 -->
<g id="node7" class="node"><title>prueba4</title>
<ellipse fill="none" stroke="black" cx="63" cy="-3114" rx="27" ry="18"/>
</g>
<!-- prueba3&#45;&gt;prueba4 -->
<g id="edge6" class="edge"><title>prueba3&#45;&gt;prueba4</title>
<path fill="none" stroke="black" d="M35.3496,-3168.76C39.7115,-3160.28 45.1469,-3149.71 50.0413,-3140.2"/>
<polygon fill="black" stroke="black" points="53.2346,-3141.64 54.6957,-3131.15 47.0096,-3138.44 53.2346,-3141.64"/>
</g>
<!-- prueba7 -->
<g id="node10" class="node"><title>prueba7</title>
<ellipse fill="none" stroke="black" cx="63" cy="-3042" rx="27" ry="18"/>
</g>
<!-- prueba4&#45;&gt;prueba7 -->
<g id="edge7" class="edge"><title>prueba4&#45;&gt;prueba7</title>
<path fill="none" stroke="black" d="M63,-3095.7C63,-3087.98 63,-3078.71 63,-3070.11"/>
<polygon fill="black" stroke="black" points="66.5001,-3070.1 63,-3060.1 59.5001,-3070.1 66.5001,-3070.1"/>
</g>
<!-- prueba6 -->
<g id="node9" class="node"><title>prueba6</title>
<ellipse fill="none" stroke="black" cx="99" cy="-3186" rx="27" ry="18"/>
</g>
<!-- prueba5&#45;&gt;prueba6 -->
<g id="edge8" class="edge"><title>prueba5&#45;&gt;prueba6</title>
<path fill="none" stroke="black" d="M99,-3239.7C99,-3231.98 99,-3222.71 99,-3214.11"/>
<polygon fill="black" stroke="black" points="102.5,-3214.1 99,-3204.1 95.5001,-3214.1 102.5,-3214.1"/>
</g>
<!-- prueba6&#45;&gt;prueba4 -->
<g id="edge9" class="edge"><title>prueba6&#45;&gt;prueba4</title>
<path fill="none" stroke="black" d="M85.9905,-3159.7C81.0923,-3150.18 75.6588,-3139.61 71.3043,-3131.15"/>
<polygon fill="black" stroke="black" points="82.9643,-3161.47 90.6504,-3168.76 89.1894,-3158.27 82.9643,-3161.47"/>
</g>
<!-- prueba8 -->
<g id="node11" class="node"><title>prueba8</title>
<ellipse fill="none" stroke="black" cx="36" cy="-2970" rx="27" ry="18"/>
</g>
<!-- prueba7&#45;&gt;prueba8 -->
<g id="edge10" class="edge"><title>prueba7&#45;&gt;prueba8</title>
<path fill="none" stroke="black" d="M56.6014,-3024.41C53.4864,-3016.34 49.6663,-3006.43 46.1654,-2997.35"/>
<polygon fill="black" stroke="black" points="49.4045,-2996.03 42.5403,-2987.96 42.8735,-2998.55 49.4045,-2996.03"/>
</g>
<!-- prueba12 -->
<g id="node15" class="node"><title>prueba12</title>
<ellipse fill="none" stroke="black" cx="104" cy="-2898" rx="27" ry="18"/>
</g>
<!-- prueba7&#45;&gt;prueba12 -->
<g id="edge11" class="edge"><title>prueba7&#45;&gt;prueba12</title>
<path fill="none" stroke="black" d="M67.8642,-3024.15C74.892,-2999.81 87.9557,-2954.57 96.3009,-2925.67"/>
<polygon fill="black" stroke="black" points="99.7306,-2926.4 99.1421,-2915.82 93.0054,-2924.46 99.7306,-2926.4"/>
</g>
<!-- prueba9 -->
<g id="node12" class="node"><title>prueba9</title>
<ellipse fill="none" stroke="black" cx="32" cy="-2898" rx="27" ry="18"/>
</g>
<!-- prueba8&#45;&gt;prueba9 -->
<g id="edge12" class="edge"><title>prueba8&#45;&gt;prueba9</title>
<path fill="none" stroke="black" d="M35.0112,-2951.7C34.5704,-2943.98 34.0407,-2934.71 33.5493,-2926.11"/>
<polygon fill="black" stroke="black" points="37.0423,-2925.89 32.9774,-2916.1 30.0537,-2926.29 37.0423,-2925.89"/>
</g>
<!-- prueba10 -->
<g id="node13" class="node"><title>prueba10</title>
<ellipse fill="none" stroke="black" cx="40" cy="-2826" rx="27" ry="18"/>
</g>
<!-- prueba9&#45;&gt;prueba10 -->
<g id="edge13" class="edge"><title>prueba9&#45;&gt;prueba10</title>
<path fill="none" stroke="black" d="M33.9775,-2879.7C34.8591,-2871.98 35.9186,-2862.71 36.9014,-2854.11"/>
<polygon fill="black" stroke="black" points="40.387,-2854.44 38.0452,-2844.1 33.4323,-2853.64 40.387,-2854.44"/>
</g>
<!-- prueba11 -->
<g id="node14" class="node"><title>prueba11</title>
<ellipse fill="none" stroke="black" cx="69" cy="-2754" rx="27" ry="18"/>
</g>
<!-- prueba10&#45;&gt;prueba11 -->
<g id="edge14" class="edge"><title>prueba10&#45;&gt;prueba11</title>
<path fill="none" stroke="black" d="M46.8726,-2808.41C50.2675,-2800.22 54.4422,-2790.14 58.2473,-2780.95"/>
<polygon fill="black" stroke="black" points="61.5828,-2782.05 62.1767,-2771.47 55.1158,-2779.37 61.5828,-2782.05"/>
</g>
<!-- prueba13 -->
<g id="node16" class="node"><title>prueba13</title>
<ellipse fill="none" stroke="black" cx="69" cy="-2682" rx="27" ry="18"/>
</g>
<!-- prueba11&#45;&gt;prueba13 -->
<g id="edge15" class="edge"><title>prueba11&#45;&gt;prueba13</title>
<path fill="none" stroke="black" d="M69,-2735.7C69,-2727.98 69,-2718.71 69,-2710.11"/>
<polygon fill="black" stroke="black" points="72.5001,-2710.1 69,-2700.1 65.5001,-2710.1 72.5001,-2710.1"/>
</g>
<!-- prueba12&#45;&gt;prueba11 -->
<g id="edge16" class="edge"><title>prueba12&#45;&gt;prueba11</title>
<path fill="none" stroke="black" d="M97.4212,-2870.31C90.2948,-2841.4 79.1432,-2796.15 73.147,-2771.82"/>
<polygon fill="black" stroke="black" points="94.0561,-2871.28 99.8476,-2880.15 100.853,-2869.61 94.0561,-2871.28"/>
</g>
<!-- prueba14 -->
<g id="node17" class="node"><title>prueba14</title>
<ellipse fill="none" stroke="black" cx="69" cy="-2610" rx="27" ry="18"/>
</g>
<!-- prueba13&#45;&gt;prueba14 -->
<g id="edge17" class="edge"><title>prueba13&#45;&gt;prueba14</title>
<path fill="none" stroke="black" d="M63.1601,-2664.41C62.2975,-2656.51 62.0481,-2646.85 62.4119,-2637.94"/>
<polygon fill="black" stroke="black" points="65.9033,-2638.18 63.1206,-2627.96 58.9209,-2637.68 65.9033,-2638.18"/>
</g>
<!-- prueba15 -->
<g id="node18" class="node"><title>prueba15</title>
<ellipse fill="none" stroke="black" cx="141" cy="-2610" rx="27" ry="18"/>
</g>
<!-- prueba13&#45;&gt;prueba15 -->
<g id="edge18" class="edge"><title>prueba13&#45;&gt;prueba15</title>
<path fill="none" stroke="black" d="M83.5703,-2666.83C93.7499,-2656.94 107.524,-2643.55 119.031,-2632.36"/>
<polygon fill="black" stroke="black" points="121.474,-2634.87 126.204,-2625.38 116.595,-2629.85 121.474,-2634.87"/>
</g>
<!-- prueba14&#45;&gt;prueba13 -->
<g id="edge19" class="edge"><title>prueba14&#45;&gt;prueba13</title>
<path fill="none" stroke="black" d="M75.5881,-2637.94C75.9519,-2646.85 75.7025,-2656.51 74.8399,-2664.41"/>
<polygon fill="black" stroke="black" points="79.0791,-2637.68 74.8794,-2627.96 72.0967,-2638.18 79.0791,-2637.68"/>
</g>
<!-- prueba16 -->
<g id="node19" class="node"><title>prueba16</title>
<ellipse fill="none" stroke="black" cx="141" cy="-2538" rx="27" ry="18"/>
</g>
<!-- prueba15&#45;&gt;prueba16 -->
<g id="edge20" class="edge"><title>prueba15&#45;&gt;prueba16</title>
<path fill="none" stroke="black" d="M141,-2591.7C141,-2583.98 141,-2574.71 141,-2566.11"/>
<polygon fill="black" stroke="black" points="144.5,-2566.1 141,-2556.1 137.5,-2566.1 144.5,-2566.1"/>
</g>
<!-- prueba17 -->
<g id="node20" class="node"><title>prueba17</title>
<ellipse fill="none" stroke="black" cx="141" cy="-2466" rx="27" ry="18"/>
</g>
<!-- prueba16&#45;&gt;prueba17 -->
<g id="edge21" class="edge"><title>prueba16&#45;&gt;prueba17</title>
<path fill="none" stroke="black" d="M135.16,-2520.41C134.297,-2512.51 134.048,-2502.85 134.412,-2493.94"/>
<polygon fill="black" stroke="black" points="137.903,-2494.18 135.121,-2483.96 130.921,-2493.68 137.903,-2494.18"/>
</g>
<!-- prueba18 -->
<g id="node21" class="node"><title>prueba18</title>
<ellipse fill="none" stroke="black" cx="213" cy="-2466" rx="27" ry="18"/>
</g>
<!-- prueba16&#45;&gt;prueba18 -->
<g id="edge22" class="edge"><title>prueba16&#45;&gt;prueba18</title>
<path fill="none" stroke="black" d="M155.57,-2522.83C165.75,-2512.94 179.524,-2499.55 191.031,-2488.36"/>
<polygon fill="black" stroke="black" points="193.474,-2490.87 198.204,-2481.38 188.595,-2485.85 193.474,-2490.87"/>
</g>
<!-- prueba17&#45;&gt;prueba16 -->
<g id="edge23" class="edge"><title>prueba17&#45;&gt;prueba16</title>
<path fill="none" stroke="black" d="M147.588,-2493.94C147.952,-2502.85 147.703,-2512.51 146.84,-2520.41"/>
<polygon fill="black" stroke="black" points="151.079,-2493.68 146.879,-2483.96 144.097,-2494.18 151.079,-2493.68"/>
</g>
<!-- prueba19 -->
<g id="node22" class="node"><title>prueba19</title>
<ellipse fill="none" stroke="black" cx="213" cy="-2394" rx="27" ry="18"/>
</g>
<!-- prueba18&#45;&gt;prueba19 -->
<g id="edge24" class="edge"><title>prueba18&#45;&gt;prueba19</title>
<path fill="none" stroke="black" d="M213,-2447.7C213,-2439.98 213,-2430.71 213,-2422.11"/>
<polygon fill="black" stroke="black" points="216.5,-2422.1 213,-2412.1 209.5,-2422.1 216.5,-2422.1"/>
</g>
<!-- prueba20 -->
<g id="node23" class="node"><title>prueba20</title>
<ellipse fill="none" stroke="black" cx="213" cy="-2322" rx="27" ry="18"/>
</g>
<!-- prueba19&#45;&gt;prueba20 -->
<g id="edge25" class="edge"><title>prueba19&#45;&gt;prueba20</title>
<path fill="none" stroke="black" d="M213,-2375.7C213,-2367.98 213,-2358.71 213,-2350.11"/>
<polygon fill="black" stroke="black" points="216.5,-2350.1 213,-2340.1 209.5,-2350.1 216.5,-2350.1"/>
</g>
<!-- prueba21 -->
<g id="node24" class="node"><title>prueba21</title>
<ellipse fill="none" stroke="black" cx="213" cy="-2250" rx="27" ry="18"/>
</g>
<!-- prueba20&#45;&gt;prueba21 -->
<g id="edge26" class="edge"><title>prueba20&#45;&gt;prueba21</title>
<path fill="none" stroke="black" d="M213,-2303.7C213,-2295.98 213,-2286.71 213,-2278.11"/>
<polygon fill="black" stroke="black" points="216.5,-2278.1 213,-2268.1 209.5,-2278.1 216.5,-2278.1"/>
</g>
<!-- prueba22 -->
<g id="node25" class="node"><title>prueba22</title>
<ellipse fill="none" stroke="black" cx="213" cy="-2178" rx="27" ry="18"/>
</g>
<!-- prueba21&#45;&gt;prueba22 -->
<g id="edge27" class="edge"><title>prueba21&#45;&gt;prueba22</title>
<path fill="none" stroke="black" d="M213,-2231.7C213,-2223.98 213,-2214.71 213,-2206.11"/>
<polygon fill="black" stroke="black" points="216.5,-2206.1 213,-2196.1 209.5,-2206.1 216.5,-2206.1"/>
</g>
<!-- prueba23 -->
<g id="node26" class="node"><title>prueba23</title>
<ellipse fill="none" stroke="black" cx="213" cy="-2106" rx="27" ry="18"/>
</g>
<!-- prueba22&#45;&gt;prueba23 -->
<g id="edge28" class="edge"><title>prueba22&#45;&gt;prueba23</title>
<path fill="none" stroke="black" d="M213,-2159.7C213,-2151.98 213,-2142.71 213,-2134.11"/>
<polygon fill="black" stroke="black" points="216.5,-2134.1 213,-2124.1 209.5,-2134.1 216.5,-2134.1"/>
</g>
<!-- prueba24 -->
<g id="node27" class="node"><title>prueba24</title>
<ellipse fill="none" stroke="black" cx="213" cy="-2034" rx="27" ry="18"/>
</g>
<!-- prueba23&#45;&gt;prueba24 -->
<g id="edge29" class="edge"><title>prueba23&#45;&gt;prueba24</title>
<path fill="none" stroke="black" d="M213,-2087.7C213,-2079.98 213,-2070.71 213,-2062.11"/>
<polygon fill="black" stroke="black" points="216.5,-2062.1 213,-2052.1 209.5,-2062.1 216.5,-2062.1"/>
</g>
<!-- prueba25 -->
<g id="node28" class="node"><title>prueba25</title>
<ellipse fill="none" stroke="black" cx="213" cy="-1962" rx="27" ry="18"/>
</g>
<!-- prueba24&#45;&gt;prueba25 -->
<g id="edge30" class="edge"><title>prueba24&#45;&gt;prueba25</title>
<path fill="none" stroke="black" d="M213,-2015.7C213,-2007.98 213,-1998.71 213,-1990.11"/>
<polygon fill="black" stroke="black" points="216.5,-1990.1 213,-1980.1 209.5,-1990.1 216.5,-1990.1"/>
</g>
<!-- prueba26 -->
<g id="node29" class="node"><title>prueba26</title>
<ellipse fill="none" stroke="black" cx="213" cy="-1890" rx="27" ry="18"/>
</g>
<!-- prueba25&#45;&gt;prueba26 -->
<g id="edge31" class="edge"><title>prueba25&#45;&gt;prueba26</title>
<path fill="none" stroke="black" d="M213,-1943.7C213,-1935.98 213,-1926.71 213,-1918.11"/>
<polygon fill="black" stroke="black" points="216.5,-1918.1 213,-1908.1 209.5,-1918.1 216.5,-1918.1"/>
</g>
<!-- prueba27 -->
<g id="node30" class="node"><title>prueba27</title>
<ellipse fill="none" stroke="black" cx="213" cy="-1818" rx="27" ry="18"/>
</g>
<!-- prueba26&#45;&gt;prueba27 -->
<g id="edge32" class="edge"><title>prueba26&#45;&gt;prueba27</title>
<path fill="none" stroke="black" d="M213,-1871.7C213,-1863.98 213,-1854.71 213,-1846.11"/>
<polygon fill="black" stroke="black" points="216.5,-1846.1 213,-1836.1 209.5,-1846.1 216.5,-1846.1"/>
</g>
<!-- prueba28 -->
<g id="node31" class="node"><title>prueba28</title>
<ellipse fill="none" stroke="black" cx="158" cy="-1746" rx="27" ry="18"/>
</g>
<!-- prueba27&#45;&gt;prueba28 -->
<g id="edge33" class="edge"><title>prueba27&#45;&gt;prueba28</title>
<path fill="none" stroke="black" d="M201.066,-1801.81C193.786,-1792.55 184.337,-1780.52 176.146,-1770.09"/>
<polygon fill="black" stroke="black" points="178.841,-1767.86 169.911,-1762.16 173.337,-1772.18 178.841,-1767.86"/>
</g>
<!-- prueba37 -->
<g id="node40" class="node"><title>prueba37</title>
<ellipse fill="none" stroke="black" cx="276" cy="-1746" rx="27" ry="18"/>
</g>
<!-- prueba27&#45;&gt;prueba37 -->
<g id="edge34" class="edge"><title>prueba27&#45;&gt;prueba37</title>
<path fill="none" stroke="black" d="M226.361,-1802.15C234.88,-1792.69 246.085,-1780.24 255.693,-1769.56"/>
<polygon fill="black" stroke="black" points="258.57,-1771.6 262.659,-1761.82 253.367,-1766.92 258.57,-1771.6"/>
</g>
<!-- prueba29 -->
<g id="node32" class="node"><title>prueba29</title>
<ellipse fill="none" stroke="black" cx="158" cy="-1674" rx="27" ry="18"/>
</g>
<!-- prueba28&#45;&gt;prueba29 -->
<g id="edge35" class="edge"><title>prueba28&#45;&gt;prueba29</title>
<path fill="none" stroke="black" d="M158,-1727.7C158,-1719.98 158,-1710.71 158,-1702.11"/>
<polygon fill="black" stroke="black" points="161.5,-1702.1 158,-1692.1 154.5,-1702.1 161.5,-1702.1"/>
</g>
<!-- prueba30 -->
<g id="node33" class="node"><title>prueba30</title>
<ellipse fill="none" stroke="black" cx="103" cy="-1602" rx="27" ry="18"/>
</g>
<!-- prueba29&#45;&gt;prueba30 -->
<g id="edge36" class="edge"><title>prueba29&#45;&gt;prueba30</title>
<path fill="none" stroke="black" d="M146.066,-1657.81C138.786,-1648.55 129.337,-1636.52 121.146,-1626.09"/>
<polygon fill="black" stroke="black" points="123.841,-1623.86 114.911,-1618.16 118.337,-1628.18 123.841,-1623.86"/>
</g>
<!-- prueba36 -->
<g id="node39" class="node"><title>prueba36</title>
<ellipse fill="none" stroke="black" cx="213" cy="-1602" rx="27" ry="18"/>
</g>
<!-- prueba29&#45;&gt;prueba36 -->
<g id="edge37" class="edge"><title>prueba29&#45;&gt;prueba36</title>
<path fill="none" stroke="black" d="M169.934,-1657.81C177.214,-1648.55 186.663,-1636.52 194.854,-1626.09"/>
<polygon fill="black" stroke="black" points="197.663,-1628.18 201.089,-1618.16 192.159,-1623.86 197.663,-1628.18"/>
</g>
<!-- prueba31 -->
<g id="node34" class="node"><title>prueba31</title>
<ellipse fill="none" stroke="black" cx="103" cy="-1530" rx="27" ry="18"/>
</g>
<!-- prueba30&#45;&gt;prueba31 -->
<g id="edge38" class="edge"><title>prueba30&#45;&gt;prueba31</title>
<path fill="none" stroke="black" d="M103,-1583.7C103,-1575.98 103,-1566.71 103,-1558.11"/>
<polygon fill="black" stroke="black" points="106.5,-1558.1 103,-1548.1 99.5001,-1558.1 106.5,-1558.1"/>
</g>
<!-- prueba32 -->
<g id="node35" class="node"><title>prueba32</title>
<ellipse fill="none" stroke="black" cx="40" cy="-1458" rx="27" ry="18"/>
</g>
<!-- prueba31&#45;&gt;prueba32 -->
<g id="edge39" class="edge"><title>prueba31&#45;&gt;prueba32</title>
<path fill="none" stroke="black" d="M89.6393,-1514.15C81.1197,-1504.69 69.9146,-1492.24 60.3065,-1481.56"/>
<polygon fill="black" stroke="black" points="62.6326,-1478.92 53.3414,-1473.82 57.4296,-1483.6 62.6326,-1478.92"/>
</g>
<!-- prueba35 -->
<g id="node38" class="node"><title>prueba35</title>
<ellipse fill="none" stroke="black" cx="158" cy="-1458" rx="27" ry="18"/>
</g>
<!-- prueba31&#45;&gt;prueba35 -->
<g id="edge40" class="edge"><title>prueba31&#45;&gt;prueba35</title>
<path fill="none" stroke="black" d="M114.934,-1513.81C122.214,-1504.55 131.663,-1492.52 139.854,-1482.09"/>
<polygon fill="black" stroke="black" points="142.663,-1484.18 146.089,-1474.16 137.159,-1479.86 142.663,-1484.18"/>
</g>
<!-- prueba33 -->
<g id="node36" class="node"><title>prueba33</title>
<ellipse fill="none" stroke="black" cx="36" cy="-1386" rx="27" ry="18"/>
</g>
<!-- prueba32&#45;&gt;prueba33 -->
<g id="edge41" class="edge"><title>prueba32&#45;&gt;prueba33</title>
<path fill="none" stroke="black" d="M33.2121,-1440.41C31.9122,-1432.59 31.1142,-1423.06 30.956,-1414.23"/>
<polygon fill="black" stroke="black" points="34.4591,-1414 31.0895,-1403.96 27.4597,-1413.91 34.4591,-1414"/>
</g>
<!-- prueba34 -->
<g id="node37" class="node"><title>prueba34</title>
<ellipse fill="none" stroke="black" cx="108" cy="-1386" rx="27" ry="18"/>
</g>
<!-- prueba32&#45;&gt;prueba34 -->
<g id="edge42" class="edge"><title>prueba32&#45;&gt;prueba34</title>
<path fill="none" stroke="black" d="M54.0896,-1442.5C63.5719,-1432.73 76.2443,-1419.69 86.9201,-1408.7"/>
<polygon fill="black" stroke="black" points="89.471,-1411.1 93.9284,-1401.49 84.45,-1406.22 89.471,-1411.1"/>
</g>
<!-- prueba33&#45;&gt;prueba32 -->
<g id="edge43" class="edge"><title>prueba33&#45;&gt;prueba32</title>
<path fill="none" stroke="black" d="M44.1314,-1413.98C44.9885,-1422.75 45.2931,-1432.23 44.9099,-1440.05"/>
<polygon fill="black" stroke="black" points="47.5682,-1413.26 42.8209,-1403.79 40.6254,-1414.15 47.5682,-1413.26"/>
</g>
<!-- prueba34&#45;&gt;prueba31 -->
<g id="edge44" class="edge"><title>prueba34&#45;&gt;prueba31</title>
<path fill="none" stroke="black" d="M107.035,-1414.39C106.021,-1443.21 104.455,-1487.67 103.603,-1511.87"/>
<polygon fill="black" stroke="black" points="110.541,-1414.31 107.395,-1404.19 103.545,-1414.06 110.541,-1414.31"/>
</g>
<!-- prueba35&#45;&gt;prueba29 -->
<g id="edge45" class="edge"><title>prueba35&#45;&gt;prueba29</title>
<path fill="none" stroke="black" d="M158,-1486.39C158,-1531.18 158,-1618.83 158,-1655.85"/>
<polygon fill="black" stroke="black" points="161.5,-1486.23 158,-1476.23 154.5,-1486.23 161.5,-1486.23"/>
</g>
<!-- prueba36&#45;&gt;prueba27 -->
<g id="edge46" class="edge"><title>prueba36&#45;&gt;prueba27</title>
<path fill="none" stroke="black" d="M213,-1630.39C213,-1675.18 213,-1762.83 213,-1799.85"/>
<polygon fill="black" stroke="black" points="216.5,-1630.23 213,-1620.23 209.5,-1630.23 216.5,-1630.23"/>
</g>
<!-- prueba38 -->
<g id="node41" class="node"><title>prueba38</title>
<ellipse fill="none" stroke="black" cx="276" cy="-1674" rx="27" ry="18"/>
</g>
<!-- prueba37&#45;&gt;prueba38 -->
<g id="edge47" class="edge"><title>prueba37&#45;&gt;prueba38</title>
<path fill="none" stroke="black" d="M276,-1727.7C276,-1719.98 276,-1710.71 276,-1702.11"/>
<polygon fill="black" stroke="black" points="279.5,-1702.1 276,-1692.1 272.5,-1702.1 279.5,-1702.1"/>
</g>
<!-- prueba39 -->
<g id="node42" class="node"><title>prueba39</title>
<ellipse fill="none" stroke="black" cx="285" cy="-1602" rx="27" ry="18"/>
</g>
<!-- prueba38&#45;&gt;prueba39 -->
<g id="edge48" class="edge"><title>prueba38&#45;&gt;prueba39</title>
<path fill="none" stroke="black" d="M278.179,-1656.05C279.17,-1648.35 280.368,-1639.03 281.482,-1630.36"/>
<polygon fill="black" stroke="black" points="284.975,-1630.64 282.779,-1620.28 278.032,-1629.75 284.975,-1630.64"/>
</g>
<!-- prueba40 -->
<g id="node43" class="node"><title>prueba40</title>
<ellipse fill="none" stroke="black" cx="285" cy="-1530" rx="27" ry="18"/>
</g>
<!-- prueba39&#45;&gt;prueba40 -->
<g id="edge49" class="edge"><title>prueba39&#45;&gt;prueba40</title>
<path fill="none" stroke="black" d="M285,-1583.7C285,-1575.98 285,-1566.71 285,-1558.11"/>
<polygon fill="black" stroke="black" points="288.5,-1558.1 285,-1548.1 281.5,-1558.1 288.5,-1558.1"/>
</g>
<!-- prueba41 -->
<g id="node44" class="node"><title>prueba41</title>
<ellipse fill="none" stroke="black" cx="285" cy="-1458" rx="27" ry="18"/>
</g>
<!-- prueba40&#45;&gt;prueba41 -->
<g id="edge50" class="edge"><title>prueba40&#45;&gt;prueba41</title>
<path fill="none" stroke="black" d="M285,-1511.7C285,-1503.98 285,-1494.71 285,-1486.11"/>
<polygon fill="black" stroke="black" points="288.5,-1486.1 285,-1476.1 281.5,-1486.1 288.5,-1486.1"/>
</g>
<!-- prueba42 -->
<g id="node45" class="node"><title>prueba42</title>
<ellipse fill="none" stroke="black" cx="285" cy="-1386" rx="27" ry="18"/>
</g>
<!-- prueba41&#45;&gt;prueba42 -->
<g id="edge51" class="edge"><title>prueba41&#45;&gt;prueba42</title>
<path fill="none" stroke="black" d="M285,-1439.7C285,-1431.98 285,-1422.71 285,-1414.11"/>
<polygon fill="black" stroke="black" points="288.5,-1414.1 285,-1404.1 281.5,-1414.1 288.5,-1414.1"/>
</g>
<!-- prueba43 -->
<g id="node46" class="node"><title>prueba43</title>
<ellipse fill="none" stroke="black" cx="285" cy="-1314" rx="27" ry="18"/>
</g>
<!-- prueba42&#45;&gt;prueba43 -->
<g id="edge52" class="edge"><title>prueba42&#45;&gt;prueba43</title>
<path fill="none" stroke="black" d="M285,-1367.7C285,-1359.98 285,-1350.71 285,-1342.11"/>
<polygon fill="black" stroke="black" points="288.5,-1342.1 285,-1332.1 281.5,-1342.1 288.5,-1342.1"/>
</g>
<!-- prueba44 -->
<g id="node47" class="node"><title>prueba44</title>
<ellipse fill="none" stroke="black" cx="285" cy="-1242" rx="27" ry="18"/>
</g>
<!-- prueba43&#45;&gt;prueba44 -->
<g id="edge53" class="edge"><title>prueba43&#45;&gt;prueba44</title>
<path fill="none" stroke="black" d="M285,-1295.7C285,-1287.98 285,-1278.71 285,-1270.11"/>
<polygon fill="black" stroke="black" points="288.5,-1270.1 285,-1260.1 281.5,-1270.1 288.5,-1270.1"/>
</g>
<!-- prueba45 -->
<g id="node48" class="node"><title>prueba45</title>
<ellipse fill="none" stroke="black" cx="285" cy="-1170" rx="27" ry="18"/>
</g>
<!-- prueba44&#45;&gt;prueba45 -->
<g id="edge54" class="edge"><title>prueba44&#45;&gt;prueba45</title>
<path fill="none" stroke="black" d="M285,-1223.7C285,-1215.98 285,-1206.71 285,-1198.11"/>
<polygon fill="black" stroke="black" points="288.5,-1198.1 285,-1188.1 281.5,-1198.1 288.5,-1198.1"/>
</g>
<!-- prueba46 -->
<g id="node49" class="node"><title>prueba46</title>
<ellipse fill="none" stroke="black" cx="285" cy="-1098" rx="27" ry="18"/>
</g>
<!-- prueba45&#45;&gt;prueba46 -->
<g id="edge55" class="edge"><title>prueba45&#45;&gt;prueba46</title>
<path fill="none" stroke="black" d="M285,-1151.7C285,-1143.98 285,-1134.71 285,-1126.11"/>
<polygon fill="black" stroke="black" points="288.5,-1126.1 285,-1116.1 281.5,-1126.1 288.5,-1126.1"/>
</g>
<!-- prueba47 -->
<g id="node50" class="node"><title>prueba47</title>
<ellipse fill="none" stroke="black" cx="285" cy="-1026" rx="27" ry="18"/>
</g>
<!-- prueba46&#45;&gt;prueba47 -->
<g id="edge56" class="edge"><title>prueba46&#45;&gt;prueba47</title>
<path fill="none" stroke="black" d="M285,-1079.7C285,-1071.98 285,-1062.71 285,-1054.11"/>
<polygon fill="black" stroke="black" points="288.5,-1054.1 285,-1044.1 281.5,-1054.1 288.5,-1054.1"/>
</g>
<!-- prueba48 -->
<g id="node51" class="node"><title>prueba48</title>
<ellipse fill="none" stroke="black" cx="285" cy="-954" rx="27" ry="18"/>
</g>
<!-- prueba47&#45;&gt;prueba48 -->
<g id="edge57" class="edge"><title>prueba47&#45;&gt;prueba48</title>
<path fill="none" stroke="black" d="M285,-1007.7C285,-999.983 285,-990.712 285,-982.112"/>
<polygon fill="black" stroke="black" points="288.5,-982.104 285,-972.104 281.5,-982.104 288.5,-982.104"/>
</g>
<!-- prueba49 -->
<g id="node52" class="node"><title>prueba49</title>
<ellipse fill="none" stroke="black" cx="285" cy="-882" rx="27" ry="18"/>
</g>
<!-- prueba48&#45;&gt;prueba49 -->
<g id="edge58" class="edge"><title>prueba48&#45;&gt;prueba49</title>
<path fill="none" stroke="black" d="M285,-935.697C285,-927.983 285,-918.712 285,-910.112"/>
<polygon fill="black" stroke="black" points="288.5,-910.104 285,-900.104 281.5,-910.104 288.5,-910.104"/>
</g>
<!-- prueba50 -->
<g id="node53" class="node"><title>prueba50</title>
<ellipse fill="none" stroke="black" cx="285" cy="-810" rx="27" ry="18"/>
</g>
<!-- prueba49&#45;&gt;prueba50 -->
<g id="edge59" class="edge"><title>prueba49&#45;&gt;prueba50</title>
<path fill="none" stroke="black" d="M285,-863.697C285,-855.983 285,-846.712 285,-838.112"/>
<polygon fill="black" stroke="black" points="288.5,-838.104 285,-828.104 281.5,-838.104 288.5,-838.104"/>
</g>
<!-- prueba51 -->
<g id="node54" class="node"><title>prueba51</title>
<ellipse fill="none" stroke="black" cx="285" cy="-738" rx="27" ry="18"/>
</g>
<!-- prueba50&#45;&gt;prueba51 -->
<g id="edge60" class="edge"><title>prueba50&#45;&gt;prueba51</title>
<path fill="none" stroke="black" d="M285,-791.697C285,-783.983 285,-774.712 285,-766.112"/>
<polygon fill="black" stroke="black" points="288.5,-766.104 285,-756.104 281.5,-766.104 288.5,-766.104"/>
</g>
<!-- prueba52 -->
<g id="node55" class="node"><title>prueba52</title>
<ellipse fill="none" stroke="black" cx="285" cy="-666" rx="27" ry="18"/>
</g>
<!-- prueba51&#45;&gt;prueba52 -->
<g id="edge61" class="edge"><title>prueba51&#45;&gt;prueba52</title>
<path fill="none" stroke="black" d="M285,-719.697C285,-711.983 285,-702.712 285,-694.112"/>
<polygon fill="black" stroke="black" points="288.5,-694.104 285,-684.104 281.5,-694.104 288.5,-694.104"/>
</g>
<!-- prueba53 -->
<g id="node56" class="node"><title>prueba53</title>
<ellipse fill="none" stroke="black" cx="285" cy="-594" rx="27" ry="18"/>
</g>
<!-- prueba52&#45;&gt;prueba53 -->
<g id="edge62" class="edge"><title>prueba52&#45;&gt;prueba53</title>
<path fill="none" stroke="black" d="M285,-647.697C285,-639.983 285,-630.712 285,-622.112"/>
<polygon fill="black" stroke="black" points="288.5,-622.104 285,-612.104 281.5,-622.104 288.5,-622.104"/>
</g>
<!-- prueba54 -->
<g id="node57" class="node"><title>prueba54</title>
<ellipse fill="none" stroke="black" cx="285" cy="-522" rx="27" ry="18"/>
</g>
<!-- prueba53&#45;&gt;prueba54 -->
<g id="edge63" class="edge"><title>prueba53&#45;&gt;prueba54</title>
<path fill="none" stroke="black" d="M285,-575.697C285,-567.983 285,-558.712 285,-550.112"/>
<polygon fill="black" stroke="black" points="288.5,-550.104 285,-540.104 281.5,-550.104 288.5,-550.104"/>
</g>
<!-- prueba55 -->
<g id="node58" class="node"><title>prueba55</title>
<ellipse fill="none" stroke="black" cx="285" cy="-450" rx="27" ry="18"/>
</g>
<!-- prueba54&#45;&gt;prueba55 -->
<g id="edge64" class="edge"><title>prueba54&#45;&gt;prueba55</title>
<path fill="none" stroke="black" d="M285,-503.697C285,-495.983 285,-486.712 285,-478.112"/>
<polygon fill="black" stroke="black" points="288.5,-478.104 285,-468.104 281.5,-478.104 288.5,-478.104"/>
</g>
<!-- prueba56 -->
<g id="node59" class="node"><title>prueba56</title>
<ellipse fill="none" stroke="black" cx="285" cy="-378" rx="27" ry="18"/>
</g>
<!-- prueba55&#45;&gt;prueba56 -->
<g id="edge65" class="edge"><title>prueba55&#45;&gt;prueba56</title>
<path fill="none" stroke="black" d="M285,-431.697C285,-423.983 285,-414.712 285,-406.112"/>
<polygon fill="black" stroke="black" points="288.5,-406.104 285,-396.104 281.5,-406.104 288.5,-406.104"/>
</g>
<!-- prueba57 -->
<g id="node60" class="node"><title>prueba57</title>
<ellipse fill="none" stroke="black" cx="285" cy="-306" rx="27" ry="18"/>
</g>
<!-- prueba56&#45;&gt;prueba57 -->
<g id="edge66" class="edge"><title>prueba56&#45;&gt;prueba57</title>
<path fill="none" stroke="black" d="M285,-359.697C285,-351.983 285,-342.712 285,-334.112"/>
<polygon fill="black" stroke="black" points="288.5,-334.104 285,-324.104 281.5,-334.104 288.5,-334.104"/>
</g>
<!-- prueba58 -->
<g id="node61" class="node"><title>prueba58</title>
<ellipse fill="none" stroke="black" cx="285" cy="-234" rx="27" ry="18"/>
</g>
<!-- prueba57&#45;&gt;prueba58 -->
<g id="edge67" class="edge"><title>prueba57&#45;&gt;prueba58</title>
<path fill="none" stroke="black" d="M285,-287.697C285,-279.983 285,-270.712 285,-262.112"/>
<polygon fill="black" stroke="black" points="288.5,-262.104 285,-252.104 281.5,-262.104 288.5,-262.104"/>
</g>
<!-- prueba59 -->
<g id="node62" class="node"><title>prueba59</title>
<ellipse fill="blue" stroke="black" cx="285" cy="-162" rx="27" ry="18"/>
</g>
<!-- prueba58&#45;&gt;prueba59 -->
<g id="edge68" class="edge"><title>prueba58&#45;&gt;prueba59</title>
<path fill="none" stroke="black" d="M285,-215.697C285,-207.983 285,-198.712 285,-190.112"/>
<polygon fill="black" stroke="black" points="288.5,-190.104 285,-180.104 281.5,-190.104 288.5,-190.104"/>
</g>
<!-- prueba59&#45;&gt;main0 -->
<g id="edge70" class="edge"><title>prueba59&#45;&gt;main0</title>
<path fill="none" stroke="black" d="M285,-143.697C285,-135.983 285,-126.712 285,-118.112"/>
<polygon fill="black" stroke="black" points="288.5,-118.104 285,-108.104 281.5,-118.104 288.5,-118.104"/>
</g>
<!-- prueba -->
<g id="node64" class="node"><title>prueba</title>
<ellipse fill="none" stroke="black" cx="144" cy="-3402" rx="35.9954" ry="18"/>
<text text-anchor="middle" x="144" y="-3398.3" font-family="Times New Roman,serif" font-size="14.00">prueba</text>
</g>
</g>
</svg>
