<?xml version="1.0" encoding="UTF-8" standalone="no"?>
<!DOCTYPE svg PUBLIC "-//W3C//DTD SVG 1.1//EN"
 "http://www.w3.org/Graphics/SVG/1.1/DTD/svg11.dtd">
<!-- Generated by graphviz version 2.38.0 (20140413.2041)
 -->
<!-- Title: Grafo Pages: 1 -->
<svg width="62pt" height="1844pt"
 viewBox="0.00 0.00 62.00 1844.00" xmlns="http://www.w3.org/2000/svg" xmlns:xlink="http://www.w3.org/1999/xlink">
<g id="graph0" class="graph" transform="scale(1 1) rotate(0) translate(4 1840)">
<title>Grafo</title>
<polygon fill="white" stroke="none" points="-4,4 -4,-1840 58,-1840 58,4 -4,4"/>
<!-- 0 -->
<g id="node1" class="node"><title>0</title>
<ellipse fill="red" stroke="black" cx="27" cy="-1818" rx="27" ry="18"/>
</g>
<!-- 1 -->
<g id="node2" class="node"><title>1</title>
<ellipse fill="none" stroke="black" cx="27" cy="-1746" rx="27" ry="18"/>
</g>
<!-- 0&#45;&gt;1 -->
<g id="edge1" class="edge"><title>0&#45;&gt;1</title>
<path fill="none" stroke="black" d="M27,-1799.7C27,-1791.98 27,-1782.71 27,-1774.11"/>
<polygon fill="black" stroke="black" points="30.5001,-1774.1 27,-1764.1 23.5001,-1774.1 30.5001,-1774.1"/>
</g>
<!-- 2 -->
<g id="node3" class="node"><title>2</title>
<ellipse fill="none" stroke="black" cx="27" cy="-1674" rx="27" ry="18"/>
</g>
<!-- 1&#45;&gt;2 -->
<g id="edge2" class="edge"><title>1&#45;&gt;2</title>
<path fill="none" stroke="black" d="M27,-1727.7C27,-1719.98 27,-1710.71 27,-1702.11"/>
<polygon fill="black" stroke="black" points="30.5001,-1702.1 27,-1692.1 23.5001,-1702.1 30.5001,-1702.1"/>
</g>
<!-- 3 -->
<g id="node4" class="node"><title>3</title>
<ellipse fill="none" stroke="black" cx="27" cy="-1602" rx="27" ry="18"/>
</g>
<!-- 2&#45;&gt;3 -->
<g id="edge3" class="edge"><title>2&#45;&gt;3</title>
<path fill="none" stroke="black" d="M27,-1655.7C27,-1647.98 27,-1638.71 27,-1630.11"/>
<polygon fill="black" stroke="black" points="30.5001,-1630.1 27,-1620.1 23.5001,-1630.1 30.5001,-1630.1"/>
</g>
<!-- 4 -->
<g id="node5" class="node"><title>4</title>
<ellipse fill="none" stroke="black" cx="27" cy="-1530" rx="27" ry="18"/>
</g>
<!-- 3&#45;&gt;4 -->
<g id="edge4" class="edge"><title>3&#45;&gt;4</title>
<path fill="none" stroke="black" d="M27,-1583.7C27,-1575.98 27,-1566.71 27,-1558.11"/>
<polygon fill="black" stroke="black" points="30.5001,-1558.1 27,-1548.1 23.5001,-1558.1 30.5001,-1558.1"/>
</g>
<!-- 5 -->
<g id="node6" class="node"><title>5</title>
<ellipse fill="none" stroke="black" cx="27" cy="-1458" rx="27" ry="18"/>
</g>
<!-- 4&#45;&gt;5 -->
<g id="edge5" class="edge"><title>4&#45;&gt;5</title>
<path fill="none" stroke="black" d="M27,-1511.7C27,-1503.98 27,-1494.71 27,-1486.11"/>
<polygon fill="black" stroke="black" points="30.5001,-1486.1 27,-1476.1 23.5001,-1486.1 30.5001,-1486.1"/>
</g>
<!-- 6 -->
<g id="node7" class="node"><title>6</title>
<ellipse fill="none" stroke="black" cx="27" cy="-1386" rx="27" ry="18"/>
</g>
<!-- 5&#45;&gt;6 -->
<g id="edge6" class="edge"><title>5&#45;&gt;6</title>
<path fill="none" stroke="black" d="M27,-1439.7C27,-1431.98 27,-1422.71 27,-1414.11"/>
<polygon fill="black" stroke="black" points="30.5001,-1414.1 27,-1404.1 23.5001,-1414.1 30.5001,-1414.1"/>
</g>
<!-- 7 -->
<g id="node8" class="node"><title>7</title>
<ellipse fill="none" stroke="black" cx="27" cy="-1314" rx="27" ry="18"/>
</g>
<!-- 6&#45;&gt;7 -->
<g id="edge7" class="edge"><title>6&#45;&gt;7</title>
<path fill="none" stroke="black" d="M27,-1367.7C27,-1359.98 27,-1350.71 27,-1342.11"/>
<polygon fill="black" stroke="black" points="30.5001,-1342.1 27,-1332.1 23.5001,-1342.1 30.5001,-1342.1"/>
</g>
<!-- 8 -->
<g id="node9" class="node"><title>8</title>
<ellipse fill="none" stroke="black" cx="27" cy="-1242" rx="27" ry="18"/>
</g>
<!-- 7&#45;&gt;8 -->
<g id="edge8" class="edge"><title>7&#45;&gt;8</title>
<path fill="none" stroke="black" d="M27,-1295.7C27,-1287.98 27,-1278.71 27,-1270.11"/>
<polygon fill="black" stroke="black" points="30.5001,-1270.1 27,-1260.1 23.5001,-1270.1 30.5001,-1270.1"/>
</g>
<!-- 9 -->
<g id="node10" class="node"><title>9</title>
<ellipse fill="none" stroke="black" cx="27" cy="-1170" rx="27" ry="18"/>
</g>
<!-- 8&#45;&gt;9 -->
<g id="edge9" class="edge"><title>8&#45;&gt;9</title>
<path fill="none" stroke="black" d="M27,-1223.7C27,-1215.98 27,-1206.71 27,-1198.11"/>
<polygon fill="black" stroke="black" points="30.5001,-1198.1 27,-1188.1 23.5001,-1198.1 30.5001,-1198.1"/>
</g>
<!-- 10 -->
<g id="node11" class="node"><title>10</title>
<ellipse fill="none" stroke="black" cx="27" cy="-1098" rx="27" ry="18"/>
</g>
<!-- 9&#45;&gt;10 -->
<g id="edge10" class="edge"><title>9&#45;&gt;10</title>
<path fill="none" stroke="black" d="M27,-1151.7C27,-1143.98 27,-1134.71 27,-1126.11"/>
<polygon fill="black" stroke="black" points="30.5001,-1126.1 27,-1116.1 23.5001,-1126.1 30.5001,-1126.1"/>
</g>
<!-- 11 -->
<g id="node12" class="node"><title>11</title>
<ellipse fill="none" stroke="black" cx="27" cy="-1026" rx="27" ry="18"/>
</g>
<!-- 10&#45;&gt;11 -->
<g id="edge11" class="edge"><title>10&#45;&gt;11</title>
<path fill="none" stroke="black" d="M27,-1079.7C27,-1071.98 27,-1062.71 27,-1054.11"/>
<polygon fill="black" stroke="black" points="30.5001,-1054.1 27,-1044.1 23.5001,-1054.1 30.5001,-1054.1"/>
</g>
<!-- 12 -->
<g id="node13" class="node"><title>12</title>
<ellipse fill="none" stroke="black" cx="27" cy="-954" rx="27" ry="18"/>
</g>
<!-- 11&#45;&gt;12 -->
<g id="edge12" class="edge"><title>11&#45;&gt;12</title>
<path fill="none" stroke="black" d="M27,-1007.7C27,-999.983 27,-990.712 27,-982.112"/>
<polygon fill="black" stroke="black" points="30.5001,-982.104 27,-972.104 23.5001,-982.104 30.5001,-982.104"/>
</g>
<!-- 13 -->
<g id="node14" class="node"><title>13</title>
<ellipse fill="none" stroke="black" cx="27" cy="-882" rx="27" ry="18"/>
</g>
<!-- 12&#45;&gt;13 -->
<g id="edge13" class="edge"><title>12&#45;&gt;13</title>
<path fill="none" stroke="black" d="M27,-935.697C27,-927.983 27,-918.712 27,-910.112"/>
<polygon fill="black" stroke="black" points="30.5001,-910.104 27,-900.104 23.5001,-910.104 30.5001,-910.104"/>
</g>
<!-- 14 -->
<g id="node15" class="node"><title>14</title>
<ellipse fill="none" stroke="black" cx="27" cy="-810" rx="27" ry="18"/>
</g>
<!-- 13&#45;&gt;14 -->
<g id="edge14" class="edge"><title>13&#45;&gt;14</title>
<path fill="none" stroke="black" d="M27,-863.697C27,-855.983 27,-846.712 27,-838.112"/>
<polygon fill="black" stroke="black" points="30.5001,-838.104 27,-828.104 23.5001,-838.104 30.5001,-838.104"/>
</g>
<!-- 15 -->
<g id="node16" class="node"><title>15</title>
<ellipse fill="none" stroke="black" cx="27" cy="-738" rx="27" ry="18"/>
</g>
<!-- 14&#45;&gt;15 -->
<g id="edge15" class="edge"><title>14&#45;&gt;15</title>
<path fill="none" stroke="black" d="M27,-791.697C27,-783.983 27,-774.712 27,-766.112"/>
<polygon fill="black" stroke="black" points="30.5001,-766.104 27,-756.104 23.5001,-766.104 30.5001,-766.104"/>
</g>
<!-- 16 -->
<g id="node17" class="node"><title>16</title>
<ellipse fill="none" stroke="black" cx="27" cy="-666" rx="27" ry="18"/>
</g>
<!-- 15&#45;&gt;16 -->
<g id="edge16" class="edge"><title>15&#45;&gt;16</title>
<path fill="none" stroke="black" d="M27,-719.697C27,-711.983 27,-702.712 27,-694.112"/>
<polygon fill="black" stroke="black" points="30.5001,-694.104 27,-684.104 23.5001,-694.104 30.5001,-694.104"/>
</g>
<!-- 17 -->
<g id="node18" class="node"><title>17</title>
<ellipse fill="none" stroke="black" cx="27" cy="-594" rx="27" ry="18"/>
</g>
<!-- 16&#45;&gt;17 -->
<g id="edge17" class="edge"><title>16&#45;&gt;17</title>
<path fill="none" stroke="black" d="M27,-647.697C27,-639.983 27,-630.712 27,-622.112"/>
<polygon fill="black" stroke="black" points="30.5001,-622.104 27,-612.104 23.5001,-622.104 30.5001,-622.104"/>
</g>
<!-- 18 -->
<g id="node19" class="node"><title>18</title>
<ellipse fill="none" stroke="black" cx="27" cy="-522" rx="27" ry="18"/>
</g>
<!-- 17&#45;&gt;18 -->
<g id="edge18" class="edge"><title>17&#45;&gt;18</title>
<path fill="none" stroke="black" d="M27,-575.697C27,-567.983 27,-558.712 27,-550.112"/>
<polygon fill="black" stroke="black" points="30.5001,-550.104 27,-540.104 23.5001,-550.104 30.5001,-550.104"/>
</g>
<!-- 19 -->
<g id="node20" class="node"><title>19</title>
<ellipse fill="none" stroke="black" cx="27" cy="-450" rx="27" ry="18"/>
</g>
<!-- 18&#45;&gt;19 -->
<g id="edge19" class="edge"><title>18&#45;&gt;19</title>
<path fill="none" stroke="black" d="M27,-503.697C27,-495.983 27,-486.712 27,-478.112"/>
<polygon fill="black" stroke="black" points="30.5001,-478.104 27,-468.104 23.5001,-478.104 30.5001,-478.104"/>
</g>
<!-- 20 -->
<g id="node21" class="node"><title>20</title>
<ellipse fill="none" stroke="black" cx="27" cy="-378" rx="27" ry="18"/>
</g>
<!-- 19&#45;&gt;20 -->
<g id="edge20" class="edge"><title>19&#45;&gt;20</title>
<path fill="none" stroke="black" d="M27,-431.697C27,-423.983 27,-414.712 27,-406.112"/>
<polygon fill="black" stroke="black" points="30.5001,-406.104 27,-396.104 23.5001,-406.104 30.5001,-406.104"/>
</g>
<!-- 21 -->
<g id="node22" class="node"><title>21</title>
<ellipse fill="none" stroke="black" cx="27" cy="-306" rx="27" ry="18"/>
</g>
<!-- 20&#45;&gt;21 -->
<g id="edge21" class="edge"><title>20&#45;&gt;21</title>
<path fill="none" stroke="black" d="M27,-359.697C27,-351.983 27,-342.712 27,-334.112"/>
<polygon fill="black" stroke="black" points="30.5001,-334.104 27,-324.104 23.5001,-334.104 30.5001,-334.104"/>
</g>
<!-- 22 -->
<g id="node23" class="node"><title>22</title>
<ellipse fill="none" stroke="black" cx="27" cy="-234" rx="27" ry="18"/>
</g>
<!-- 21&#45;&gt;22 -->
<g id="edge22" class="edge"><title>21&#45;&gt;22</title>
<path fill="none" stroke="black" d="M27,-287.697C27,-279.983 27,-270.712 27,-262.112"/>
<polygon fill="black" stroke="black" points="30.5001,-262.104 27,-252.104 23.5001,-262.104 30.5001,-262.104"/>
</g>
<!-- 23 -->
<g id="node24" class="node"><title>23</title>
<ellipse fill="none" stroke="black" cx="27" cy="-162" rx="27" ry="18"/>
</g>
<!-- 22&#45;&gt;23 -->
<g id="edge23" class="edge"><title>22&#45;&gt;23</title>
<path fill="none" stroke="black" d="M27,-215.697C27,-207.983 27,-198.712 27,-190.112"/>
<polygon fill="black" stroke="black" points="30.5001,-190.104 27,-180.104 23.5001,-190.104 30.5001,-190.104"/>
</g>
<!-- 24 -->
<g id="node25" class="node"><title>24</title>
<ellipse fill="none" stroke="black" cx="27" cy="-90" rx="27" ry="18"/>
</g>
<!-- 23&#45;&gt;24 -->
<g id="edge24" class="edge"><title>23&#45;&gt;24</title>
<path fill="none" stroke="black" d="M27,-143.697C27,-135.983 27,-126.712 27,-118.112"/>
<polygon fill="black" stroke="black" points="30.5001,-118.104 27,-108.104 23.5001,-118.104 30.5001,-118.104"/>
</g>
<!-- 25 -->
<g id="node26" class="node"><title>25</title>
<ellipse fill="blue" stroke="black" cx="27" cy="-18" rx="27" ry="18"/>
</g>
<!-- 24&#45;&gt;25 -->
<g id="edge25" class="edge"><title>24&#45;&gt;25</title>
<path fill="none" stroke="black" d="M27,-71.6966C27,-63.9827 27,-54.7125 27,-46.1124"/>
<polygon fill="black" stroke="black" points="30.5001,-46.1043 27,-36.1043 23.5001,-46.1044 30.5001,-46.1043"/>
</g>
</g>
</svg>
