<?xml version="1.0" encoding="UTF-8" standalone="no"?>
<!DOCTYPE svg PUBLIC "-//W3C//DTD SVG 1.1//EN"
 "http://www.w3.org/Graphics/SVG/1.1/DTD/svg11.dtd">
<!-- Generated by graphviz version 2.38.0 (20140413.2041)
 -->
<!-- Title: Grafo Pages: 1 -->
<svg width="395pt" height="1052pt"
 viewBox="0.00 0.00 395.00 1052.00" xmlns="http://www.w3.org/2000/svg" xmlns:xlink="http://www.w3.org/1999/xlink">
<g id="graph0" class="graph" transform="scale(1 1) rotate(0) translate(4 1048)">
<title>Grafo</title>
<polygon fill="white" stroke="none" points="-4,4 -4,-1048 391,-1048 391,4 -4,4"/>
<!-- fibonacci0 -->
<g id="node1" class="node"><title>fibonacci0</title>
<ellipse fill="none" stroke="black" cx="210" cy="-1026" rx="27" ry="18"/>
</g>
<!-- fibonacci1 -->
<g id="node2" class="node"><title>fibonacci1</title>
<ellipse fill="none" stroke="black" cx="183" cy="-954" rx="27" ry="18"/>
</g>
<!-- fibonacci0&#45;&gt;fibonacci1 -->
<g id="edge1" class="edge"><title>fibonacci0&#45;&gt;fibonacci1</title>
<path fill="none" stroke="black" d="M203.601,-1008.41C200.486,-1000.34 196.666,-990.431 193.165,-981.355"/>
<polygon fill="black" stroke="black" points="196.405,-980.027 189.54,-971.956 189.874,-982.546 196.405,-980.027"/>
</g>
<!-- fibonacci2 -->
<g id="node3" class="node"><title>fibonacci2</title>
<ellipse fill="none" stroke="black" cx="183" cy="-882" rx="27" ry="18"/>
</g>
<!-- fibonacci1&#45;&gt;fibonacci2 -->
<g id="edge2" class="edge"><title>fibonacci1&#45;&gt;fibonacci2</title>
<path fill="none" stroke="black" d="M183,-935.697C183,-927.983 183,-918.712 183,-910.112"/>
<polygon fill="black" stroke="black" points="186.5,-910.104 183,-900.104 179.5,-910.104 186.5,-910.104"/>
</g>
<!-- fibonacci3 -->
<g id="node4" class="node"><title>fibonacci3</title>
<ellipse fill="none" stroke="black" cx="128" cy="-810" rx="27" ry="18"/>
</g>
<!-- fibonacci2&#45;&gt;fibonacci3 -->
<g id="edge3" class="edge"><title>fibonacci2&#45;&gt;fibonacci3</title>
<path fill="none" stroke="black" d="M171.066,-865.811C163.786,-856.546 154.337,-844.52 146.146,-834.094"/>
<polygon fill="black" stroke="black" points="148.841,-831.86 139.911,-826.159 143.337,-836.185 148.841,-831.86"/>
</g>
<!-- fibonacci4 -->
<g id="node5" class="node"><title>fibonacci4</title>
<ellipse fill="none" stroke="black" cx="73" cy="-738" rx="27" ry="18"/>
</g>
<!-- fibonacci3&#45;&gt;fibonacci4 -->
<g id="edge4" class="edge"><title>fibonacci3&#45;&gt;fibonacci4</title>
<path fill="none" stroke="black" d="M116.066,-793.811C108.786,-784.546 99.3374,-772.52 91.1456,-762.094"/>
<polygon fill="black" stroke="black" points="93.8413,-759.86 84.9109,-754.159 88.337,-764.185 93.8413,-759.86"/>
</g>
<!-- fibonacci5 -->
<g id="node6" class="node"><title>fibonacci5</title>
<ellipse fill="none" stroke="black" cx="187" cy="-666" rx="27" ry="18"/>
</g>
<!-- fibonacci4&#45;&gt;fibonacci5 -->
<g id="edge5" class="edge"><title>fibonacci4&#45;&gt;fibonacci5</title>
<path fill="none" stroke="black" d="M92.3385,-725.125C110.599,-713.913 138.195,-696.968 158.887,-684.263"/>
<polygon fill="black" stroke="black" points="160.876,-687.148 167.567,-678.933 157.213,-681.183 160.876,-687.148"/>
</g>
<!-- aCadena0 -->
<g id="node14" class="node"><title>aCadena0</title>
<ellipse fill="none" stroke="black" cx="73" cy="-450" rx="27" ry="18"/>
</g>
<!-- fibonacci4&#45;&gt;aCadena0 -->
<g id="edge24" class="edge"><title>fibonacci4&#45;&gt;aCadena0</title>
<path fill="none" stroke="black" d="M69.5871,-719.966C65.4046,-672.178 65.1537,-536.544 68.8343,-478.215"/>
<polygon fill="black" stroke="black" points="72.3467,-478.176 69.5949,-467.945 65.3658,-477.659 72.3467,-478.176"/>
</g>
<!-- fibonacci4&#45;&gt;aCadena0 -->
<g id="edge26" class="edge"><title>fibonacci4&#45;&gt;aCadena0</title>
<path fill="none" stroke="black" d="M76.4129,-719.966C80.5954,-672.178 80.8463,-536.544 77.1657,-478.215"/>
<polygon fill="black" stroke="black" points="80.6342,-477.659 76.4051,-467.945 73.6533,-478.176 80.6342,-477.659"/>
</g>
<!-- fibonacci6 -->
<g id="node7" class="node"><title>fibonacci6</title>
<ellipse fill="none" stroke="black" cx="160" cy="-594" rx="27" ry="18"/>
</g>
<!-- fibonacci5&#45;&gt;fibonacci6 -->
<g id="edge6" class="edge"><title>fibonacci5&#45;&gt;fibonacci6</title>
<path fill="none" stroke="black" d="M180.601,-648.411C177.486,-640.335 173.666,-630.431 170.165,-621.355"/>
<polygon fill="black" stroke="black" points="173.405,-620.027 166.54,-611.956 166.874,-622.546 173.405,-620.027"/>
</g>
<!-- fibonacci10 -->
<g id="node11" class="node"><title>fibonacci10</title>
<ellipse fill="none" stroke="black" cx="293" cy="-594" rx="27" ry="18"/>
</g>
<!-- fibonacci5&#45;&gt;fibonacci10 -->
<g id="edge7" class="edge"><title>fibonacci5&#45;&gt;fibonacci10</title>
<path fill="none" stroke="black" d="M205.464,-652.807C222.157,-641.783 246.946,-625.413 265.888,-612.904"/>
<polygon fill="black" stroke="black" points="267.976,-615.72 274.392,-607.288 264.119,-609.878 267.976,-615.72"/>
</g>
<!-- fibonacci7 -->
<g id="node8" class="node"><title>fibonacci7</title>
<ellipse fill="none" stroke="black" cx="148" cy="-522" rx="27" ry="18"/>
</g>
<!-- fibonacci6&#45;&gt;fibonacci7 -->
<g id="edge8" class="edge"><title>fibonacci6&#45;&gt;fibonacci7</title>
<path fill="none" stroke="black" d="M157.095,-576.055C155.774,-568.346 154.176,-559.027 152.691,-550.364"/>
<polygon fill="black" stroke="black" points="156.101,-549.54 150.961,-540.275 149.202,-550.723 156.101,-549.54"/>
</g>
<!-- fibonacci8 -->
<g id="node9" class="node"><title>fibonacci8</title>
<ellipse fill="none" stroke="black" cx="183" cy="-450" rx="27" ry="18"/>
</g>
<!-- fibonacci7&#45;&gt;fibonacci8 -->
<g id="edge9" class="edge"><title>fibonacci7&#45;&gt;fibonacci8</title>
<path fill="none" stroke="black" d="M156.118,-504.765C160.298,-496.404 165.492,-486.016 170.197,-476.606"/>
<polygon fill="black" stroke="black" points="173.342,-478.143 174.683,-467.633 167.081,-475.012 173.342,-478.143"/>
</g>
<!-- fibonacci7&#45;&gt;aCadena0 -->
<g id="edge28" class="edge"><title>fibonacci7&#45;&gt;aCadena0</title>
<path fill="none" stroke="black" d="M132.823,-506.834C122.149,-496.872 107.681,-483.369 95.6469,-472.137"/>
<polygon fill="black" stroke="black" points="97.8535,-469.409 88.1548,-465.144 93.0773,-474.526 97.8535,-469.409"/>
</g>
<!-- fibonacci9 -->
<g id="node10" class="node"><title>fibonacci9</title>
<ellipse fill="none" stroke="black" cx="206" cy="-378" rx="27" ry="18"/>
</g>
<!-- fibonacci8&#45;&gt;fibonacci9 -->
<g id="edge10" class="edge"><title>fibonacci8&#45;&gt;fibonacci9</title>
<path fill="none" stroke="black" d="M188.568,-432.055C191.195,-424.059 194.391,-414.331 197.326,-405.4"/>
<polygon fill="black" stroke="black" points="200.687,-406.382 200.484,-395.789 194.037,-404.197 200.687,-406.382"/>
</g>
<!-- fibonacci9&#45;&gt;fibonacci5 -->
<g id="edge11" class="edge"><title>fibonacci9&#45;&gt;fibonacci5</title>
<path fill="none" stroke="black" d="M211.274,-395.993C214.193,-406.296 217.522,-419.773 219,-432 228.051,-506.897 207.368,-595.053 195.157,-638.315"/>
<polygon fill="black" stroke="black" points="191.752,-637.489 192.33,-648.068 198.476,-639.437 191.752,-637.489"/>
</g>
<!-- fibonacci11 -->
<g id="node12" class="node"><title>fibonacci11</title>
<ellipse fill="none" stroke="black" cx="293" cy="-522" rx="27" ry="18"/>
</g>
<!-- fibonacci10&#45;&gt;fibonacci11 -->
<g id="edge12" class="edge"><title>fibonacci10&#45;&gt;fibonacci11</title>
<path fill="none" stroke="black" d="M293,-575.697C293,-567.983 293,-558.712 293,-550.112"/>
<polygon fill="black" stroke="black" points="296.5,-550.104 293,-540.104 289.5,-550.104 296.5,-550.104"/>
</g>
<!-- fibonacci12 -->
<g id="node13" class="node"><title>fibonacci12</title>
<ellipse fill="none" stroke="black" cx="293" cy="-450" rx="27" ry="18"/>
</g>
<!-- fibonacci11&#45;&gt;fibonacci12 -->
<g id="edge13" class="edge"><title>fibonacci11&#45;&gt;fibonacci12</title>
<path fill="none" stroke="black" d="M293,-503.697C293,-495.983 293,-486.712 293,-478.112"/>
<polygon fill="black" stroke="black" points="296.5,-478.104 293,-468.104 289.5,-478.104 296.5,-478.104"/>
</g>
<!-- main3 -->
<g id="node21" class="node"><title>main3</title>
<ellipse fill="none" stroke="black" cx="301" cy="-378" rx="27" ry="18"/>
</g>
<!-- fibonacci12&#45;&gt;main3 -->
<g id="edge31" class="edge"><title>fibonacci12&#45;&gt;main3</title>
<path fill="none" stroke="black" d="M294.978,-431.697C295.859,-423.983 296.919,-414.712 297.901,-406.112"/>
<polygon fill="black" stroke="black" points="301.387,-406.437 299.045,-396.104 294.432,-405.642 301.387,-406.437"/>
</g>
<!-- aCadena1 -->
<g id="node15" class="node"><title>aCadena1</title>
<ellipse fill="none" stroke="black" cx="73" cy="-378" rx="27" ry="18"/>
</g>
<!-- aCadena0&#45;&gt;aCadena1 -->
<g id="edge14" class="edge"><title>aCadena0&#45;&gt;aCadena1</title>
<path fill="none" stroke="black" d="M73,-431.697C73,-423.983 73,-414.712 73,-406.112"/>
<polygon fill="black" stroke="black" points="76.5001,-406.104 73,-396.104 69.5001,-406.104 76.5001,-406.104"/>
</g>
<!-- aCadena2 -->
<g id="node16" class="node"><title>aCadena2</title>
<ellipse fill="none" stroke="black" cx="73" cy="-306" rx="27" ry="18"/>
</g>
<!-- aCadena1&#45;&gt;aCadena2 -->
<g id="edge15" class="edge"><title>aCadena1&#45;&gt;aCadena2</title>
<path fill="none" stroke="black" d="M73,-359.697C73,-351.983 73,-342.712 73,-334.112"/>
<polygon fill="black" stroke="black" points="76.5001,-334.104 73,-324.104 69.5001,-334.104 76.5001,-334.104"/>
</g>
<!-- aCadena3 -->
<g id="node17" class="node"><title>aCadena3</title>
<ellipse fill="none" stroke="black" cx="39" cy="-234" rx="27" ry="18"/>
</g>
<!-- aCadena2&#45;&gt;aCadena3 -->
<g id="edge16" class="edge"><title>aCadena2&#45;&gt;aCadena3</title>
<path fill="none" stroke="black" d="M65.1143,-288.765C61.0958,-280.491 56.1128,-270.232 51.5802,-260.9"/>
<polygon fill="black" stroke="black" points="54.5965,-259.099 47.0791,-251.633 48.2999,-262.158 54.5965,-259.099"/>
</g>
<!-- aCadena3&#45;&gt;fibonacci4 -->
<g id="edge25" class="edge"><title>aCadena3&#45;&gt;fibonacci4</title>
<path fill="none" stroke="black" d="M27.9495,-250.533C15.8368,-276.409 0,-330.134 0,-377 0,-595 0,-595 0,-595 0,-641.117 28.4032,-688.809 50.027,-715.51"/>
<polygon fill="black" stroke="black" points="47.6137,-718.075 56.7649,-723.414 52.9406,-713.533 47.6137,-718.075"/>
</g>
<!-- aCadena3&#45;&gt;fibonacci4 -->
<g id="edge27" class="edge"><title>aCadena3&#45;&gt;fibonacci4</title>
<path fill="none" stroke="black" d="M38.6951,-252.24C33.163,-278.717 18,-331.142 18,-377 18,-595 18,-595 18,-595 18,-639.024 43.8841,-684.484 60.4152,-711.748"/>
<polygon fill="black" stroke="black" points="57.6195,-713.886 65.8147,-720.601 63.5956,-710.241 57.6195,-713.886"/>
</g>
<!-- aCadena3&#45;&gt;fibonacci7 -->
<g id="edge29" class="edge"><title>aCadena3&#45;&gt;fibonacci7</title>
<path fill="none" stroke="black" d="M60.2828,-245.401C76.3286,-254.4 97.476,-268.961 109,-288 129.713,-322.221 141.504,-439.567 145.944,-493.495"/>
<polygon fill="black" stroke="black" points="142.473,-494 146.757,-503.69 149.45,-493.443 142.473,-494"/>
</g>
<!-- main0 -->
<g id="node18" class="node"><title>main0</title>
<ellipse fill="none" stroke="black" cx="360" cy="-162" rx="27" ry="18"/>
</g>
<!-- main1 -->
<g id="node19" class="node"><title>main1</title>
<ellipse fill="none" stroke="black" cx="360" cy="-90" rx="27" ry="18"/>
</g>
<!-- main0&#45;&gt;main1 -->
<g id="edge17" class="edge"><title>main0&#45;&gt;main1</title>
<path fill="none" stroke="black" d="M360,-143.697C360,-135.983 360,-126.712 360,-118.112"/>
<polygon fill="black" stroke="black" points="363.5,-118.104 360,-108.104 356.5,-118.104 363.5,-118.104"/>
</g>
<!-- main2 -->
<g id="node20" class="node"><title>main2</title>
<ellipse fill="none" stroke="black" cx="250" cy="-18" rx="27" ry="18"/>
</g>
<!-- main1&#45;&gt;main2 -->
<g id="edge18" class="edge"><title>main1&#45;&gt;main2</title>
<path fill="none" stroke="black" d="M340.839,-76.8069C323.331,-65.6653 297.241,-49.0622 277.507,-36.5043"/>
<polygon fill="black" stroke="black" points="279.257,-33.4693 268.941,-31.0533 275.499,-39.375 279.257,-33.4693"/>
</g>
<!-- main2&#45;&gt;main3 -->
<g id="edge19" class="edge"><title>main2&#45;&gt;main3</title>
<path fill="none" stroke="black" d="M260.605,-34.8354C276.587,-60.2799 305,-112.355 305,-161 305,-235 305,-235 305,-235 305,-275.02 303.393,-321.359 302.216,-349.927"/>
<polygon fill="black" stroke="black" points="298.718,-349.816 301.79,-359.955 305.711,-350.113 298.718,-349.816"/>
</g>
<!-- imprimir0 -->
<g id="node24" class="node"><title>imprimir0</title>
<ellipse fill="none" stroke="black" cx="140" cy="-234" rx="27" ry="18"/>
</g>
<!-- main2&#45;&gt;imprimir0 -->
<g id="edge32" class="edge"><title>main2&#45;&gt;imprimir0</title>
<path fill="none" stroke="black" d="M227.969,-28.6019C192.314,-45.6498 123.94,-85.0494 104,-144 98.8734,-159.156 99.2972,-164.707 104,-180 107.286,-190.685 113.54,-201.149 119.925,-209.919"/>
<polygon fill="black" stroke="black" points="117.354,-212.314 126.25,-218.069 122.884,-208.023 117.354,-212.314"/>
</g>
<!-- main3&#45;&gt;fibonacci0 -->
<g id="edge30" class="edge"><title>main3&#45;&gt;fibonacci0</title>
<path fill="none" stroke="black" d="M311.045,-395.17C317.015,-405.4 324.313,-419.088 329,-432 342.8,-470.02 348,-480.553 348,-521 348,-883 348,-883 348,-883 348,-944.074 281.536,-988.769 240.859,-1010.4"/>
<polygon fill="black" stroke="black" points="239.153,-1007.35 231.867,-1015.04 242.359,-1013.57 239.153,-1007.35"/>
</g>
<!-- main4 -->
<g id="node22" class="node"><title>main4</title>
<ellipse fill="none" stroke="black" cx="223" cy="-306" rx="27" ry="18"/>
</g>
<!-- main3&#45;&gt;main4 -->
<g id="edge20" class="edge"><title>main3&#45;&gt;main4</title>
<path fill="none" stroke="black" d="M285.59,-363.17C274.266,-353.008 258.691,-339.03 245.911,-327.561"/>
<polygon fill="black" stroke="black" points="248.158,-324.875 238.378,-320.801 243.483,-330.085 248.158,-324.875"/>
</g>
<!-- main5 -->
<g id="node23" class="node"><title>main5</title>
<ellipse fill="none" stroke="black" cx="250" cy="-234" rx="27" ry="18"/>
</g>
<!-- main4&#45;&gt;main5 -->
<g id="edge21" class="edge"><title>main4&#45;&gt;main5</title>
<path fill="none" stroke="black" d="M229.399,-288.411C232.514,-280.335 236.334,-270.431 239.835,-261.355"/>
<polygon fill="black" stroke="black" points="243.126,-262.546 243.46,-251.956 236.595,-260.027 243.126,-262.546"/>
</g>
<!-- main4&#45;&gt;imprimir0 -->
<g id="edge34" class="edge"><title>main4&#45;&gt;imprimir0</title>
<path fill="none" stroke="black" d="M206.602,-291.17C194.359,-280.845 177.448,-266.582 163.73,-255.013"/>
<polygon fill="black" stroke="black" points="165.982,-252.334 156.082,-248.563 161.47,-257.685 165.982,-252.334"/>
</g>
<!-- imprimir1 -->
<g id="node25" class="node"><title>imprimir1</title>
<ellipse fill="none" stroke="black" cx="140" cy="-162" rx="27" ry="18"/>
</g>
<!-- imprimir0&#45;&gt;imprimir1 -->
<g id="edge22" class="edge"><title>imprimir0&#45;&gt;imprimir1</title>
<path fill="none" stroke="black" d="M140,-215.697C140,-207.983 140,-198.712 140,-190.112"/>
<polygon fill="black" stroke="black" points="143.5,-190.104 140,-180.104 136.5,-190.104 143.5,-190.104"/>
</g>
<!-- imprimir2 -->
<g id="node26" class="node"><title>imprimir2</title>
<ellipse fill="none" stroke="black" cx="195" cy="-90" rx="27" ry="18"/>
</g>
<!-- imprimir1&#45;&gt;imprimir2 -->
<g id="edge23" class="edge"><title>imprimir1&#45;&gt;imprimir2</title>
<path fill="none" stroke="black" d="M151.934,-145.811C159.214,-136.546 168.663,-124.52 176.854,-114.094"/>
<polygon fill="black" stroke="black" points="179.663,-116.185 183.089,-106.159 174.159,-111.86 179.663,-116.185"/>
</g>
<!-- imprimir2&#45;&gt;main2 -->
<g id="edge33" class="edge"><title>imprimir2&#45;&gt;main2</title>
<path fill="none" stroke="black" d="M206.934,-73.811C214.214,-64.5464 223.663,-52.5203 231.854,-42.0944"/>
<polygon fill="black" stroke="black" points="234.663,-44.1849 238.089,-34.1593 229.159,-39.8601 234.663,-44.1849"/>
</g>
<!-- imprimir2&#45;&gt;main4 -->
<g id="edge35" class="edge"><title>imprimir2&#45;&gt;main4</title>
<path fill="none" stroke="black" d="M196.764,-108.43C199.823,-138.01 206.508,-199.904 214,-252 215.214,-260.444 216.709,-269.615 218.129,-277.917"/>
<polygon fill="black" stroke="black" points="214.695,-278.599 219.861,-287.849 221.591,-277.396 214.695,-278.599"/>
</g>
</g>
</svg>
