<?xml version="1.0" encoding="UTF-8" standalone="no"?>
<!DOCTYPE svg PUBLIC "-//W3C//DTD SVG 1.1//EN"
 "http://www.w3.org/Graphics/SVG/1.1/DTD/svg11.dtd">
<!-- Generated by graphviz version 2.38.0 (20140413.2041)
 -->
<!-- Title: Llamadas Pages: 1 -->
<svg width="1849pt" height="260pt"
 viewBox="0.00 0.00 1848.84 260.00" xmlns="http://www.w3.org/2000/svg" xmlns:xlink="http://www.w3.org/1999/xlink">
<g id="graph0" class="graph" transform="scale(1 1) rotate(0) translate(4 256)">
<title>Llamadas</title>
<polygon fill="white" stroke="none" points="-4,4 -4,-256 1844.84,-256 1844.84,4 -4,4"/>
<!-- 0 -->
<g id="node1" class="node"><title>0</title>
<ellipse fill="red" stroke="black" cx="1413.7" cy="-234" rx="27" ry="18"/>
</g>
<!-- 1 -->
<g id="node2" class="node"><title>1</title>
<ellipse fill="none" stroke="black" cx="1413.7" cy="-162" rx="33.5952" ry="18"/>
<text text-anchor="middle" x="1413.7" y="-158.3" font-family="Times New Roman,serif" font-size="14.00">main()</text>
</g>
<!-- 0&#45;&gt;1 -->
<g id="edge1" class="edge"><title>0&#45;&gt;1</title>
<path fill="none" stroke="black" d="M1413.7,-215.697C1413.7,-207.983 1413.7,-198.712 1413.7,-190.112"/>
<polygon fill="black" stroke="black" points="1417.2,-190.104 1413.7,-180.104 1410.2,-190.104 1417.2,-190.104"/>
</g>
<!-- 2 -->
<g id="node3" class="node"><title>2</title>
<ellipse fill="none" stroke="black" cx="1413.7" cy="-90" rx="41.6928" ry="18"/>
<text text-anchor="middle" x="1413.7" y="-86.3" font-family="Times New Roman,serif" font-size="14.00">prueba()</text>
</g>
<!-- 1&#45;&gt;2 -->
<g id="edge2" class="edge"><title>1&#45;&gt;2</title>
<path fill="none" stroke="black" d="M1413.7,-143.697C1413.7,-135.983 1413.7,-126.712 1413.7,-118.112"/>
<polygon fill="black" stroke="black" points="1417.2,-118.104 1413.7,-108.104 1410.2,-118.104 1417.2,-118.104"/>
</g>
<!-- 3 -->
<g id="node4" class="node"><title>3</title>
<ellipse fill="none" stroke="black" cx="37.6967" cy="-18" rx="37.8943" ry="18"/>
<text text-anchor="middle" x="37.6967" y="-14.3" font-family="Times New Roman,serif" font-size="14.00">fopen()</text>
</g>
<!-- 2&#45;&gt;3 -->
<g id="edge3" class="edge"><title>2&#45;&gt;3</title>
<path fill="none" stroke="black" d="M1371.95,-89.0537C1174.27,-89.073 332.185,-86.2487 75.6967,-36 74.2065,-35.7081 72.7004,-35.3766 71.1905,-35.0124"/>
<polygon fill="black" stroke="black" points="71.872,-31.5676 61.2963,-32.2049 69.9611,-38.3018 71.872,-31.5676"/>
</g>
<!-- 2&#45;&gt;3 -->
<g id="edge4" class="edge"><title>2&#45;&gt;3</title>
<path fill="none" stroke="black" d="M1372.12,-89.0535C1176.51,-89.0158 347.777,-85.777 93.6967,-36 88.6115,-35.0038 83.3412,-33.5472 78.1346,-31.8993"/>
<polygon fill="black" stroke="black" points="78.8602,-28.4502 68.266,-28.5653 76.6197,-35.082 78.8602,-28.4502"/>
</g>
<!-- 4 -->
<g id="node5" class="node"><title>4</title>
<ellipse fill="none" stroke="black" cx="138.697" cy="-18" rx="45.4919" ry="18"/>
<text text-anchor="middle" x="138.697" y="-14.3" font-family="Times New Roman,serif" font-size="14.00">freadAll()</text>
</g>
<!-- 2&#45;&gt;4 -->
<g id="edge5" class="edge"><title>2&#45;&gt;4</title>
<path fill="none" stroke="black" d="M1371.93,-88.62C1185.4,-86.703 427.525,-76.5224 193.697,-36 189.598,-35.2896 185.377,-34.3608 181.184,-33.3034"/>
<polygon fill="black" stroke="black" points="182.087,-29.9219 171.517,-30.6449 180.231,-36.6713 182.087,-29.9219"/>
</g>
<!-- 5 -->
<g id="node6" class="node"><title>5</title>
<ellipse fill="none" stroke="black" cx="268.697" cy="-18" rx="66.0889" ry="18"/>
<text text-anchor="middle" x="268.697" y="-14.3" font-family="Times New Roman,serif" font-size="14.00">cadenaDonde()</text>
</g>
<!-- 2&#45;&gt;5 -->
<g id="edge6" class="edge"><title>2&#45;&gt;5</title>
<path fill="none" stroke="black" d="M1371.9,-89.5242C1228.13,-90.7763 741.027,-90.452 343.697,-36 337.765,-35.1871 331.61,-34.1373 325.492,-32.9587"/>
<polygon fill="black" stroke="black" points="325.775,-29.4443 315.277,-30.8724 324.374,-36.3027 325.775,-29.4443"/>
</g>
<!-- 6 -->
<g id="node7" class="node"><title>6</title>
<ellipse fill="none" stroke="black" cx="439.697" cy="-18" rx="87.1846" ry="18"/>
<text text-anchor="middle" x="439.697" y="-14.3" font-family="Times New Roman,serif" font-size="14.00">cadenaSinEspacios()</text>
</g>
<!-- 2&#45;&gt;6 -->
<g id="edge7" class="edge"><title>2&#45;&gt;6</title>
<path fill="none" stroke="black" d="M1371.96,-88.1826C1245.57,-85.3429 856.057,-73.9072 535.697,-36 527.63,-35.0456 519.215,-33.8516 510.865,-32.5414"/>
<polygon fill="black" stroke="black" points="511.171,-29.0454 500.739,-30.8939 510.047,-35.9545 511.171,-29.0454"/>
</g>
<!-- 7 -->
<g id="node8" class="node"><title>7</title>
<ellipse fill="none" stroke="black" cx="621.697" cy="-18" rx="77.1866" ry="18"/>
<text text-anchor="middle" x="621.697" y="-14.3" font-family="Times New Roman,serif" font-size="14.00">cadenaSustituida()</text>
</g>
<!-- 2&#45;&gt;7 -->
<g id="edge8" class="edge"><title>2&#45;&gt;7</title>
<path fill="none" stroke="black" d="M1372.2,-87.5903C1263.08,-83.5144 959.277,-69.7811 708.697,-36 701.566,-35.0388 694.139,-33.8617 686.761,-32.5796"/>
<polygon fill="black" stroke="black" points="687.225,-29.1069 676.763,-30.7767 685.983,-35.9958 687.225,-29.1069"/>
</g>
<!-- 8 -->
<g id="node9" class="node"><title>8</title>
<ellipse fill="none" stroke="black" cx="792.697" cy="-18" rx="75.2868" ry="18"/>
<text text-anchor="middle" x="792.697" y="-14.3" font-family="Times New Roman,serif" font-size="14.00">cadenaIzquierda()</text>
</g>
<!-- 2&#45;&gt;8 -->
<g id="edge9" class="edge"><title>2&#45;&gt;8</title>
<path fill="none" stroke="black" d="M1372.85,-86.3448C1282.98,-80.2012 1061.52,-63.4014 877.697,-36 870.996,-35.0012 864.024,-33.828 857.083,-32.5726"/>
<polygon fill="black" stroke="black" points="857.443,-29.0795 846.97,-30.6853 856.158,-35.9606 857.443,-29.0795"/>
</g>
<!-- 9 -->
<g id="node10" class="node"><title>9</title>
<ellipse fill="none" stroke="black" cx="957.697" cy="-18" rx="71.4873" ry="18"/>
<text text-anchor="middle" x="957.697" y="-14.3" font-family="Times New Roman,serif" font-size="14.00">cadenaDerecha()</text>
</g>
<!-- 2&#45;&gt;9 -->
<g id="edge10" class="edge"><title>2&#45;&gt;9</title>
<path fill="none" stroke="black" d="M1374.04,-84.3281C1305.31,-76.0279 1159.75,-57.5428 1037.7,-36 1031.64,-34.931 1025.34,-33.7371 1019.06,-32.4912"/>
<polygon fill="black" stroke="black" points="1019.73,-29.0561 1009.24,-30.5009 1018.34,-35.9167 1019.73,-29.0561"/>
</g>
<!-- 10 -->
<g id="node11" class="node"><title>10</title>
<ellipse fill="none" stroke="black" cx="1113.7" cy="-18" rx="66.8882" ry="18"/>
<text text-anchor="middle" x="1113.7" y="-14.3" font-family="Times New Roman,serif" font-size="14.00">cadenaDentro()</text>
</g>
<!-- 2&#45;&gt;10 -->
<g id="edge11" class="edge"><title>2&#45;&gt;10</title>
<path fill="none" stroke="black" d="M1377.81,-80.6259C1326.98,-68.7662 1233.43,-46.9389 1172.41,-32.7003"/>
<polygon fill="black" stroke="black" points="1173.07,-29.2599 1162.54,-30.3959 1171.48,-36.0768 1173.07,-29.2599"/>
</g>
<!-- 11 -->
<g id="node12" class="node"><title>11</title>
<ellipse fill="none" stroke="black" cx="1273.7" cy="-18" rx="74.9875" ry="18"/>
<text text-anchor="middle" x="1273.7" y="-14.3" font-family="Times New Roman,serif" font-size="14.00">cadenaLongitud()</text>
</g>
<!-- 2&#45;&gt;11 -->
<g id="edge12" class="edge"><title>2&#45;&gt;11</title>
<path fill="none" stroke="black" d="M1387.36,-75.8335C1366.67,-65.4845 1337.49,-50.895 1313.88,-39.0894"/>
<polygon fill="black" stroke="black" points="1315.31,-35.8933 1304.8,-34.5516 1312.18,-42.1543 1315.31,-35.8933"/>
</g>
<!-- 12 -->
<g id="node13" class="node"><title>12</title>
<ellipse fill="none" stroke="black" cx="1413.7" cy="-18" rx="46.5926" ry="18"/>
<text text-anchor="middle" x="1413.7" y="-14.3" font-family="Times New Roman,serif" font-size="14.00">imprimir()</text>
</g>
<!-- 2&#45;&gt;12 -->
<g id="edge13" class="edge"><title>2&#45;&gt;12</title>
<path fill="none" stroke="black" d="M1391.33,-74.496C1386.76,-65.6058 1385.57,-53.9916 1387.77,-43.6871"/>
<polygon fill="black" stroke="black" points="1391.17,-44.563 1391.09,-33.9684 1384.54,-42.2972 1391.17,-44.563"/>
</g>
<!-- 2&#45;&gt;12 -->
<g id="edge14" class="edge"><title>2&#45;&gt;12</title>
<path fill="none" stroke="black" d="M1402.02,-72.411C1400.27,-64.3908 1399.78,-54.5675 1400.55,-45.5423"/>
<polygon fill="black" stroke="black" points="1404.04,-45.8744 1402.04,-35.4699 1397.12,-44.8502 1404.04,-45.8744"/>
</g>
<!-- 2&#45;&gt;12 -->
<g id="edge15" class="edge"><title>2&#45;&gt;12</title>
<path fill="none" stroke="black" d="M1413.7,-71.6966C1413.7,-63.9827 1413.7,-54.7125 1413.7,-46.1124"/>
<polygon fill="black" stroke="black" points="1417.2,-46.1043 1413.7,-36.1043 1410.2,-46.1044 1417.2,-46.1043"/>
</g>
<!-- 2&#45;&gt;12 -->
<g id="edge16" class="edge"><title>2&#45;&gt;12</title>
<path fill="none" stroke="black" d="M1425.38,-72.411C1427.13,-64.3908 1427.61,-54.5675 1426.84,-45.5423"/>
<polygon fill="black" stroke="black" points="1430.28,-44.8502 1425.35,-35.4699 1423.35,-45.8744 1430.28,-44.8502"/>
</g>
<!-- 2&#45;&gt;12 -->
<g id="edge19" class="edge"><title>2&#45;&gt;12</title>
<path fill="none" stroke="black" d="M1436.07,-74.496C1440.64,-65.6058 1441.82,-53.9916 1439.63,-43.6871"/>
<polygon fill="black" stroke="black" points="1442.85,-42.2972 1436.3,-33.9684 1436.23,-44.563 1442.85,-42.2972"/>
</g>
<!-- 13 -->
<g id="node14" class="node"><title>13</title>
<ellipse fill="none" stroke="black" cx="1524.7" cy="-18" rx="46.2923" ry="18"/>
<text text-anchor="middle" x="1524.7" y="-14.3" font-family="Times New Roman,serif" font-size="14.00">hazAlgo()</text>
</g>
<!-- 2&#45;&gt;13 -->
<g id="edge17" class="edge"><title>2&#45;&gt;13</title>
<path fill="none" stroke="black" d="M1432.1,-73.811C1447.55,-63.2584 1469.84,-49.1232 1488.74,-37.8506"/>
<polygon fill="black" stroke="black" points="1490.58,-40.8261 1497.42,-32.7358 1487.03,-34.7943 1490.58,-40.8261"/>
</g>
<!-- 2&#45;&gt;13 -->
<g id="edge18" class="edge"><title>2&#45;&gt;13</title>
<path fill="none" stroke="black" d="M1439.99,-75.8335C1457.24,-65.8508 1479.61,-51.9226 1497.11,-40.3532"/>
<polygon fill="black" stroke="black" points="1499.4,-43.0285 1505.76,-34.5516 1495.5,-37.215 1499.4,-43.0285"/>
</g>
<!-- 14 -->
<g id="node15" class="node"><title>14</title>
<ellipse fill="none" stroke="black" cx="1625.7" cy="-18" rx="37.0935" ry="18"/>
<text text-anchor="middle" x="1625.7" y="-14.3" font-family="Times New Roman,serif" font-size="14.00">fwrite()</text>
</g>
<!-- 2&#45;&gt;14 -->
<g id="edge20" class="edge"><title>2&#45;&gt;14</title>
<path fill="none" stroke="black" d="M1446.6,-78.9739C1480.19,-68.624 1533.79,-51.804 1579.7,-36 1582.25,-35.121 1584.88,-34.1989 1587.52,-33.2578"/>
<polygon fill="black" stroke="black" points="1588.84,-36.501 1597.06,-29.8099 1586.46,-29.9179 1588.84,-36.501"/>
</g>
<!-- 15 -->
<g id="node16" class="node"><title>15</title>
<ellipse fill="none" stroke="black" cx="1718.7" cy="-18" rx="38.1938" ry="18"/>
<text text-anchor="middle" x="1718.7" y="-14.3" font-family="Times New Roman,serif" font-size="14.00">fclose()</text>
</g>
<!-- 2&#45;&gt;15 -->
<g id="edge21" class="edge"><title>2&#45;&gt;15</title>
<path fill="none" stroke="black" d="M1451.09,-81.986C1500.23,-73.2555 1588.54,-56.9104 1662.7,-36 1667.48,-34.6511 1672.48,-33.0547 1677.45,-31.3892"/>
<polygon fill="black" stroke="black" points="1678.6,-34.6952 1686.93,-28.1478 1676.34,-28.0718 1678.6,-34.6952"/>
</g>
<!-- 2&#45;&gt;15 -->
<g id="edge23" class="edge"><title>2&#45;&gt;15</title>
<path fill="none" stroke="black" d="M1452.9,-83.7343C1505.58,-75.5604 1601.26,-58.3996 1680.7,-36 1681.92,-35.6556 1683.15,-35.2951 1684.4,-34.9214"/>
<polygon fill="black" stroke="black" points="1685.48,-38.2487 1693.92,-31.8479 1683.33,-31.5866 1685.48,-38.2487"/>
</g>
<!-- 16 -->
<g id="node17" class="node"><title>16</title>
<ellipse fill="none" stroke="black" cx="1807.7" cy="-18" rx="33.2948" ry="18"/>
<text text-anchor="middle" x="1807.7" y="-14.3" font-family="Times New Roman,serif" font-size="14.00">print()</text>
</g>
<!-- 2&#45;&gt;16 -->
<g id="edge22" class="edge"><title>2&#45;&gt;16</title>
<path fill="none" stroke="black" d="M1454.46,-85.9925C1520.7,-80.4118 1655.42,-66.1675 1765.7,-36 1768.15,-35.328 1770.66,-34.5541 1773.17,-33.7148"/>
<polygon fill="black" stroke="black" points="1774.52,-36.9477 1782.71,-30.2308 1772.12,-30.3721 1774.52,-36.9477"/>
</g>
</g>
</svg>
