<?xml version="1.0" encoding="UTF-8" standalone="no"?>
<!DOCTYPE svg PUBLIC "-//W3C//DTD SVG 1.1//EN"
 "http://www.w3.org/Graphics/SVG/1.1/DTD/svg11.dtd">
<!-- Generated by graphviz version 2.38.0 (20140413.2041)
 -->
<!-- Title: Grafo Pages: 1 -->
<svg width="189pt" height="764pt"
 viewBox="0.00 0.00 189.00 764.00" xmlns="http://www.w3.org/2000/svg" xmlns:xlink="http://www.w3.org/1999/xlink">
<g id="graph0" class="graph" transform="scale(1 1) rotate(0) translate(4 760)">
<title>Grafo</title>
<polygon fill="white" stroke="none" points="-4,4 -4,-760 185,-760 185,4 -4,4"/>
<!-- 0 -->
<g id="node1" class="node"><title>0</title>
<ellipse fill="red" stroke="black" cx="118" cy="-738" rx="27" ry="18"/>
</g>
<!-- 1 -->
<g id="node2" class="node"><title>1</title>
<ellipse fill="none" stroke="black" cx="118" cy="-666" rx="27" ry="18"/>
</g>
<!-- 0&#45;&gt;1 -->
<g id="edge1" class="edge"><title>0&#45;&gt;1</title>
<path fill="none" stroke="black" d="M118,-719.697C118,-711.983 118,-702.712 118,-694.112"/>
<polygon fill="black" stroke="black" points="121.5,-694.104 118,-684.104 114.5,-694.104 121.5,-694.104"/>
</g>
<!-- 2 -->
<g id="node3" class="node"><title>2</title>
<ellipse fill="none" stroke="black" cx="118" cy="-594" rx="27" ry="18"/>
</g>
<!-- 1&#45;&gt;2 -->
<g id="edge2" class="edge"><title>1&#45;&gt;2</title>
<path fill="none" stroke="black" d="M118,-647.697C118,-639.983 118,-630.712 118,-622.112"/>
<polygon fill="black" stroke="black" points="121.5,-622.104 118,-612.104 114.5,-622.104 121.5,-622.104"/>
</g>
<!-- 3 -->
<g id="node4" class="node"><title>3</title>
<ellipse fill="none" stroke="black" cx="118" cy="-522" rx="27" ry="18"/>
</g>
<!-- 2&#45;&gt;3 -->
<g id="edge3" class="edge"><title>2&#45;&gt;3</title>
<path fill="none" stroke="black" d="M118,-575.697C118,-567.983 118,-558.712 118,-550.112"/>
<polygon fill="black" stroke="black" points="121.5,-550.104 118,-540.104 114.5,-550.104 121.5,-550.104"/>
</g>
<!-- 4 -->
<g id="node5" class="node"><title>4</title>
<ellipse fill="none" stroke="black" cx="82" cy="-450" rx="27" ry="18"/>
</g>
<!-- 3&#45;&gt;4 -->
<g id="edge4" class="edge"><title>3&#45;&gt;4</title>
<path fill="none" stroke="black" d="M109.65,-504.765C105.288,-496.283 99.8531,-485.714 94.9587,-476.197"/>
<polygon fill="black" stroke="black" points="97.9904,-474.439 90.3043,-467.147 91.7654,-477.641 97.9904,-474.439"/>
</g>
<!-- 8 -->
<g id="node9" class="node"><title>8</title>
<ellipse fill="none" stroke="black" cx="154" cy="-450" rx="27" ry="18"/>
</g>
<!-- 3&#45;&gt;8 -->
<g id="edge5" class="edge"><title>3&#45;&gt;8</title>
<path fill="none" stroke="black" d="M126.35,-504.765C130.712,-496.283 136.147,-485.714 141.041,-476.197"/>
<polygon fill="black" stroke="black" points="144.235,-477.641 145.696,-467.147 138.01,-474.439 144.235,-477.641"/>
</g>
<!-- 5 -->
<g id="node6" class="node"><title>5</title>
<ellipse fill="none" stroke="black" cx="27" cy="-378" rx="27" ry="18"/>
</g>
<!-- 4&#45;&gt;5 -->
<g id="edge6" class="edge"><title>4&#45;&gt;5</title>
<path fill="none" stroke="black" d="M70.0658,-433.811C62.7864,-424.546 53.3374,-412.52 45.1456,-402.094"/>
<polygon fill="black" stroke="black" points="47.8413,-399.86 38.9109,-394.159 42.337,-404.185 47.8413,-399.86"/>
</g>
<!-- 6 -->
<g id="node7" class="node"><title>6</title>
<ellipse fill="none" stroke="black" cx="99" cy="-378" rx="27" ry="18"/>
</g>
<!-- 4&#45;&gt;6 -->
<g id="edge7" class="edge"><title>4&#45;&gt;6</title>
<path fill="none" stroke="black" d="M86.1152,-432.055C88.0081,-424.261 90.3004,-414.822 92.4237,-406.079"/>
<polygon fill="black" stroke="black" points="95.8457,-406.819 94.8046,-396.275 89.0434,-405.167 95.8457,-406.819"/>
</g>
<!-- 7 -->
<g id="node8" class="node"><title>7</title>
<ellipse fill="none" stroke="black" cx="126" cy="-306" rx="27" ry="18"/>
</g>
<!-- 6&#45;&gt;7 -->
<g id="edge8" class="edge"><title>6&#45;&gt;7</title>
<path fill="none" stroke="black" d="M105.399,-360.411C108.514,-352.335 112.334,-342.431 115.835,-333.355"/>
<polygon fill="black" stroke="black" points="119.126,-334.546 119.46,-323.956 112.595,-332.027 119.126,-334.546"/>
</g>
<!-- 9 -->
<g id="node10" class="node"><title>9</title>
<ellipse fill="none" stroke="black" cx="126" cy="-234" rx="27" ry="18"/>
</g>
<!-- 7&#45;&gt;9 -->
<g id="edge9" class="edge"><title>7&#45;&gt;9</title>
<path fill="none" stroke="black" d="M126,-287.697C126,-279.983 126,-270.712 126,-262.112"/>
<polygon fill="black" stroke="black" points="129.5,-262.104 126,-252.104 122.5,-262.104 129.5,-262.104"/>
</g>
<!-- 8&#45;&gt;7 -->
<g id="edge10" class="edge"><title>8&#45;&gt;7</title>
<path fill="none" stroke="black" d="M150.623,-431.871C145.829,-407.564 137.007,-362.819 131.327,-334.013"/>
<polygon fill="black" stroke="black" points="134.758,-333.323 129.389,-324.189 127.89,-334.677 134.758,-333.323"/>
</g>
<!-- 10 -->
<g id="node11" class="node"><title>10</title>
<ellipse fill="none" stroke="black" cx="126" cy="-162" rx="27" ry="18"/>
</g>
<!-- 9&#45;&gt;10 -->
<g id="edge11" class="edge"><title>9&#45;&gt;10</title>
<path fill="none" stroke="black" d="M126,-215.697C126,-207.983 126,-198.712 126,-190.112"/>
<polygon fill="black" stroke="black" points="129.5,-190.104 126,-180.104 122.5,-190.104 129.5,-190.104"/>
</g>
<!-- 11 -->
<g id="node12" class="node"><title>11</title>
<ellipse fill="none" stroke="black" cx="126" cy="-90" rx="27" ry="18"/>
</g>
<!-- 10&#45;&gt;11 -->
<g id="edge12" class="edge"><title>10&#45;&gt;11</title>
<path fill="none" stroke="black" d="M126,-143.697C126,-135.983 126,-126.712 126,-118.112"/>
<polygon fill="black" stroke="black" points="129.5,-118.104 126,-108.104 122.5,-118.104 129.5,-118.104"/>
</g>
<!-- 12 -->
<g id="node13" class="node"><title>12</title>
<ellipse fill="blue" stroke="black" cx="126" cy="-18" rx="27" ry="18"/>
</g>
<!-- 11&#45;&gt;12 -->
<g id="edge13" class="edge"><title>11&#45;&gt;12</title>
<path fill="none" stroke="black" d="M126,-71.6966C126,-63.9827 126,-54.7125 126,-46.1124"/>
<polygon fill="black" stroke="black" points="129.5,-46.1043 126,-36.1043 122.5,-46.1044 129.5,-46.1043"/>
</g>
</g>
</svg>
