<?xml version="1.0" encoding="UTF-8" standalone="no"?>
<!DOCTYPE svg PUBLIC "-//W3C//DTD SVG 1.1//EN"
 "http://www.w3.org/Graphics/SVG/1.1/DTD/svg11.dtd">
<!-- Generated by graphviz version 2.38.0 (20140413.2041)
 -->
<!-- Title: Grafo Pages: 1 -->
<svg width="320pt" height="3284pt"
 viewBox="0.00 0.00 320.00 3284.00" xmlns="http://www.w3.org/2000/svg" xmlns:xlink="http://www.w3.org/1999/xlink">
<g id="graph0" class="graph" transform="scale(1 1) rotate(0) translate(4 3280)">
<title>Grafo</title>
<polygon fill="white" stroke="none" points="-4,4 -4,-3280 316,-3280 316,4 -4,4"/>
<!-- 0 -->
<g id="node1" class="node"><title>0</title>
<ellipse fill="red" stroke="black" cx="63" cy="-3258" rx="27" ry="18"/>
</g>
<!-- 1 -->
<g id="node2" class="node"><title>1</title>
<ellipse fill="none" stroke="black" cx="63" cy="-3186" rx="27" ry="18"/>
</g>
<!-- 0&#45;&gt;1 -->
<g id="edge1" class="edge"><title>0&#45;&gt;1</title>
<path fill="none" stroke="black" d="M63,-3239.7C63,-3231.98 63,-3222.71 63,-3214.11"/>
<polygon fill="black" stroke="black" points="66.5001,-3214.1 63,-3204.1 59.5001,-3214.1 66.5001,-3214.1"/>
</g>
<!-- 2 -->
<g id="node3" class="node"><title>2</title>
<ellipse fill="none" stroke="black" cx="27" cy="-3114" rx="27" ry="18"/>
</g>
<!-- 1&#45;&gt;2 -->
<g id="edge2" class="edge"><title>1&#45;&gt;2</title>
<path fill="none" stroke="black" d="M54.6504,-3168.76C50.2885,-3160.28 44.8531,-3149.71 39.9587,-3140.2"/>
<polygon fill="black" stroke="black" points="42.9904,-3138.44 35.3043,-3131.15 36.7654,-3141.64 42.9904,-3138.44"/>
</g>
<!-- 5 -->
<g id="node6" class="node"><title>5</title>
<ellipse fill="none" stroke="black" cx="99" cy="-3114" rx="27" ry="18"/>
</g>
<!-- 1&#45;&gt;5 -->
<g id="edge3" class="edge"><title>1&#45;&gt;5</title>
<path fill="none" stroke="black" d="M71.3496,-3168.76C75.7115,-3160.28 81.1469,-3149.71 86.0413,-3140.2"/>
<polygon fill="black" stroke="black" points="89.2346,-3141.64 90.6957,-3131.15 83.0096,-3138.44 89.2346,-3141.64"/>
</g>
<!-- 3 -->
<g id="node4" class="node"><title>3</title>
<ellipse fill="none" stroke="black" cx="27" cy="-3042" rx="27" ry="18"/>
</g>
<!-- 2&#45;&gt;3 -->
<g id="edge4" class="edge"><title>2&#45;&gt;3</title>
<path fill="none" stroke="black" d="M27,-3095.7C27,-3087.98 27,-3078.71 27,-3070.11"/>
<polygon fill="black" stroke="black" points="30.5001,-3070.1 27,-3060.1 23.5001,-3070.1 30.5001,-3070.1"/>
</g>
<!-- 4 -->
<g id="node5" class="node"><title>4</title>
<ellipse fill="none" stroke="black" cx="63" cy="-2970" rx="27" ry="18"/>
</g>
<!-- 3&#45;&gt;4 -->
<g id="edge5" class="edge"><title>3&#45;&gt;4</title>
<path fill="none" stroke="black" d="M35.3496,-3024.76C39.7115,-3016.28 45.1469,-3005.71 50.0413,-2996.2"/>
<polygon fill="black" stroke="black" points="53.2346,-2997.64 54.6957,-2987.15 47.0096,-2994.44 53.2346,-2997.64"/>
</g>
<!-- 7 -->
<g id="node8" class="node"><title>7</title>
<ellipse fill="none" stroke="black" cx="63" cy="-2898" rx="27" ry="18"/>
</g>
<!-- 4&#45;&gt;7 -->
<g id="edge6" class="edge"><title>4&#45;&gt;7</title>
<path fill="none" stroke="black" d="M63,-2951.7C63,-2943.98 63,-2934.71 63,-2926.11"/>
<polygon fill="black" stroke="black" points="66.5001,-2926.1 63,-2916.1 59.5001,-2926.1 66.5001,-2926.1"/>
</g>
<!-- 6 -->
<g id="node7" class="node"><title>6</title>
<ellipse fill="none" stroke="black" cx="99" cy="-3042" rx="27" ry="18"/>
</g>
<!-- 5&#45;&gt;6 -->
<g id="edge7" class="edge"><title>5&#45;&gt;6</title>
<path fill="none" stroke="black" d="M99,-3095.7C99,-3087.98 99,-3078.71 99,-3070.11"/>
<polygon fill="black" stroke="black" points="102.5,-3070.1 99,-3060.1 95.5001,-3070.1 102.5,-3070.1"/>
</g>
<!-- 6&#45;&gt;4 -->
<g id="edge8" class="edge"><title>6&#45;&gt;4</title>
<path fill="none" stroke="black" d="M85.9905,-3015.7C81.0923,-3006.18 75.6588,-2995.61 71.3043,-2987.15"/>
<polygon fill="black" stroke="black" points="82.9643,-3017.47 90.6504,-3024.76 89.1894,-3014.27 82.9643,-3017.47"/>
</g>
<!-- 8 -->
<g id="node9" class="node"><title>8</title>
<ellipse fill="none" stroke="black" cx="36" cy="-2826" rx="27" ry="18"/>
</g>
<!-- 7&#45;&gt;8 -->
<g id="edge9" class="edge"><title>7&#45;&gt;8</title>
<path fill="none" stroke="black" d="M56.6014,-2880.41C53.4864,-2872.34 49.6663,-2862.43 46.1654,-2853.35"/>
<polygon fill="black" stroke="black" points="49.4045,-2852.03 42.5403,-2843.96 42.8735,-2854.55 49.4045,-2852.03"/>
</g>
<!-- 12 -->
<g id="node13" class="node"><title>12</title>
<ellipse fill="none" stroke="black" cx="104" cy="-2754" rx="27" ry="18"/>
</g>
<!-- 7&#45;&gt;12 -->
<g id="edge10" class="edge"><title>7&#45;&gt;12</title>
<path fill="none" stroke="black" d="M67.8642,-2880.15C74.892,-2855.81 87.9557,-2810.57 96.3009,-2781.67"/>
<polygon fill="black" stroke="black" points="99.7306,-2782.4 99.1421,-2771.82 93.0054,-2780.46 99.7306,-2782.4"/>
</g>
<!-- 9 -->
<g id="node10" class="node"><title>9</title>
<ellipse fill="none" stroke="black" cx="32" cy="-2754" rx="27" ry="18"/>
</g>
<!-- 8&#45;&gt;9 -->
<g id="edge11" class="edge"><title>8&#45;&gt;9</title>
<path fill="none" stroke="black" d="M35.0112,-2807.7C34.5704,-2799.98 34.0407,-2790.71 33.5493,-2782.11"/>
<polygon fill="black" stroke="black" points="37.0423,-2781.89 32.9774,-2772.1 30.0537,-2782.29 37.0423,-2781.89"/>
</g>
<!-- 10 -->
<g id="node11" class="node"><title>10</title>
<ellipse fill="none" stroke="black" cx="40" cy="-2682" rx="27" ry="18"/>
</g>
<!-- 9&#45;&gt;10 -->
<g id="edge12" class="edge"><title>9&#45;&gt;10</title>
<path fill="none" stroke="black" d="M33.9775,-2735.7C34.8591,-2727.98 35.9186,-2718.71 36.9014,-2710.11"/>
<polygon fill="black" stroke="black" points="40.387,-2710.44 38.0452,-2700.1 33.4323,-2709.64 40.387,-2710.44"/>
</g>
<!-- 11 -->
<g id="node12" class="node"><title>11</title>
<ellipse fill="none" stroke="black" cx="69" cy="-2610" rx="27" ry="18"/>
</g>
<!-- 10&#45;&gt;11 -->
<g id="edge13" class="edge"><title>10&#45;&gt;11</title>
<path fill="none" stroke="black" d="M46.8726,-2664.41C50.2675,-2656.22 54.4422,-2646.14 58.2473,-2636.95"/>
<polygon fill="black" stroke="black" points="61.5828,-2638.05 62.1767,-2627.47 55.1158,-2635.37 61.5828,-2638.05"/>
</g>
<!-- 13 -->
<g id="node14" class="node"><title>13</title>
<ellipse fill="none" stroke="black" cx="69" cy="-2538" rx="27" ry="18"/>
</g>
<!-- 11&#45;&gt;13 -->
<g id="edge14" class="edge"><title>11&#45;&gt;13</title>
<path fill="none" stroke="black" d="M69,-2591.7C69,-2583.98 69,-2574.71 69,-2566.11"/>
<polygon fill="black" stroke="black" points="72.5001,-2566.1 69,-2556.1 65.5001,-2566.1 72.5001,-2566.1"/>
</g>
<!-- 12&#45;&gt;11 -->
<g id="edge15" class="edge"><title>12&#45;&gt;11</title>
<path fill="none" stroke="black" d="M97.4212,-2726.31C90.2948,-2697.4 79.1432,-2652.15 73.147,-2627.82"/>
<polygon fill="black" stroke="black" points="94.0561,-2727.28 99.8476,-2736.15 100.853,-2725.61 94.0561,-2727.28"/>
</g>
<!-- 14 -->
<g id="node15" class="node"><title>14</title>
<ellipse fill="none" stroke="black" cx="69" cy="-2466" rx="27" ry="18"/>
</g>
<!-- 13&#45;&gt;14 -->
<g id="edge16" class="edge"><title>13&#45;&gt;14</title>
<path fill="none" stroke="black" d="M63.1601,-2520.41C62.2975,-2512.51 62.0481,-2502.85 62.4119,-2493.94"/>
<polygon fill="black" stroke="black" points="65.9033,-2494.18 63.1206,-2483.96 58.9209,-2493.68 65.9033,-2494.18"/>
</g>
<!-- 15 -->
<g id="node16" class="node"><title>15</title>
<ellipse fill="none" stroke="black" cx="141" cy="-2466" rx="27" ry="18"/>
</g>
<!-- 13&#45;&gt;15 -->
<g id="edge17" class="edge"><title>13&#45;&gt;15</title>
<path fill="none" stroke="black" d="M83.5703,-2522.83C93.7499,-2512.94 107.524,-2499.55 119.031,-2488.36"/>
<polygon fill="black" stroke="black" points="121.474,-2490.87 126.204,-2481.38 116.595,-2485.85 121.474,-2490.87"/>
</g>
<!-- 14&#45;&gt;13 -->
<g id="edge18" class="edge"><title>14&#45;&gt;13</title>
<path fill="none" stroke="black" d="M75.5881,-2493.94C75.9519,-2502.85 75.7025,-2512.51 74.8399,-2520.41"/>
<polygon fill="black" stroke="black" points="79.0791,-2493.68 74.8794,-2483.96 72.0967,-2494.18 79.0791,-2493.68"/>
</g>
<!-- 16 -->
<g id="node17" class="node"><title>16</title>
<ellipse fill="none" stroke="black" cx="141" cy="-2394" rx="27" ry="18"/>
</g>
<!-- 15&#45;&gt;16 -->
<g id="edge19" class="edge"><title>15&#45;&gt;16</title>
<path fill="none" stroke="black" d="M141,-2447.7C141,-2439.98 141,-2430.71 141,-2422.11"/>
<polygon fill="black" stroke="black" points="144.5,-2422.1 141,-2412.1 137.5,-2422.1 144.5,-2422.1"/>
</g>
<!-- 17 -->
<g id="node18" class="node"><title>17</title>
<ellipse fill="none" stroke="black" cx="141" cy="-2322" rx="27" ry="18"/>
</g>
<!-- 16&#45;&gt;17 -->
<g id="edge20" class="edge"><title>16&#45;&gt;17</title>
<path fill="none" stroke="black" d="M135.16,-2376.41C134.297,-2368.51 134.048,-2358.85 134.412,-2349.94"/>
<polygon fill="black" stroke="black" points="137.903,-2350.18 135.121,-2339.96 130.921,-2349.68 137.903,-2350.18"/>
</g>
<!-- 18 -->
<g id="node19" class="node"><title>18</title>
<ellipse fill="none" stroke="black" cx="213" cy="-2322" rx="27" ry="18"/>
</g>
<!-- 16&#45;&gt;18 -->
<g id="edge21" class="edge"><title>16&#45;&gt;18</title>
<path fill="none" stroke="black" d="M155.57,-2378.83C165.75,-2368.94 179.524,-2355.55 191.031,-2344.36"/>
<polygon fill="black" stroke="black" points="193.474,-2346.87 198.204,-2337.38 188.595,-2341.85 193.474,-2346.87"/>
</g>
<!-- 17&#45;&gt;16 -->
<g id="edge22" class="edge"><title>17&#45;&gt;16</title>
<path fill="none" stroke="black" d="M147.588,-2349.94C147.952,-2358.85 147.703,-2368.51 146.84,-2376.41"/>
<polygon fill="black" stroke="black" points="151.079,-2349.68 146.879,-2339.96 144.097,-2350.18 151.079,-2349.68"/>
</g>
<!-- 19 -->
<g id="node20" class="node"><title>19</title>
<ellipse fill="none" stroke="black" cx="213" cy="-2250" rx="27" ry="18"/>
</g>
<!-- 18&#45;&gt;19 -->
<g id="edge23" class="edge"><title>18&#45;&gt;19</title>
<path fill="none" stroke="black" d="M213,-2303.7C213,-2295.98 213,-2286.71 213,-2278.11"/>
<polygon fill="black" stroke="black" points="216.5,-2278.1 213,-2268.1 209.5,-2278.1 216.5,-2278.1"/>
</g>
<!-- 20 -->
<g id="node21" class="node"><title>20</title>
<ellipse fill="none" stroke="black" cx="213" cy="-2178" rx="27" ry="18"/>
</g>
<!-- 19&#45;&gt;20 -->
<g id="edge24" class="edge"><title>19&#45;&gt;20</title>
<path fill="none" stroke="black" d="M213,-2231.7C213,-2223.98 213,-2214.71 213,-2206.11"/>
<polygon fill="black" stroke="black" points="216.5,-2206.1 213,-2196.1 209.5,-2206.1 216.5,-2206.1"/>
</g>
<!-- 21 -->
<g id="node22" class="node"><title>21</title>
<ellipse fill="none" stroke="black" cx="213" cy="-2106" rx="27" ry="18"/>
</g>
<!-- 20&#45;&gt;21 -->
<g id="edge25" class="edge"><title>20&#45;&gt;21</title>
<path fill="none" stroke="black" d="M213,-2159.7C213,-2151.98 213,-2142.71 213,-2134.11"/>
<polygon fill="black" stroke="black" points="216.5,-2134.1 213,-2124.1 209.5,-2134.1 216.5,-2134.1"/>
</g>
<!-- 22 -->
<g id="node23" class="node"><title>22</title>
<ellipse fill="none" stroke="black" cx="213" cy="-2034" rx="27" ry="18"/>
</g>
<!-- 21&#45;&gt;22 -->
<g id="edge26" class="edge"><title>21&#45;&gt;22</title>
<path fill="none" stroke="black" d="M213,-2087.7C213,-2079.98 213,-2070.71 213,-2062.11"/>
<polygon fill="black" stroke="black" points="216.5,-2062.1 213,-2052.1 209.5,-2062.1 216.5,-2062.1"/>
</g>
<!-- 23 -->
<g id="node24" class="node"><title>23</title>
<ellipse fill="none" stroke="black" cx="213" cy="-1962" rx="27" ry="18"/>
</g>
<!-- 22&#45;&gt;23 -->
<g id="edge27" class="edge"><title>22&#45;&gt;23</title>
<path fill="none" stroke="black" d="M213,-2015.7C213,-2007.98 213,-1998.71 213,-1990.11"/>
<polygon fill="black" stroke="black" points="216.5,-1990.1 213,-1980.1 209.5,-1990.1 216.5,-1990.1"/>
</g>
<!-- 24 -->
<g id="node25" class="node"><title>24</title>
<ellipse fill="none" stroke="black" cx="213" cy="-1890" rx="27" ry="18"/>
</g>
<!-- 23&#45;&gt;24 -->
<g id="edge28" class="edge"><title>23&#45;&gt;24</title>
<path fill="none" stroke="black" d="M213,-1943.7C213,-1935.98 213,-1926.71 213,-1918.11"/>
<polygon fill="black" stroke="black" points="216.5,-1918.1 213,-1908.1 209.5,-1918.1 216.5,-1918.1"/>
</g>
<!-- 25 -->
<g id="node26" class="node"><title>25</title>
<ellipse fill="none" stroke="black" cx="213" cy="-1818" rx="27" ry="18"/>
</g>
<!-- 24&#45;&gt;25 -->
<g id="edge29" class="edge"><title>24&#45;&gt;25</title>
<path fill="none" stroke="black" d="M213,-1871.7C213,-1863.98 213,-1854.71 213,-1846.11"/>
<polygon fill="black" stroke="black" points="216.5,-1846.1 213,-1836.1 209.5,-1846.1 216.5,-1846.1"/>
</g>
<!-- 26 -->
<g id="node27" class="node"><title>26</title>
<ellipse fill="none" stroke="black" cx="213" cy="-1746" rx="27" ry="18"/>
</g>
<!-- 25&#45;&gt;26 -->
<g id="edge30" class="edge"><title>25&#45;&gt;26</title>
<path fill="none" stroke="black" d="M213,-1799.7C213,-1791.98 213,-1782.71 213,-1774.11"/>
<polygon fill="black" stroke="black" points="216.5,-1774.1 213,-1764.1 209.5,-1774.1 216.5,-1774.1"/>
</g>
<!-- 27 -->
<g id="node28" class="node"><title>27</title>
<ellipse fill="none" stroke="black" cx="213" cy="-1674" rx="27" ry="18"/>
</g>
<!-- 26&#45;&gt;27 -->
<g id="edge31" class="edge"><title>26&#45;&gt;27</title>
<path fill="none" stroke="black" d="M213,-1727.7C213,-1719.98 213,-1710.71 213,-1702.11"/>
<polygon fill="black" stroke="black" points="216.5,-1702.1 213,-1692.1 209.5,-1702.1 216.5,-1702.1"/>
</g>
<!-- 28 -->
<g id="node29" class="node"><title>28</title>
<ellipse fill="none" stroke="black" cx="158" cy="-1602" rx="27" ry="18"/>
</g>
<!-- 27&#45;&gt;28 -->
<g id="edge32" class="edge"><title>27&#45;&gt;28</title>
<path fill="none" stroke="black" d="M201.066,-1657.81C193.786,-1648.55 184.337,-1636.52 176.146,-1626.09"/>
<polygon fill="black" stroke="black" points="178.841,-1623.86 169.911,-1618.16 173.337,-1628.18 178.841,-1623.86"/>
</g>
<!-- 37 -->
<g id="node38" class="node"><title>37</title>
<ellipse fill="none" stroke="black" cx="276" cy="-1602" rx="27" ry="18"/>
</g>
<!-- 27&#45;&gt;37 -->
<g id="edge33" class="edge"><title>27&#45;&gt;37</title>
<path fill="none" stroke="black" d="M226.361,-1658.15C234.88,-1648.69 246.085,-1636.24 255.693,-1625.56"/>
<polygon fill="black" stroke="black" points="258.57,-1627.6 262.659,-1617.82 253.367,-1622.92 258.57,-1627.6"/>
</g>
<!-- 29 -->
<g id="node30" class="node"><title>29</title>
<ellipse fill="none" stroke="black" cx="158" cy="-1530" rx="27" ry="18"/>
</g>
<!-- 28&#45;&gt;29 -->
<g id="edge34" class="edge"><title>28&#45;&gt;29</title>
<path fill="none" stroke="black" d="M158,-1583.7C158,-1575.98 158,-1566.71 158,-1558.11"/>
<polygon fill="black" stroke="black" points="161.5,-1558.1 158,-1548.1 154.5,-1558.1 161.5,-1558.1"/>
</g>
<!-- 30 -->
<g id="node31" class="node"><title>30</title>
<ellipse fill="none" stroke="black" cx="103" cy="-1458" rx="27" ry="18"/>
</g>
<!-- 29&#45;&gt;30 -->
<g id="edge35" class="edge"><title>29&#45;&gt;30</title>
<path fill="none" stroke="black" d="M146.066,-1513.81C138.786,-1504.55 129.337,-1492.52 121.146,-1482.09"/>
<polygon fill="black" stroke="black" points="123.841,-1479.86 114.911,-1474.16 118.337,-1484.18 123.841,-1479.86"/>
</g>
<!-- 36 -->
<g id="node37" class="node"><title>36</title>
<ellipse fill="none" stroke="black" cx="213" cy="-1458" rx="27" ry="18"/>
</g>
<!-- 29&#45;&gt;36 -->
<g id="edge36" class="edge"><title>29&#45;&gt;36</title>
<path fill="none" stroke="black" d="M169.934,-1513.81C177.214,-1504.55 186.663,-1492.52 194.854,-1482.09"/>
<polygon fill="black" stroke="black" points="197.663,-1484.18 201.089,-1474.16 192.159,-1479.86 197.663,-1484.18"/>
</g>
<!-- 31 -->
<g id="node32" class="node"><title>31</title>
<ellipse fill="none" stroke="black" cx="103" cy="-1386" rx="27" ry="18"/>
</g>
<!-- 30&#45;&gt;31 -->
<g id="edge37" class="edge"><title>30&#45;&gt;31</title>
<path fill="none" stroke="black" d="M103,-1439.7C103,-1431.98 103,-1422.71 103,-1414.11"/>
<polygon fill="black" stroke="black" points="106.5,-1414.1 103,-1404.1 99.5001,-1414.1 106.5,-1414.1"/>
</g>
<!-- 32 -->
<g id="node33" class="node"><title>32</title>
<ellipse fill="none" stroke="black" cx="40" cy="-1314" rx="27" ry="18"/>
</g>
<!-- 31&#45;&gt;32 -->
<g id="edge38" class="edge"><title>31&#45;&gt;32</title>
<path fill="none" stroke="black" d="M89.6393,-1370.15C81.1197,-1360.69 69.9146,-1348.24 60.3065,-1337.56"/>
<polygon fill="black" stroke="black" points="62.6326,-1334.92 53.3414,-1329.82 57.4296,-1339.6 62.6326,-1334.92"/>
</g>
<!-- 35 -->
<g id="node36" class="node"><title>35</title>
<ellipse fill="none" stroke="black" cx="158" cy="-1314" rx="27" ry="18"/>
</g>
<!-- 31&#45;&gt;35 -->
<g id="edge39" class="edge"><title>31&#45;&gt;35</title>
<path fill="none" stroke="black" d="M114.934,-1369.81C122.214,-1360.55 131.663,-1348.52 139.854,-1338.09"/>
<polygon fill="black" stroke="black" points="142.663,-1340.18 146.089,-1330.16 137.159,-1335.86 142.663,-1340.18"/>
</g>
<!-- 33 -->
<g id="node34" class="node"><title>33</title>
<ellipse fill="none" stroke="black" cx="36" cy="-1242" rx="27" ry="18"/>
</g>
<!-- 32&#45;&gt;33 -->
<g id="edge40" class="edge"><title>32&#45;&gt;33</title>
<path fill="none" stroke="black" d="M33.2121,-1296.41C31.9122,-1288.59 31.1142,-1279.06 30.956,-1270.23"/>
<polygon fill="black" stroke="black" points="34.4591,-1270 31.0895,-1259.96 27.4597,-1269.91 34.4591,-1270"/>
</g>
<!-- 34 -->
<g id="node35" class="node"><title>34</title>
<ellipse fill="none" stroke="black" cx="108" cy="-1242" rx="27" ry="18"/>
</g>
<!-- 32&#45;&gt;34 -->
<g id="edge41" class="edge"><title>32&#45;&gt;34</title>
<path fill="none" stroke="black" d="M54.0896,-1298.5C63.5719,-1288.73 76.2443,-1275.69 86.9201,-1264.7"/>
<polygon fill="black" stroke="black" points="89.471,-1267.1 93.9284,-1257.49 84.45,-1262.22 89.471,-1267.1"/>
</g>
<!-- 33&#45;&gt;32 -->
<g id="edge42" class="edge"><title>33&#45;&gt;32</title>
<path fill="none" stroke="black" d="M44.1314,-1269.98C44.9885,-1278.75 45.2931,-1288.23 44.9099,-1296.05"/>
<polygon fill="black" stroke="black" points="47.5682,-1269.26 42.8209,-1259.79 40.6254,-1270.15 47.5682,-1269.26"/>
</g>
<!-- 34&#45;&gt;31 -->
<g id="edge43" class="edge"><title>34&#45;&gt;31</title>
<path fill="none" stroke="black" d="M107.035,-1270.39C106.021,-1299.21 104.455,-1343.67 103.603,-1367.87"/>
<polygon fill="black" stroke="black" points="110.541,-1270.31 107.395,-1260.19 103.545,-1270.06 110.541,-1270.31"/>
</g>
<!-- 35&#45;&gt;29 -->
<g id="edge44" class="edge"><title>35&#45;&gt;29</title>
<path fill="none" stroke="black" d="M158,-1342.39C158,-1387.18 158,-1474.83 158,-1511.85"/>
<polygon fill="black" stroke="black" points="161.5,-1342.23 158,-1332.23 154.5,-1342.23 161.5,-1342.23"/>
</g>
<!-- 36&#45;&gt;27 -->
<g id="edge45" class="edge"><title>36&#45;&gt;27</title>
<path fill="none" stroke="black" d="M213,-1486.39C213,-1531.18 213,-1618.83 213,-1655.85"/>
<polygon fill="black" stroke="black" points="216.5,-1486.23 213,-1476.23 209.5,-1486.23 216.5,-1486.23"/>
</g>
<!-- 38 -->
<g id="node39" class="node"><title>38</title>
<ellipse fill="none" stroke="black" cx="276" cy="-1530" rx="27" ry="18"/>
</g>
<!-- 37&#45;&gt;38 -->
<g id="edge46" class="edge"><title>37&#45;&gt;38</title>
<path fill="none" stroke="black" d="M276,-1583.7C276,-1575.98 276,-1566.71 276,-1558.11"/>
<polygon fill="black" stroke="black" points="279.5,-1558.1 276,-1548.1 272.5,-1558.1 279.5,-1558.1"/>
</g>
<!-- 39 -->
<g id="node40" class="node"><title>39</title>
<ellipse fill="none" stroke="black" cx="285" cy="-1458" rx="27" ry="18"/>
</g>
<!-- 38&#45;&gt;39 -->
<g id="edge47" class="edge"><title>38&#45;&gt;39</title>
<path fill="none" stroke="black" d="M278.179,-1512.05C279.17,-1504.35 280.368,-1495.03 281.482,-1486.36"/>
<polygon fill="black" stroke="black" points="284.975,-1486.64 282.779,-1476.28 278.032,-1485.75 284.975,-1486.64"/>
</g>
<!-- 40 -->
<g id="node41" class="node"><title>40</title>
<ellipse fill="none" stroke="black" cx="285" cy="-1386" rx="27" ry="18"/>
</g>
<!-- 39&#45;&gt;40 -->
<g id="edge48" class="edge"><title>39&#45;&gt;40</title>
<path fill="none" stroke="black" d="M285,-1439.7C285,-1431.98 285,-1422.71 285,-1414.11"/>
<polygon fill="black" stroke="black" points="288.5,-1414.1 285,-1404.1 281.5,-1414.1 288.5,-1414.1"/>
</g>
<!-- 41 -->
<g id="node42" class="node"><title>41</title>
<ellipse fill="none" stroke="black" cx="285" cy="-1314" rx="27" ry="18"/>
</g>
<!-- 40&#45;&gt;41 -->
<g id="edge49" class="edge"><title>40&#45;&gt;41</title>
<path fill="none" stroke="black" d="M285,-1367.7C285,-1359.98 285,-1350.71 285,-1342.11"/>
<polygon fill="black" stroke="black" points="288.5,-1342.1 285,-1332.1 281.5,-1342.1 288.5,-1342.1"/>
</g>
<!-- 42 -->
<g id="node43" class="node"><title>42</title>
<ellipse fill="none" stroke="black" cx="285" cy="-1242" rx="27" ry="18"/>
</g>
<!-- 41&#45;&gt;42 -->
<g id="edge50" class="edge"><title>41&#45;&gt;42</title>
<path fill="none" stroke="black" d="M285,-1295.7C285,-1287.98 285,-1278.71 285,-1270.11"/>
<polygon fill="black" stroke="black" points="288.5,-1270.1 285,-1260.1 281.5,-1270.1 288.5,-1270.1"/>
</g>
<!-- 43 -->
<g id="node44" class="node"><title>43</title>
<ellipse fill="none" stroke="black" cx="285" cy="-1170" rx="27" ry="18"/>
</g>
<!-- 42&#45;&gt;43 -->
<g id="edge51" class="edge"><title>42&#45;&gt;43</title>
<path fill="none" stroke="black" d="M285,-1223.7C285,-1215.98 285,-1206.71 285,-1198.11"/>
<polygon fill="black" stroke="black" points="288.5,-1198.1 285,-1188.1 281.5,-1198.1 288.5,-1198.1"/>
</g>
<!-- 44 -->
<g id="node45" class="node"><title>44</title>
<ellipse fill="none" stroke="black" cx="285" cy="-1098" rx="27" ry="18"/>
</g>
<!-- 43&#45;&gt;44 -->
<g id="edge52" class="edge"><title>43&#45;&gt;44</title>
<path fill="none" stroke="black" d="M285,-1151.7C285,-1143.98 285,-1134.71 285,-1126.11"/>
<polygon fill="black" stroke="black" points="288.5,-1126.1 285,-1116.1 281.5,-1126.1 288.5,-1126.1"/>
</g>
<!-- 45 -->
<g id="node46" class="node"><title>45</title>
<ellipse fill="none" stroke="black" cx="285" cy="-1026" rx="27" ry="18"/>
</g>
<!-- 44&#45;&gt;45 -->
<g id="edge53" class="edge"><title>44&#45;&gt;45</title>
<path fill="none" stroke="black" d="M285,-1079.7C285,-1071.98 285,-1062.71 285,-1054.11"/>
<polygon fill="black" stroke="black" points="288.5,-1054.1 285,-1044.1 281.5,-1054.1 288.5,-1054.1"/>
</g>
<!-- 46 -->
<g id="node47" class="node"><title>46</title>
<ellipse fill="none" stroke="black" cx="285" cy="-954" rx="27" ry="18"/>
</g>
<!-- 45&#45;&gt;46 -->
<g id="edge54" class="edge"><title>45&#45;&gt;46</title>
<path fill="none" stroke="black" d="M285,-1007.7C285,-999.983 285,-990.712 285,-982.112"/>
<polygon fill="black" stroke="black" points="288.5,-982.104 285,-972.104 281.5,-982.104 288.5,-982.104"/>
</g>
<!-- 47 -->
<g id="node48" class="node"><title>47</title>
<ellipse fill="none" stroke="black" cx="285" cy="-882" rx="27" ry="18"/>
</g>
<!-- 46&#45;&gt;47 -->
<g id="edge55" class="edge"><title>46&#45;&gt;47</title>
<path fill="none" stroke="black" d="M285,-935.697C285,-927.983 285,-918.712 285,-910.112"/>
<polygon fill="black" stroke="black" points="288.5,-910.104 285,-900.104 281.5,-910.104 288.5,-910.104"/>
</g>
<!-- 48 -->
<g id="node49" class="node"><title>48</title>
<ellipse fill="none" stroke="black" cx="285" cy="-810" rx="27" ry="18"/>
</g>
<!-- 47&#45;&gt;48 -->
<g id="edge56" class="edge"><title>47&#45;&gt;48</title>
<path fill="none" stroke="black" d="M285,-863.697C285,-855.983 285,-846.712 285,-838.112"/>
<polygon fill="black" stroke="black" points="288.5,-838.104 285,-828.104 281.5,-838.104 288.5,-838.104"/>
</g>
<!-- 49 -->
<g id="node50" class="node"><title>49</title>
<ellipse fill="none" stroke="black" cx="285" cy="-738" rx="27" ry="18"/>
</g>
<!-- 48&#45;&gt;49 -->
<g id="edge57" class="edge"><title>48&#45;&gt;49</title>
<path fill="none" stroke="black" d="M285,-791.697C285,-783.983 285,-774.712 285,-766.112"/>
<polygon fill="black" stroke="black" points="288.5,-766.104 285,-756.104 281.5,-766.104 288.5,-766.104"/>
</g>
<!-- 50 -->
<g id="node51" class="node"><title>50</title>
<ellipse fill="none" stroke="black" cx="285" cy="-666" rx="27" ry="18"/>
</g>
<!-- 49&#45;&gt;50 -->
<g id="edge58" class="edge"><title>49&#45;&gt;50</title>
<path fill="none" stroke="black" d="M285,-719.697C285,-711.983 285,-702.712 285,-694.112"/>
<polygon fill="black" stroke="black" points="288.5,-694.104 285,-684.104 281.5,-694.104 288.5,-694.104"/>
</g>
<!-- 51 -->
<g id="node52" class="node"><title>51</title>
<ellipse fill="none" stroke="black" cx="285" cy="-594" rx="27" ry="18"/>
</g>
<!-- 50&#45;&gt;51 -->
<g id="edge59" class="edge"><title>50&#45;&gt;51</title>
<path fill="none" stroke="black" d="M285,-647.697C285,-639.983 285,-630.712 285,-622.112"/>
<polygon fill="black" stroke="black" points="288.5,-622.104 285,-612.104 281.5,-622.104 288.5,-622.104"/>
</g>
<!-- 52 -->
<g id="node53" class="node"><title>52</title>
<ellipse fill="none" stroke="black" cx="285" cy="-522" rx="27" ry="18"/>
</g>
<!-- 51&#45;&gt;52 -->
<g id="edge60" class="edge"><title>51&#45;&gt;52</title>
<path fill="none" stroke="black" d="M285,-575.697C285,-567.983 285,-558.712 285,-550.112"/>
<polygon fill="black" stroke="black" points="288.5,-550.104 285,-540.104 281.5,-550.104 288.5,-550.104"/>
</g>
<!-- 53 -->
<g id="node54" class="node"><title>53</title>
<ellipse fill="none" stroke="black" cx="285" cy="-450" rx="27" ry="18"/>
</g>
<!-- 52&#45;&gt;53 -->
<g id="edge61" class="edge"><title>52&#45;&gt;53</title>
<path fill="none" stroke="black" d="M285,-503.697C285,-495.983 285,-486.712 285,-478.112"/>
<polygon fill="black" stroke="black" points="288.5,-478.104 285,-468.104 281.5,-478.104 288.5,-478.104"/>
</g>
<!-- 54 -->
<g id="node55" class="node"><title>54</title>
<ellipse fill="none" stroke="black" cx="285" cy="-378" rx="27" ry="18"/>
</g>
<!-- 53&#45;&gt;54 -->
<g id="edge62" class="edge"><title>53&#45;&gt;54</title>
<path fill="none" stroke="black" d="M285,-431.697C285,-423.983 285,-414.712 285,-406.112"/>
<polygon fill="black" stroke="black" points="288.5,-406.104 285,-396.104 281.5,-406.104 288.5,-406.104"/>
</g>
<!-- 55 -->
<g id="node56" class="node"><title>55</title>
<ellipse fill="none" stroke="black" cx="285" cy="-306" rx="27" ry="18"/>
</g>
<!-- 54&#45;&gt;55 -->
<g id="edge63" class="edge"><title>54&#45;&gt;55</title>
<path fill="none" stroke="black" d="M285,-359.697C285,-351.983 285,-342.712 285,-334.112"/>
<polygon fill="black" stroke="black" points="288.5,-334.104 285,-324.104 281.5,-334.104 288.5,-334.104"/>
</g>
<!-- 56 -->
<g id="node57" class="node"><title>56</title>
<ellipse fill="none" stroke="black" cx="285" cy="-234" rx="27" ry="18"/>
</g>
<!-- 55&#45;&gt;56 -->
<g id="edge64" class="edge"><title>55&#45;&gt;56</title>
<path fill="none" stroke="black" d="M285,-287.697C285,-279.983 285,-270.712 285,-262.112"/>
<polygon fill="black" stroke="black" points="288.5,-262.104 285,-252.104 281.5,-262.104 288.5,-262.104"/>
</g>
<!-- 57 -->
<g id="node58" class="node"><title>57</title>
<ellipse fill="none" stroke="black" cx="285" cy="-162" rx="27" ry="18"/>
</g>
<!-- 56&#45;&gt;57 -->
<g id="edge65" class="edge"><title>56&#45;&gt;57</title>
<path fill="none" stroke="black" d="M285,-215.697C285,-207.983 285,-198.712 285,-190.112"/>
<polygon fill="black" stroke="black" points="288.5,-190.104 285,-180.104 281.5,-190.104 288.5,-190.104"/>
</g>
<!-- 58 -->
<g id="node59" class="node"><title>58</title>
<ellipse fill="none" stroke="black" cx="285" cy="-90" rx="27" ry="18"/>
</g>
<!-- 57&#45;&gt;58 -->
<g id="edge66" class="edge"><title>57&#45;&gt;58</title>
<path fill="none" stroke="black" d="M285,-143.697C285,-135.983 285,-126.712 285,-118.112"/>
<polygon fill="black" stroke="black" points="288.5,-118.104 285,-108.104 281.5,-118.104 288.5,-118.104"/>
</g>
<!-- 59 -->
<g id="node60" class="node"><title>59</title>
<ellipse fill="blue" stroke="black" cx="285" cy="-18" rx="27" ry="18"/>
</g>
<!-- 58&#45;&gt;59 -->
<g id="edge67" class="edge"><title>58&#45;&gt;59</title>
<path fill="none" stroke="black" d="M285,-71.6966C285,-63.9827 285,-54.7125 285,-46.1124"/>
<polygon fill="black" stroke="black" points="288.5,-46.1043 285,-36.1043 281.5,-46.1044 288.5,-46.1043"/>
</g>
</g>
</svg>
