<?xml version="1.0" encoding="UTF-8" standalone="no"?>
<!DOCTYPE svg PUBLIC "-//W3C//DTD SVG 1.1//EN"
 "http://www.w3.org/Graphics/SVG/1.1/DTD/svg11.dtd">
<!-- Generated by graphviz version 2.38.0 (20140413.2041)
 -->
<!-- Title: Grafo Pages: 1 -->
<svg width="327pt" height="3500pt"
 viewBox="0.00 0.00 327.00 3500.00" xmlns="http://www.w3.org/2000/svg" xmlns:xlink="http://www.w3.org/1999/xlink">
<g id="graph0" class="graph" transform="scale(1 1) rotate(0) translate(4 3496)">
<title>Grafo</title>
<polygon fill="white" stroke="none" points="-4,4 -4,-3496 323,-3496 323,4 -4,4"/>
<!-- main0 -->
<g id="node1" class="node"><title>main0</title>
<ellipse fill="red" stroke="black" cx="264" cy="-3474" rx="27" ry="18"/>
</g>
<!-- main1 -->
<g id="node2" class="node"><title>main1</title>
<ellipse fill="none" stroke="black" cx="264" cy="-3402" rx="27" ry="18"/>
</g>
<!-- main0&#45;&gt;main1 -->
<g id="edge1" class="edge"><title>main0&#45;&gt;main1</title>
<path fill="none" stroke="black" d="M264,-3455.7C264,-3447.98 264,-3438.71 264,-3430.11"/>
<polygon fill="black" stroke="black" points="267.5,-3430.1 264,-3420.1 260.5,-3430.1 267.5,-3430.1"/>
</g>
<!-- main2 -->
<g id="node3" class="node"><title>main2</title>
<ellipse fill="blue" stroke="black" cx="192" cy="-3330" rx="27" ry="18"/>
</g>
<!-- main1&#45;&gt;main2 -->
<g id="edge2" class="edge"><title>main1&#45;&gt;main2</title>
<path fill="none" stroke="black" d="M249.43,-3386.83C239.25,-3376.94 225.476,-3363.55 213.969,-3352.36"/>
<polygon fill="black" stroke="black" points="216.405,-3349.85 206.796,-3345.38 211.526,-3354.87 216.405,-3349.85"/>
</g>
<!-- prueba0 -->
<g id="node4" class="node"><title>prueba0</title>
<ellipse fill="none" stroke="black" cx="264" cy="-3330" rx="27" ry="18"/>
</g>
<!-- main1&#45;&gt;prueba0 -->
<g id="edge71" class="edge"><title>main1&#45;&gt;prueba0</title>
<path fill="none" stroke="black" d="M264,-3383.7C264,-3375.98 264,-3366.71 264,-3358.11"/>
<polygon fill="black" stroke="black" points="267.5,-3358.1 264,-3348.1 260.5,-3358.1 267.5,-3358.1"/>
</g>
<!-- prueba1 -->
<g id="node5" class="node"><title>prueba1</title>
<ellipse fill="none" stroke="black" cx="264" cy="-3258" rx="27" ry="18"/>
</g>
<!-- prueba0&#45;&gt;prueba1 -->
<g id="edge3" class="edge"><title>prueba0&#45;&gt;prueba1</title>
<path fill="none" stroke="black" d="M264,-3311.7C264,-3303.98 264,-3294.71 264,-3286.11"/>
<polygon fill="black" stroke="black" points="267.5,-3286.1 264,-3276.1 260.5,-3286.1 267.5,-3286.1"/>
</g>
<!-- prueba2 -->
<g id="node6" class="node"><title>prueba2</title>
<ellipse fill="none" stroke="black" cx="264" cy="-3186" rx="27" ry="18"/>
</g>
<!-- prueba1&#45;&gt;prueba2 -->
<g id="edge4" class="edge"><title>prueba1&#45;&gt;prueba2</title>
<path fill="none" stroke="black" d="M264,-3239.7C264,-3231.98 264,-3222.71 264,-3214.11"/>
<polygon fill="black" stroke="black" points="267.5,-3214.1 264,-3204.1 260.5,-3214.1 267.5,-3214.1"/>
</g>
<!-- prueba5 -->
<g id="node9" class="node"><title>prueba5</title>
<ellipse fill="none" stroke="black" cx="192" cy="-3186" rx="27" ry="18"/>
</g>
<!-- prueba1&#45;&gt;prueba5 -->
<g id="edge5" class="edge"><title>prueba1&#45;&gt;prueba5</title>
<path fill="none" stroke="black" d="M249.43,-3242.83C239.25,-3232.94 225.476,-3219.55 213.969,-3208.36"/>
<polygon fill="black" stroke="black" points="216.405,-3205.85 206.796,-3201.38 211.526,-3210.87 216.405,-3205.85"/>
</g>
<!-- prueba3 -->
<g id="node7" class="node"><title>prueba3</title>
<ellipse fill="none" stroke="black" cx="264" cy="-3114" rx="27" ry="18"/>
</g>
<!-- prueba2&#45;&gt;prueba3 -->
<g id="edge6" class="edge"><title>prueba2&#45;&gt;prueba3</title>
<path fill="none" stroke="black" d="M264,-3167.7C264,-3159.98 264,-3150.71 264,-3142.11"/>
<polygon fill="black" stroke="black" points="267.5,-3142.1 264,-3132.1 260.5,-3142.1 267.5,-3142.1"/>
</g>
<!-- prueba4 -->
<g id="node8" class="node"><title>prueba4</title>
<ellipse fill="none" stroke="black" cx="192" cy="-3042" rx="27" ry="18"/>
</g>
<!-- prueba3&#45;&gt;prueba4 -->
<g id="edge7" class="edge"><title>prueba3&#45;&gt;prueba4</title>
<path fill="none" stroke="black" d="M249.43,-3098.83C239.25,-3088.94 225.476,-3075.55 213.969,-3064.36"/>
<polygon fill="black" stroke="black" points="216.405,-3061.85 206.796,-3057.38 211.526,-3066.87 216.405,-3061.85"/>
</g>
<!-- prueba7 -->
<g id="node11" class="node"><title>prueba7</title>
<ellipse fill="none" stroke="black" cx="192" cy="-2970" rx="27" ry="18"/>
</g>
<!-- prueba4&#45;&gt;prueba7 -->
<g id="edge8" class="edge"><title>prueba4&#45;&gt;prueba7</title>
<path fill="none" stroke="black" d="M192,-3023.7C192,-3015.98 192,-3006.71 192,-2998.11"/>
<polygon fill="black" stroke="black" points="195.5,-2998.1 192,-2988.1 188.5,-2998.1 195.5,-2998.1"/>
</g>
<!-- prueba6 -->
<g id="node10" class="node"><title>prueba6</title>
<ellipse fill="none" stroke="black" cx="192" cy="-3114" rx="27" ry="18"/>
</g>
<!-- prueba5&#45;&gt;prueba6 -->
<g id="edge9" class="edge"><title>prueba5&#45;&gt;prueba6</title>
<path fill="none" stroke="black" d="M192,-3167.7C192,-3159.98 192,-3150.71 192,-3142.11"/>
<polygon fill="black" stroke="black" points="195.5,-3142.1 192,-3132.1 188.5,-3142.1 195.5,-3142.1"/>
</g>
<!-- prueba6&#45;&gt;prueba4 -->
<g id="edge10" class="edge"><title>prueba6&#45;&gt;prueba4</title>
<path fill="none" stroke="black" d="M192,-3095.7C192,-3087.98 192,-3078.71 192,-3070.11"/>
<polygon fill="black" stroke="black" points="195.5,-3070.1 192,-3060.1 188.5,-3070.1 195.5,-3070.1"/>
</g>
<!-- prueba8 -->
<g id="node12" class="node"><title>prueba8</title>
<ellipse fill="none" stroke="black" cx="244" cy="-2898" rx="27" ry="18"/>
</g>
<!-- prueba7&#45;&gt;prueba8 -->
<g id="edge11" class="edge"><title>prueba7&#45;&gt;prueba8</title>
<path fill="none" stroke="black" d="M203.54,-2953.46C210.273,-2944.4 218.901,-2932.79 226.46,-2922.61"/>
<polygon fill="black" stroke="black" points="229.338,-2924.61 232.492,-2914.49 223.719,-2920.43 229.338,-2924.61"/>
</g>
<!-- prueba12 -->
<g id="node16" class="node"><title>prueba12</title>
<ellipse fill="none" stroke="black" cx="179" cy="-2826" rx="27" ry="18"/>
</g>
<!-- prueba7&#45;&gt;prueba12 -->
<g id="edge12" class="edge"><title>prueba7&#45;&gt;prueba12</title>
<path fill="none" stroke="black" d="M190.432,-2951.87C188.216,-2927.67 184.146,-2883.21 181.508,-2854.39"/>
<polygon fill="black" stroke="black" points="184.971,-2853.83 180.574,-2844.19 178,-2854.47 184.971,-2853.83"/>
</g>
<!-- prueba9 -->
<g id="node13" class="node"><title>prueba9</title>
<ellipse fill="none" stroke="black" cx="251" cy="-2826" rx="27" ry="18"/>
</g>
<!-- prueba8&#45;&gt;prueba9 -->
<g id="edge13" class="edge"><title>prueba8&#45;&gt;prueba9</title>
<path fill="none" stroke="black" d="M245.73,-2879.7C246.502,-2871.98 247.429,-2862.71 248.289,-2854.11"/>
<polygon fill="black" stroke="black" points="251.777,-2854.4 249.29,-2844.1 244.812,-2853.71 251.777,-2854.4"/>
</g>
<!-- prueba10 -->
<g id="node14" class="node"><title>prueba10</title>
<ellipse fill="none" stroke="black" cx="246" cy="-2754" rx="27" ry="18"/>
</g>
<!-- prueba9&#45;&gt;prueba10 -->
<g id="edge14" class="edge"><title>prueba9&#45;&gt;prueba10</title>
<path fill="none" stroke="black" d="M249.764,-2807.7C249.213,-2799.98 248.551,-2790.71 247.937,-2782.11"/>
<polygon fill="black" stroke="black" points="251.425,-2781.83 247.222,-2772.1 244.443,-2782.33 251.425,-2781.83"/>
</g>
<!-- prueba11 -->
<g id="node15" class="node"><title>prueba11</title>
<ellipse fill="none" stroke="black" cx="243" cy="-2682" rx="27" ry="18"/>
</g>
<!-- prueba10&#45;&gt;prueba11 -->
<g id="edge15" class="edge"><title>prueba10&#45;&gt;prueba11</title>
<path fill="none" stroke="black" d="M245.258,-2735.7C244.928,-2727.98 244.531,-2718.71 244.162,-2710.11"/>
<polygon fill="black" stroke="black" points="247.658,-2709.95 243.733,-2700.1 240.665,-2710.25 247.658,-2709.95"/>
</g>
<!-- prueba13 -->
<g id="node17" class="node"><title>prueba13</title>
<ellipse fill="none" stroke="black" cx="243" cy="-2610" rx="27" ry="18"/>
</g>
<!-- prueba11&#45;&gt;prueba13 -->
<g id="edge16" class="edge"><title>prueba11&#45;&gt;prueba13</title>
<path fill="none" stroke="black" d="M243,-2663.7C243,-2655.98 243,-2646.71 243,-2638.11"/>
<polygon fill="black" stroke="black" points="246.5,-2638.1 243,-2628.1 239.5,-2638.1 246.5,-2638.1"/>
</g>
<!-- prueba12&#45;&gt;prueba11 -->
<g id="edge17" class="edge"><title>prueba12&#45;&gt;prueba11</title>
<path fill="none" stroke="black" d="M183.648,-2808.16C188.957,-2789.93 198.424,-2760.21 210,-2736 214.65,-2726.27 220.668,-2716.11 226.289,-2707.31"/>
<polygon fill="black" stroke="black" points="229.37,-2708.99 231.928,-2698.71 223.517,-2705.15 229.37,-2708.99"/>
</g>
<!-- prueba14 -->
<g id="node18" class="node"><title>prueba14</title>
<ellipse fill="none" stroke="black" cx="243" cy="-2538" rx="27" ry="18"/>
</g>
<!-- prueba13&#45;&gt;prueba14 -->
<g id="edge18" class="edge"><title>prueba13&#45;&gt;prueba14</title>
<path fill="none" stroke="black" d="M237.16,-2592.41C236.297,-2584.51 236.048,-2574.85 236.412,-2565.94"/>
<polygon fill="black" stroke="black" points="239.903,-2566.18 237.121,-2555.96 232.921,-2565.68 239.903,-2566.18"/>
</g>
<!-- prueba15 -->
<g id="node19" class="node"><title>prueba15</title>
<ellipse fill="none" stroke="black" cx="171" cy="-2538" rx="27" ry="18"/>
</g>
<!-- prueba13&#45;&gt;prueba15 -->
<g id="edge19" class="edge"><title>prueba13&#45;&gt;prueba15</title>
<path fill="none" stroke="black" d="M228.43,-2594.83C218.25,-2584.94 204.476,-2571.55 192.969,-2560.36"/>
<polygon fill="black" stroke="black" points="195.405,-2557.85 185.796,-2553.38 190.526,-2562.87 195.405,-2557.85"/>
</g>
<!-- prueba14&#45;&gt;prueba13 -->
<g id="edge20" class="edge"><title>prueba14&#45;&gt;prueba13</title>
<path fill="none" stroke="black" d="M248.879,-2555.96C249.714,-2563.83 249.948,-2573.37 249.583,-2582.19"/>
<polygon fill="black" stroke="black" points="246.074,-2582.18 248.84,-2592.41 253.056,-2582.69 246.074,-2582.18"/>
</g>
<!-- prueba16 -->
<g id="node20" class="node"><title>prueba16</title>
<ellipse fill="none" stroke="black" cx="171" cy="-2466" rx="27" ry="18"/>
</g>
<!-- prueba15&#45;&gt;prueba16 -->
<g id="edge21" class="edge"><title>prueba15&#45;&gt;prueba16</title>
<path fill="none" stroke="black" d="M171,-2519.7C171,-2511.98 171,-2502.71 171,-2494.11"/>
<polygon fill="black" stroke="black" points="174.5,-2494.1 171,-2484.1 167.5,-2494.1 174.5,-2494.1"/>
</g>
<!-- prueba17 -->
<g id="node21" class="node"><title>prueba17</title>
<ellipse fill="none" stroke="black" cx="171" cy="-2394" rx="27" ry="18"/>
</g>
<!-- prueba16&#45;&gt;prueba17 -->
<g id="edge22" class="edge"><title>prueba16&#45;&gt;prueba17</title>
<path fill="none" stroke="black" d="M165.16,-2448.41C164.297,-2440.51 164.048,-2430.85 164.412,-2421.94"/>
<polygon fill="black" stroke="black" points="167.903,-2422.18 165.121,-2411.96 160.921,-2421.68 167.903,-2422.18"/>
</g>
<!-- prueba18 -->
<g id="node22" class="node"><title>prueba18</title>
<ellipse fill="none" stroke="black" cx="99" cy="-2394" rx="27" ry="18"/>
</g>
<!-- prueba16&#45;&gt;prueba18 -->
<g id="edge23" class="edge"><title>prueba16&#45;&gt;prueba18</title>
<path fill="none" stroke="black" d="M156.43,-2450.83C146.25,-2440.94 132.476,-2427.55 120.969,-2416.36"/>
<polygon fill="black" stroke="black" points="123.405,-2413.85 113.796,-2409.38 118.526,-2418.87 123.405,-2413.85"/>
</g>
<!-- prueba17&#45;&gt;prueba16 -->
<g id="edge24" class="edge"><title>prueba17&#45;&gt;prueba16</title>
<path fill="none" stroke="black" d="M176.879,-2411.96C177.714,-2419.83 177.948,-2429.37 177.583,-2438.19"/>
<polygon fill="black" stroke="black" points="174.074,-2438.18 176.84,-2448.41 181.056,-2438.69 174.074,-2438.18"/>
</g>
<!-- prueba19 -->
<g id="node23" class="node"><title>prueba19</title>
<ellipse fill="none" stroke="black" cx="99" cy="-2322" rx="27" ry="18"/>
</g>
<!-- prueba18&#45;&gt;prueba19 -->
<g id="edge25" class="edge"><title>prueba18&#45;&gt;prueba19</title>
<path fill="none" stroke="black" d="M99,-2375.7C99,-2367.98 99,-2358.71 99,-2350.11"/>
<polygon fill="black" stroke="black" points="102.5,-2350.1 99,-2340.1 95.5001,-2350.1 102.5,-2350.1"/>
</g>
<!-- prueba20 -->
<g id="node24" class="node"><title>prueba20</title>
<ellipse fill="none" stroke="black" cx="99" cy="-2250" rx="27" ry="18"/>
</g>
<!-- prueba19&#45;&gt;prueba20 -->
<g id="edge26" class="edge"><title>prueba19&#45;&gt;prueba20</title>
<path fill="none" stroke="black" d="M99,-2303.7C99,-2295.98 99,-2286.71 99,-2278.11"/>
<polygon fill="black" stroke="black" points="102.5,-2278.1 99,-2268.1 95.5001,-2278.1 102.5,-2278.1"/>
</g>
<!-- prueba21 -->
<g id="node25" class="node"><title>prueba21</title>
<ellipse fill="none" stroke="black" cx="99" cy="-2178" rx="27" ry="18"/>
</g>
<!-- prueba20&#45;&gt;prueba21 -->
<g id="edge27" class="edge"><title>prueba20&#45;&gt;prueba21</title>
<path fill="none" stroke="black" d="M99,-2231.7C99,-2223.98 99,-2214.71 99,-2206.11"/>
<polygon fill="black" stroke="black" points="102.5,-2206.1 99,-2196.1 95.5001,-2206.1 102.5,-2206.1"/>
</g>
<!-- prueba22 -->
<g id="node26" class="node"><title>prueba22</title>
<ellipse fill="none" stroke="black" cx="99" cy="-2106" rx="27" ry="18"/>
</g>
<!-- prueba21&#45;&gt;prueba22 -->
<g id="edge28" class="edge"><title>prueba21&#45;&gt;prueba22</title>
<path fill="none" stroke="black" d="M99,-2159.7C99,-2151.98 99,-2142.71 99,-2134.11"/>
<polygon fill="black" stroke="black" points="102.5,-2134.1 99,-2124.1 95.5001,-2134.1 102.5,-2134.1"/>
</g>
<!-- prueba23 -->
<g id="node27" class="node"><title>prueba23</title>
<ellipse fill="none" stroke="black" cx="99" cy="-2034" rx="27" ry="18"/>
</g>
<!-- prueba22&#45;&gt;prueba23 -->
<g id="edge29" class="edge"><title>prueba22&#45;&gt;prueba23</title>
<path fill="none" stroke="black" d="M99,-2087.7C99,-2079.98 99,-2070.71 99,-2062.11"/>
<polygon fill="black" stroke="black" points="102.5,-2062.1 99,-2052.1 95.5001,-2062.1 102.5,-2062.1"/>
</g>
<!-- prueba24 -->
<g id="node28" class="node"><title>prueba24</title>
<ellipse fill="none" stroke="black" cx="99" cy="-1962" rx="27" ry="18"/>
</g>
<!-- prueba23&#45;&gt;prueba24 -->
<g id="edge30" class="edge"><title>prueba23&#45;&gt;prueba24</title>
<path fill="none" stroke="black" d="M99,-2015.7C99,-2007.98 99,-1998.71 99,-1990.11"/>
<polygon fill="black" stroke="black" points="102.5,-1990.1 99,-1980.1 95.5001,-1990.1 102.5,-1990.1"/>
</g>
<!-- prueba25 -->
<g id="node29" class="node"><title>prueba25</title>
<ellipse fill="none" stroke="black" cx="99" cy="-1890" rx="27" ry="18"/>
</g>
<!-- prueba24&#45;&gt;prueba25 -->
<g id="edge31" class="edge"><title>prueba24&#45;&gt;prueba25</title>
<path fill="none" stroke="black" d="M99,-1943.7C99,-1935.98 99,-1926.71 99,-1918.11"/>
<polygon fill="black" stroke="black" points="102.5,-1918.1 99,-1908.1 95.5001,-1918.1 102.5,-1918.1"/>
</g>
<!-- prueba26 -->
<g id="node30" class="node"><title>prueba26</title>
<ellipse fill="none" stroke="black" cx="99" cy="-1818" rx="27" ry="18"/>
</g>
<!-- prueba25&#45;&gt;prueba26 -->
<g id="edge32" class="edge"><title>prueba25&#45;&gt;prueba26</title>
<path fill="none" stroke="black" d="M99,-1871.7C99,-1863.98 99,-1854.71 99,-1846.11"/>
<polygon fill="black" stroke="black" points="102.5,-1846.1 99,-1836.1 95.5001,-1846.1 102.5,-1846.1"/>
</g>
<!-- prueba27 -->
<g id="node31" class="node"><title>prueba27</title>
<ellipse fill="none" stroke="black" cx="99" cy="-1746" rx="27" ry="18"/>
</g>
<!-- prueba26&#45;&gt;prueba27 -->
<g id="edge33" class="edge"><title>prueba26&#45;&gt;prueba27</title>
<path fill="none" stroke="black" d="M99,-1799.7C99,-1791.98 99,-1782.71 99,-1774.11"/>
<polygon fill="black" stroke="black" points="102.5,-1774.1 99,-1764.1 95.5001,-1774.1 102.5,-1774.1"/>
</g>
<!-- prueba28 -->
<g id="node32" class="node"><title>prueba28</title>
<ellipse fill="none" stroke="black" cx="154" cy="-1674" rx="27" ry="18"/>
</g>
<!-- prueba27&#45;&gt;prueba28 -->
<g id="edge34" class="edge"><title>prueba27&#45;&gt;prueba28</title>
<path fill="none" stroke="black" d="M110.934,-1729.81C118.214,-1720.55 127.663,-1708.52 135.854,-1698.09"/>
<polygon fill="black" stroke="black" points="138.663,-1700.18 142.089,-1690.16 133.159,-1695.86 138.663,-1700.18"/>
</g>
<!-- prueba37 -->
<g id="node41" class="node"><title>prueba37</title>
<ellipse fill="none" stroke="black" cx="36" cy="-1674" rx="27" ry="18"/>
</g>
<!-- prueba27&#45;&gt;prueba37 -->
<g id="edge35" class="edge"><title>prueba27&#45;&gt;prueba37</title>
<path fill="none" stroke="black" d="M85.6393,-1730.15C77.1197,-1720.69 65.9146,-1708.24 56.3065,-1697.56"/>
<polygon fill="black" stroke="black" points="58.6326,-1694.92 49.3414,-1689.82 53.4296,-1699.6 58.6326,-1694.92"/>
</g>
<!-- prueba29 -->
<g id="node33" class="node"><title>prueba29</title>
<ellipse fill="none" stroke="black" cx="154" cy="-1602" rx="27" ry="18"/>
</g>
<!-- prueba28&#45;&gt;prueba29 -->
<g id="edge36" class="edge"><title>prueba28&#45;&gt;prueba29</title>
<path fill="none" stroke="black" d="M154,-1655.7C154,-1647.98 154,-1638.71 154,-1630.11"/>
<polygon fill="black" stroke="black" points="157.5,-1630.1 154,-1620.1 150.5,-1630.1 157.5,-1630.1"/>
</g>
<!-- prueba30 -->
<g id="node34" class="node"><title>prueba30</title>
<ellipse fill="none" stroke="black" cx="209" cy="-1530" rx="27" ry="18"/>
</g>
<!-- prueba29&#45;&gt;prueba30 -->
<g id="edge37" class="edge"><title>prueba29&#45;&gt;prueba30</title>
<path fill="none" stroke="black" d="M165.934,-1585.81C173.214,-1576.55 182.663,-1564.52 190.854,-1554.09"/>
<polygon fill="black" stroke="black" points="193.663,-1556.18 197.089,-1546.16 188.159,-1551.86 193.663,-1556.18"/>
</g>
<!-- prueba36 -->
<g id="node40" class="node"><title>prueba36</title>
<ellipse fill="none" stroke="black" cx="99" cy="-1530" rx="27" ry="18"/>
</g>
<!-- prueba29&#45;&gt;prueba36 -->
<g id="edge38" class="edge"><title>prueba29&#45;&gt;prueba36</title>
<path fill="none" stroke="black" d="M142.066,-1585.81C134.786,-1576.55 125.337,-1564.52 117.146,-1554.09"/>
<polygon fill="black" stroke="black" points="119.841,-1551.86 110.911,-1546.16 114.337,-1556.18 119.841,-1551.86"/>
</g>
<!-- prueba31 -->
<g id="node35" class="node"><title>prueba31</title>
<ellipse fill="none" stroke="black" cx="209" cy="-1458" rx="27" ry="18"/>
</g>
<!-- prueba30&#45;&gt;prueba31 -->
<g id="edge39" class="edge"><title>prueba30&#45;&gt;prueba31</title>
<path fill="none" stroke="black" d="M209,-1511.7C209,-1503.98 209,-1494.71 209,-1486.11"/>
<polygon fill="black" stroke="black" points="212.5,-1486.1 209,-1476.1 205.5,-1486.1 212.5,-1486.1"/>
</g>
<!-- prueba32 -->
<g id="node36" class="node"><title>prueba32</title>
<ellipse fill="none" stroke="black" cx="264" cy="-1386" rx="27" ry="18"/>
</g>
<!-- prueba31&#45;&gt;prueba32 -->
<g id="edge40" class="edge"><title>prueba31&#45;&gt;prueba32</title>
<path fill="none" stroke="black" d="M220.934,-1441.81C228.214,-1432.55 237.663,-1420.52 245.854,-1410.09"/>
<polygon fill="black" stroke="black" points="248.663,-1412.18 252.089,-1402.16 243.159,-1407.86 248.663,-1412.18"/>
</g>
<!-- prueba35 -->
<g id="node39" class="node"><title>prueba35</title>
<ellipse fill="none" stroke="black" cx="154" cy="-1386" rx="27" ry="18"/>
</g>
<!-- prueba31&#45;&gt;prueba35 -->
<g id="edge41" class="edge"><title>prueba31&#45;&gt;prueba35</title>
<path fill="none" stroke="black" d="M197.066,-1441.81C189.786,-1432.55 180.337,-1420.52 172.146,-1410.09"/>
<polygon fill="black" stroke="black" points="174.841,-1407.86 165.911,-1402.16 169.337,-1412.18 174.841,-1407.86"/>
</g>
<!-- prueba33 -->
<g id="node37" class="node"><title>prueba33</title>
<ellipse fill="none" stroke="black" cx="264" cy="-1314" rx="27" ry="18"/>
</g>
<!-- prueba32&#45;&gt;prueba33 -->
<g id="edge42" class="edge"><title>prueba32&#45;&gt;prueba33</title>
<path fill="none" stroke="black" d="M258.16,-1368.41C257.297,-1360.51 257.048,-1350.85 257.412,-1341.94"/>
<polygon fill="black" stroke="black" points="260.903,-1342.18 258.121,-1331.96 253.921,-1341.68 260.903,-1342.18"/>
</g>
<!-- prueba34 -->
<g id="node38" class="node"><title>prueba34</title>
<ellipse fill="none" stroke="black" cx="192" cy="-1314" rx="27" ry="18"/>
</g>
<!-- prueba32&#45;&gt;prueba34 -->
<g id="edge43" class="edge"><title>prueba32&#45;&gt;prueba34</title>
<path fill="none" stroke="black" d="M249.43,-1370.83C239.25,-1360.94 225.476,-1347.55 213.969,-1336.36"/>
<polygon fill="black" stroke="black" points="216.405,-1333.85 206.796,-1329.38 211.526,-1338.87 216.405,-1333.85"/>
</g>
<!-- prueba33&#45;&gt;prueba32 -->
<g id="edge44" class="edge"><title>prueba33&#45;&gt;prueba32</title>
<path fill="none" stroke="black" d="M269.879,-1331.96C270.714,-1339.83 270.948,-1349.37 270.583,-1358.19"/>
<polygon fill="black" stroke="black" points="267.074,-1358.18 269.84,-1368.41 274.056,-1358.69 267.074,-1358.18"/>
</g>
<!-- prueba34&#45;&gt;prueba31 -->
<g id="edge45" class="edge"><title>prueba34&#45;&gt;prueba31</title>
<path fill="none" stroke="black" d="M194.058,-1332.19C196.959,-1356.42 202.282,-1400.89 205.729,-1429.68"/>
<polygon fill="black" stroke="black" points="202.285,-1430.36 206.949,-1439.87 209.236,-1429.53 202.285,-1430.36"/>
</g>
<!-- prueba35&#45;&gt;prueba29 -->
<g id="edge46" class="edge"><title>prueba35&#45;&gt;prueba29</title>
<path fill="none" stroke="black" d="M154,-1404.23C154,-1441.32 154,-1528.98 154,-1573.71"/>
<polygon fill="black" stroke="black" points="150.5,-1573.85 154,-1583.85 157.5,-1573.85 150.5,-1573.85"/>
</g>
<!-- prueba36&#45;&gt;prueba27 -->
<g id="edge47" class="edge"><title>prueba36&#45;&gt;prueba27</title>
<path fill="none" stroke="black" d="M99,-1548.23C99,-1585.32 99,-1672.98 99,-1717.71"/>
<polygon fill="black" stroke="black" points="95.5001,-1717.85 99,-1727.85 102.5,-1717.85 95.5001,-1717.85"/>
</g>
<!-- prueba38 -->
<g id="node42" class="node"><title>prueba38</title>
<ellipse fill="none" stroke="black" cx="31" cy="-1602" rx="27" ry="18"/>
</g>
<!-- prueba37&#45;&gt;prueba38 -->
<g id="edge48" class="edge"><title>prueba37&#45;&gt;prueba38</title>
<path fill="none" stroke="black" d="M34.764,-1655.7C34.2131,-1647.98 33.5509,-1638.71 32.9366,-1630.11"/>
<polygon fill="black" stroke="black" points="36.4254,-1629.83 32.2217,-1620.1 29.4432,-1630.33 36.4254,-1629.83"/>
</g>
<!-- prueba39 -->
<g id="node43" class="node"><title>prueba39</title>
<ellipse fill="none" stroke="black" cx="27" cy="-1530" rx="27" ry="18"/>
</g>
<!-- prueba38&#45;&gt;prueba39 -->
<g id="edge49" class="edge"><title>prueba38&#45;&gt;prueba39</title>
<path fill="none" stroke="black" d="M30.0112,-1583.7C29.5704,-1575.98 29.0407,-1566.71 28.5493,-1558.11"/>
<polygon fill="black" stroke="black" points="32.0423,-1557.89 27.9774,-1548.1 25.0537,-1558.29 32.0423,-1557.89"/>
</g>
<!-- prueba40 -->
<g id="node44" class="node"><title>prueba40</title>
<ellipse fill="none" stroke="black" cx="54" cy="-1458" rx="27" ry="18"/>
</g>
<!-- prueba39&#45;&gt;prueba40 -->
<g id="edge50" class="edge"><title>prueba39&#45;&gt;prueba40</title>
<path fill="none" stroke="black" d="M33.3986,-1512.41C36.5136,-1504.34 40.3337,-1494.43 43.8346,-1485.35"/>
<polygon fill="black" stroke="black" points="47.1265,-1486.55 47.4597,-1475.96 40.5955,-1484.03 47.1265,-1486.55"/>
</g>
<!-- prueba41 -->
<g id="node45" class="node"><title>prueba41</title>
<ellipse fill="none" stroke="black" cx="68" cy="-1386" rx="27" ry="18"/>
</g>
<!-- prueba40&#45;&gt;prueba41 -->
<g id="edge51" class="edge"><title>prueba40&#45;&gt;prueba41</title>
<path fill="none" stroke="black" d="M57.389,-1440.05C58.9309,-1432.35 60.7946,-1423.03 62.5272,-1414.36"/>
<polygon fill="black" stroke="black" points="66.0157,-1414.77 64.5449,-1404.28 59.1517,-1413.39 66.0157,-1414.77"/>
</g>
<!-- prueba42 -->
<g id="node46" class="node"><title>prueba42</title>
<ellipse fill="none" stroke="black" cx="94" cy="-1314" rx="27" ry="18"/>
</g>
<!-- prueba41&#45;&gt;prueba42 -->
<g id="edge52" class="edge"><title>prueba41&#45;&gt;prueba42</title>
<path fill="none" stroke="black" d="M74.1616,-1368.41C77.1612,-1360.34 80.8398,-1350.43 84.2111,-1341.35"/>
<polygon fill="black" stroke="black" points="87.501,-1342.55 87.702,-1331.96 80.9391,-1340.11 87.501,-1342.55"/>
</g>
<!-- prueba43 -->
<g id="node47" class="node"><title>prueba43</title>
<ellipse fill="none" stroke="black" cx="137" cy="-1242" rx="27" ry="18"/>
</g>
<!-- prueba42&#45;&gt;prueba43 -->
<g id="edge53" class="edge"><title>prueba42&#45;&gt;prueba43</title>
<path fill="none" stroke="black" d="M103.757,-1297.12C109.145,-1288.34 115.952,-1277.26 122.001,-1267.42"/>
<polygon fill="black" stroke="black" points="125.029,-1269.17 127.281,-1258.82 119.065,-1265.51 125.029,-1269.17"/>
</g>
<!-- prueba44 -->
<g id="node48" class="node"><title>prueba44</title>
<ellipse fill="none" stroke="black" cx="179" cy="-1170" rx="27" ry="18"/>
</g>
<!-- prueba43&#45;&gt;prueba44 -->
<g id="edge54" class="edge"><title>prueba43&#45;&gt;prueba44</title>
<path fill="none" stroke="black" d="M146.53,-1225.12C151.666,-1216.56 158.122,-1205.8 163.921,-1196.13"/>
<polygon fill="black" stroke="black" points="167.072,-1197.68 169.216,-1187.31 161.07,-1194.08 167.072,-1197.68"/>
</g>
<!-- prueba45 -->
<g id="node49" class="node"><title>prueba45</title>
<ellipse fill="none" stroke="black" cx="201" cy="-1098" rx="27" ry="18"/>
</g>
<!-- prueba44&#45;&gt;prueba45 -->
<g id="edge55" class="edge"><title>prueba44&#45;&gt;prueba45</title>
<path fill="none" stroke="black" d="M184.326,-1152.05C186.839,-1144.06 189.896,-1134.33 192.703,-1125.4"/>
<polygon fill="black" stroke="black" points="196.064,-1126.38 195.723,-1115.79 189.386,-1124.28 196.064,-1126.38"/>
</g>
<!-- prueba46 -->
<g id="node50" class="node"><title>prueba46</title>
<ellipse fill="none" stroke="black" cx="222" cy="-1026" rx="27" ry="18"/>
</g>
<!-- prueba45&#45;&gt;prueba46 -->
<g id="edge56" class="edge"><title>prueba45&#45;&gt;prueba46</title>
<path fill="none" stroke="black" d="M206.084,-1080.05C208.482,-1072.06 211.401,-1062.33 214.08,-1053.4"/>
<polygon fill="black" stroke="black" points="217.442,-1054.37 216.963,-1043.79 210.737,-1052.36 217.442,-1054.37"/>
</g>
<!-- prueba47 -->
<g id="node51" class="node"><title>prueba47</title>
<ellipse fill="none" stroke="black" cx="233" cy="-954" rx="27" ry="18"/>
</g>
<!-- prueba46&#45;&gt;prueba47 -->
<g id="edge57" class="edge"><title>prueba46&#45;&gt;prueba47</title>
<path fill="none" stroke="black" d="M224.663,-1008.05C225.874,-1000.35 227.339,-991.027 228.7,-982.364"/>
<polygon fill="black" stroke="black" points="232.19,-982.697 230.285,-972.275 225.275,-981.611 232.19,-982.697"/>
</g>
<!-- prueba48 -->
<g id="node52" class="node"><title>prueba48</title>
<ellipse fill="none" stroke="black" cx="243" cy="-882" rx="27" ry="18"/>
</g>
<!-- prueba47&#45;&gt;prueba48 -->
<g id="edge58" class="edge"><title>prueba47&#45;&gt;prueba48</title>
<path fill="none" stroke="black" d="M235.421,-936.055C236.522,-928.346 237.853,-919.027 239.091,-910.364"/>
<polygon fill="black" stroke="black" points="242.583,-910.67 240.532,-900.275 235.653,-909.68 242.583,-910.67"/>
</g>
<!-- prueba49 -->
<g id="node53" class="node"><title>prueba49</title>
<ellipse fill="none" stroke="black" cx="249" cy="-810" rx="27" ry="18"/>
</g>
<!-- prueba48&#45;&gt;prueba49 -->
<g id="edge59" class="edge"><title>prueba48&#45;&gt;prueba49</title>
<path fill="none" stroke="black" d="M244.483,-863.697C245.144,-855.983 245.939,-846.712 246.676,-838.112"/>
<polygon fill="black" stroke="black" points="250.167,-838.367 247.534,-828.104 243.193,-837.769 250.167,-838.367"/>
</g>
<!-- prueba50 -->
<g id="node54" class="node"><title>prueba50</title>
<ellipse fill="none" stroke="black" cx="254" cy="-738" rx="27" ry="18"/>
</g>
<!-- prueba49&#45;&gt;prueba50 -->
<g id="edge60" class="edge"><title>prueba49&#45;&gt;prueba50</title>
<path fill="none" stroke="black" d="M250.236,-791.697C250.787,-783.983 251.449,-774.712 252.063,-766.112"/>
<polygon fill="black" stroke="black" points="255.557,-766.328 252.778,-756.104 248.575,-765.83 255.557,-766.328"/>
</g>
<!-- prueba51 -->
<g id="node55" class="node"><title>prueba51</title>
<ellipse fill="none" stroke="black" cx="257" cy="-666" rx="27" ry="18"/>
</g>
<!-- prueba50&#45;&gt;prueba51 -->
<g id="edge61" class="edge"><title>prueba50&#45;&gt;prueba51</title>
<path fill="none" stroke="black" d="M254.742,-719.697C255.072,-711.983 255.469,-702.712 255.838,-694.112"/>
<polygon fill="black" stroke="black" points="259.335,-694.245 256.267,-684.104 252.342,-693.945 259.335,-694.245"/>
</g>
<!-- prueba52 -->
<g id="node56" class="node"><title>prueba52</title>
<ellipse fill="none" stroke="black" cx="259" cy="-594" rx="27" ry="18"/>
</g>
<!-- prueba51&#45;&gt;prueba52 -->
<g id="edge62" class="edge"><title>prueba51&#45;&gt;prueba52</title>
<path fill="none" stroke="black" d="M257.494,-647.697C257.715,-639.983 257.98,-630.712 258.225,-622.112"/>
<polygon fill="black" stroke="black" points="261.724,-622.2 258.511,-612.104 254.727,-622 261.724,-622.2"/>
</g>
<!-- prueba53 -->
<g id="node57" class="node"><title>prueba53</title>
<ellipse fill="none" stroke="black" cx="261" cy="-522" rx="27" ry="18"/>
</g>
<!-- prueba52&#45;&gt;prueba53 -->
<g id="edge63" class="edge"><title>prueba52&#45;&gt;prueba53</title>
<path fill="none" stroke="black" d="M259.494,-575.697C259.715,-567.983 259.98,-558.712 260.225,-550.112"/>
<polygon fill="black" stroke="black" points="263.724,-550.2 260.511,-540.104 256.727,-550 263.724,-550.2"/>
</g>
<!-- prueba54 -->
<g id="node58" class="node"><title>prueba54</title>
<ellipse fill="none" stroke="black" cx="262" cy="-450" rx="27" ry="18"/>
</g>
<!-- prueba53&#45;&gt;prueba54 -->
<g id="edge64" class="edge"><title>prueba53&#45;&gt;prueba54</title>
<path fill="none" stroke="black" d="M261.247,-503.697C261.357,-495.983 261.49,-486.712 261.613,-478.112"/>
<polygon fill="black" stroke="black" points="265.112,-478.153 261.756,-468.104 258.113,-478.053 265.112,-478.153"/>
</g>
<!-- prueba55 -->
<g id="node59" class="node"><title>prueba55</title>
<ellipse fill="none" stroke="black" cx="263" cy="-378" rx="27" ry="18"/>
</g>
<!-- prueba54&#45;&gt;prueba55 -->
<g id="edge65" class="edge"><title>prueba54&#45;&gt;prueba55</title>
<path fill="none" stroke="black" d="M262.247,-431.697C262.357,-423.983 262.49,-414.712 262.613,-406.112"/>
<polygon fill="black" stroke="black" points="266.112,-406.153 262.756,-396.104 259.113,-406.053 266.112,-406.153"/>
</g>
<!-- prueba56 -->
<g id="node60" class="node"><title>prueba56</title>
<ellipse fill="none" stroke="black" cx="263" cy="-306" rx="27" ry="18"/>
</g>
<!-- prueba55&#45;&gt;prueba56 -->
<g id="edge66" class="edge"><title>prueba55&#45;&gt;prueba56</title>
<path fill="none" stroke="black" d="M263,-359.697C263,-351.983 263,-342.712 263,-334.112"/>
<polygon fill="black" stroke="black" points="266.5,-334.104 263,-324.104 259.5,-334.104 266.5,-334.104"/>
</g>
<!-- prueba57 -->
<g id="node61" class="node"><title>prueba57</title>
<ellipse fill="none" stroke="black" cx="264" cy="-234" rx="27" ry="18"/>
</g>
<!-- prueba56&#45;&gt;prueba57 -->
<g id="edge67" class="edge"><title>prueba56&#45;&gt;prueba57</title>
<path fill="none" stroke="black" d="M263.247,-287.697C263.357,-279.983 263.49,-270.712 263.613,-262.112"/>
<polygon fill="black" stroke="black" points="267.112,-262.153 263.756,-252.104 260.113,-262.053 267.112,-262.153"/>
</g>
<!-- prueba58 -->
<g id="node62" class="node"><title>prueba58</title>
<ellipse fill="none" stroke="black" cx="264" cy="-162" rx="27" ry="18"/>
</g>
<!-- prueba57&#45;&gt;prueba58 -->
<g id="edge68" class="edge"><title>prueba57&#45;&gt;prueba58</title>
<path fill="none" stroke="black" d="M264,-215.697C264,-207.983 264,-198.712 264,-190.112"/>
<polygon fill="black" stroke="black" points="267.5,-190.104 264,-180.104 260.5,-190.104 267.5,-190.104"/>
</g>
<!-- prueba59 -->
<g id="node63" class="node"><title>prueba59</title>
<ellipse fill="none" stroke="black" cx="264" cy="-90" rx="27" ry="18"/>
</g>
<!-- prueba58&#45;&gt;prueba59 -->
<g id="edge69" class="edge"><title>prueba58&#45;&gt;prueba59</title>
<path fill="none" stroke="black" d="M264,-143.697C264,-135.983 264,-126.712 264,-118.112"/>
<polygon fill="black" stroke="black" points="267.5,-118.104 264,-108.104 260.5,-118.104 267.5,-118.104"/>
</g>
<!-- prueba60 -->
<g id="node64" class="node"><title>prueba60</title>
<ellipse fill="none" stroke="black" cx="291" cy="-18" rx="27" ry="18"/>
</g>
<!-- prueba59&#45;&gt;prueba60 -->
<g id="edge70" class="edge"><title>prueba59&#45;&gt;prueba60</title>
<path fill="none" stroke="black" d="M270.399,-72.411C273.514,-64.3352 277.334,-54.4312 280.835,-45.3547"/>
<polygon fill="black" stroke="black" points="284.126,-46.5458 284.46,-35.9562 277.595,-44.0267 284.126,-46.5458"/>
</g>
<!-- prueba60&#45;&gt;main1 -->
<g id="edge72" class="edge"><title>prueba60&#45;&gt;main1</title>
<path fill="none" stroke="black" d="M296.532,-35.8374C304.692,-62.2129 319,-115.017 319,-161 319,-3259 319,-3259 319,-3259 319,-3299.45 315.881,-3310.8 300,-3348 295.611,-3358.28 289.12,-3368.66 282.853,-3377.47"/>
<polygon fill="black" stroke="black" points="279.895,-3375.59 276.748,-3385.7 285.517,-3379.76 279.895,-3375.59"/>
</g>
</g>
</svg>
