<?xml version="1.0" encoding="UTF-8" standalone="no"?>
<!DOCTYPE svg PUBLIC "-//W3C//DTD SVG 1.1//EN"
 "http://www.w3.org/Graphics/SVG/1.1/DTD/svg11.dtd">
<!-- Generated by graphviz version 2.38.0 (20140413.2041)
 -->
<!-- Title: Llamadas Pages: 1 -->
<svg width="306pt" height="332pt"
 viewBox="0.00 0.00 306.39 332.00" xmlns="http://www.w3.org/2000/svg" xmlns:xlink="http://www.w3.org/1999/xlink">
<g id="graph0" class="graph" transform="scale(1 1) rotate(0) translate(4 328)">
<title>Llamadas</title>
<polygon fill="white" stroke="none" points="-4,4 -4,-328 302.388,-328 302.388,4 -4,4"/>
<!-- 0 -->
<g id="node1" class="node"><title>0</title>
<ellipse fill="red" stroke="black" cx="64.9942" cy="-306" rx="27" ry="18"/>
</g>
<!-- 1 -->
<g id="node2" class="node"><title>1</title>
<ellipse fill="none" stroke="black" cx="64.9942" cy="-234" rx="33.5952" ry="18"/>
<text text-anchor="middle" x="64.9942" y="-230.3" font-family="Times New Roman,serif" font-size="14.00">main()</text>
</g>
<!-- 0&#45;&gt;1 -->
<g id="edge1" class="edge"><title>0&#45;&gt;1</title>
<path fill="none" stroke="black" d="M64.9942,-287.697C64.9942,-279.983 64.9942,-270.712 64.9942,-262.112"/>
<polygon fill="black" stroke="black" points="68.4943,-262.104 64.9942,-252.104 61.4943,-262.104 68.4943,-262.104"/>
</g>
<!-- 2 -->
<g id="node3" class="node"><title>2</title>
<ellipse fill="none" stroke="black" cx="64.9942" cy="-162" rx="64.9885" ry="18"/>
<text text-anchor="middle" x="64.9942" y="-158.3" font-family="Times New Roman,serif" font-size="14.00">imprimir(texto)</text>
</g>
<!-- 1&#45;&gt;2 -->
<g id="edge3" class="edge"><title>1&#45;&gt;2</title>
<path fill="none" stroke="black" d="M59.116,-216.055C58.2979,-208.346 58.0556,-199.027 58.3891,-190.364"/>
<polygon fill="black" stroke="black" points="61.8885,-190.491 59.0814,-180.275 54.9049,-190.012 61.8885,-190.491"/>
</g>
<!-- 1&#45;&gt;2 -->
<g id="edge4" class="edge"><title>1&#45;&gt;2</title>
<path fill="none" stroke="black" d="M70.8725,-216.055C71.6905,-208.346 71.9329,-199.027 71.5994,-190.364"/>
<polygon fill="black" stroke="black" points="75.0835,-190.012 70.9071,-180.275 68.1,-190.491 75.0835,-190.012"/>
</g>
<!-- 3 -->
<g id="node4" class="node"><title>3</title>
<ellipse fill="none" stroke="black" cx="222.994" cy="-162" rx="75.2868" ry="18"/>
<text text-anchor="middle" x="222.994" y="-158.3" font-family="Times New Roman,serif" font-size="14.00">fibonacci(umbral)</text>
</g>
<!-- 1&#45;&gt;3 -->
<g id="edge2" class="edge"><title>1&#45;&gt;3</title>
<path fill="none" stroke="black" d="M90.3797,-221.753C114.362,-211.128 150.825,-194.974 179.451,-182.291"/>
<polygon fill="black" stroke="black" points="181.104,-185.387 188.829,-178.136 178.269,-178.987 181.104,-185.387"/>
</g>
<!-- 5 -->
<g id="node6" class="node"><title>5</title>
<ellipse fill="none" stroke="black" cx="64.9942" cy="-90" rx="36.2938" ry="18"/>
<text text-anchor="middle" x="64.9942" y="-86.3" font-family="Times New Roman,serif" font-size="14.00">printf()</text>
</g>
<!-- 2&#45;&gt;5 -->
<g id="edge5" class="edge"><title>2&#45;&gt;5</title>
<path fill="none" stroke="black" d="M64.9942,-143.697C64.9942,-135.983 64.9942,-126.712 64.9942,-118.112"/>
<polygon fill="black" stroke="black" points="68.4943,-118.104 64.9942,-108.104 61.4943,-118.104 68.4943,-118.104"/>
</g>
<!-- 4 -->
<g id="node5" class="node"><title>4</title>
<ellipse fill="none" stroke="black" cx="222.994" cy="-90" rx="51.9908" ry="18"/>
<text text-anchor="middle" x="222.994" y="-86.3" font-family="Times New Roman,serif" font-size="14.00">aCadena(x)</text>
</g>
<!-- 3&#45;&gt;4 -->
<g id="edge6" class="edge"><title>3&#45;&gt;4</title>
<path fill="none" stroke="black" d="M211.238,-144.055C209.559,-136.145 209.093,-126.54 209.838,-117.688"/>
<polygon fill="black" stroke="black" points="213.303,-118.187 211.271,-107.789 206.375,-117.185 213.303,-118.187"/>
</g>
<!-- 3&#45;&gt;4 -->
<g id="edge7" class="edge"><title>3&#45;&gt;4</title>
<path fill="none" stroke="black" d="M222.994,-143.697C222.994,-135.983 222.994,-126.712 222.994,-118.112"/>
<polygon fill="black" stroke="black" points="226.494,-118.104 222.994,-108.104 219.494,-118.104 226.494,-118.104"/>
</g>
<!-- 3&#45;&gt;4 -->
<g id="edge8" class="edge"><title>3&#45;&gt;4</title>
<path fill="none" stroke="black" d="M234.751,-144.055C236.43,-136.145 236.896,-126.54 236.15,-117.688"/>
<polygon fill="black" stroke="black" points="239.614,-117.185 234.717,-107.789 232.686,-118.187 239.614,-117.185"/>
</g>
<!-- 6 -->
<g id="node7" class="node"><title>6</title>
<ellipse fill="none" stroke="black" cx="142.994" cy="-18" rx="48.1917" ry="18"/>
<text text-anchor="middle" x="142.994" y="-14.3" font-family="Times New Roman,serif" font-size="14.00">devolver()</text>
</g>
<!-- 3&#45;&gt;6 -->
<g id="edge9" class="edge"><title>3&#45;&gt;6</title>
<path fill="none" stroke="black" d="M197.807,-144.983C185.185,-135.679 170.761,-122.863 161.994,-108 150.923,-89.2294 146.266,-64.8495 144.326,-46.3538"/>
<polygon fill="black" stroke="black" points="147.8,-45.8998 143.469,-36.2305 140.825,-46.4901 147.8,-45.8998"/>
</g>
<!-- 4&#45;&gt;6 -->
<g id="edge10" class="edge"><title>4&#45;&gt;6</title>
<path fill="none" stroke="black" d="M204.841,-73.1159C194.203,-63.808 180.592,-51.8981 168.848,-41.6222"/>
<polygon fill="black" stroke="black" points="170.906,-38.7723 161.076,-34.8212 166.297,-44.0403 170.906,-38.7723"/>
</g>
<!-- 7 -->
<g id="node8" class="node"><title>7</title>
<ellipse fill="none" stroke="black" cx="248.994" cy="-18" rx="40.0939" ry="18"/>
<text text-anchor="middle" x="248.994" y="-14.3" font-family="Times New Roman,serif" font-size="14.00">sprintf()</text>
</g>
<!-- 4&#45;&gt;7 -->
<g id="edge11" class="edge"><title>4&#45;&gt;7</title>
<path fill="none" stroke="black" d="M229.288,-72.055C232.258,-64.0586 235.871,-54.3308 239.189,-45.3995"/>
<polygon fill="black" stroke="black" points="242.557,-46.3819 242.758,-35.789 235.995,-43.9446 242.557,-46.3819"/>
</g>
</g>
</svg>
