<?xml version="1.0" encoding="UTF-8" standalone="no"?>
<!DOCTYPE svg PUBLIC "-//W3C//DTD SVG 1.1//EN"
 "http://www.w3.org/Graphics/SVG/1.1/DTD/svg11.dtd">
<!-- Generated by graphviz version 2.38.0 (20140413.2041)
 -->
<!-- Title: Grafo Pages: 1 -->
<svg width="1447pt" height="764pt"
 viewBox="0.00 0.00 1447.00 764.00" xmlns="http://www.w3.org/2000/svg" xmlns:xlink="http://www.w3.org/1999/xlink">
<g id="graph0" class="graph" transform="scale(1 1) rotate(0) translate(4 760)">
<title>Grafo</title>
<polygon fill="white" stroke="none" points="-4,4 -4,-760 1443,-760 1443,4 -4,4"/>
<!-- Pin0 -->
<g id="node1" class="node"><title>Pin0</title>
<ellipse fill="none" stroke="black" cx="393" cy="-738" rx="27" ry="18"/>
</g>
<!-- Pin1 -->
<g id="node2" class="node"><title>Pin1</title>
<ellipse fill="none" stroke="black" cx="329" cy="-666" rx="27" ry="18"/>
</g>
<!-- Pin0&#45;&gt;Pin1 -->
<g id="edge1" class="edge"><title>Pin0&#45;&gt;Pin1</title>
<path fill="none" stroke="black" d="M379.427,-722.155C370.688,-712.596 359.166,-699.994 349.342,-689.249"/>
<polygon fill="black" stroke="black" points="351.884,-686.842 342.553,-681.824 346.718,-691.566 351.884,-686.842"/>
</g>
<!-- Pin12 -->
<g id="node13" class="node"><title>Pin12</title>
<ellipse fill="none" stroke="black" cx="337" cy="-18" rx="27" ry="18"/>
</g>
<!-- Pin0&#45;&gt;Pin12 -->
<g id="edge50" class="edge"><title>Pin0&#45;&gt;Pin12</title>
<path fill="none" stroke="black" d="M387.342,-720.385C384,-693.873 384,-640.361 384,-595 384,-595 384,-595 384,-161 384,-117.856 361.351,-72.1568 347.176,-44.6016"/>
<polygon fill="black" stroke="black" points="350.255,-42.9353 342.566,-35.6457 344.031,-46.1388 350.255,-42.9353"/>
</g>
<!-- Pin0&#45;&gt;Pin12 -->
<g id="edge52" class="edge"><title>Pin0&#45;&gt;Pin12</title>
<path fill="none" stroke="black" d="M398.658,-720.385C402,-693.873 402,-640.361 402,-595 402,-595 402,-595 402,-161 402,-116.044 377.409,-68.3146 358.2,-41.2281"/>
<polygon fill="black" stroke="black" points="360.981,-39.1026 352.19,-33.1889 355.374,-43.2939 360.981,-39.1026"/>
</g>
<!-- Pin2 -->
<g id="node3" class="node"><title>Pin2</title>
<ellipse fill="none" stroke="black" cx="245" cy="-594" rx="27" ry="18"/>
</g>
<!-- Pin1&#45;&gt;Pin2 -->
<g id="edge2" class="edge"><title>Pin1&#45;&gt;Pin2</title>
<path fill="none" stroke="black" d="M312.804,-651.503C300.37,-641.142 283.009,-626.674 268.968,-614.973"/>
<polygon fill="black" stroke="black" points="271.069,-612.168 261.146,-608.455 266.588,-617.546 271.069,-612.168"/>
</g>
<!-- Pin1&#45;&gt;Pin12 -->
<g id="edge51" class="edge"><title>Pin1&#45;&gt;Pin12</title>
<path fill="none" stroke="black" d="M324.868,-647.968C323.912,-621.332 328,-568.186 328,-523 328,-523 328,-523 328,-161 328,-120.777 328,-74.1462 330.33,-45.613"/>
<polygon fill="black" stroke="black" points="333.817,-45.9163 331.342,-35.6146 326.853,-45.2114 333.817,-45.9163"/>
</g>
<!-- Pin1&#45;&gt;Pin12 -->
<g id="edge53" class="edge"><title>Pin1&#45;&gt;Pin12</title>
<path fill="none" stroke="black" d="M336.201,-648.402C341.867,-621.914 346,-568.433 346,-523 346,-523 346,-523 346,-161 346,-120.777 346,-74.1462 343.67,-45.613"/>
<polygon fill="black" stroke="black" points="347.147,-45.2114 342.658,-35.6146 340.183,-45.9163 347.147,-45.2114"/>
</g>
<!-- Pin3 -->
<g id="node4" class="node"><title>Pin3</title>
<ellipse fill="none" stroke="black" cx="145" cy="-522" rx="27" ry="18"/>
</g>
<!-- Pin2&#45;&gt;Pin3 -->
<g id="edge3" class="edge"><title>Pin2&#45;&gt;Pin3</title>
<path fill="none" stroke="black" d="M227.122,-580.485C211.718,-569.702 189.259,-553.981 171.72,-541.704"/>
<polygon fill="black" stroke="black" points="173.26,-538.51 163.06,-535.642 169.246,-544.244 173.26,-538.51"/>
</g>
<!-- imprimirconintro0 -->
<g id="node14" class="node"><title>imprimirconintro0</title>
<ellipse fill="none" stroke="black" cx="217" cy="-522" rx="27" ry="18"/>
</g>
<!-- Pin2&#45;&gt;imprimirconintro0 -->
<g id="edge46" class="edge"><title>Pin2&#45;&gt;imprimirconintro0</title>
<path fill="none" stroke="black" d="M233.066,-577.465C228.894,-569.419 224.579,-559.361 221.24,-550.086"/>
<polygon fill="black" stroke="black" points="224.519,-548.853 218.052,-540.461 217.874,-551.054 224.519,-548.853"/>
</g>
<!-- Pin2&#45;&gt;imprimirconintro0 -->
<g id="edge48" class="edge"><title>Pin2&#45;&gt;imprimirconintro0</title>
<path fill="none" stroke="black" d="M243.994,-575.697C241.497,-567.283 237.582,-557.018 233.404,-547.791"/>
<polygon fill="black" stroke="black" points="236.502,-546.157 229.005,-538.671 230.198,-549.199 236.502,-546.157"/>
</g>
<!-- Pin4 -->
<g id="node5" class="node"><title>Pin4</title>
<ellipse fill="none" stroke="black" cx="73" cy="-450" rx="27" ry="18"/>
</g>
<!-- Pin3&#45;&gt;Pin4 -->
<g id="edge4" class="edge"><title>Pin3&#45;&gt;Pin4</title>
<path fill="none" stroke="black" d="M130.43,-506.834C120.25,-496.938 106.476,-483.546 94.9694,-472.359"/>
<polygon fill="black" stroke="black" points="97.4055,-469.846 87.7957,-465.385 92.5259,-474.865 97.4055,-469.846"/>
</g>
<!-- Pin8 -->
<g id="node9" class="node"><title>Pin8</title>
<ellipse fill="none" stroke="black" cx="145" cy="-450" rx="27" ry="18"/>
</g>
<!-- Pin3&#45;&gt;Pin8 -->
<g id="edge5" class="edge"><title>Pin3&#45;&gt;Pin8</title>
<path fill="none" stroke="black" d="M145,-503.697C145,-495.983 145,-486.712 145,-478.112"/>
<polygon fill="black" stroke="black" points="148.5,-478.104 145,-468.104 141.5,-478.104 148.5,-478.104"/>
</g>
<!-- Pin5 -->
<g id="node6" class="node"><title>Pin5</title>
<ellipse fill="none" stroke="black" cx="27" cy="-378" rx="27" ry="18"/>
</g>
<!-- Pin4&#45;&gt;Pin5 -->
<g id="edge6" class="edge"><title>Pin4&#45;&gt;Pin5</title>
<path fill="none" stroke="black" d="M62.5619,-433.116C56.7981,-424.345 49.5161,-413.264 43.045,-403.416"/>
<polygon fill="black" stroke="black" points="45.8136,-401.256 37.3968,-394.821 39.9637,-405.1 45.8136,-401.256"/>
</g>
<!-- Pin6 -->
<g id="node7" class="node"><title>Pin6</title>
<ellipse fill="none" stroke="black" cx="99" cy="-378" rx="27" ry="18"/>
</g>
<!-- Pin4&#45;&gt;Pin6 -->
<g id="edge7" class="edge"><title>Pin4&#45;&gt;Pin6</title>
<path fill="none" stroke="black" d="M79.1616,-432.411C82.1612,-424.335 85.8398,-414.431 89.2111,-405.355"/>
<polygon fill="black" stroke="black" points="92.501,-406.549 92.702,-395.956 85.9391,-404.112 92.501,-406.549"/>
</g>
<!-- Pin7 -->
<g id="node8" class="node"><title>Pin7</title>
<ellipse fill="none" stroke="black" cx="154" cy="-306" rx="27" ry="18"/>
</g>
<!-- Pin6&#45;&gt;Pin7 -->
<g id="edge8" class="edge"><title>Pin6&#45;&gt;Pin7</title>
<path fill="none" stroke="black" d="M110.934,-361.811C118.214,-352.546 127.663,-340.52 135.854,-330.094"/>
<polygon fill="black" stroke="black" points="138.663,-332.185 142.089,-322.159 133.159,-327.86 138.663,-332.185"/>
</g>
<!-- Pin9 -->
<g id="node10" class="node"><title>Pin9</title>
<ellipse fill="none" stroke="black" cx="214" cy="-234" rx="27" ry="18"/>
</g>
<!-- Pin7&#45;&gt;Pin9 -->
<g id="edge9" class="edge"><title>Pin7&#45;&gt;Pin9</title>
<path fill="none" stroke="black" d="M167.019,-289.811C175.039,-280.455 185.473,-268.282 194.47,-257.785"/>
<polygon fill="black" stroke="black" points="197.156,-260.03 201.006,-250.159 191.841,-255.474 197.156,-260.03"/>
</g>
<!-- Pin8&#45;&gt;Pin7 -->
<g id="edge10" class="edge"><title>Pin8&#45;&gt;Pin7</title>
<path fill="none" stroke="black" d="M146.086,-431.871C147.619,-407.67 150.437,-363.211 152.264,-334.393"/>
<polygon fill="black" stroke="black" points="155.771,-334.391 152.911,-324.189 148.785,-333.948 155.771,-334.391"/>
</g>
<!-- Pin10 -->
<g id="node11" class="node"><title>Pin10</title>
<ellipse fill="none" stroke="black" cx="244" cy="-162" rx="27" ry="18"/>
</g>
<!-- Pin9&#45;&gt;Pin10 -->
<g id="edge11" class="edge"><title>Pin9&#45;&gt;Pin10</title>
<path fill="none" stroke="black" d="M221.11,-216.411C224.659,-208.129 229.032,-197.925 233.002,-188.662"/>
<polygon fill="black" stroke="black" points="236.219,-190.04 236.941,-179.47 229.785,-187.283 236.219,-190.04"/>
</g>
<!-- Pin11 -->
<g id="node12" class="node"><title>Pin11</title>
<ellipse fill="none" stroke="black" cx="259" cy="-90" rx="27" ry="18"/>
</g>
<!-- Pin10&#45;&gt;Pin11 -->
<g id="edge12" class="edge"><title>Pin10&#45;&gt;Pin11</title>
<path fill="none" stroke="black" d="M247.631,-144.055C249.301,-136.261 251.324,-126.822 253.197,-118.079"/>
<polygon fill="black" stroke="black" points="256.625,-118.787 255.298,-108.275 249.78,-117.32 256.625,-118.787"/>
</g>
<!-- Pin11&#45;&gt;Pin12 -->
<g id="edge13" class="edge"><title>Pin11&#45;&gt;Pin12</title>
<path fill="none" stroke="black" d="M274.41,-75.1703C285.734,-65.0075 301.309,-51.0304 314.089,-39.5614"/>
<polygon fill="black" stroke="black" points="316.517,-42.085 321.622,-32.801 311.842,-36.8753 316.517,-42.085"/>
</g>
<!-- imprimirconintro1 -->
<g id="node15" class="node"><title>imprimirconintro1</title>
<ellipse fill="none" stroke="black" cx="217" cy="-450" rx="27" ry="18"/>
</g>
<!-- imprimirconintro0&#45;&gt;imprimirconintro1 -->
<g id="edge14" class="edge"><title>imprimirconintro0&#45;&gt;imprimirconintro1</title>
<path fill="none" stroke="black" d="M217,-503.697C217,-495.983 217,-486.712 217,-478.112"/>
<polygon fill="black" stroke="black" points="220.5,-478.104 217,-468.104 213.5,-478.104 220.5,-478.104"/>
</g>
<!-- imprimirconintro2 -->
<g id="node16" class="node"><title>imprimirconintro2</title>
<ellipse fill="none" stroke="black" cx="217" cy="-378" rx="27" ry="18"/>
</g>
<!-- imprimirconintro1&#45;&gt;imprimirconintro2 -->
<g id="edge15" class="edge"><title>imprimirconintro1&#45;&gt;imprimirconintro2</title>
<path fill="none" stroke="black" d="M217,-431.697C217,-423.983 217,-414.712 217,-406.112"/>
<polygon fill="black" stroke="black" points="220.5,-406.104 217,-396.104 213.5,-406.104 220.5,-406.104"/>
</g>
<!-- imprimirconintro3 -->
<g id="node17" class="node"><title>imprimirconintro3</title>
<ellipse fill="none" stroke="black" cx="273" cy="-306" rx="27" ry="18"/>
</g>
<!-- imprimirconintro2&#45;&gt;imprimirconintro3 -->
<g id="edge16" class="edge"><title>imprimirconintro2&#45;&gt;imprimirconintro3</title>
<path fill="none" stroke="black" d="M229.151,-361.811C236.563,-352.546 246.184,-340.52 254.525,-330.094"/>
<polygon fill="black" stroke="black" points="257.359,-332.154 260.873,-322.159 251.893,-327.782 257.359,-332.154"/>
</g>
<!-- imprimirconintro3&#45;&gt;Pin2 -->
<g id="edge47" class="edge"><title>imprimirconintro3&#45;&gt;Pin2</title>
<path fill="none" stroke="black" d="M267.259,-323.707C260.414,-362.024 253.561,-459.16 244,-540 243.012,-548.353 241.724,-557.415 240.868,-565.644"/>
<polygon fill="black" stroke="black" points="237.36,-565.605 240.052,-575.852 244.338,-566.163 237.36,-565.605"/>
</g>
<!-- imprimirconintro3&#45;&gt;Pin2 -->
<g id="edge49" class="edge"><title>imprimirconintro3&#45;&gt;Pin2</title>
<path fill="none" stroke="black" d="M276.625,-323.994C278.379,-362.509 271.537,-459.362 262,-540 260.943,-548.935 259.544,-558.681 257.726,-567.351"/>
<polygon fill="black" stroke="black" points="254.277,-566.72 255.296,-577.266 261.076,-568.386 254.277,-566.72"/>
</g>
<!-- Pon0 -->
<g id="node18" class="node"><title>Pon0</title>
<ellipse fill="none" stroke="black" cx="631" cy="-738" rx="27" ry="18"/>
</g>
<!-- Pon1 -->
<g id="node19" class="node"><title>Pon1</title>
<ellipse fill="none" stroke="black" cx="531" cy="-666" rx="27" ry="18"/>
</g>
<!-- Pon0&#45;&gt;Pon1 -->
<g id="edge17" class="edge"><title>Pon0&#45;&gt;Pon1</title>
<path fill="none" stroke="black" d="M613.122,-724.485C597.718,-713.702 575.259,-697.981 557.72,-685.704"/>
<polygon fill="black" stroke="black" points="559.26,-682.51 549.06,-679.642 555.246,-688.244 559.26,-682.51"/>
</g>
<!-- Pon7 -->
<g id="node25" class="node"><title>Pon7</title>
<ellipse fill="none" stroke="black" cx="631" cy="-306" rx="27" ry="18"/>
</g>
<!-- Pon0&#45;&gt;Pon7 -->
<g id="edge65" class="edge"><title>Pon0&#45;&gt;Pon7</title>
<path fill="none" stroke="black" d="M625.342,-720.385C622,-693.873 622,-640.361 622,-595 622,-595 622,-595 622,-449 622,-408.777 622,-362.146 624.33,-333.613"/>
<polygon fill="black" stroke="black" points="627.817,-333.916 625.342,-323.615 620.853,-333.211 627.817,-333.916"/>
</g>
<!-- Pon0&#45;&gt;Pon7 -->
<g id="edge66" class="edge"><title>Pon0&#45;&gt;Pon7</title>
<path fill="none" stroke="black" d="M636.658,-720.385C640,-693.873 640,-640.361 640,-595 640,-595 640,-595 640,-449 640,-408.777 640,-362.146 637.67,-333.613"/>
<polygon fill="black" stroke="black" points="641.147,-333.211 636.658,-323.615 634.183,-333.916 641.147,-333.211"/>
</g>
<!-- Pon2 -->
<g id="node20" class="node"><title>Pon2</title>
<ellipse fill="none" stroke="black" cx="567" cy="-522" rx="27" ry="18"/>
</g>
<!-- Pon1&#45;&gt;Pon2 -->
<g id="edge18" class="edge"><title>Pon1&#45;&gt;Pon2</title>
<path fill="none" stroke="black" d="M508.903,-655.606C491.81,-647.011 469.365,-632.5 459,-612 451.781,-597.721 450.538,-589.579 459,-576 474.728,-550.761 506.37,-537.202 531.357,-530.138"/>
<polygon fill="black" stroke="black" points="532.446,-533.472 541.248,-527.575 530.69,-526.696 532.446,-533.472"/>
</g>
<!-- Pon3 -->
<g id="node21" class="node"><title>Pon3</title>
<ellipse fill="none" stroke="black" cx="495" cy="-594" rx="27" ry="18"/>
</g>
<!-- Pon1&#45;&gt;Pon3 -->
<g id="edge19" class="edge"><title>Pon1&#45;&gt;Pon3</title>
<path fill="none" stroke="black" d="M522.65,-648.765C518.288,-640.283 512.853,-629.714 507.959,-620.197"/>
<polygon fill="black" stroke="black" points="510.99,-618.439 503.304,-611.147 504.765,-621.641 510.99,-618.439"/>
</g>
<!-- Pon4 -->
<g id="node22" class="node"><title>Pon4</title>
<ellipse fill="none" stroke="black" cx="567" cy="-594" rx="27" ry="18"/>
</g>
<!-- Pon1&#45;&gt;Pon4 -->
<g id="edge20" class="edge"><title>Pon1&#45;&gt;Pon4</title>
<path fill="none" stroke="black" d="M539.35,-648.765C543.712,-640.283 549.147,-629.714 554.041,-620.197"/>
<polygon fill="black" stroke="black" points="557.235,-621.641 558.696,-611.147 551.01,-618.439 557.235,-621.641"/>
</g>
<!-- Pon5 -->
<g id="node23" class="node"><title>Pon5</title>
<ellipse fill="none" stroke="black" cx="567" cy="-450" rx="27" ry="18"/>
</g>
<!-- Pon2&#45;&gt;Pon5 -->
<g id="edge21" class="edge"><title>Pon2&#45;&gt;Pon5</title>
<path fill="none" stroke="black" d="M567,-503.697C567,-495.983 567,-486.712 567,-478.112"/>
<polygon fill="black" stroke="black" points="570.5,-478.104 567,-468.104 563.5,-478.104 570.5,-478.104"/>
</g>
<!-- Pon4&#45;&gt;Pon2 -->
<g id="edge22" class="edge"><title>Pon4&#45;&gt;Pon2</title>
<path fill="none" stroke="black" d="M567,-575.697C567,-567.983 567,-558.712 567,-550.112"/>
<polygon fill="black" stroke="black" points="570.5,-550.104 567,-540.104 563.5,-550.104 570.5,-550.104"/>
</g>
<!-- Pon6 -->
<g id="node24" class="node"><title>Pon6</title>
<ellipse fill="none" stroke="black" cx="567" cy="-378" rx="27" ry="18"/>
</g>
<!-- Pon5&#45;&gt;Pon6 -->
<g id="edge23" class="edge"><title>Pon5&#45;&gt;Pon6</title>
<path fill="none" stroke="black" d="M567,-431.697C567,-423.983 567,-414.712 567,-406.112"/>
<polygon fill="black" stroke="black" points="570.5,-406.104 567,-396.104 563.5,-406.104 570.5,-406.104"/>
</g>
<!-- Pon6&#45;&gt;Pon7 -->
<g id="edge24" class="edge"><title>Pon6&#45;&gt;Pon7</title>
<path fill="none" stroke="black" d="M580.573,-362.155C589.312,-352.596 600.834,-339.994 610.658,-329.249"/>
<polygon fill="black" stroke="black" points="613.282,-331.566 617.447,-321.824 608.116,-326.842 613.282,-331.566"/>
</g>
<!-- domain0 -->
<g id="node26" class="node"><title>domain0</title>
<ellipse fill="red" stroke="black" cx="1097" cy="-738" rx="27" ry="18"/>
</g>
<!-- domain1 -->
<g id="node27" class="node"><title>domain1</title>
<ellipse fill="none" stroke="black" cx="1015" cy="-666" rx="27" ry="18"/>
</g>
<!-- domain0&#45;&gt;domain1 -->
<g id="edge25" class="edge"><title>domain0&#45;&gt;domain1</title>
<path fill="none" stroke="black" d="M1080.8,-723.17C1068.82,-712.942 1052.31,-698.849 1038.82,-687.338"/>
<polygon fill="black" stroke="black" points="1040.77,-684.394 1030.89,-680.563 1036.22,-689.717 1040.77,-684.394"/>
</g>
<!-- domain11 -->
<g id="node37" class="node"><title>domain11</title>
<ellipse fill="blue" stroke="black" cx="1023" cy="-234" rx="27" ry="18"/>
</g>
<!-- domain0&#45;&gt;domain11 -->
<g id="edge54" class="edge"><title>domain0&#45;&gt;domain11</title>
<path fill="none" stroke="black" d="M1081.21,-723.292C1070,-697.956 1070,-642.087 1070,-595 1070,-595 1070,-595 1070,-377 1070,-332.682 1041.3,-288.492 1026.17,-261.458"/>
<polygon fill="black" stroke="black" points="1029.08,-259.482 1021.29,-252.306 1022.91,-262.777 1029.08,-259.482"/>
</g>
<!-- domain0&#45;&gt;domain11 -->
<g id="edge58" class="edge"><title>domain0&#45;&gt;domain11</title>
<path fill="none" stroke="black" d="M1091.34,-720.385C1088,-693.873 1088,-640.361 1088,-595 1088,-595 1088,-595 1088,-377 1088,-331.544 1057.81,-286.223 1038.34,-259.41"/>
<polygon fill="black" stroke="black" points="1040.95,-257.045 1032.21,-251.053 1035.3,-261.186 1040.95,-257.045"/>
</g>
<!-- domain0&#45;&gt;domain11 -->
<g id="edge59" class="edge"><title>domain0&#45;&gt;domain11</title>
<path fill="none" stroke="black" d="M1102.66,-720.385C1106,-693.873 1106,-640.361 1106,-595 1106,-595 1106,-595 1106,-377 1106,-329.133 1072.52,-281.416 1047.86,-255.303"/>
<polygon fill="black" stroke="black" points="1050.07,-252.554 1040.54,-247.916 1045.09,-257.482 1050.07,-252.554"/>
</g>
<!-- domain0&#45;&gt;domain11 -->
<g id="edge60" class="edge"><title>domain0&#45;&gt;domain11</title>
<path fill="none" stroke="black" d="M1112.79,-723.292C1124,-697.956 1124,-642.087 1124,-595 1124,-595 1124,-595 1124,-377 1124,-325.707 1085.56,-274.587 1053.98,-250.036"/>
<polygon fill="black" stroke="black" points="1055.88,-247.09 1045.71,-244.109 1051.8,-252.78 1055.88,-247.09"/>
</g>
<!-- domain2 -->
<g id="node28" class="node"><title>domain2</title>
<ellipse fill="none" stroke="black" cx="959" cy="-594" rx="27" ry="18"/>
</g>
<!-- domain1&#45;&gt;domain2 -->
<g id="edge26" class="edge"><title>domain1&#45;&gt;domain2</title>
<path fill="none" stroke="black" d="M1002.85,-649.811C995.437,-640.546 985.816,-628.52 977.475,-618.094"/>
<polygon fill="black" stroke="black" points="980.107,-615.782 971.127,-610.159 974.641,-620.154 980.107,-615.782"/>
</g>
<!-- domain1&#45;&gt;domain11 -->
<g id="edge55" class="edge"><title>domain1&#45;&gt;domain11</title>
<path fill="none" stroke="black" d="M1010.87,-647.968C1009.91,-621.332 1014,-568.186 1014,-523 1014,-523 1014,-523 1014,-377 1014,-336.777 1014,-290.146 1016.33,-261.613"/>
<polygon fill="black" stroke="black" points="1019.82,-261.916 1017.34,-251.615 1012.85,-261.211 1019.82,-261.916"/>
</g>
<!-- domain1&#45;&gt;domain11 -->
<g id="edge61" class="edge"><title>domain1&#45;&gt;domain11</title>
<path fill="none" stroke="black" d="M1022.2,-648.402C1027.87,-621.914 1032,-568.433 1032,-523 1032,-523 1032,-523 1032,-377 1032,-336.777 1032,-290.146 1029.67,-261.613"/>
<polygon fill="black" stroke="black" points="1033.15,-261.211 1028.66,-251.615 1026.18,-261.916 1033.15,-261.211"/>
</g>
<!-- domain3 -->
<g id="node29" class="node"><title>domain3</title>
<ellipse fill="none" stroke="black" cx="903" cy="-522" rx="27" ry="18"/>
</g>
<!-- domain2&#45;&gt;domain3 -->
<g id="edge27" class="edge"><title>domain2&#45;&gt;domain3</title>
<path fill="none" stroke="black" d="M946.849,-577.811C939.437,-568.546 929.816,-556.52 921.475,-546.094"/>
<polygon fill="black" stroke="black" points="924.107,-543.782 915.127,-538.159 918.641,-548.154 924.107,-543.782"/>
</g>
<!-- domain2&#45;&gt;domain11 -->
<g id="edge56" class="edge"><title>domain2&#45;&gt;domain11</title>
<path fill="none" stroke="black" d="M954.868,-575.968C953.912,-549.332 958,-496.186 958,-451 958,-451 958,-451 958,-377 958,-332.044 982.591,-284.315 1001.8,-257.228"/>
<polygon fill="black" stroke="black" points="1004.63,-259.294 1007.81,-249.189 999.019,-255.103 1004.63,-259.294"/>
</g>
<!-- domain2&#45;&gt;domain11 -->
<g id="edge62" class="edge"><title>domain2&#45;&gt;domain11</title>
<path fill="none" stroke="black" d="M966.201,-576.402C971.867,-549.914 976,-496.433 976,-451 976,-451 976,-451 976,-377 976,-333.856 998.649,-288.157 1012.82,-260.602"/>
<polygon fill="black" stroke="black" points="1015.97,-262.139 1017.43,-251.646 1009.75,-258.935 1015.97,-262.139"/>
</g>
<!-- domain4 -->
<g id="node30" class="node"><title>domain4</title>
<ellipse fill="none" stroke="black" cx="811" cy="-450" rx="27" ry="18"/>
</g>
<!-- domain3&#45;&gt;domain4 -->
<g id="edge28" class="edge"><title>domain3&#45;&gt;domain4</title>
<path fill="none" stroke="black" d="M885.696,-507.834C871.817,-497.274 852.137,-482.3 836.461,-470.373"/>
<polygon fill="black" stroke="black" points="838.305,-467.377 828.227,-464.107 834.066,-472.948 838.305,-467.377"/>
</g>
<!-- domain3&#45;&gt;domain11 -->
<g id="edge57" class="edge"><title>domain3&#45;&gt;domain11</title>
<path fill="none" stroke="black" d="M897.183,-504.16C890.385,-463.444 889.514,-357.878 935,-288 947.564,-268.699 969.879,-254.7 989.05,-245.953"/>
<polygon fill="black" stroke="black" points="990.598,-249.098 998.435,-241.969 987.863,-242.655 990.598,-249.098"/>
</g>
<!-- domain3&#45;&gt;domain11 -->
<g id="edge63" class="edge"><title>domain3&#45;&gt;domain11</title>
<path fill="none" stroke="black" d="M906.224,-503.858C908.381,-462.924 907.626,-357.706 953,-288 963.222,-272.296 979.9,-260.102 994.52,-251.391"/>
<polygon fill="black" stroke="black" points="996.313,-254.398 1003.28,-246.417 992.857,-248.31 996.313,-254.398"/>
</g>
<!-- domain5 -->
<g id="node31" class="node"><title>domain5</title>
<ellipse fill="none" stroke="black" cx="739" cy="-378" rx="27" ry="18"/>
</g>
<!-- domain4&#45;&gt;domain5 -->
<g id="edge29" class="edge"><title>domain4&#45;&gt;domain5</title>
<path fill="none" stroke="black" d="M796.43,-434.834C786.25,-424.938 772.476,-411.546 760.969,-400.359"/>
<polygon fill="black" stroke="black" points="763.405,-397.846 753.796,-393.385 758.526,-402.865 763.405,-397.846"/>
</g>
<!-- domain6 -->
<g id="node32" class="node"><title>domain6</title>
<ellipse fill="none" stroke="black" cx="811" cy="-378" rx="27" ry="18"/>
</g>
<!-- domain4&#45;&gt;domain6 -->
<g id="edge30" class="edge"><title>domain4&#45;&gt;domain6</title>
<path fill="none" stroke="black" d="M811,-431.697C811,-423.983 811,-414.712 811,-406.112"/>
<polygon fill="black" stroke="black" points="814.5,-406.104 811,-396.104 807.5,-406.104 814.5,-406.104"/>
</g>
<!-- domain7 -->
<g id="node33" class="node"><title>domain7</title>
<ellipse fill="none" stroke="black" cx="703" cy="-306" rx="27" ry="18"/>
</g>
<!-- domain6&#45;&gt;domain7 -->
<g id="edge31" class="edge"><title>domain6&#45;&gt;domain7</title>
<path fill="none" stroke="black" d="M792.188,-364.807C774.998,-353.665 749.382,-337.062 730.007,-324.504"/>
<polygon fill="black" stroke="black" points="731.892,-321.555 721.597,-319.053 728.084,-327.429 731.892,-321.555"/>
</g>
<!-- domain9 -->
<g id="node35" class="node"><title>domain9</title>
<ellipse fill="none" stroke="black" cx="775" cy="-306" rx="27" ry="18"/>
</g>
<!-- domain6&#45;&gt;domain9 -->
<g id="edge32" class="edge"><title>domain6&#45;&gt;domain9</title>
<path fill="none" stroke="black" d="M802.65,-360.765C798.288,-352.283 792.853,-341.714 787.959,-332.197"/>
<polygon fill="black" stroke="black" points="790.99,-330.439 783.304,-323.147 784.765,-333.641 790.99,-330.439"/>
</g>
<!-- domain10 -->
<g id="node36" class="node"><title>domain10</title>
<ellipse fill="none" stroke="black" cx="847" cy="-306" rx="27" ry="18"/>
</g>
<!-- domain6&#45;&gt;domain10 -->
<g id="edge33" class="edge"><title>domain6&#45;&gt;domain10</title>
<path fill="none" stroke="black" d="M819.35,-360.765C823.712,-352.283 829.147,-341.714 834.041,-332.197"/>
<polygon fill="black" stroke="black" points="837.235,-333.641 838.696,-323.147 831.01,-330.439 837.235,-333.641"/>
</g>
<!-- domain8 -->
<g id="node34" class="node"><title>domain8</title>
<ellipse fill="none" stroke="black" cx="1169" cy="-738" rx="27" ry="18"/>
</g>
<!-- domain10&#45;&gt;domain11 -->
<g id="edge34" class="edge"><title>domain10&#45;&gt;domain11</title>
<path fill="none" stroke="black" d="M869.525,-295.57C875.52,-293.085 881.998,-290.422 888,-288 922.936,-273.901 963.151,-258.177 990.54,-247.545"/>
<polygon fill="black" stroke="black" points="991.958,-250.749 1000.02,-243.871 989.427,-244.223 991.958,-250.749"/>
</g>
<!-- deVuelta0 -->
<g id="node38" class="node"><title>deVuelta0</title>
<ellipse fill="none" stroke="black" cx="1241" cy="-738" rx="27" ry="18"/>
</g>
<!-- deVuelta1 -->
<g id="node39" class="node"><title>deVuelta1</title>
<ellipse fill="none" stroke="black" cx="1241" cy="-666" rx="27" ry="18"/>
</g>
<!-- deVuelta0&#45;&gt;deVuelta1 -->
<g id="edge35" class="edge"><title>deVuelta0&#45;&gt;deVuelta1</title>
<path fill="none" stroke="black" d="M1241,-719.697C1241,-711.983 1241,-702.712 1241,-694.112"/>
<polygon fill="black" stroke="black" points="1244.5,-694.104 1241,-684.104 1237.5,-694.104 1244.5,-694.104"/>
</g>
<!-- deVuelta9 -->
<g id="node47" class="node"><title>deVuelta9</title>
<ellipse fill="none" stroke="black" cx="1313" cy="-666" rx="27" ry="18"/>
</g>
<!-- deVuelta0&#45;&gt;deVuelta9 -->
<g id="edge67" class="edge"><title>deVuelta0&#45;&gt;deVuelta9</title>
<path fill="none" stroke="black" d="M1255.57,-722.834C1265.75,-712.938 1279.52,-699.546 1291.03,-688.359"/>
<polygon fill="black" stroke="black" points="1293.47,-690.865 1298.2,-681.385 1288.59,-685.846 1293.47,-690.865"/>
</g>
<!-- deVuelta2 -->
<g id="node40" class="node"><title>deVuelta2</title>
<ellipse fill="none" stroke="black" cx="1238" cy="-594" rx="27" ry="18"/>
</g>
<!-- deVuelta1&#45;&gt;deVuelta2 -->
<g id="edge36" class="edge"><title>deVuelta1&#45;&gt;deVuelta2</title>
<path fill="none" stroke="black" d="M1240.26,-647.697C1239.93,-639.983 1239.53,-630.712 1239.16,-622.112"/>
<polygon fill="black" stroke="black" points="1242.66,-621.945 1238.73,-612.104 1235.66,-622.245 1242.66,-621.945"/>
</g>
<!-- deVuelta6 -->
<g id="node44" class="node"><title>deVuelta6</title>
<ellipse fill="none" stroke="black" cx="1310" cy="-594" rx="27" ry="18"/>
</g>
<!-- deVuelta1&#45;&gt;deVuelta6 -->
<g id="edge37" class="edge"><title>deVuelta1&#45;&gt;deVuelta6</title>
<path fill="none" stroke="black" d="M1255.3,-650.496C1264.92,-640.735 1277.78,-627.69 1288.61,-616.7"/>
<polygon fill="black" stroke="black" points="1291.19,-619.064 1295.72,-609.485 1286.21,-614.15 1291.19,-619.064"/>
</g>
<!-- deVuelta3 -->
<g id="node41" class="node"><title>deVuelta3</title>
<ellipse fill="none" stroke="black" cx="1183" cy="-522" rx="27" ry="18"/>
</g>
<!-- deVuelta2&#45;&gt;deVuelta3 -->
<g id="edge38" class="edge"><title>deVuelta2&#45;&gt;deVuelta3</title>
<path fill="none" stroke="black" d="M1226.07,-577.811C1218.79,-568.546 1209.34,-556.52 1201.15,-546.094"/>
<polygon fill="black" stroke="black" points="1203.84,-543.86 1194.91,-538.159 1198.34,-548.185 1203.84,-543.86"/>
</g>
<!-- deVuelta4 -->
<g id="node42" class="node"><title>deVuelta4</title>
<ellipse fill="none" stroke="black" cx="1255" cy="-522" rx="27" ry="18"/>
</g>
<!-- deVuelta2&#45;&gt;deVuelta4 -->
<g id="edge39" class="edge"><title>deVuelta2&#45;&gt;deVuelta4</title>
<path fill="none" stroke="black" d="M1242.12,-576.055C1244.01,-568.261 1246.3,-558.822 1248.42,-550.079"/>
<polygon fill="black" stroke="black" points="1251.85,-550.819 1250.8,-540.275 1245.04,-549.167 1251.85,-550.819"/>
</g>
<!-- deVuelta5 -->
<g id="node43" class="node"><title>deVuelta5</title>
<ellipse fill="none" stroke="black" cx="1282" cy="-450" rx="27" ry="18"/>
</g>
<!-- deVuelta4&#45;&gt;deVuelta5 -->
<g id="edge40" class="edge"><title>deVuelta4&#45;&gt;deVuelta5</title>
<path fill="none" stroke="black" d="M1261.4,-504.411C1264.51,-496.335 1268.33,-486.431 1271.83,-477.355"/>
<polygon fill="black" stroke="black" points="1275.13,-478.546 1275.46,-467.956 1268.6,-476.027 1275.13,-478.546"/>
</g>
<!-- deVuelta7 -->
<g id="node45" class="node"><title>deVuelta7</title>
<ellipse fill="none" stroke="black" cx="1282" cy="-378" rx="27" ry="18"/>
</g>
<!-- deVuelta5&#45;&gt;deVuelta7 -->
<g id="edge41" class="edge"><title>deVuelta5&#45;&gt;deVuelta7</title>
<path fill="none" stroke="black" d="M1282,-431.697C1282,-423.983 1282,-414.712 1282,-406.112"/>
<polygon fill="black" stroke="black" points="1285.5,-406.104 1282,-396.104 1278.5,-406.104 1285.5,-406.104"/>
</g>
<!-- deVuelta6&#45;&gt;deVuelta5 -->
<g id="edge42" class="edge"><title>deVuelta6&#45;&gt;deVuelta5</title>
<path fill="none" stroke="black" d="M1306.62,-575.871C1301.83,-551.564 1293.01,-506.819 1287.33,-478.013"/>
<polygon fill="black" stroke="black" points="1290.76,-477.323 1285.39,-468.189 1283.89,-478.677 1290.76,-477.323"/>
</g>
<!-- deVuelta8 -->
<g id="node46" class="node"><title>deVuelta8</title>
<ellipse fill="none" stroke="black" cx="1313" cy="-738" rx="27" ry="18"/>
</g>
<!-- deVuelta8&#45;&gt;deVuelta9 -->
<g id="edge43" class="edge"><title>deVuelta8&#45;&gt;deVuelta9</title>
<path fill="none" stroke="black" d="M1313,-719.697C1313,-711.983 1313,-702.712 1313,-694.112"/>
<polygon fill="black" stroke="black" points="1316.5,-694.104 1313,-684.104 1309.5,-694.104 1316.5,-694.104"/>
</g>
<!-- main0 -->
<g id="node48" class="node"><title>main0</title>
<ellipse fill="none" stroke="black" cx="1412" cy="-738" rx="27" ry="18"/>
</g>
<!-- main1 -->
<g id="node49" class="node"><title>main1</title>
<ellipse fill="none" stroke="black" cx="1385" cy="-666" rx="27" ry="18"/>
</g>
<!-- main0&#45;&gt;main1 -->
<g id="edge44" class="edge"><title>main0&#45;&gt;main1</title>
<path fill="none" stroke="black" d="M1405.6,-720.411C1402.49,-712.335 1398.67,-702.431 1395.17,-693.355"/>
<polygon fill="black" stroke="black" points="1398.4,-692.027 1391.54,-683.956 1391.87,-694.546 1398.4,-692.027"/>
</g>
<!-- main2 -->
<g id="node50" class="node"><title>main2</title>
<ellipse fill="none" stroke="black" cx="1412" cy="-594" rx="27" ry="18"/>
</g>
<!-- main0&#45;&gt;main2 -->
<g id="edge64" class="edge"><title>main0&#45;&gt;main2</title>
<path fill="none" stroke="black" d="M1415.65,-719.908C1417.68,-709.569 1419.98,-696.09 1421,-684 1422.34,-668.057 1422.34,-663.943 1421,-648 1420.28,-639.499 1418.93,-630.312 1417.49,-622.012"/>
<polygon fill="black" stroke="black" points="1420.91,-621.289 1415.65,-612.092 1414.03,-622.562 1420.91,-621.289"/>
</g>
<!-- main1&#45;&gt;main2 -->
<g id="edge45" class="edge"><title>main1&#45;&gt;main2</title>
<path fill="none" stroke="black" d="M1391.4,-648.411C1394.51,-640.335 1398.33,-630.431 1401.83,-621.355"/>
<polygon fill="black" stroke="black" points="1405.13,-622.546 1405.46,-611.956 1398.6,-620.027 1405.13,-622.546"/>
</g>
</g>
</svg>
