<?xml version="1.0" encoding="UTF-8" standalone="no"?>
<!DOCTYPE svg PUBLIC "-//W3C//DTD SVG 1.1//EN"
 "http://www.w3.org/Graphics/SVG/1.1/DTD/svg11.dtd">
<!-- Generated by graphviz version 2.38.0 (20140413.2041)
 -->
<!-- Title: Grafo Pages: 1 -->
<svg width="134pt" height="548pt"
 viewBox="0.00 0.00 134.00 548.00" xmlns="http://www.w3.org/2000/svg" xmlns:xlink="http://www.w3.org/1999/xlink">
<g id="graph0" class="graph" transform="scale(1 1) rotate(0) translate(4 544)">
<title>Grafo</title>
<polygon fill="white" stroke="none" points="-4,4 -4,-544 130,-544 130,4 -4,4"/>
<!-- 0 -->
<g id="node1" class="node"><title>0</title>
<ellipse fill="red" stroke="black" cx="63" cy="-522" rx="27" ry="18"/>
</g>
<!-- 1 -->
<g id="node2" class="node"><title>1</title>
<ellipse fill="none" stroke="black" cx="63" cy="-450" rx="27" ry="18"/>
</g>
<!-- 0&#45;&gt;1 -->
<g id="edge1" class="edge"><title>0&#45;&gt;1</title>
<path fill="none" stroke="black" d="M63,-503.697C63,-495.983 63,-486.712 63,-478.112"/>
<polygon fill="black" stroke="black" points="66.5001,-478.104 63,-468.104 59.5001,-478.104 66.5001,-478.104"/>
</g>
<!-- 2 -->
<g id="node3" class="node"><title>2</title>
<ellipse fill="none" stroke="black" cx="63" cy="-378" rx="27" ry="18"/>
</g>
<!-- 1&#45;&gt;2 -->
<g id="edge2" class="edge"><title>1&#45;&gt;2</title>
<path fill="none" stroke="black" d="M63,-431.697C63,-423.983 63,-414.712 63,-406.112"/>
<polygon fill="black" stroke="black" points="66.5001,-406.104 63,-396.104 59.5001,-406.104 66.5001,-406.104"/>
</g>
<!-- 3 -->
<g id="node4" class="node"><title>3</title>
<ellipse fill="none" stroke="black" cx="27" cy="-306" rx="27" ry="18"/>
</g>
<!-- 2&#45;&gt;3 -->
<g id="edge3" class="edge"><title>2&#45;&gt;3</title>
<path fill="none" stroke="black" d="M54.6504,-360.765C50.2885,-352.283 44.8531,-341.714 39.9587,-332.197"/>
<polygon fill="black" stroke="black" points="42.9904,-330.439 35.3043,-323.147 36.7654,-333.641 42.9904,-330.439"/>
</g>
<!-- 6 -->
<g id="node7" class="node"><title>6</title>
<ellipse fill="none" stroke="black" cx="99" cy="-306" rx="27" ry="18"/>
</g>
<!-- 2&#45;&gt;6 -->
<g id="edge4" class="edge"><title>2&#45;&gt;6</title>
<path fill="none" stroke="black" d="M71.3496,-360.765C75.7115,-352.283 81.1469,-341.714 86.0413,-332.197"/>
<polygon fill="black" stroke="black" points="89.2346,-333.641 90.6957,-323.147 83.0096,-330.439 89.2346,-333.641"/>
</g>
<!-- 4 -->
<g id="node5" class="node"><title>4</title>
<ellipse fill="none" stroke="black" cx="27" cy="-234" rx="27" ry="18"/>
</g>
<!-- 3&#45;&gt;4 -->
<g id="edge5" class="edge"><title>3&#45;&gt;4</title>
<path fill="none" stroke="black" d="M27,-287.697C27,-279.983 27,-270.712 27,-262.112"/>
<polygon fill="black" stroke="black" points="30.5001,-262.104 27,-252.104 23.5001,-262.104 30.5001,-262.104"/>
</g>
<!-- 5 -->
<g id="node6" class="node"><title>5</title>
<ellipse fill="none" stroke="black" cx="63" cy="-162" rx="27" ry="18"/>
</g>
<!-- 4&#45;&gt;5 -->
<g id="edge6" class="edge"><title>4&#45;&gt;5</title>
<path fill="none" stroke="black" d="M35.3496,-216.765C39.7115,-208.283 45.1469,-197.714 50.0413,-188.197"/>
<polygon fill="black" stroke="black" points="53.2346,-189.641 54.6957,-179.147 47.0096,-186.439 53.2346,-189.641"/>
</g>
<!-- 8 -->
<g id="node9" class="node"><title>8</title>
<ellipse fill="none" stroke="black" cx="63" cy="-90" rx="27" ry="18"/>
</g>
<!-- 5&#45;&gt;8 -->
<g id="edge7" class="edge"><title>5&#45;&gt;8</title>
<path fill="none" stroke="black" d="M63,-143.697C63,-135.983 63,-126.712 63,-118.112"/>
<polygon fill="black" stroke="black" points="66.5001,-118.104 63,-108.104 59.5001,-118.104 66.5001,-118.104"/>
</g>
<!-- 7 -->
<g id="node8" class="node"><title>7</title>
<ellipse fill="none" stroke="black" cx="99" cy="-234" rx="27" ry="18"/>
</g>
<!-- 6&#45;&gt;7 -->
<g id="edge8" class="edge"><title>6&#45;&gt;7</title>
<path fill="none" stroke="black" d="M99,-287.697C99,-279.983 99,-270.712 99,-262.112"/>
<polygon fill="black" stroke="black" points="102.5,-262.104 99,-252.104 95.5001,-262.104 102.5,-262.104"/>
</g>
<!-- 7&#45;&gt;5 -->
<g id="edge9" class="edge"><title>7&#45;&gt;5</title>
<path fill="none" stroke="black" d="M90.6504,-216.765C86.2885,-208.283 80.8531,-197.714 75.9587,-188.197"/>
<polygon fill="black" stroke="black" points="78.9904,-186.439 71.3043,-179.147 72.7654,-189.641 78.9904,-186.439"/>
</g>
<!-- 9 -->
<g id="node10" class="node"><title>9</title>
<ellipse fill="blue" stroke="black" cx="63" cy="-18" rx="27" ry="18"/>
</g>
<!-- 8&#45;&gt;9 -->
<g id="edge10" class="edge"><title>8&#45;&gt;9</title>
<path fill="none" stroke="black" d="M63,-71.6966C63,-63.9827 63,-54.7125 63,-46.1124"/>
<polygon fill="black" stroke="black" points="66.5001,-46.1043 63,-36.1043 59.5001,-46.1044 66.5001,-46.1043"/>
</g>
</g>
</svg>
